<svg width="63" height="21" viewBox="0 0 63 21" fill="none" xmlns="http://www.w3.org/2000/svg"><g clip-path="url(#clip0_854_10758)" fill="#595959"><path fill-rule="evenodd" clip-rule="evenodd" d="M62.052 12.16c-.42-.757-1.243-1.008-2.175-1.008h-.233c-1.18 0-2.02.504-2.02 1.497.016.945.467 1.291 1.679 1.417l1.227.126c1.646.174 2.47.536 2.47 1.97 0 1.544-1.212 2.19-2.936 2.19-1.585 0-2.58-.268-3.185-1.26-.093-.143-.078-.221.155-.379.249-.157.327-.142.42.016.42.772 1.258 1.009 2.408 1.009h.31c1.244 0 2.098-.505 2.098-1.497-.016-.946-.466-1.276-1.771-1.403l-1.212-.125c-1.584-.174-2.393-.552-2.393-1.986 0-1.544 1.212-2.19 2.86-2.19 1.273 0 2.282.268 2.873 1.26.093.143.078.237-.155.379-.249.173-.326.142-.42-.016zm-7.13-2.694c-.218 0-.342-.063-.404-.126-.093-.095-.124-.221-.124-.394 0-.173.03-.284.124-.394.062-.063.186-.11.404-.11.218 0 .342.047.404.11.093.11.124.22.124.394 0 .173-.031.3-.124.394-.062.063-.186.126-.404.126zm-2.547 8.791c-.295 0-.342-.063-.342-.236v-3.45c0-1.86-.17-2.442-.528-2.805-.357-.363-.995-.552-2.098-.552h-.264c-1.103 0-1.74.19-2.097.552-.358.363-.528.945-.528 2.805v3.45c0 .173-.047.236-.342.236-.295 0-.342-.063-.342-.236v-3.655c0-1.466.171-2.364.544-2.868.544-.709 1.507-.945 2.89-.945 1.382 0 2.361.236 2.905.945.372.505.544 1.402.544 2.868v3.655c0 .173-.047.236-.342.236zm-8.73 0c-.311 0-.358-.063-.358-.236v-3.45c0-1.86-.155-2.442-.465-2.805-.312-.363-.87-.552-1.85-.552h-.248c-1.212 0-2.082.332-2.082 1.277v5.53c0 .173-.047.236-.342.236-.295 0-.357-.063-.357-.236v-5.53c0-.945-.87-1.277-2.082-1.277h-.233c-.978 0-1.538.19-1.864.552-.31.363-.466.945-.466 2.805v3.45c0 .173-.047.236-.342.236-.295 0-.342-.063-.342-.236v-3.655c0-1.466.155-2.364.497-2.868.498-.709 1.368-.945 2.626-.945 1.212 0 2.128.22 2.563.93.42-.71 1.352-.93 2.548-.93 1.258 0 2.129.236 2.641.945.342.505.498 1.402.498 2.868v3.655c0 .173-.047.236-.343.236zm-16.406.095c-1.32 0-2.361-.315-2.89-.93-.558-.646-.87-1.686-.87-2.978 0-1.276.312-2.316.87-2.962.529-.63 1.57-.945 2.89-.945 1.305 0 2.346.315 2.874.945.56.647.87 1.687.87 2.962 0 1.292-.31 2.332-.87 2.978-.528.615-1.569.93-2.874.93zm2.315-6.46c-.326-.394-1.103-.724-2.19-.724h-.265c-1.087 0-1.864.33-2.175.724-.403.473-.714 1.277-.714 2.552 0 1.292.31 2.08.714 2.553.311.41 1.088.74 2.175.74h.265c1.087 0 1.864-.33 2.19-.74.389-.473.7-1.26.7-2.553 0-1.276-.312-2.08-.7-2.552zm-18.49.554c-.612 0-.76-.345-.76-1.223 0-.878.148-1.224.76-1.224s.76.346.76 1.223c0 .879-.148 1.224-.76 1.224zm43.858-1.814c.295 0 .342.079.342.236v7.153c0 .173-.047.236-.342.236-.295 0-.342-.063-.342-.236v-7.153c0-.158.047-.236.342-.236z"/><path d="M18.306 20.998c-.967 0-1.716-.236-2.864-.904a19.62 19.62 0 01-2.564-1.772.476.476 0 01.074-.784c2.774-1.5 3.2-1.73 1.167-5.947-1.21-2.51-1.555-3.003-2.796-3.003-.816 0-1.462.283-1.92.84-.667.812-.89 2.148-.616 3.668a.473.473 0 01-.374.55.468.468 0 01-.543-.38c-.325-1.796-.027-3.415.817-4.443.634-.772 1.545-1.18 2.636-1.18 1.931 0 2.5 1.18 3.633 3.532 2.159 4.477 1.632 5.4-.935 6.85.588.443 1.22.862 1.886 1.25 1.13.658 1.695.779 2.399.779.723 0 1.587-.23 1.587-1.327 0-.993-.32-3.351-2.454-7.993-1.777-3.867-2.877-4.985-4.905-4.985-1.065 0-1.806.235-2.969.73a.459.459 0 01-.37-.004.471.471 0 01-.25-.277c-.106-.312-.2-.597-.286-.86-.514-1.56-.749-2.273-1.71-3.229-.85-.845-3.523-1.437-5.96-1.04-.31 2.322.673 5.149 1.524 5.934.937.865 2.023 1.22 4.3 1.402a.47.47 0 01.427.508.471.471 0 01-.5.434c-2.131-.17-3.608-.494-4.855-1.645C.685 6.595-.368 3.168.125.574A.47.47 0 01.49.199C3.138-.33 6.394.233 7.6 1.434c1.122 1.116 1.413 2 1.942 3.605l.124.377c.887-.358 1.728-.612 2.867-.612 2.729 0 4.028 1.783 5.75 5.53 2.1 4.567 2.54 7.085 2.54 8.393 0 1.401-.965 2.271-2.518 2.271zm.282-11.96c1.878-.15 3.182-.437 4.287-1.456 1.062-.98 1.995-4.01 1.561-6.301a.468.468 0 00-.367-.375c-2.335-.468-5.213.034-6.282 1.098-.883.878-1.176 1.561-1.592 2.808a.474.474 0 00.292.599.465.465 0 00.59-.297c.385-1.15.616-1.693 1.362-2.435.73-.725 3.023-1.234 5.132-.902.25 2.009-.593 4.431-1.324 5.106-.81.748-1.752 1.054-3.733 1.213a.47.47 0 00-.427.508.468.468 0 00.5.434z"/></g><defs><clipPath id="clip0_854_10758"><path fill="#fff" d="M0 0h63v21H0z"/></clipPath></defs></svg>