<svg width="66" height="22" viewBox="0 0 66 22" fill="none" xmlns="http://www.w3.org/2000/svg"><g clip-path="url(#clip0_4586_5430)"><path fill-rule="evenodd" clip-rule="evenodd" d="M65.007 12.74c-.44-.794-1.302-1.058-2.278-1.058h-.244c-1.237 0-2.116.528-2.116 1.569.016.99.488 1.353 1.758 1.485l1.285.132c1.725.182 2.588.562 2.588 2.063 0 1.618-1.27 2.294-3.076 2.294-1.66 0-2.702-.28-3.336-1.32-.098-.149-.082-.23.162-.396.26-.165.342-.149.44.017.44.808 1.318 1.056 2.523 1.056h.325c1.302 0 2.197-.528 2.197-1.568-.016-.99-.488-1.337-1.855-1.47l-1.27-.13c-1.66-.183-2.506-.579-2.506-2.08 0-1.618 1.27-2.295 2.995-2.295 1.334 0 2.392.28 3.01 1.32.098.149.082.248-.162.396-.26.182-.342.149-.44-.016zm-7.47-2.824c-.228 0-.358-.066-.423-.132-.098-.099-.13-.231-.13-.412 0-.182.032-.297.13-.413.065-.066.195-.115.423-.115.229 0 .358.049.424.115.097.116.13.231.13.413 0 .181-.033.313-.13.412-.066.066-.195.132-.424.132zm-2.668 9.21c-.31 0-.358-.065-.358-.247v-3.615c0-1.947-.18-2.558-.554-2.938-.374-.38-1.041-.578-2.197-.578h-.277c-1.155 0-1.822.198-2.196.578-.375.38-.554.99-.554 2.938v3.615c0 .182-.049.248-.358.248-.31 0-.358-.066-.358-.248v-3.83c0-1.534.179-2.475.57-3.003.57-.743 1.578-.99 3.027-.99 1.448 0 2.474.247 3.043.99.39.528.57 1.469.57 3.004v3.829c0 .182-.049.248-.358.248zm-9.146 0c-.326 0-.374-.065-.374-.247v-3.615c0-1.947-.163-2.558-.488-2.938-.326-.38-.912-.578-1.937-.578h-.26c-1.27 0-2.182.347-2.182 1.338v5.793c0 .182-.048.248-.358.248-.309 0-.374-.066-.374-.248v-5.794c0-.99-.912-1.337-2.18-1.337h-.245c-1.026 0-1.612.198-1.953.578-.326.38-.488.99-.488 2.938v3.615c0 .182-.05.248-.358.248-.31 0-.359-.066-.359-.248v-3.83c0-1.534.163-2.475.521-3.003.521-.743 1.433-.99 2.75-.99 1.27 0 2.23.23 2.686.973.44-.743 1.416-.974 2.67-.974 1.318 0 2.23.248 2.766.99.358.529.521 1.47.521 3.005v3.829c0 .182-.049.248-.358.248zm-17.186.1c-1.384 0-2.474-.33-3.028-.974-.585-.677-.911-1.766-.911-3.12 0-1.337.326-2.426.911-3.103.554-.66 1.644-.99 3.028-.99 1.367 0 2.457.33 3.01.99.586.677.912 1.766.912 3.103 0 1.354-.326 2.443-.912 3.12-.553.643-1.643.974-3.01.974zm2.425-6.768c-.342-.412-1.156-.759-2.295-.759h-.277c-1.14 0-1.953.347-2.279.76-.422.495-.748 1.336-.748 2.673 0 1.354.326 2.18.748 2.674.326.43 1.14.776 2.279.776h.277c1.14 0 1.953-.347 2.295-.776.406-.495.732-1.32.732-2.674 0-1.337-.326-2.178-.732-2.674zm-19.371.58c-.641 0-.797-.361-.797-1.281 0-.92.156-1.282.797-1.282.64 0 .797.362.797 1.282s-.156 1.282-.797 1.282zm45.946-1.9c.31 0 .358.082.358.247v7.494c0 .182-.048.248-.358.248-.309 0-.358-.066-.358-.248v-7.494c0-.165.049-.247.358-.247z" fill="#54747D"/><path fill-rule="evenodd" clip-rule="evenodd" d="M19.177 21.998c-1.013 0-1.797-.248-3-.947a20.551 20.551 0 01-2.686-1.856.498.498 0 01.078-.822c2.906-1.572 3.352-1.813 1.222-6.23-1.267-2.63-1.629-3.146-2.93-3.146-.854 0-1.531.297-2.01.88-.699.85-.934 2.25-.645 3.842a.495.495 0 01-.393.577.49.49 0 01-.568-.398c-.34-1.881-.03-3.578.855-4.655.664-.808 1.62-1.236 2.761-1.236 2.024 0 2.62 1.237 3.807 3.7 2.262 4.69 1.71 5.656-.98 7.176a20.05 20.05 0 001.976 1.31c1.185.69 1.776.815 2.513.815.758 0 1.663-.24 1.663-1.39 0-1.04-.334-3.51-2.57-8.373-1.862-4.05-3.015-5.222-5.14-5.222-1.115 0-1.892.246-3.11.765a.48.48 0 01-.388-.005.493.493 0 01-.262-.29l-.3-.9C8.533 3.956 8.287 3.21 7.28 2.21 6.39 1.325 3.59.704 1.036 1.12c-.324 2.433.705 5.394 1.598 6.217.981.906 2.118 1.277 4.504 1.468.269.022.47.26.448.533a.494.494 0 01-.525.454c-2.232-.179-3.78-.518-5.085-1.723C.717 6.91-.386 3.32.13.601A.492.492 0 01.514.209c2.773-.557 6.184.035 7.449 1.294 1.175 1.168 1.48 2.094 2.034 3.776l.13.394c.93-.375 1.81-.64 3.004-.64 2.858 0 4.22 1.868 6.023 5.793 2.2 4.784 2.662 7.422 2.662 8.793 0 1.468-1.011 2.38-2.639 2.38zm.296-12.53c1.968-.157 3.334-.457 4.49-1.525 1.113-1.027 2.091-4.2 1.637-6.601a.49.49 0 00-.385-.392c-2.447-.491-5.461.035-6.581 1.15-.926.92-1.232 1.635-1.668 2.94-.087.26.05.54.306.628a.487.487 0 00.619-.31c.402-1.205.644-1.774 1.426-2.551.764-.76 3.167-1.293 5.376-.945.263 2.104-.62 4.642-1.387 5.35-.849.782-1.835 1.103-3.91 1.27a.493.493 0 00-.448.532.49.49 0 00.525.455z" fill="#00FEB7"/><path d="M19.177 21.998c-1.013 0-1.797-.248-3-.947a20.551 20.551 0 01-2.686-1.856.498.498 0 01.078-.822c2.906-1.572 3.352-1.813 1.222-6.23-1.267-2.63-1.629-3.146-2.93-3.146-.854 0-1.531.297-2.01.88-.699.85-.934 2.25-.645 3.842a.495.495 0 01-.393.577.49.49 0 01-.568-.398c-.34-1.881-.03-3.578.855-4.655.664-.808 1.62-1.236 2.761-1.236 2.024 0 2.62 1.237 3.807 3.7 2.262 4.69 1.71 5.656-.98 7.176a20.05 20.05 0 001.976 1.31c1.185.69 1.776.815 2.513.815.758 0 1.663-.24 1.663-1.39 0-1.04-.334-3.51-2.57-8.373-1.862-4.05-3.015-5.222-5.14-5.222-1.115 0-1.892.246-3.11.765a.48.48 0 01-.388-.005.493.493 0 01-.262-.29l-.3-.9C8.533 3.956 8.287 3.21 7.28 2.21 6.39 1.325 3.59.704 1.036 1.12c-.324 2.433.705 5.394 1.598 6.217.981.906 2.118 1.277 4.504 1.468.269.022.47.26.448.533a.494.494 0 01-.525.454c-2.232-.179-3.78-.518-5.085-1.723C.717 6.91-.386 3.32.13.601A.492.492 0 01.514.209c2.773-.557 6.184.035 7.449 1.294 1.175 1.168 1.48 2.094 2.034 3.776l.13.394c.93-.375 1.81-.64 3.004-.64 2.858 0 4.22 1.868 6.023 5.793 2.2 4.784 2.662 7.422 2.662 8.793 0 1.468-1.011 2.38-2.639 2.38zm.296-12.53c1.968-.157 3.334-.457 4.49-1.525 1.113-1.027 2.091-4.2 1.637-6.601a.49.49 0 00-.385-.392c-2.447-.491-5.461.035-6.581 1.15-.926.92-1.232 1.635-1.668 2.94-.087.26.05.54.306.628a.487.487 0 00.619-.31c.402-1.205.644-1.774 1.426-2.551.764-.76 3.167-1.293 5.376-.945.263 2.104-.62 4.642-1.387 5.35-.849.782-1.835 1.103-3.91 1.27a.493.493 0 00-.448.532.49.49 0 00.525.455z" fill="#54747D"/></g><defs><clipPath id="clip0_4586_5430"><path fill="#fff" d="M0 0h66v22H0z"/></clipPath></defs></svg>