<svg width="177" height="176" viewBox="0 0 177 176" fill="none" xmlns="http://www.w3.org/2000/svg"><g clip-path="url(#clip0_1366_24283)"><rect x=".5" width="176" height="176" rx="4" fill="#FAFAFA"/><path d="M74.876 74h-5.133V58.53l.068-1.768c.022-.612.045-1.156.067-1.632-.113.136-.362.385-.748.748-.362.34-.702.646-1.02.918l-2.787 2.244-2.482-3.094 7.82-6.222h4.215V74zm18.438 0H88.18V58.53c.022-.567.045-1.156.067-1.768.023-.612.046-1.156.069-1.632-.114.136-.363.385-.749.748-.362.34-.702.646-1.02.918L83.76 59.04l-2.483-3.094 7.82-6.222h4.217V74zm22.721 0H99.069v-3.57l6.086-6.154c1.224-1.27 2.21-2.323 2.958-3.162.748-.861 1.292-1.632 1.632-2.312.34-.703.51-1.45.51-2.244 0-.975-.272-1.7-.816-2.176-.522-.476-1.236-.714-2.142-.714-.93 0-1.836.215-2.72.646-.884.43-1.814 1.043-2.788 1.836l-2.788-3.298a22.852 22.852 0 012.21-1.7c.793-.521 1.7-.94 2.72-1.258 1.042-.34 2.289-.51 3.74-.51 1.586 0 2.946.295 4.08.884 1.156.567 2.04 1.349 2.652 2.346.634.975.952 2.085.952 3.332 0 1.02-.159 1.96-.476 2.822a9.634 9.634 0 01-1.326 2.516c-.567.793-1.27 1.62-2.108 2.482-.839.839-1.791 1.757-2.856 2.754l-3.128 2.924v.238h10.574V74z" fill="#111"/><path d="M73.614 96v-1.75h2.492c.616 0 1.069-.21 1.358-.63.299-.42.448-1.008.448-1.764 0-.812-.149-1.437-.448-1.876-.289-.448-.742-.672-1.358-.672h-2.492l.224-1.75h2.268c1.298 0 2.282.378 2.954 1.134.682.747 1.022 1.801 1.022 3.164 0 1.316-.34 2.338-1.022 3.066-.672.719-1.656 1.078-2.954 1.078h-2.492zm7.117-4.592c.084-.299.159-.616.224-.952a25.883 25.883 0 00.378-2.002c.056-.327.098-.625.126-.896h1.848l.084.154a40.87 40.87 0 01-.7 2.52c-.14.448-.29.84-.448 1.176H80.73zm3.108 0c.112-.401.21-.83.294-1.288.093-.457.177-.905.252-1.344.084-.448.144-.854.182-1.218h1.848l.07.154a23.97 23.97 0 01-.294 1.19 40.87 40.87 0 01-.392 1.33c-.14.448-.29.84-.448 1.176h-1.512zM93.042 96v-5.432c0-.42-.108-.733-.323-.938-.205-.215-.499-.322-.881-.322h-4.354l.238-1.75h4.228c1.063 0 1.866.252 2.407.756.542.495.813 1.232.813 2.212V96h-2.13zm-5.377 0v-4.55l2.128-.112V96h-2.128zm13.219.126c-1.334 0-2.338-.336-3.01-1.008-.662-.681-.994-1.643-.994-2.884v-.126c0-.653.112-1.218.336-1.694.234-.476.523-.817.868-1.022v-.196l1.806-.042-.07.182c-.298.121-.513.387-.644.798-.121.41-.182.924-.182 1.54 0 .887.145 1.568.434 2.044.299.476.784.714 1.456.714.682 0 1.172-.257 1.47-.77.299-.513.448-1.246.448-2.198 0-.69-.116-1.223-.35-1.596-.224-.373-.639-.56-1.246-.56H96.53l.224-1.75h4.466c1.27 0 2.203.34 2.8 1.022.607.681.91 1.647.91 2.898 0 1.475-.34 2.618-1.022 3.43-.672.812-1.68 1.218-3.024 1.218z" fill="#000"/><path d="M22.456 17.995V27a1 1 0 001 1h.088a1 1 0 001-1v-9.005l3.773 3.774a1 1 0 001.414 0l.062-.062a1 1 0 000-1.414l-5.586-5.586a1 1 0 00-1.414 0l-5.586 5.586a1 1 0 000 1.414l.062.062a1 1 0 001.414 0l3.773-3.774z" fill="#C7A77F"/><path d="M30.5 22.414h0a2 2 0 000-2.828L24.914 14a2 2 0 00-2.828 0L16.5 19.586a2 2 0 000 2.828l.062.062a2 2 0 002.828 0l2.066-2.067V27a2 2 0 002 2h.088a2 2 0 002-2v-6.59l2.066 2.066a2 2 0 002.828 0s0 0 0 0l.062-.062z" stroke="#C69F7C" stroke-opacity=".2" stroke-width="2"/><path d="M22.456 17.995V27a1 1 0 001 1h.088a1 1 0 001-1v-9.005l3.773 3.774a1 1 0 001.414 0l.062-.062a1 1 0 000-1.414l-5.586-5.586a1 1 0 00-1.414 0l-5.586 5.586a1 1 0 000 1.414l.062.062a1 1 0 001.414 0l3.773-3.774z" fill="#C7A77F"/><path d="M44.023 26h-6.986v-1.47l2.506-2.534c.504-.523.91-.957 1.218-1.302.308-.355.532-.672.672-.952.14-.29.21-.597.21-.924 0-.401-.112-.7-.336-.896-.215-.196-.51-.294-.882-.294a2.53 2.53 0 00-1.12.266c-.364.177-.747.43-1.148.756l-1.148-1.358c.289-.252.592-.485.91-.7.326-.215.7-.387 1.12-.518.429-.14.942-.21 1.54-.21.653 0 1.213.121 1.68.364.476.233.84.555 1.092.966.26.401.392.859.392 1.372a3.39 3.39 0 01-.336 1.512c-.215.457-.532.91-.952 1.358-.411.448-.91.943-1.498 1.484l-1.288 1.204v.098h4.354V26zm4.665-6.384c.607 0 1.148.117 1.624.35.476.233.85.574 1.12 1.022.28.448.42 1.003.42 1.666 0 1.083-.336 1.937-1.008 2.562-.672.616-1.666.924-2.982.924a7.56 7.56 0 01-1.484-.14 4.674 4.674 0 01-1.204-.406v-1.82c.346.177.76.331 1.246.462a5.69 5.69 0 001.372.182c.626 0 1.102-.126 1.428-.378.336-.261.504-.663.504-1.204 0-1.008-.667-1.512-2.002-1.512a4.14 4.14 0 00-.812.084c-.28.047-.513.093-.7.14l-.84-.448.378-5.096h5.418v1.792h-3.57l-.182 1.96c.159-.028.327-.056.504-.084a4.13 4.13 0 01.77-.056zm10.238-2.184L55.734 26h-1.032l3.192-8.568h1.032zM64.543 26v-4.776c0-.424-.104-.74-.312-.948-.2-.216-.504-.324-.912-.324h-3.636l.144-1.116h3.576c.816 0 1.432.2 1.848.6.424.392.636.976.636 1.752V26h-1.344zm-4.692 0v-3.996l1.344-.096V26H59.85zm8.114-3.108v-4.056h1.344v4.056h-1.344zm-1.044-2.94l.144-1.116h1.668v1.116H66.92zm4.723 2.94v-4.056h1.344v4.056h-1.344zm-1.044-2.94l.145-1.116h1.667v1.116H70.6zm4.94-1.116h4.284l-.12.828L77.556 26h-1.392l2.088-6.048h-4.056v-2.928l1.344-.144v1.956zm5.126 7.596l-.012-1.104 2.58-.552c.328-.08.624-.188.888-.324.264-.144.488-.356.672-.636.192-.28.348-.66.468-1.14.12-.488.2-1.112.24-1.872l.132-1.968h1.344l-.132 1.98a13.244 13.244 0 01-.18 1.644c-.088.48-.22.908-.396 1.284a3.372 3.372 0 01-.66.984 3.686 3.686 0 01-.996.696c-.384.192-.84.344-1.368.456l-2.58.552zm1.824-.996l-1.488-6.504 1.308-.168 1.116 4.872c.04.192.048.396.024.612a2.203 2.203 0 01-.144.624c-.072.2-.172.388-.3.564h-.516z" fill="#8A8A8A"/><path d="M117.928 26v-5.432c0-.42-.103-.733-.308-.938-.205-.215-.504-.322-.896-.322h-3.906v-1.75h4.018c1.064 0 1.867.252 2.408.756.541.495.812 1.232.812 2.212V26h-2.128zm-6.608 0l.224-1.75h.504a.855.855 0 00.434-.098.676.676 0 00.252-.322 1.4 1.4 0 00.084-.518v-5.348h2.128v5.292c0 .896-.21 1.577-.63 2.044-.411.467-1.022.7-1.834.7h-1.162zm.21-6.692l.238-1.75h2.24v1.75h-2.478zM122.586 26v-8.442h2.128V26h-2.128zm-1.148-6.692l.238-1.75h2.31v1.75h-2.548zM130.242 26v-5.432c0-.42-.103-.733-.308-.938-.205-.215-.504-.322-.896-.322h-2.856l.224-1.75h2.744c1.064 0 1.867.252 2.408.756.541.495.812 1.232.812 2.212V26h-2.128zm3.472 0v-1.75h2.492c.616 0 1.069-.21 1.358-.63.299-.42.448-1.008.448-1.764 0-.812-.149-1.437-.448-1.876-.289-.448-.742-.672-1.358-.672h-2.492l.224-1.75h2.268c1.297 0 2.282.378 2.954 1.134.681.747 1.022 1.801 1.022 3.164 0 1.316-.341 2.338-1.022 3.066-.672.719-1.657 1.078-2.954 1.078h-2.492zm12.054.098c-.971 0-1.806-.191-2.506-.574-.7-.383-1.237-.952-1.61-1.708-.374-.756-.56-1.708-.56-2.856v-3.402h2.114v3.388c0 .812.098 1.475.294 1.988.196.504.48.877.854 1.12.382.233.84.35 1.372.35h.056c.55-.01 1.012-.13 1.386-.364.382-.233.672-.602.868-1.106.196-.513.294-1.171.294-1.974v-3.402h2.128v3.416c0 1.148-.187 2.1-.56 2.856-.374.747-.906 1.311-1.596 1.694-.682.373-1.503.565-2.464.574h-.07zm-3.164-3.416l-.112-1.428c.606.037 1.068-.033 1.386-.21.317-.187.536-.476.658-.868.13-.392.196-.873.196-1.442v-1.176h2.114v1.078c0 .625-.075 1.195-.224 1.708-.14.513-.374.947-.7 1.302-.327.355-.761.625-1.302.812-.542.177-1.214.252-2.016.224zM157.557 26v-5.432c0-.42-.107-.733-.322-.938-.205-.215-.499-.322-.882-.322h-4.354l.238-1.75h4.228c1.064 0 1.867.252 2.408.756.541.495.812 1.232.812 2.212V26h-2.128zm-5.376 0v-4.55l2.128-.112V26h-2.128z" fill="#858585"/><path d="M3.829 158.771l-3.329-.83v28.226h300V77l-2.08 1.245-3.745 9.547-2.081 1.66-3.744-.83-4.161-4.15-2.497.415-3.745 9.131-2.496 5.811h-3.329l-3.329-5.395-2.231-.416h-2.346l-4.577 13.283-1.248.83-2.08.83-2.081-2.905-3.328-17.434-2.081-2.075-2.08.83-4.161 14.113-2.497 1.66-4.577-2.49-2.496-2.076h-3.329l-3.329 7.887-2.08 2.905-4.161.831-3.329 4.15-2.08.831-2.081-.831-4.577-10.792-3.744-.83-4.577 11.207-1.665 1.661-2.496-.415-4.993-7.057-3.745-.415-2.913-4.566-2.08-3.32-2.081-.83-1.664 1.245-4.161 15.773-1.248 2.49-1.665.415-2.08-4.151-4.161-21.999-1.248-1.66h-.832l-2.081 1.245-3.328 12.453-1.665 2.49-3.329.83-4.16 8.302-1.249 1.245h-2.08l-2.497-1.66-2.496-3.736-2.081-.83-3.328 2.075-2.081 7.057-2.08 2.49-2.081.83-3.744-2.075-2.913-2.491-2.913-.415-1.248-1.245-3.329-4.566-2.08-1.245-2.081 1.245-3.328 17.849-2.497 6.641h-2.496l-3.745-4.566-2.08-.83-3.33-.415-2.912 6.226-2.913 3.321-1.664.415-3.329-4.981-3.744-2.076-2.497.831-4.993 18.678-2.08.83-3.33-3.32-4.576-3.321h-2.08l-2.497-2.905-3.745-1.246-2.496 1.246-3.33 10.377-3.328 2.075-2.08.83-2.913 1.245-4.577.831-2.496-2.076-2.913-4.566-3.745-.83-3.329-2.49-2.912-1.661-1.665.415-1.664 3.321-3.329 7.887-2.08 1.66-2.497-.415-3.328-3.321z" fill="url(#paint0_linear_1366_24283)"/><path d="M300.5 77c-4.286 0-4.286 12.696-8.571 12.696-4.286 0-4.108-5.328-8.572-5.328-4.464 0-4.107 15.643-8.571 15.643-4.465 0-3.75-6.28-8.572-6.28-4.821 0-3.571 15.258-8.571 15.258s-4.286-22.467-8.572-22.467c-4.285 0-3.928 16.391-8.571 16.391s-3.929-4.489-8.571-4.489c-4.643 0-3.929 11.223-8.572 11.223-4.643 0-4.107 5.441-8.571 5.441-4.465 0-4.107-12.243-8.572-12.243-4.464 0-3.928 12.877-8.571 12.877s-3.572-7.776-8.572-7.776c-5 0-4.107-8.66-8.571-8.66-4.464 0-3.929 19.769-8.571 19.769-4.643 0-3.929-28.226-8.572-28.226-4.643 0-4.107 16.868-8.571 16.868-4.465 0-3.572 10.089-8.572 10.089-5 0-3.75-6.122-8.571-6.122-4.822 0-3.572 12.47-8.572 12.47-5 0-3.75-4.807-8.571-4.807s-3.929-7.277-8.571-7.277c-4.643 0-3.929 26.14-8.572 26.14-4.643 0-3.571-6.394-8.571-6.394s-4.286 9.998-8.572 9.998c-4.285 0-3.75-7.141-8.571-7.141-4.822 0-4.107 20.631-8.572 20.631-4.464 0-3.571-6.212-8.571-6.212s-3.75-4.512-8.571-4.512c-4.822 0-3.929 13.83-8.572 13.83-4.643 0-3.571 2.902-8.571 2.902s-3.572-7.641-8.572-7.641c-5 0-4.285-4.08-8.571-4.08s-4.286 13.262-8.572 13.262c-4.285 0-3.928-4.67-8.571-4.67" stroke="#C7A77F" stroke-width="2"/><circle cx="18.415" cy="150.75" r="3.583" fill="#000" stroke="#fff" stroke-width="2"/><circle cx="51.75" cy="145.75" r="3.583" fill="#000" stroke="#fff" stroke-width="2"/><circle cx="77.583" cy="134.916" r="3.583" fill="#000" stroke="#fff" stroke-width="2"/><circle cx="111.751" cy="111.583" r="3.583" fill="#000" stroke="#fff" stroke-width="2"/><circle cx="137.584" cy="113.25" r="3.583" fill="#000" stroke="#fff" stroke-width="2"/><circle cx="163.416" cy="92.417" r="3.583" fill="#000" stroke="#fff" stroke-width="2"/><circle cx="104.249" cy="136.583" r="3.583" fill="#000" stroke="#fff" stroke-width="2"/></g><defs><linearGradient id="paint0_linear_1366_24283" x1="150.5" y1="77" x2="150.5" y2="186.167" gradientUnits="userSpaceOnUse"><stop stop-color="#C69F7C" stop-opacity=".3"/><stop offset="1" stop-color="#fff" stop-opacity="0"/></linearGradient><clipPath id="clip0_1366_24283"><path fill="#fff" transform="translate(.5)" d="M0 0h176v176H0z"/></clipPath></defs></svg>