<svg width="177" height="176" viewBox="0 0 177 176" fill="none" xmlns="http://www.w3.org/2000/svg"><rect x=".5" width="176" height="176" rx="4" fill="#FAFAFA"/><mask id="a" maskUnits="userSpaceOnUse" x="10.5" y="10.5" width="20" height="20" fill="#000"><path fill="#fff" d="M10.5 10.5h20v20h-20z"/><path d="M28.5 20.5a8 8 0 11-16 0 8 8 0 0116 0zm-12.48 0a4.48 4.48 0 108.96 0 4.48 4.48 0 00-8.96 0z"/></mask><path d="M28.5 20.5a8 8 0 11-16 0 8 8 0 0116 0zm-12.48 0a4.48 4.48 0 108.96 0 4.48 4.48 0 00-8.96 0z" fill="#C7A77F" fill-opacity=".3"/><path d="M28.5 20.5a8 8 0 11-16 0 8 8 0 0116 0zm-12.48 0a4.48 4.48 0 108.96 0 4.48 4.48 0 00-8.96 0z" stroke="#C7A77F" stroke-opacity=".3" stroke-width="4" mask="url(#a)"/><path d="M26.74 20.5c.972 0 1.78-.797 1.567-1.746a8.001 8.001 0 00-14.766-2.2 8 8 0 009.468 11.542c.924-.305 1.193-1.407.694-2.24-.499-.835-1.589-1.065-2.55-.924a4.48 4.48 0 113.486-6.147c.372.898 1.129 1.715 2.101 1.715z" fill="#C7A77F"/><path d="M37.861 15.378c.58 0 1.106.089 1.582.266.486.177.873.443 1.162.798.3.355.448.803.448 1.344 0 .597-.172 1.092-.518 1.484-.336.383-.76.7-1.274.952.355.187.691.406 1.008.658.327.243.588.532.784.868.206.327.308.714.308 1.162 0 .55-.149 1.031-.448 1.442-.289.41-.7.728-1.232.952-.522.224-1.129.336-1.82.336-1.12 0-1.988-.238-2.604-.714-.606-.476-.91-1.13-.91-1.96 0-.69.187-1.246.56-1.666.374-.42.826-.76 1.358-1.022a4.599 4.599 0 01-1.148-1.008c-.308-.401-.462-.9-.462-1.498 0-.532.15-.975.448-1.33.3-.355.691-.62 1.176-.798a4.654 4.654 0 011.582-.266zm-.014 1.54c-.345 0-.634.089-.868.266-.224.177-.336.43-.336.756 0 .345.122.625.364.84.243.215.528.401.854.56.318-.15.598-.327.84-.532.243-.215.364-.504.364-.868 0-.327-.116-.579-.35-.756-.224-.177-.513-.266-.868-.266zm-1.54 5.922c0 .364.126.663.378.896.262.233.644.35 1.148.35.523 0 .915-.112 1.176-.336.262-.224.392-.523.392-.896 0-.252-.074-.471-.224-.658a2.297 2.297 0 00-.56-.518 6.332 6.332 0 00-.672-.434l-.182-.098a3.763 3.763 0 00-1.05.714c-.27.27-.406.597-.406.98zm12.716-5.096c0 .69-.21 1.241-.63 1.652-.41.41-.92.69-1.526.84v.042c.803.093 1.41.336 1.82.728.42.392.63.92.63 1.582 0 .579-.145 1.101-.434 1.568-.28.457-.719.821-1.316 1.092-.588.261-1.349.392-2.282.392-1.082 0-2.044-.182-2.884-.546v-1.792a6.253 6.253 0 002.66.658c.756 0 1.283-.13 1.582-.392.308-.261.462-.63.462-1.106 0-.28-.07-.513-.21-.7-.14-.196-.387-.34-.742-.434-.345-.103-.83-.154-1.456-.154h-.756V19.55h.77c.616 0 1.083-.056 1.4-.168.327-.121.546-.28.658-.476a1.35 1.35 0 00.182-.7c0-.355-.112-.63-.336-.826-.215-.205-.579-.308-1.092-.308-.476 0-.891.084-1.246.252a6.85 6.85 0 00-.882.476l-.98-1.456a5.57 5.57 0 011.372-.7c.532-.187 1.162-.28 1.89-.28 1.027 0 1.839.21 2.436.63.607.41.91.994.91 1.75zm3.644-2.38c.784 0 1.377.275 1.778.826.41.541.616 1.307.616 2.296 0 .99-.191 1.764-.574 2.324-.383.55-.99.826-1.82.826-.766 0-1.349-.275-1.75-.826-.401-.56-.602-1.335-.602-2.324 0-.99.187-1.755.56-2.296.373-.55.97-.826 1.792-.826zm7.098.14L54.22 25.5h-1.638l5.544-9.996h1.638zm-7.084 1.288c-.43 0-.644.57-.644 1.708 0 1.148.215 1.722.644 1.722.439 0 .658-.574.658-1.722 0-1.139-.22-1.708-.658-1.708zm6.986 2.562c.784 0 1.377.275 1.778.826.41.541.616 1.307.616 2.296 0 .99-.191 1.764-.574 2.324-.383.55-.99.826-1.82.826-.766 0-1.349-.275-1.75-.826-.401-.56-.602-1.335-.602-2.324 0-.99.187-1.755.56-2.296.373-.55.97-.826 1.792-.826zm.014 1.428c-.43 0-.644.57-.644 1.708 0 1.148.215 1.722.644 1.722.439 0 .658-.574.658-1.722 0-1.139-.22-1.708-.658-1.708zm10.124-3.85L66.613 25.5H65.58l3.192-8.568h1.032zm4.38 8.568h-1.031v-5.988c0-.344.004-.62.012-.828.008-.208.02-.424.036-.648a5.805 5.805 0 01-.348.324l-.396.336-.912.744-.552-.708 2.316-1.8h.876V25.5zm8.884-4.296c0 .92-.096 1.712-.288 2.376-.192.656-.496 1.16-.912 1.512-.416.352-.968.528-1.656.528-.968 0-1.684-.388-2.148-1.164-.456-.784-.684-1.868-.684-3.252 0-.928.092-1.72.276-2.376.192-.656.496-1.156.912-1.5.416-.352.964-.528 1.644-.528.96 0 1.676.388 2.148 1.164.472.768.708 1.848.708 3.24zm-4.632 0c0 1.176.132 2.056.396 2.64.272.584.732.876 1.38.876.64 0 1.096-.288 1.368-.864.28-.584.42-1.468.42-2.652 0-1.168-.14-2.044-.42-2.628-.272-.584-.728-.876-1.368-.876-.648 0-1.108.292-1.38.876-.264.584-.396 1.46-.396 2.628zm11.5 0c0 .92-.097 1.712-.289 2.376-.192.656-.496 1.16-.912 1.512-.416.352-.968.528-1.656.528-.968 0-1.684-.388-2.148-1.164-.456-.784-.684-1.868-.684-3.252 0-.928.092-1.72.276-2.376.192-.656.496-1.156.912-1.5.416-.352.964-.528 1.644-.528.96 0 1.676.388 2.148 1.164.472.768.708 1.848.708 3.24zm-4.633 0c0 1.176.132 2.056.396 2.64.272.584.732.876 1.38.876.64 0 1.096-.288 1.368-.864.28-.584.42-1.468.42-2.652 0-1.168-.14-2.044-.42-2.628-.272-.584-.728-.876-1.368-.876-.648 0-1.108.292-1.38.876-.264.584-.396 1.46-.396 2.628zm7.563-4.392c.592 0 1.04.236 1.344.708.304.464.456 1.12.456 1.968 0 .848-.148 1.512-.444 1.992-.288.472-.74.708-1.356.708-.568 0-1.004-.236-1.308-.708-.296-.48-.444-1.144-.444-1.992 0-.848.14-1.504.42-1.968.28-.472.724-.708 1.332-.708zm5.484.12L93.6 25.5h-.924l4.752-8.568h.924zm-5.484.624c-.304 0-.528.164-.672.492-.136.32-.204.8-.204 1.44 0 .64.068 1.124.204 1.452.144.328.368.492.672.492.616 0 .924-.648.924-1.944 0-1.288-.308-1.932-.924-1.932zm5.244 2.688c.584 0 1.028.236 1.332.708.312.464.468 1.12.468 1.968 0 .848-.148 1.512-.444 1.992-.288.472-.74.708-1.356.708-.568 0-1.004-.236-1.308-.708-.296-.48-.444-1.144-.444-1.992 0-.848.14-1.504.42-1.968.28-.472.724-.708 1.332-.708zm0 .756c-.304 0-.528.16-.672.48-.136.32-.204.8-.204 1.44 0 .648.068 1.136.204 1.464.144.32.368.48.672.48.616 0 .924-.648.924-1.944 0-1.28-.308-1.92-.924-1.92z" fill="#8A8A8A"/><path d="M137.595 25.57l-.392-1.806h-.154a6.242 6.242 0 01-.476.812 2.18 2.18 0 01-.504.546c-.177.13-.378.229-.602.294-.224.056-.49.084-.798.084h-.336v-1.792h.336c.271-.01.523-.051.756-.126.233-.075.443-.173.63-.294.196-.121.364-.247.504-.378.14-.14.247-.27.322-.392v-2.786c0-.345-.084-.583-.252-.714-.159-.13-.434-.196-.826-.196h-.826l.224-1.764h1.176c.607 0 1.101.098 1.484.294.392.187.681.462.868.826.187.364.28.812.28 1.344v3.514l.476 2.198-1.89.336zm3.866-.07v-8.442h2.128V25.5h-2.128zm-1.148-6.692l.238-1.75h2.31v1.75h-2.548zm8.804 6.692v-5.432c0-.42-.103-.733-.308-.938-.205-.215-.504-.322-.896-.322h-2.856l.224-1.75h2.744c1.064 0 1.867.252 2.408.756.541.495.812 1.232.812 2.212V25.5h-2.128zm4.389-3.556v-4.886h2.128v4.886h-2.128zm-1.148-3.136l.238-1.75h2.1v1.75h-2.338zm4.648 0v-1.75h7.196l-.238 1.75h-6.958zm3.668 6.692v-5.306c0-.13.019-.285.056-.462.037-.187.103-.364.196-.532.103-.168.243-.299.42-.392h1.694a.545.545 0 00-.21.35c-.019.15-.028.327-.028.532v5.81h-2.128z" fill="#858585"/><path d="M149.745 102.123c0 33.757-27.365 61.122-61.122 61.122-33.757 0-61.123-27.365-61.123-61.122C27.5 68.366 54.866 41 88.623 41s61.122 27.366 61.122 61.123zm-103.908 0c0 23.63 19.156 42.786 42.786 42.786 23.63 0 42.786-19.156 42.786-42.786 0-23.63-19.156-42.786-42.786-42.786-23.63 0-42.786 19.156-42.786 42.786z" fill="#EEE"/><path d="M140.577 102.878c5.064 0 9.239 4.127 8.482 9.134a61.124 61.124 0 01-121.542-7.714A61.123 61.123 0 0149.032 56.31c3.858-3.28 9.566-1.904 12.232 2.4 2.666 4.305 1.248 9.897-2.392 13.418a42.782 42.782 0 00-6.882 52.856 42.783 42.783 0 0058.312 14.78 42.78 42.78 0 0020.128-27.788c1.077-4.948 5.083-9.098 10.147-9.098z" fill="url(#paint0_linear_1366_24330)"/><path d="M83.947 100.968h-2.924V106h-4.998v-5.032h-10.37v-3.57l10.642-15.674h4.726V96.99h2.924v3.978zm-7.922-8.092v-1.36l.068-1.598c.023-.544.045-1.02.068-1.428.023-.43.046-.725.068-.884h-.136c-.204.453-.42.895-.646 1.326-.227.43-.499.873-.816 1.326l-4.454 6.732h5.848v-4.114zm9.427 10.744c0-1.043.284-1.768.85-2.176.567-.431 1.258-.646 2.074-.646.793 0 1.474.215 2.04.646.567.408.85 1.133.85 2.176 0 .997-.283 1.723-.85 2.176-.566.431-1.246.646-2.04.646-.816 0-1.507-.215-2.074-.646-.567-.453-.85-1.179-.85-2.176zm7.927-7.922c0-1.405.102-2.788.306-4.148.204-1.36.556-2.64 1.055-3.842a10.434 10.434 0 012.142-3.23c.929-.952 2.096-1.689 3.501-2.21 1.428-.544 3.151-.816 5.168-.816.476 0 1.032.023 1.666.068.635.023 1.168.08 1.598.17v4.114a8.5 8.5 0 00-1.428-.238 11.049 11.049 0 00-1.496-.102c-1.518 0-2.776.181-3.774.544-.974.363-1.745.884-2.312 1.564-.566.68-.986 1.485-1.258 2.414-.249.907-.396 1.927-.441 3.06h.204a5.916 5.916 0 011.156-1.428 5.234 5.234 0 011.733-1.02c.68-.25 1.474-.374 2.38-.374 1.428 0 2.652.306 3.672.918 1.043.59 1.848 1.462 2.414 2.618.567 1.133.85 2.516.85 4.148 0 1.745-.34 3.253-1.02 4.522a6.837 6.837 0 01-2.856 2.924c-1.224.657-2.686.986-4.386.986a9.421 9.421 0 01-3.502-.646 7.974 7.974 0 01-2.822-1.938c-.793-.884-1.416-1.995-1.87-3.332-.453-1.337-.68-2.913-.68-4.726zm8.772 6.528c.998 0 1.814-.34 2.448-1.02.635-.703.952-1.78.952-3.23 0-1.179-.272-2.108-.816-2.788-.544-.68-1.371-1.02-2.482-1.02-.748 0-1.405.17-1.972.51a3.545 3.545 0 00-1.326 1.258c-.317.521-.475 1.054-.475 1.598 0 .567.079 1.133.237 1.7.16.544.386 1.043.68 1.496.318.453.703.816 1.156 1.088.454.272.986.408 1.598.408z" fill="#111"/><path d="M68.561 120.532v-1.75l3.346-.672a3.28 3.28 0 00.882-.322c.261-.149.485-.369.672-.658.187-.289.336-.677.448-1.162.121-.495.21-1.129.266-1.904l.168-2.506h2.128l-.182 2.576a14.32 14.32 0 01-.196 1.624 5.784 5.784 0 01-.42 1.414 4.296 4.296 0 01-.756 1.19 4.113 4.113 0 01-1.218.91c-.495.252-1.092.448-1.792.588l-3.346.672zm2.002-1.33l-1.582-7.504 2.086-.252 1.036 5.138c.065.299.08.607.042.924a2.982 2.982 0 01-.266.91 2.91 2.91 0 01-.518.784h-.798zm12.123.77l-5.349-8.414h2.492l2.157 3.654 2.295 3.542-1.596 1.218zm-5.153.028v-1.75h6.118l.63.504-.196 1.246h-6.551zm4.299-3.346l-.602-1.386c.251-.075.452-.196.602-.364.149-.168.266-.364.35-.588a3.6 3.6 0 00.181-.672 9.88 9.88 0 00.112-.658l.169-1.428h2.127l-.168 1.596a5.464 5.464 0 01-.224 1.022 4.112 4.112 0 01-.49 1.022 3.33 3.33 0 01-.825.882 3.59 3.59 0 01-1.232.574zM86.897 120v-8.442h2.128V120h-2.128zm-1.148-6.692l.238-1.75h2.31v1.75h-2.548zm4.94 6.692l.938-4.956-1.176-3.486h2.128l.532 1.918h.056c.13-.336.28-.63.448-.882a2.35 2.35 0 01.602-.644c.233-.177.5-.308.798-.392.308-.093.663-.14 1.064-.14.663 0 1.241.163 1.736.49.504.317.896.784 1.176 1.4.29.607.434 1.344.434 2.212v.196c0 .849-.154 1.596-.462 2.24a3.464 3.464 0 01-1.316 1.512c-.579.355-1.279.532-2.1.532h-1.344l.252-1.75h.994c.579 0 1.031-.238 1.358-.714.327-.476.49-1.083.49-1.82v-.196c0-.504-.075-.929-.224-1.274-.15-.345-.35-.602-.602-.77a1.367 1.367 0 00-.826-.266c-.336 0-.616.051-.84.154a1.34 1.34 0 00-.56.434 2.72 2.72 0 00-.35.7 4.846 4.846 0 00-.21.91L92.887 120H90.69zm9.557 0l.938-4.956-1.176-3.486h2.128l.532 1.918h.056c.13-.336.28-.63.448-.882.168-.261.368-.476.602-.644.233-.177.499-.308.798-.392.308-.093.662-.14 1.064-.14.662 0 1.241.163 1.736.49.504.317.896.784 1.176 1.4.289.607.434 1.344.434 2.212v.196c0 .849-.154 1.596-.462 2.24a3.47 3.47 0 01-1.316 1.512c-.579.355-1.279.532-2.1.532h-1.344l.252-1.75h.994c.578 0 1.031-.238 1.358-.714.326-.476.49-1.083.49-1.82v-.196c0-.504-.075-.929-.224-1.274-.15-.345-.35-.602-.602-.77a1.368 1.368 0 00-.826-.266c-.336 0-.616.051-.84.154a1.338 1.338 0 00-.56.434 2.71 2.71 0 00-.35.7 4.74 4.74 0 00-.21.91l-.798 4.592h-2.198z" fill="#000"/><defs><linearGradient id="paint0_linear_1366_24330" x1="27.5" y1="102.878" x2="149.745" y2="102.878" gradientUnits="userSpaceOnUse"><stop stop-color="#8F6B45"/><stop offset="1" stop-color="#C7A77F"/></linearGradient></defs></svg>