<svg width="177" height="176" viewBox="0 0 177 176" fill="none" xmlns="http://www.w3.org/2000/svg"><g clip-path="url(#clip0_1366_24312)"><rect x=".5" width="176" height="176" rx="4" fill="#FAFAFA"/><path d="M87.427 55.164c0 1.11-.238 2.074-.714 2.89a5.66 5.66 0 01-1.87 2.006c-.77.521-1.655.907-2.652 1.156v.102c1.95.227 3.423.816 4.42 1.768 1.02.952 1.53 2.233 1.53 3.842 0 1.405-.351 2.675-1.054 3.808-.68 1.11-1.745 1.995-3.196 2.652-1.428.635-3.275.952-5.542.952-1.337 0-2.584-.113-3.74-.34a16.558 16.558 0 01-3.264-.986v-4.352c1.043.521 2.13.918 3.264 1.19 1.156.272 2.221.408 3.196.408 1.836 0 3.117-.317 3.842-.952.748-.635 1.122-1.53 1.122-2.686 0-.68-.17-1.247-.51-1.7-.34-.476-.94-.827-1.802-1.054-.839-.25-2.017-.374-3.536-.374h-1.836V59.55h1.87c1.496 0 2.63-.136 3.4-.408.793-.295 1.326-.68 1.598-1.156.295-.499.442-1.065.442-1.7 0-.861-.272-1.53-.816-2.006-.521-.499-1.405-.748-2.652-.748-.77 0-1.473.102-2.108.306a9.205 9.205 0 00-1.734.68c-.499.272-.94.533-1.326.782l-2.38-3.536a13.523 13.523 0 012.108-1.224 12.658 12.658 0 012.618-.85c.952-.204 2.017-.306 3.196-.306 2.493 0 4.465.51 5.916 1.53 1.473.997 2.21 2.414 2.21 4.25zm2.253 8.534c0-1.405.102-2.788.306-4.148.204-1.36.555-2.64 1.054-3.842a10.434 10.434 0 012.142-3.23c.93-.952 2.097-1.689 3.502-2.21 1.428-.544 3.15-.816 5.168-.816.476 0 1.031.023 1.666.068.635.023 1.167.08 1.598.17v4.114a8.535 8.535 0 00-1.428-.238 11.06 11.06 0 00-1.496-.102c-1.519 0-2.777.181-3.774.544-.975.363-1.745.884-2.312 1.564-.567.68-.986 1.485-1.258 2.414-.25.907-.397 1.927-.442 3.06h.204a5.918 5.918 0 011.156-1.428 5.237 5.237 0 011.734-1.02c.68-.25 1.473-.374 2.38-.374 1.428 0 2.652.306 3.672.918 1.043.59 1.847 1.462 2.414 2.618.567 1.133.85 2.516.85 4.148 0 1.745-.34 3.253-1.02 4.522a6.835 6.835 0 01-2.856 2.924c-1.224.657-2.686.986-4.386.986a9.427 9.427 0 01-3.502-.646 7.967 7.967 0 01-2.822-1.938c-.793-.884-1.417-1.995-1.87-3.332-.453-1.337-.68-2.913-.68-4.726zm8.772 6.528c.997 0 1.813-.34 2.448-1.02.635-.703.952-1.78.952-3.23 0-1.179-.272-2.108-.816-2.788-.544-.68-1.371-1.02-2.482-1.02-.748 0-1.405.17-1.972.51a3.543 3.543 0 00-1.326 1.258c-.317.521-.476 1.054-.476 1.598 0 .567.08 1.133.238 1.7.159.544.385 1.043.68 1.496.317.453.703.816 1.156 1.088.453.272.986.408 1.598.408z" fill="#111"/><path d="M73.614 96v-1.75h2.492c.616 0 1.069-.21 1.358-.63.299-.42.448-1.008.448-1.764 0-.812-.149-1.437-.448-1.876-.289-.448-.742-.672-1.358-.672h-2.492l.224-1.75h2.268c1.298 0 2.282.378 2.954 1.134.682.747 1.022 1.801 1.022 3.164 0 1.316-.34 2.338-1.022 3.066-.672.719-1.656 1.078-2.954 1.078h-2.492zm7.117-4.592c.084-.299.159-.616.224-.952a25.883 25.883 0 00.378-2.002c.056-.327.098-.625.126-.896h1.848l.084.154a40.87 40.87 0 01-.7 2.52c-.14.448-.29.84-.448 1.176H80.73zm3.108 0c.112-.401.21-.83.294-1.288.093-.457.177-.905.252-1.344.084-.448.144-.854.182-1.218h1.848l.07.154a23.97 23.97 0 01-.294 1.19 40.87 40.87 0 01-.392 1.33c-.14.448-.29.84-.448 1.176h-1.512zM93.042 96v-5.432c0-.42-.108-.733-.323-.938-.205-.215-.499-.322-.881-.322h-4.354l.238-1.75h4.228c1.063 0 1.866.252 2.407.756.542.495.813 1.232.813 2.212V96h-2.13zm-5.377 0v-4.55l2.128-.112V96h-2.128zm13.219.126c-1.334 0-2.338-.336-3.01-1.008-.662-.681-.994-1.643-.994-2.884v-.126c0-.653.112-1.218.336-1.694.234-.476.523-.817.868-1.022v-.196l1.806-.042-.07.182c-.298.121-.513.387-.644.798-.121.41-.182.924-.182 1.54 0 .887.145 1.568.434 2.044.299.476.784.714 1.456.714.682 0 1.172-.257 1.47-.77.299-.513.448-1.246.448-2.198 0-.69-.116-1.223-.35-1.596-.224-.373-.639-.56-1.246-.56H96.53l.224-1.75h4.466c1.27 0 2.203.34 2.8 1.022.607.681.91 1.647.91 2.898 0 1.475-.34 2.618-1.022 3.43-.672.812-1.68 1.218-3.024 1.218z" fill="#000"/><path d="M18.456 17.995V27a1 1 0 001 1h.088a1 1 0 001-1v-9.005l3.773 3.774a1 1 0 001.414 0l.062-.062a1 1 0 000-1.414l-5.586-5.586a1 1 0 00-1.414 0l-5.586 5.586a1 1 0 000 1.414l.062.062a1 1 0 001.414 0l3.773-3.774z" fill="#C7A77F"/><path d="M26.5 22.414h0a2 2 0 000-2.828L20.914 14a2 2 0 00-2.828 0L12.5 19.586a2 2 0 000 2.828l.062.062a2 2 0 002.828 0l2.066-2.067V27a2 2 0 002 2h.088a2 2 0 002-2v-6.59l2.066 2.066a2 2 0 002.828 0s0 0 0 0l.062-.062z" stroke="#C69F7C" stroke-opacity=".2" stroke-width="2"/><path d="M18.456 17.995V27a1 1 0 001 1h.088a1 1 0 001-1v-9.005l3.773 3.774a1 1 0 001.414 0l.062-.062a1 1 0 000-1.414l-5.586-5.586a1 1 0 00-1.414 0l-5.586 5.586a1 1 0 000 1.414l.062.062a1 1 0 001.414 0l3.773-3.774z" fill="#C7A77F"/><path d="M38.259 26h-2.114v-5.782c0-.243.004-.56.014-.952.018-.392.032-.737.042-1.036-.047.056-.15.159-.308.308-.15.14-.29.266-.42.378l-1.148.924-1.022-1.274 3.22-2.562h1.736V26zm3.783 0l3.752-8.218h-4.928v-1.778h7.168v1.33L44.254 26h-2.212zm12.884-8.568L51.734 26h-1.032l3.192-8.568h1.032zM60.543 26v-4.776c0-.424-.104-.74-.312-.948-.2-.216-.504-.324-.912-.324h-3.636l.144-1.116h3.576c.816 0 1.432.2 1.848.6.424.392.636.976.636 1.752V26h-1.344zm-4.692 0v-3.996l1.344-.096V26H55.85zm8.114-3.108v-4.056h1.344v4.056h-1.344zm-1.044-2.94l.144-1.116h1.668v1.116H62.92zm4.723 2.94v-4.056h1.344v4.056h-1.344zm-1.044-2.94l.145-1.116h1.667v1.116H66.6zm4.94-1.116h4.284l-.12.828L73.556 26h-1.392l2.088-6.048h-4.056v-2.928l1.344-.144v1.956zm5.126 7.596l-.012-1.104 2.58-.552c.328-.08.624-.188.888-.324.264-.144.488-.356.672-.636.192-.28.348-.66.468-1.14.12-.488.2-1.112.24-1.872l.132-1.968h1.344l-.132 1.98a13.244 13.244 0 01-.18 1.644c-.088.48-.22.908-.396 1.284a3.372 3.372 0 01-.66.984 3.686 3.686 0 01-.996.696c-.384.192-.84.344-1.368.456l-2.58.552zm1.824-.996l-1.488-6.504 1.308-.168 1.116 4.872c.04.192.048.396.024.612a2.203 2.203 0 01-.144.624c-.072.2-.172.388-.3.564h-.516z" fill="#8A8A8A"/><path d="M127.848 26v-5.432c0-.42-.103-.733-.308-.938-.205-.215-.504-.322-.896-.322h-3.906v-1.75h4.018c1.064 0 1.867.252 2.408.756.541.495.812 1.232.812 2.212V26h-2.128zm-6.608 0l.224-1.75h.504a.855.855 0 00.434-.098.676.676 0 00.252-.322 1.4 1.4 0 00.084-.518v-5.348h2.128v5.292c0 .896-.21 1.577-.63 2.044-.411.467-1.022.7-1.834.7h-1.162zm.21-6.692l.238-1.75h2.24v1.75h-2.478zM132.506 26v-8.442h2.128V26h-2.128zm-1.148-6.692l.238-1.75h2.31v1.75h-2.548zM140.162 26v-5.432c0-.42-.103-.733-.308-.938-.205-.215-.504-.322-.896-.322h-2.856l.224-1.75h2.744c1.064 0 1.867.252 2.408.756.541.495.812 1.232.812 2.212V26h-2.128zm4.388-3.556v-4.886h2.128v4.886h-2.128zm-1.148-3.136l.238-1.75h2.1v1.75h-2.338zM148.009 26v-1.75h2.492c.616 0 1.069-.21 1.358-.63.299-.42.448-1.008.448-1.764 0-.812-.149-1.437-.448-1.876-.289-.448-.742-.672-1.358-.672h-2.492l.224-1.75h2.268c1.297 0 2.282.378 2.954 1.134.681.747 1.022 1.801 1.022 3.164 0 1.316-.341 2.338-1.022 3.066-.672.719-1.657 1.078-2.954 1.078h-2.492zm7.375 0l.938-4.956-1.176-3.486h2.128l.532 1.918h.056c.131-.336.28-.63.448-.882a2.35 2.35 0 01.602-.644c.233-.177.499-.308.798-.392.308-.093.663-.14 1.064-.14.663 0 1.241.163 1.736.49.504.317.896.784 1.176 1.4.289.607.434 1.344.434 2.212v.196c0 .85-.154 1.596-.462 2.24a3.464 3.464 0 01-1.316 1.512c-.579.355-1.279.532-2.1.532h-1.344l.252-1.75h.994c.579 0 1.031-.238 1.358-.714.327-.476.49-1.083.49-1.82v-.196c0-.504-.075-.929-.224-1.274-.149-.345-.35-.602-.602-.77a1.366 1.366 0 00-.826-.266c-.336 0-.616.051-.84.154a1.34 1.34 0 00-.56.434c-.14.196-.257.43-.35.7-.093.27-.163.574-.21.91L157.582 26h-2.198z" fill="#858585"/><path d="M.5 157.844c22.008 0 24.82-18.303 46.827-18.303 22.008 0 18.36 5.459 40.367 5.459 22.008 0 21.587-19.441 43.595-19.441s23.203 10.361 45.211 10.361" stroke="#C69F7C" stroke-opacity=".15" stroke-width="20" stroke-linecap="round"/><path d="M.5 157.844c22.008 0 24.82-18.303 46.827-18.303 22.008 0 18.36 5.459 40.367 5.459 22.008 0 21.587-19.441 43.595-19.441s23.203 10.361 45.211 10.361" stroke="#C7A77F" stroke-width="6" stroke-linecap="round" stroke-linejoin="round"/><path d="M.5 168c22.625 0 19.952-42 42.578-42 22.625 0 19.947 11.2 42.573 11.2 22.625 0 19.14 18.4 41.766 18.4 22.625 0 26.458 9.452 49.083 9.452" stroke="#6AC4DC" stroke-width="6" stroke-linecap="round"/></g><defs><clipPath id="clip0_1366_24312"><path fill="#fff" transform="translate(.5)" d="M0 0h176v176H0z"/></clipPath></defs></svg>