<svg width="176" height="176" viewBox="0 0 176 176" fill="none" xmlns="http://www.w3.org/2000/svg"><g clip-path="url(#clip0_1151_24980)"><rect width="176" height="176" rx="4" fill="#FAFAFA"/><path d="M79.277 49.418c1.405 0 2.686.215 3.842.646 1.179.43 2.12 1.077 2.822 1.938.725.861 1.088 1.95 1.088 3.264 0 .975-.193 1.836-.578 2.584a6.284 6.284 0 01-1.564 1.904 10.296 10.296 0 01-2.21 1.428c.861.453 1.677.986 2.448 1.598a7.014 7.014 0 011.904 2.108c.499.793.748 1.734.748 2.822 0 1.337-.363 2.505-1.088 3.502-.703.997-1.7 1.768-2.992 2.312-1.27.544-2.743.816-4.42.816-1.813 0-3.355-.26-4.624-.782-1.27-.521-2.244-1.27-2.924-2.244-.657-.975-.986-2.13-.986-3.468 0-1.11.204-2.074.612-2.89a6.97 6.97 0 011.7-2.108 10.198 10.198 0 012.346-1.53 12.032 12.032 0 01-1.972-1.53 7.55 7.55 0 01-1.428-1.972c-.34-.748-.51-1.61-.51-2.584 0-1.292.363-2.369 1.088-3.23.725-.861 1.677-1.507 2.856-1.938a11.299 11.299 0 013.842-.646zM75.503 67.54c0 .884.306 1.61.918 2.176.635.567 1.564.85 2.788.85.861 0 1.564-.125 2.108-.374.567-.25.986-.6 1.258-1.054.295-.453.442-.975.442-1.564 0-.612-.181-1.145-.544-1.598a5.582 5.582 0 00-1.36-1.258 15.425 15.425 0 00-1.632-1.054l-.442-.238a9.882 9.882 0 00-1.87 1.088c-.521.408-.93.861-1.224 1.36-.295.476-.442 1.031-.442 1.666zm3.74-14.382c-.839 0-1.541.215-2.108.646-.544.43-.816 1.043-.816 1.836 0 .544.136 1.031.408 1.462.272.408.635.77 1.088 1.088.453.295.94.578 1.462.85.521-.25.997-.521 1.428-.816a3.722 3.722 0 001.088-1.054c.272-.43.408-.94.408-1.53 0-.793-.283-1.405-.85-1.836-.544-.43-1.247-.646-2.108-.646zm9.937 10.54c0-1.405.102-2.788.306-4.148.204-1.36.555-2.64 1.054-3.842a10.434 10.434 0 012.142-3.23c.93-.952 2.097-1.689 3.502-2.21 1.428-.544 3.15-.816 5.168-.816.476 0 1.031.023 1.666.068.635.023 1.167.08 1.598.17v4.114a8.535 8.535 0 00-1.428-.238 11.06 11.06 0 00-1.496-.102c-1.519 0-2.777.181-3.774.544-.975.363-1.745.884-2.312 1.564-.567.68-.986 1.485-1.258 2.414-.25.907-.397 1.927-.442 3.06h.204a5.918 5.918 0 011.156-1.428A5.237 5.237 0 0197 58.598c.68-.25 1.473-.374 2.38-.374 1.428 0 2.652.306 3.672.918 1.043.59 1.847 1.462 2.414 2.618.567 1.133.85 2.516.85 4.148 0 1.745-.34 3.253-1.02 4.522a6.835 6.835 0 01-2.856 2.924c-1.224.657-2.686.986-4.386.986a9.427 9.427 0 01-3.502-.646 7.967 7.967 0 01-2.822-1.938c-.793-.884-1.417-1.995-1.87-3.332-.453-1.337-.68-2.913-.68-4.726zm8.772 6.528c.997 0 1.813-.34 2.448-1.02.635-.703.952-1.78.952-3.23 0-1.179-.272-2.108-.816-2.788-.544-.68-1.371-1.02-2.482-1.02-.748 0-1.405.17-1.972.51a3.543 3.543 0 00-1.326 1.258c-.317.521-.476 1.054-.476 1.598 0 .567.08 1.133.238 1.7.159.544.385 1.043.68 1.496.317.453.703.816 1.156 1.088.453.272.986.408 1.598.408z" fill="#111"/><path d="M73.114 96v-1.75h2.492c.616 0 1.069-.21 1.358-.63.299-.42.448-1.008.448-1.764 0-.812-.149-1.437-.448-1.876-.289-.448-.742-.672-1.358-.672h-2.492l.224-1.75h2.268c1.298 0 2.282.378 2.954 1.134.682.747 1.022 1.801 1.022 3.164 0 1.316-.34 2.338-1.022 3.066-.672.719-1.656 1.078-2.954 1.078h-2.492zm7.117-4.592c.084-.299.159-.616.224-.952a25.883 25.883 0 00.378-2.002c.056-.327.098-.625.126-.896h1.848l.084.154a40.87 40.87 0 01-.7 2.52c-.14.448-.29.84-.448 1.176H80.23zm3.108 0c.112-.401.21-.83.294-1.288.093-.457.177-.905.252-1.344.084-.448.144-.854.182-1.218h1.848l.07.154a23.97 23.97 0 01-.294 1.19 40.87 40.87 0 01-.392 1.33c-.14.448-.29.84-.448 1.176h-1.512zM92.542 96v-5.432c0-.42-.108-.733-.323-.938-.205-.215-.499-.322-.881-.322h-4.354l.238-1.75h4.228c1.063 0 1.866.252 2.407.756.542.495.813 1.232.813 2.212V96h-2.13zm-5.377 0v-4.55l2.128-.112V96h-2.128zm13.219.126c-1.334 0-2.338-.336-3.01-1.008-.662-.681-.994-1.643-.994-2.884v-.126c0-.653.112-1.218.336-1.694.234-.476.523-.817.868-1.022v-.196l1.806-.042-.07.182c-.298.121-.513.387-.644.798-.121.41-.182.924-.182 1.54 0 .887.145 1.568.434 2.044.299.476.784.714 1.456.714.682 0 1.172-.257 1.47-.77.299-.513.448-1.246.448-2.198 0-.69-.116-1.223-.35-1.596-.224-.373-.639-.56-1.246-.56H96.03l.224-1.75h4.466c1.27 0 2.203.34 2.8 1.022.607.681.91 1.647.91 2.898 0 1.475-.34 2.618-1.022 3.43-.672.812-1.68 1.218-3.024 1.218z" fill="#000"/><path d="M21.956 17.995V27a1 1 0 001 1h.088a1 1 0 001-1v-9.005l3.773 3.774a1 1 0 001.414 0l.062-.062a1 1 0 000-1.414l-5.586-5.586a1 1 0 00-1.414 0l-5.586 5.586a1 1 0 000 1.414l.062.062a1 1 0 001.414 0l3.773-3.774z" fill="#C7A77F"/><path d="M30 22.414h0a2 2 0 000-2.828L24.414 14a2 2 0 00-2.828 0L16 19.586a2 2 0 000 2.828l.062.062a2 2 0 002.828 0l2.066-2.067V27a2 2 0 002 2h.088a2 2 0 002-2v-6.59l2.066 2.066a2 2 0 002.828 0s0 0 0 0l.062-.062z" stroke="#C69F7C" stroke-opacity=".2" stroke-width="2"/><path d="M21.956 17.995V27a1 1 0 001 1h.088a1 1 0 001-1v-9.005l3.773 3.774a1 1 0 001.414 0l.062-.062a1 1 0 000-1.414l-5.586-5.586a1 1 0 00-1.414 0l-5.586 5.586a1 1 0 000 1.414l.062.062a1 1 0 001.414 0l3.773-3.774z" fill="#C7A77F"/><path d="M43.523 26h-6.986v-1.47l2.506-2.534c.504-.523.91-.957 1.218-1.302.308-.355.532-.672.672-.952.14-.29.21-.597.21-.924 0-.401-.112-.7-.336-.896-.215-.196-.51-.294-.882-.294a2.53 2.53 0 00-1.12.266c-.364.177-.747.43-1.148.756l-1.148-1.358c.289-.252.592-.485.91-.7.326-.215.7-.387 1.12-.518.429-.14.942-.21 1.54-.21.653 0 1.213.121 1.68.364.476.233.84.555 1.092.966.26.401.392.859.392 1.372a3.39 3.39 0 01-.336 1.512c-.215.457-.532.91-.952 1.358-.411.448-.91.943-1.498 1.484l-1.288 1.204v.098h4.354V26zm4.665-6.384c.607 0 1.148.117 1.624.35.476.233.85.574 1.12 1.022.28.448.42 1.003.42 1.666 0 1.083-.336 1.937-1.008 2.562-.672.616-1.666.924-2.982.924a7.56 7.56 0 01-1.484-.14 4.674 4.674 0 01-1.204-.406v-1.82c.346.177.76.331 1.246.462a5.69 5.69 0 001.372.182c.626 0 1.102-.126 1.428-.378.336-.261.504-.663.504-1.204 0-1.008-.667-1.512-2.002-1.512a4.14 4.14 0 00-.812.084c-.28.047-.513.093-.7.14l-.84-.448.378-5.096h5.418v1.792h-3.57l-.182 1.96c.159-.028.327-.056.504-.084a4.13 4.13 0 01.77-.056zm10.238-2.184L55.234 26h-1.032l3.192-8.568h1.032zM64.043 26v-4.776c0-.424-.104-.74-.312-.948-.2-.216-.504-.324-.912-.324h-3.636l.144-1.116h3.576c.816 0 1.432.2 1.848.6.424.392.636.976.636 1.752V26h-1.344zm-4.692 0v-3.996l1.344-.096V26H59.35zm8.114-3.108v-4.056h1.344v4.056h-1.344zm-1.044-2.94l.144-1.116h1.668v1.116H66.42zm4.723 2.94v-4.056h1.344v4.056h-1.344zm-1.044-2.94l.145-1.116h1.667v1.116H70.1zm4.94-1.116h4.284l-.12.828L77.056 26h-1.392l2.088-6.048h-4.056v-2.928l1.344-.144v1.956zm5.126 7.596l-.012-1.104 2.58-.552c.328-.08.624-.188.888-.324.264-.144.488-.356.672-.636.192-.28.348-.66.468-1.14.12-.488.2-1.112.24-1.872l.132-1.968h1.344l-.132 1.98a13.244 13.244 0 01-.18 1.644c-.088.48-.22.908-.396 1.284a3.372 3.372 0 01-.66.984 3.686 3.686 0 01-.996.696c-.384.192-.84.344-1.368.456l-2.58.552zm1.824-.996l-1.488-6.504 1.308-.168 1.116 4.872c.04.192.048.396.024.612a2.203 2.203 0 01-.144.624c-.072.2-.172.388-.3.564h-.516z" fill="#8A8A8A"/><path d="M117.428 26v-5.432c0-.42-.103-.733-.308-.938-.205-.215-.504-.322-.896-.322h-3.906v-1.75h4.018c1.064 0 1.867.252 2.408.756.541.495.812 1.232.812 2.212V26h-2.128zm-6.608 0l.224-1.75h.504a.855.855 0 00.434-.098.676.676 0 00.252-.322 1.4 1.4 0 00.084-.518v-5.348h2.128v5.292c0 .896-.21 1.577-.63 2.044-.411.467-1.022.7-1.834.7h-1.162zm.21-6.692l.238-1.75h2.24v1.75h-2.478zM122.086 26v-8.442h2.128V26h-2.128zm-1.148-6.692l.238-1.75h2.31v1.75h-2.548zM129.742 26v-5.432c0-.42-.103-.733-.308-.938-.205-.215-.504-.322-.896-.322h-2.856l.224-1.75h2.744c1.064 0 1.867.252 2.408.756.541.495.812 1.232.812 2.212V26h-2.128zm3.472 0v-1.75h2.492c.616 0 1.069-.21 1.358-.63.299-.42.448-1.008.448-1.764 0-.812-.149-1.437-.448-1.876-.289-.448-.742-.672-1.358-.672h-2.492l.224-1.75h2.268c1.297 0 2.282.378 2.954 1.134.681.747 1.022 1.801 1.022 3.164 0 1.316-.341 2.338-1.022 3.066-.672.719-1.657 1.078-2.954 1.078h-2.492zm12.054.098c-.971 0-1.806-.191-2.506-.574-.7-.383-1.237-.952-1.61-1.708-.374-.756-.56-1.708-.56-2.856v-3.402h2.114v3.388c0 .812.098 1.475.294 1.988.196.504.48.877.854 1.12.382.233.84.35 1.372.35h.056c.55-.01 1.012-.13 1.386-.364.382-.233.672-.602.868-1.106.196-.513.294-1.171.294-1.974v-3.402h2.128v3.416c0 1.148-.187 2.1-.56 2.856-.374.747-.906 1.311-1.596 1.694-.682.373-1.503.565-2.464.574h-.07zm-3.164-3.416l-.112-1.428c.606.037 1.068-.033 1.386-.21.317-.187.536-.476.658-.868.13-.392.196-.873.196-1.442v-1.176h2.114v1.078c0 .625-.075 1.195-.224 1.708-.14.513-.374.947-.7 1.302-.327.355-.761.625-1.302.812-.542.177-1.214.252-2.016.224zM157.057 26v-5.432c0-.42-.107-.733-.322-.938-.205-.215-.499-.322-.882-.322h-4.354l.238-1.75h4.228c1.064 0 1.867.252 2.408.756.541.495.812 1.232.812 2.212V26h-2.128zm-5.376 0v-4.55l2.128-.112V26h-2.128z" fill="#858585"/><path d="M3.329 158.771L0 157.941v28.226h300V77l-2.08 1.245-3.745 9.547-2.081 1.66-3.744-.83-4.161-4.15-2.497.415-3.745 9.131-2.496 5.811h-3.329l-3.329-5.395-2.231-.416h-2.346l-4.577 13.283-1.248.83-2.08.83-2.081-2.905-3.328-17.434-2.081-2.075-2.08.83-4.161 14.113-2.497 1.66-4.577-2.49-2.496-2.076h-3.329l-3.329 7.887-2.08 2.905-4.161.831-3.329 4.15-2.08.831-2.081-.831-4.577-10.792-3.744-.83-4.577 11.207-1.665 1.661-2.496-.415-4.993-7.057-3.745-.415-2.913-4.566-2.08-3.32-2.081-.83-1.664 1.245-4.161 15.773-1.248 2.49-1.665.415-2.08-4.151-4.161-21.999-1.248-1.66h-.832l-2.081 1.245-3.328 12.453-1.665 2.49-3.329.83-4.16 8.302-1.249 1.245h-2.08l-2.497-1.66-2.496-3.736-2.081-.83-3.328 2.075-2.081 7.057-2.08 2.49-2.081.83-3.744-2.075-2.913-2.491-2.913-.415-1.248-1.245-3.329-4.566-2.08-1.245-2.081 1.245-3.328 17.849-2.497 6.641h-2.496l-3.745-4.566-2.08-.83-3.33-.415-2.912 6.226-2.913 3.321-1.664.415-3.329-4.981-3.744-2.076-2.497.831-4.993 18.678-2.08.83-3.33-3.32-4.576-3.321h-2.08l-2.497-2.905-3.745-1.246-2.496 1.246-3.33 10.377-3.328 2.075-2.08.83-2.913 1.245-4.577.831-2.496-2.076-2.913-4.566-3.745-.83-3.329-2.49-2.912-1.661-1.665.415-1.664 3.321-3.329 7.887-2.08 1.66-2.497-.415-3.328-3.321z" fill="url(#paint0_linear_1151_24980)"/><path d="M300 77c-4.286 0-4.286 12.696-8.571 12.696-4.286 0-4.108-5.328-8.572-5.328-4.464 0-4.107 15.643-8.571 15.643-4.465 0-3.75-6.28-8.572-6.28-4.821 0-3.571 15.258-8.571 15.258s-4.286-22.467-8.572-22.467c-4.285 0-3.928 16.391-8.571 16.391s-3.929-4.489-8.571-4.489c-4.643 0-3.929 11.223-8.572 11.223-4.643 0-4.107 5.441-8.571 5.441-4.465 0-4.107-12.243-8.572-12.243-4.464 0-3.928 12.877-8.571 12.877s-3.572-7.776-8.572-7.776c-5 0-4.107-8.66-8.571-8.66-4.464 0-3.929 19.769-8.571 19.769-4.643 0-3.929-28.226-8.572-28.226-4.643 0-4.107 16.868-8.571 16.868-4.465 0-3.572 10.089-8.572 10.089-5 0-3.75-6.122-8.571-6.122-4.822 0-3.572 12.47-8.572 12.47-5 0-3.75-4.807-8.571-4.807s-3.929-7.277-8.571-7.277c-4.643 0-3.929 26.14-8.572 26.14-4.643 0-3.571-6.394-8.571-6.394s-4.286 9.998-8.572 9.998c-4.285 0-3.75-7.141-8.571-7.141-4.822 0-4.107 20.631-8.572 20.631-4.464 0-3.571-6.212-8.571-6.212s-3.75-4.512-8.571-4.512c-4.822 0-3.929 13.83-8.572 13.83-4.643 0-3.571 2.902-8.571 2.902s-3.572-7.641-8.572-7.641c-5 0-4.285-4.08-8.571-4.08s-4.286 13.262-8.572 13.262c-4.285 0-3.928-4.67-8.571-4.67" stroke="#C7A77F" stroke-width="2"/><circle cx="17.915" cy="150.75" r="3.583" fill="#000" stroke="#fff" stroke-width="2"/><circle cx="51.25" cy="145.75" r="3.583" fill="#000" stroke="#fff" stroke-width="2"/><circle cx="77.083" cy="134.916" r="3.583" fill="#000" stroke="#fff" stroke-width="2"/><circle cx="111.251" cy="111.583" r="3.583" fill="#000" stroke="#fff" stroke-width="2"/><circle cx="137.084" cy="113.25" r="3.583" fill="#000" stroke="#fff" stroke-width="2"/><circle cx="162.916" cy="92.417" r="3.583" fill="#000" stroke="#fff" stroke-width="2"/><circle cx="103.749" cy="136.583" r="3.583" fill="#000" stroke="#fff" stroke-width="2"/></g><defs><linearGradient id="paint0_linear_1151_24980" x1="150" y1="77" x2="150" y2="186.167" gradientUnits="userSpaceOnUse"><stop stop-color="#C69F7C" stop-opacity=".3"/><stop offset="1" stop-color="#fff" stop-opacity="0"/></linearGradient><clipPath id="clip0_1151_24980"><path fill="#fff" d="M0 0h176v176H0z"/></clipPath></defs></svg>