<svg width="176" height="176" viewBox="0 0 176 176" fill="none" xmlns="http://www.w3.org/2000/svg"><g clip-path="url(#clip0_1151_25009)"><rect width="176" height="176" rx="4" fill="#FAFAFA"/><path d="M87.879 74H70.913v-3.57l6.086-6.154c1.224-1.27 2.21-2.323 2.958-3.162.748-.861 1.292-1.632 1.632-2.312.34-.703.51-1.45.51-2.244 0-.975-.272-1.7-.816-2.176-.521-.476-1.235-.714-2.142-.714-.93 0-1.836.215-2.72.646-.884.43-1.813 1.043-2.788 1.836l-2.788-3.298a22.87 22.87 0 012.21-1.7c.793-.521 1.7-.94 2.72-1.258 1.043-.34 2.29-.51 3.74-.51 1.587 0 2.947.295 4.08.884 1.156.567 2.04 1.349 2.652 2.346.635.975.952 2.085.952 3.332 0 1.02-.159 1.96-.476 2.822a9.616 9.616 0 01-1.326 2.516c-.567.793-1.27 1.62-2.108 2.482-.839.839-1.79 1.757-2.856 2.754l-3.128 2.924v.238h10.574V74zm18.981-5.032h-2.924V74h-4.998v-5.032h-10.37v-3.57L99.21 49.724h4.726V64.99h2.924v3.978zm-7.922-8.092v-1.36l.068-1.598c.023-.544.045-1.02.068-1.428.023-.43.045-.725.068-.884h-.136c-.204.453-.42.895-.646 1.326-.227.43-.499.873-.816 1.326L93.09 64.99h5.848v-4.114z" fill="#111"/><path d="M73.114 96v-1.75h2.492c.616 0 1.069-.21 1.358-.63.299-.42.448-1.008.448-1.764 0-.812-.149-1.437-.448-1.876-.289-.448-.742-.672-1.358-.672h-2.492l.224-1.75h2.268c1.298 0 2.282.378 2.954 1.134.682.747 1.022 1.801 1.022 3.164 0 1.316-.34 2.338-1.022 3.066-.672.719-1.656 1.078-2.954 1.078h-2.492zm7.117-4.592c.084-.299.159-.616.224-.952a25.883 25.883 0 00.378-2.002c.056-.327.098-.625.126-.896h1.848l.084.154a40.87 40.87 0 01-.7 2.52c-.14.448-.29.84-.448 1.176H80.23zm3.108 0c.112-.401.21-.83.294-1.288.093-.457.177-.905.252-1.344.084-.448.144-.854.182-1.218h1.848l.07.154a23.97 23.97 0 01-.294 1.19 40.87 40.87 0 01-.392 1.33c-.14.448-.29.84-.448 1.176h-1.512zM92.542 96v-5.432c0-.42-.108-.733-.323-.938-.205-.215-.499-.322-.881-.322h-4.354l.238-1.75h4.228c1.063 0 1.866.252 2.407.756.542.495.813 1.232.813 2.212V96h-2.13zm-5.377 0v-4.55l2.128-.112V96h-2.128zm13.219.126c-1.334 0-2.338-.336-3.01-1.008-.662-.681-.994-1.643-.994-2.884v-.126c0-.653.112-1.218.336-1.694.234-.476.523-.817.868-1.022v-.196l1.806-.042-.07.182c-.298.121-.513.387-.644.798-.121.41-.182.924-.182 1.54 0 .887.145 1.568.434 2.044.299.476.784.714 1.456.714.682 0 1.172-.257 1.47-.77.299-.513.448-1.246.448-2.198 0-.69-.116-1.223-.35-1.596-.224-.373-.639-.56-1.246-.56H96.03l.224-1.75h4.466c1.27 0 2.203.34 2.8 1.022.607.681.91 1.647.91 2.898 0 1.475-.34 2.618-1.022 3.43-.672.812-1.68 1.218-3.024 1.218z" fill="#000"/><path d="M17.956 17.995V27a1 1 0 001 1h.088a1 1 0 001-1v-9.005l3.773 3.774a1 1 0 001.414 0l.062-.062a1 1 0 000-1.414l-5.586-5.586a1 1 0 00-1.414 0l-5.586 5.586a1 1 0 000 1.414l.062.062a1 1 0 001.414 0l3.773-3.774z" fill="#C7A77F"/><path d="M26 22.414h0a2 2 0 000-2.828L20.414 14a2 2 0 00-2.828 0L12 19.586a2 2 0 000 2.828l.062.062a2 2 0 002.828 0l2.066-2.067V27a2 2 0 002 2h.088a2 2 0 002-2v-6.59l2.066 2.066a2 2 0 002.828 0s0 0 0 0l.062-.062z" stroke="#C69F7C" stroke-opacity=".2" stroke-width="2"/><path d="M17.956 17.995V27a1 1 0 001 1h.088a1 1 0 001-1v-9.005l3.773 3.774a1 1 0 001.414 0l.062-.062a1 1 0 000-1.414l-5.586-5.586a1 1 0 00-1.414 0l-5.586 5.586a1 1 0 000 1.414l.062.062a1 1 0 001.414 0l3.773-3.774z" fill="#C7A77F"/><path d="M37.759 26h-2.114v-5.782c0-.243.004-.56.014-.952.018-.392.032-.737.042-1.036-.047.056-.15.159-.308.308-.15.14-.29.266-.42.378l-1.148.924-1.022-1.274 3.22-2.562h1.736V26zm3.783 0l3.752-8.218h-4.928v-1.778h7.168v1.33L43.754 26h-2.212zm12.884-8.568L51.234 26h-1.032l3.192-8.568h1.032zM60.043 26v-4.776c0-.424-.104-.74-.312-.948-.2-.216-.504-.324-.912-.324h-3.636l.144-1.116h3.576c.816 0 1.432.2 1.848.6.424.392.636.976.636 1.752V26h-1.344zm-4.692 0v-3.996l1.344-.096V26H55.35zm8.114-3.108v-4.056h1.344v4.056h-1.344zm-1.044-2.94l.144-1.116h1.668v1.116H62.42zm4.723 2.94v-4.056h1.344v4.056h-1.344zm-1.044-2.94l.145-1.116h1.667v1.116H66.1zm4.94-1.116h4.284l-.12.828L73.056 26h-1.392l2.088-6.048h-4.056v-2.928l1.344-.144v1.956zm5.126 7.596l-.012-1.104 2.58-.552c.328-.08.624-.188.888-.324.264-.144.488-.356.672-.636.192-.28.348-.66.468-1.14.12-.488.2-1.112.24-1.872l.132-1.968h1.344l-.132 1.98a13.244 13.244 0 01-.18 1.644c-.088.48-.22.908-.396 1.284a3.372 3.372 0 01-.66.984 3.686 3.686 0 01-.996.696c-.384.192-.84.344-1.368.456l-2.58.552zm1.824-.996l-1.488-6.504 1.308-.168 1.116 4.872c.04.192.048.396.024.612a2.203 2.203 0 01-.144.624c-.072.2-.172.388-.3.564h-.516z" fill="#8A8A8A"/><path d="M127.348 26v-5.432c0-.42-.103-.733-.308-.938-.205-.215-.504-.322-.896-.322h-3.906v-1.75h4.018c1.064 0 1.867.252 2.408.756.541.495.812 1.232.812 2.212V26h-2.128zm-6.608 0l.224-1.75h.504a.855.855 0 00.434-.098.676.676 0 00.252-.322 1.4 1.4 0 00.084-.518v-5.348h2.128v5.292c0 .896-.21 1.577-.63 2.044-.411.467-1.022.7-1.834.7h-1.162zm.21-6.692l.238-1.75h2.24v1.75h-2.478zM132.006 26v-8.442h2.128V26h-2.128zm-1.148-6.692l.238-1.75h2.31v1.75h-2.548zM139.662 26v-5.432c0-.42-.103-.733-.308-.938-.205-.215-.504-.322-.896-.322h-2.856l.224-1.75h2.744c1.064 0 1.867.252 2.408.756.541.495.812 1.232.812 2.212V26h-2.128zm4.388-3.556v-4.886h2.128v4.886h-2.128zm-1.148-3.136l.238-1.75h2.1v1.75h-2.338zM147.509 26v-1.75h2.492c.616 0 1.069-.21 1.358-.63.299-.42.448-1.008.448-1.764 0-.812-.149-1.437-.448-1.876-.289-.448-.742-.672-1.358-.672h-2.492l.224-1.75h2.268c1.297 0 2.282.378 2.954 1.134.681.747 1.022 1.801 1.022 3.164 0 1.316-.341 2.338-1.022 3.066-.672.719-1.657 1.078-2.954 1.078h-2.492zm7.375 0l.938-4.956-1.176-3.486h2.128l.532 1.918h.056c.131-.336.28-.63.448-.882a2.35 2.35 0 01.602-.644c.233-.177.499-.308.798-.392.308-.093.663-.14 1.064-.14.663 0 1.241.163 1.736.49.504.317.896.784 1.176 1.4.289.607.434 1.344.434 2.212v.196c0 .85-.154 1.596-.462 2.24a3.464 3.464 0 01-1.316 1.512c-.579.355-1.279.532-2.1.532h-1.344l.252-1.75h.994c.579 0 1.031-.238 1.358-.714.327-.476.49-1.083.49-1.82v-.196c0-.504-.075-.929-.224-1.274-.149-.345-.35-.602-.602-.77a1.366 1.366 0 00-.826-.266c-.336 0-.616.051-.84.154a1.34 1.34 0 00-.56.434c-.14.196-.257.43-.35.7-.093.27-.163.574-.21.91L157.082 26h-2.198z" fill="#858585"/><path d="M0 157.844c22.008 0 24.82-18.303 46.827-18.303 22.008 0 18.36 5.459 40.367 5.459 22.008 0 21.587-19.441 43.595-19.441S153.992 135.92 176 135.92" stroke="#C69F7C" stroke-opacity=".15" stroke-width="20" stroke-linecap="round"/><path d="M0 157.844c22.008 0 24.82-18.303 46.827-18.303 22.008 0 18.36 5.459 40.367 5.459 22.008 0 21.587-19.441 43.595-19.441S153.992 135.92 176 135.92" stroke="#C7A77F" stroke-width="6" stroke-linecap="round" stroke-linejoin="round"/><path d="M0 168c22.625 0 19.952-42 42.578-42 22.625 0 19.947 11.2 42.573 11.2 22.625 0 19.14 18.4 41.766 18.4 22.625 0 26.458 9.452 49.083 9.452" stroke="#6AC4DC" stroke-width="6" stroke-linecap="round"/></g><defs><clipPath id="clip0_1151_25009"><path fill="#fff" d="M0 0h176v176H0z"/></clipPath></defs></svg>