<svg width="176" height="176" viewBox="0 0 176 176" fill="none" xmlns="http://www.w3.org/2000/svg"><g clip-path="url(#clip0_1151_25049)"><rect width="176" height="176" rx="4" fill="#FAFAFA"/><path d="M69.558 52.418c1.406 0 2.686.215 3.842.646 1.18.43 2.12 1.077 2.822 1.938.726.861 1.089 1.95 1.089 3.264 0 .975-.193 1.836-.579 2.584a6.284 6.284 0 01-1.564 1.904 10.296 10.296 0 01-2.21 1.428c.862.453 1.678.986 2.448 1.598a7.014 7.014 0 011.904 2.108c.5.793.748 1.734.748 2.822 0 1.337-.362 2.505-1.088 3.502-.702.997-1.7 1.768-2.992 2.312-1.269.544-2.742.816-4.42.816-1.813 0-3.354-.26-4.624-.782-1.269-.521-2.243-1.27-2.923-2.244-.658-.975-.986-2.13-.986-3.468 0-1.11.203-2.074.611-2.89a6.97 6.97 0 011.7-2.108 10.198 10.198 0 012.347-1.53 12.032 12.032 0 01-1.973-1.53 7.55 7.55 0 01-1.428-1.972c-.34-.748-.51-1.61-.51-2.584 0-1.292.363-2.369 1.089-3.23.725-.861 1.677-1.507 2.855-1.938a11.299 11.299 0 013.843-.646zM65.784 70.54c0 .884.306 1.61.918 2.176.635.567 1.564.85 2.788.85.862 0 1.565-.125 2.109-.374.566-.25.986-.6 1.257-1.054.295-.453.443-.975.443-1.564a2.48 2.48 0 00-.545-1.598 5.582 5.582 0 00-1.36-1.258 15.425 15.425 0 00-1.632-1.054l-.442-.238a9.882 9.882 0 00-1.87 1.088 4.93 4.93 0 00-1.224 1.36c-.294.476-.442 1.031-.442 1.666zm3.74-14.382c-.838 0-1.54.215-2.108.646-.543.43-.816 1.043-.816 1.836 0 .544.137 1.031.409 1.462.272.408.634.77 1.088 1.088.453.295.94.578 1.462.85.52-.25.997-.521 1.428-.816a3.722 3.722 0 001.088-1.054c.272-.43.407-.94.407-1.53 0-.793-.283-1.405-.85-1.836-.544-.43-1.246-.646-2.108-.646zm26.938 8.704c0 1.95-.16 3.695-.477 5.236-.294 1.541-.781 2.856-1.462 3.944a6.628 6.628 0 01-2.617 2.448c-1.066.567-2.38.85-3.945.85-1.949 0-3.547-.499-4.793-1.496-1.247-.997-2.177-2.425-2.789-4.284-.589-1.859-.883-4.091-.883-6.698 0-2.63.272-4.873.816-6.732.544-1.859 1.439-3.287 2.686-4.284 1.246-.997 2.9-1.496 4.963-1.496 1.95 0 3.548.499 4.794 1.496 1.247.975 2.177 2.403 2.788 4.284.612 1.859.918 4.103.918 6.732zm-11.867 0c0 1.836.103 3.377.306 4.624.205 1.224.544 2.153 1.02 2.788.5.612 1.18.918 2.04.918.862 0 1.53-.306 2.007-.918.498-.612.85-1.53 1.053-2.754.227-1.247.34-2.8.34-4.658 0-1.859-.113-3.4-.34-4.624-.204-1.247-.555-2.176-1.053-2.788-.477-.635-1.145-.952-2.007-.952-.86 0-1.54.317-2.04.952-.476.612-.816 1.541-1.02 2.788-.203 1.224-.305 2.765-.305 4.624zm30.304 0c0 1.95-.159 3.695-.476 5.236-.295 1.541-.782 2.856-1.462 3.944a6.632 6.632 0 01-2.618 2.448c-1.066.567-2.38.85-3.944.85-1.95 0-3.548-.499-4.794-1.496-1.247-.997-2.177-2.425-2.788-4.284-.59-1.859-.884-4.091-.884-6.698 0-2.63.271-4.873.816-6.732.544-1.859 1.439-3.287 2.686-4.284 1.246-.997 2.901-1.496 4.964-1.496 1.949 0 3.547.499 4.794 1.496 1.246.975 2.176 2.403 2.788 4.284.612 1.859.918 4.103.918 6.732zm-11.866 0c0 1.836.102 3.377.306 4.624.204 1.224.544 2.153 1.02 2.788.498.612 1.178.918 2.04.918.861 0 1.53-.306 2.006-.918.498-.612.85-1.53 1.054-2.754.226-1.247.34-2.8.34-4.658 0-1.859-.114-3.4-.34-4.624-.204-1.247-.556-2.176-1.054-2.788-.476-.635-1.145-.952-2.006-.952-.862 0-1.542.317-2.04.952-.476.612-.816 1.541-1.02 2.788-.204 1.224-.306 2.765-.306 4.624z" fill="#111"/><path d="M80.178 90.558c1.064 0 1.867.252 2.408.756.542.495.812 1.232.812 2.212V99H81.27v-5.432c0-.42-.102-.733-.308-.938-.205-.215-.504-.322-.896-.322h-1.932c-.046.075-.093.2-.14.378-.037.168-.056.462-.056.882V99H75.81v-4.788c0-.373.033-.71.098-1.008.075-.308.22-.593.434-.854l-.112-.098v-1.694h3.948zm-5.068 1.75l.224-1.75h3.934v1.75H75.11zm9.332 2.1c.084-.299.158-.616.224-.952a25.883 25.883 0 00.378-2.002c.056-.327.098-.625.126-.896h1.848l.084.154c-.084.345-.187.742-.308 1.19-.122.439-.252.882-.392 1.33a9.2 9.2 0 01-.448 1.176h-1.512zm3.108 0c.112-.401.21-.83.294-1.288.093-.457.177-.905.252-1.344.084-.448.144-.854.182-1.218h1.848l.07.154a24.99 24.99 0 01-.294 1.19c-.122.439-.252.882-.392 1.33a9.2 9.2 0 01-.448 1.176H87.55zm8.433 4.69c-.971 0-1.806-.191-2.507-.574-.7-.383-1.236-.952-1.61-1.708-.373-.756-.56-1.708-.56-2.856v-3.402h2.115v3.388c0 .812.097 1.475.293 1.988.197.504.481.877.855 1.12.382.233.84.35 1.371.35h.056c.551-.01 1.013-.13 1.386-.364.383-.233.672-.602.868-1.106.197-.513.294-1.171.294-1.974v-3.402h2.128v3.416c0 1.148-.186 2.1-.56 2.856-.373.747-.905 1.311-1.596 1.694-.68.373-1.502.565-2.464.574h-.07zm-3.165-3.416l-.111-1.428c.606.037 1.068-.033 1.386-.21.317-.187.536-.476.657-.868.131-.392.197-.873.197-1.442v-1.176h2.114v1.078c0 .625-.075 1.195-.225 1.708-.14.513-.373.947-.7 1.302-.326.355-.76.625-1.301.812-.542.177-1.214.252-2.016.224z" fill="#000"/><path d="M16 26.5c2.5-5.5 3.892-6.07 6.195-1.544.342.672 2.718-6.127 3.305-6.456.434-.244 2.007 5.434 2.326 4.938 1.991-3.097 6.438-8.966 7.915-4.321.712 2.24 7.7-1.333 8.265-3.617" stroke="#C7A77F" stroke-opacity=".2" stroke-width="6" stroke-linecap="round"/><path d="M16 26.5c2.5-5.5 3.892-6.07 6.195-1.544.342.672 2.718-6.127 3.305-6.456.434-.244 2.007 5.434 2.326 4.938 1.991-3.097 6.438-8.966 7.915-4.321.712 2.24 7.7-1.333 8.265-3.617" stroke="#C7A77F" stroke-width="2" stroke-linecap="round"/><path d="M53.092 20.316h2.646v1.498h-2.646v2.632h-1.498v-2.632h-2.646v-1.498h2.646v-2.66h1.498v2.66zm7.27-4.438c.578 0 1.105.089 1.581.266.486.177.873.443 1.162.798.3.355.448.803.448 1.344 0 .597-.172 1.092-.518 1.484-.336.383-.76.7-1.274.952.355.187.691.406 1.008.658.327.243.588.532.784.868.206.327.308.714.308 1.162 0 .55-.149 1.031-.448 1.442-.289.41-.7.728-1.232.952-.522.224-1.129.336-1.82.336-1.12 0-1.988-.238-2.604-.714-.606-.476-.91-1.13-.91-1.96 0-.69.187-1.246.56-1.666.374-.42.826-.76 1.358-1.022a4.599 4.599 0 01-1.148-1.008c-.308-.401-.462-.9-.462-1.498 0-.532.15-.975.448-1.33.3-.355.691-.62 1.176-.798a4.654 4.654 0 011.582-.266zm-.015 1.54c-.345 0-.634.089-.868.266-.224.177-.336.43-.336.756 0 .345.122.625.364.84.243.215.528.401.854.56.318-.15.598-.327.84-.532.243-.215.364-.504.364-.868 0-.327-.116-.579-.35-.756-.224-.177-.513-.266-.868-.266zm-1.54 5.922c0 .364.126.663.378.896.262.233.644.35 1.148.35.523 0 .915-.112 1.176-.336.262-.224.392-.523.392-.896 0-.252-.074-.471-.224-.658a2.297 2.297 0 00-.56-.518 6.332 6.332 0 00-.672-.434l-.182-.098a3.763 3.763 0 00-1.05.714c-.27.27-.406.597-.406.98zm6.052-1.582c0-.579.042-1.148.126-1.708.084-.56.229-1.087.434-1.582.215-.504.509-.947.882-1.33a3.852 3.852 0 011.442-.91c.588-.224 1.297-.336 2.128-.336.196 0 .425.01.686.028.261.01.48.033.658.07v1.694a3.508 3.508 0 00-.588-.098 4.553 4.553 0 00-.616-.042c-.83 0-1.474.13-1.932.392-.448.261-.765.63-.952 1.106-.186.467-.294 1.008-.322 1.624h.084c.187-.327.453-.602.798-.826.355-.224.812-.336 1.372-.336.877 0 1.573.275 2.086.826.514.55.77 1.33.77 2.338 0 1.083-.308 1.932-.924 2.548-.606.616-1.433.924-2.478.924a3.72 3.72 0 01-1.848-.462c-.55-.317-.99-.798-1.316-1.442-.327-.653-.49-1.48-.49-2.478zm3.612 2.688c.41 0 .747-.14 1.008-.42.261-.29.392-.733.392-1.33 0-.485-.112-.868-.336-1.148-.224-.28-.564-.42-1.022-.42-.308 0-.579.07-.812.21a1.46 1.46 0 00-.546.518c-.13.215-.196.434-.196.658 0 .308.056.611.168.91.112.29.28.532.504.728.234.196.513.294.84.294zm6.696-8.582c.784 0 1.376.275 1.778.826.41.541.616 1.307.616 2.296 0 .99-.192 1.764-.574 2.324-.383.55-.99.826-1.82.826-.766 0-1.349-.275-1.75-.826-.401-.56-.602-1.335-.602-2.324 0-.99.186-1.755.56-2.296.373-.55.97-.826 1.792-.826zm7.098.14L76.72 26h-1.638l5.544-9.996h1.638zm-7.084 1.288c-.43 0-.644.57-.644 1.708 0 1.148.214 1.722.644 1.722.439 0 .658-.574.658-1.722 0-1.139-.22-1.708-.658-1.708zm6.986 2.562c.784 0 1.376.275 1.778.826.41.541.616 1.307.616 2.296 0 .99-.192 1.764-.574 2.324-.383.55-.99.826-1.82.826-.766 0-1.349-.275-1.75-.826-.401-.56-.602-1.335-.602-2.324 0-.99.186-1.755.56-2.296.373-.55.97-.826 1.792-.826zm.014 1.428c-.43 0-.644.57-.644 1.708 0 1.148.214 1.722.644 1.722.439 0 .658-.574.658-1.722 0-1.139-.22-1.708-.658-1.708z" fill="#8A8A8A"/><path d="M130.216 26.126c-1.297 0-2.296-.397-2.996-1.19-.69-.803-1.036-1.979-1.036-3.528v-3.85h2.114v3.85c0 .99.164 1.74.49 2.254.336.513.798.77 1.386.77.607 0 1.083-.257 1.428-.77.346-.513.518-1.265.518-2.254 0-.7-.088-1.246-.266-1.638-.168-.392-.466-.593-.896-.602a2.286 2.286 0 00-.574.042l-.56.126v-1.694c.271-.047.523-.089.756-.126.234-.037.486-.056.756-.056.999.019 1.732.369 2.198 1.05.467.672.7 1.638.7 2.898 0 1.55-.35 2.725-1.05 3.528-.69.793-1.68 1.19-2.968 1.19zm6.041-3.682v-4.886h2.128v4.886h-2.128zm-1.148-3.136l.238-1.75h2.1v1.75h-2.338zm4.649 0v-1.75h7.196l-.238 1.75h-6.958zM143.426 26v-5.306c0-.13.019-.285.056-.462.037-.187.103-.364.196-.532.103-.168.243-.299.42-.392h1.694a.545.545 0 00-.21.35c-.019.15-.028.327-.028.532V26h-2.128zm8.404 0v-5.432c0-.42-.103-.733-.308-.938-.205-.215-.504-.322-.896-.322h-2.856l.224-1.75h2.744c1.064 0 1.867.252 2.408.756.541.495.812 1.232.812 2.212V26h-2.128zm7.462 0l1.946-6.706h-5.74l.224-1.736h7.924l-.14 1.26L161.42 26h-2.128zm-3.458 2.576v-7.49l2.128-.126v7.504l-2.128.112z" fill="#858585"/><path d="M8.721 147.587c-5.044-1.009-7.38 1.932-8.721 3.391v50.355h176V106c-1.669 5.793-15.566 20.533-15.933 20.533-.367 0-1.777-.367-1.961-.733-.981-1.956-7.354 2.2-7.351 2.574.002.374-10.701 3.264-14.843 5.107-1.23-2.513-4.001-7.666-7.221-4.748-4.025 3.648-11.74 6.837-12.747 5.378-1.006-1.459-3.783-6.953-8.143-4.034l-.091.06c-4.353 2.914-10.32 6.907-14.317 6.907-4.025 0-6.567-4.41-8.58-6.355-2.012-1.946-4.424 3.279-6.101 4.738-1.677 1.459-1.627 1.611-2.968.395-1.342-1.216-5.522.25-6.864 1.222-1.341.973-.978 2.861-7.108 4.889-7.952 2.632-7.945-6.692-9.315-7.089-1.957-.566-7.274 3.744-11.635 6.176-4.36 2.432-4.466 2.627-7.485 3.113-3.019.487-5.986-2.447-8.334-2.933-2.348-.486-3.69 2.462-6.373 5.867-2.684 3.404-5.25 1.452-9.909.52z" fill="url(#paint0_linear_1151_25049)"/><path d="M.489 150.489c1.342-1.526 3.96-4.172 7.72-3.561 4.7.763 7.384 3.561 10.07 0 2.685-3.561 4.699-6.613 7.049-6.104 2.35.509 4.027 3.306 7.048 2.798 3.021-.509-5.395 5.179 8.056-2.798 13.452-7.977 11.987-6.761 12.755-4.07.947 3.318 3.693 8.139 9.399 5.087 5.706-3.052 5.84-6.358 9.734-6.358s1.678-1.272 3.02 0c1.343 1.271 2.015.763 3.693-.763s4.085-6.104 6.1-4.07c2.013 2.035 3.634 6.104 7.662 6.104 4.028 0 10.527-4.069 14.89-7.121 4.364-3.052 6.928 2.798 7.935 4.324 1.007 1.526 8.391-1.526 12.419-5.341 3.223-3.052 6.49 1.441 7.72 4.069 4.364-1.102 13.964-3.968 17.455-6.613 3.491-2.645 5.482-.254 6.042 1.272 3.132-1.78 14.332-14.487 16.011-21.1" stroke="url(#paint1_linear_1151_25049)" stroke-width="4" stroke-linecap="round" stroke-linejoin="round"/></g><defs><linearGradient id="paint0_linear_1151_25049" x1="85.869" y1="117.43" x2="85.869" y2="169.231" gradientUnits="userSpaceOnUse"><stop stop-color="#C7A77F" stop-opacity=".3"/><stop offset="1" stop-color="#fff" stop-opacity="0"/></linearGradient><linearGradient id="paint1_linear_1151_25049" x1="175.512" y1="106" x2="-1.44" y2="150.606" gradientUnits="userSpaceOnUse"><stop stop-color="#C7A77F"/><stop offset="1" stop-color="#8F6B45"/></linearGradient><clipPath id="clip0_1151_25049"><path fill="#fff" d="M0 0h176v176H0z"/></clipPath></defs></svg>