<svg width="361" height="259" viewBox="0 0 361 259" fill="none" xmlns="http://www.w3.org/2000/svg"><g clip-path="url(#clip0_1366_25153)"><rect width="361" height="258.5" rx="4" fill="#FAFAFA"/><path d="M262.202 143.601c0 45.067-36.534 81.601-81.601 81.601S99 188.668 99 143.601 135.534 62 180.601 62s81.601 36.534 81.601 81.601zm-138.722 0c0 31.547 25.574 57.121 57.121 57.121s57.121-25.574 57.121-57.121-25.574-57.12-57.121-57.12-57.121 25.573-57.121 57.12z" fill="#EEE"/><path d="M249.962 144.616c6.76 0 12.334 5.51 11.324 12.194A81.603 81.603 0 01140.9 215.908a81.605 81.605 0 01-32.048-110.162 81.61 81.61 0 0118.894-23.3c5.151-4.379 12.77-2.542 16.33 3.205 3.56 5.747 1.666 13.212-3.193 17.912a57.116 57.116 0 00-9.188 70.566 57.123 57.123 0 0077.849 19.732 57.108 57.108 0 0026.871-37.098c1.438-6.606 6.787-12.147 13.547-12.147z" fill="url(#paint0_linear_1366_25153)"/><path d="M156.867 151h-6.644v-20.02c.029-.733.059-1.496.088-2.288.029-.792.059-1.496.088-2.112-.147.176-.469.499-.968.968-.469.44-.909.836-1.32 1.188l-3.608 2.904-3.212-4.004 10.12-8.052h5.456V151zm29.404 0h-21.956v-4.62l7.876-7.964a150.604 150.604 0 003.828-4.092c.968-1.115 1.672-2.112 2.112-2.992a6.58 6.58 0 00.66-2.904c0-1.261-.352-2.2-1.056-2.816-.675-.616-1.599-.924-2.772-.924-1.203 0-2.376.279-3.52.836-1.144.557-2.347 1.349-3.608 2.376l-3.608-4.268a29.55 29.55 0 012.86-2.2c1.026-.675 2.2-1.217 3.52-1.628 1.349-.44 2.962-.66 4.84-.66 2.053 0 3.813.381 5.28 1.144 1.496.733 2.64 1.745 3.432 3.036.821 1.261 1.232 2.699 1.232 4.312 0 1.32-.206 2.537-.616 3.652-.382 1.115-.954 2.2-1.716 3.256-.734 1.027-1.643 2.097-2.728 3.212a161.116 161.116 0 01-3.696 3.564l-4.048 3.784v.308h13.684V151zm2.651-3.08c0-1.349.367-2.288 1.1-2.816.734-.557 1.628-.836 2.684-.836 1.027 0 1.907.279 2.64.836.734.528 1.1 1.467 1.1 2.816 0 1.291-.366 2.229-1.1 2.816-.733.557-1.613.836-2.64.836-1.056 0-1.95-.279-2.684-.836-.733-.587-1.1-1.525-1.1-2.816zm10.259-10.252c0-1.819.132-3.608.396-5.368.264-1.76.719-3.417 1.364-4.972a13.52 13.52 0 012.772-4.18c1.203-1.232 2.713-2.185 4.532-2.86 1.848-.704 4.077-1.056 6.688-1.056.616 0 1.335.029 2.156.088.821.029 1.511.103 2.068.22v5.324a11.018 11.018 0 00-1.848-.308 14.313 14.313 0 00-1.936-.132c-1.965 0-3.593.235-4.884.704-1.261.469-2.259 1.144-2.992 2.024-.733.88-1.276 1.921-1.628 3.124-.323 1.173-.513 2.493-.572 3.96h.264a7.658 7.658 0 011.496-1.848c.616-.557 1.364-.997 2.244-1.32.88-.323 1.907-.484 3.08-.484 1.848 0 3.432.396 4.752 1.188 1.349.763 2.391 1.892 3.124 3.388.733 1.467 1.1 3.256 1.1 5.368 0 2.259-.44 4.209-1.32 5.852a8.852 8.852 0 01-3.696 3.784c-1.584.851-3.476 1.276-5.676 1.276-1.613 0-3.124-.279-4.532-.836a10.297 10.297 0 01-3.652-2.508c-1.027-1.144-1.833-2.581-2.42-4.312-.587-1.731-.88-3.769-.88-6.116zm11.352 8.448c1.291 0 2.347-.44 3.168-1.32.821-.909 1.232-2.303 1.232-4.18 0-1.525-.352-2.728-1.056-3.608-.704-.88-1.775-1.32-3.212-1.32-.968 0-1.819.22-2.552.66a4.59 4.59 0 00-1.716 1.628c-.411.675-.616 1.364-.616 2.068 0 .733.103 1.467.308 2.2.205.704.499 1.349.88 1.936a4.876 4.876 0 001.496 1.408c.587.352 1.276.528 2.068.528z" fill="#111"/><path d="M151.971 169.76v-2.5l4.78-.96c.48-.107.9-.26 1.26-.46a2.81 2.81 0 00.96-.94c.267-.413.48-.967.64-1.66.173-.707.3-1.613.38-2.72l.24-3.58h3.04l-.26 3.68a20.457 20.457 0 01-.28 2.32c-.12.72-.32 1.393-.6 2.02a6.15 6.15 0 01-1.08 1.7c-.453.507-1.033.94-1.74 1.3-.707.36-1.56.64-2.56.84l-4.78.96zm2.86-1.9l-2.26-10.72 2.98-.36 1.48 7.34c.093.427.113.867.06 1.32a4.25 4.25 0 01-.38 1.3 4.192 4.192 0 01-.74 1.12h-1.14zm17.318 1.1l-7.64-12.02h3.56l3.08 5.22 3.28 5.06-2.28 1.74zm-7.36.04v-2.5h8.74l.9.72-.28 1.78h-9.36zm6.14-4.78l-.86-1.98c.36-.107.646-.28.86-.52.213-.24.38-.52.5-.84.12-.32.206-.64.26-.96.066-.333.12-.647.16-.94l.24-2.04h3.04l-.24 2.28a7.85 7.85 0 01-.32 1.46c-.16.507-.394.993-.7 1.46a4.777 4.777 0 01-1.18 1.26c-.48.36-1.067.633-1.76.82zm7.236 4.78v-12.06h3.04V169h-3.04zm-1.64-9.56l.34-2.5h3.3v2.5h-3.64zm7.058 9.56l1.34-7.08-1.68-4.98h3.04l.76 2.74h.08c.186-.48.4-.9.64-1.26.24-.373.526-.68.86-.92.333-.253.713-.44 1.14-.56.44-.133.946-.2 1.52-.2.946 0 1.773.233 2.48.7.72.453 1.28 1.12 1.68 2 .413.867.62 1.92.62 3.16v.28c0 1.213-.22 2.28-.66 3.2a4.955 4.955 0 01-1.88 2.16c-.827.507-1.827.76-3 .76h-1.92l.36-2.5h1.42c.826 0 1.473-.34 1.94-1.02.466-.68.7-1.547.7-2.6v-.28c0-.72-.107-1.327-.32-1.82-.214-.493-.5-.86-.86-1.1a1.952 1.952 0 00-1.18-.38c-.48 0-.88.073-1.2.22-.32.133-.587.34-.8.62-.2.28-.367.613-.5 1a6.81 6.81 0 00-.3 1.3l-1.14 6.56h-3.14zm13.652 0l1.34-7.08-1.68-4.98h3.04l.76 2.74h.08c.187-.48.4-.9.64-1.26.24-.373.527-.68.86-.92.333-.253.713-.44 1.14-.56.44-.133.947-.2 1.52-.2.947 0 1.773.233 2.48.7.72.453 1.28 1.12 1.68 2 .413.867.62 1.92.62 3.16v.28c0 1.213-.22 2.28-.66 3.2-.427.92-1.053 1.64-1.88 2.16-.827.507-1.827.76-3 .76h-1.92l.36-2.5h1.42c.827 0 1.473-.34 1.94-1.02.467-.68.7-1.547.7-2.6v-.28c0-.72-.107-1.327-.32-1.82-.213-.493-.5-.86-.86-1.1a1.952 1.952 0 00-1.18-.38c-.48 0-.88.073-1.2.22-.32.133-.587.34-.8.62-.2.28-.367.613-.5 1s-.233.82-.3 1.3l-1.14 6.56h-3.14z" fill="#000"/><mask id="a" maskUnits="userSpaceOnUse" x="132" y="22.5" width="20" height="20" fill="#000"><path fill="#fff" d="M132 22.5h20v20h-20z"/><path d="M150 32.5a8 8 0 11-16 0 8 8 0 0116 0zm-12.48 0a4.48 4.48 0 108.96 0 4.48 4.48 0 00-8.96 0z"/></mask><path d="M150 32.5a8 8 0 11-16 0 8 8 0 0116 0zm-12.48 0a4.48 4.48 0 108.96 0 4.48 4.48 0 00-8.96 0z" fill="#C7A77F" fill-opacity=".3"/><path d="M150 32.5a8 8 0 11-16 0 8 8 0 0116 0zm-12.48 0a4.48 4.48 0 108.96 0 4.48 4.48 0 00-8.96 0z" stroke="#C7A77F" stroke-opacity=".3" stroke-width="4" mask="url(#a)"/><path d="M148.24 32.5c.972 0 1.779-.797 1.567-1.746a7.998 7.998 0 00-15.728 2.867 8 8 0 0010.43 6.475c.923-.305 1.193-1.407.694-2.24-.499-.835-1.589-1.065-2.55-.924a4.486 4.486 0 01-3.784-1.228 4.484 4.484 0 011.393-7.333 4.48 4.48 0 015.877 2.414c.372.898 1.129 1.715 2.101 1.715z" fill="#C7A77F"/><path d="M159.361 27.378a4.5 4.5 0 011.582.266c.486.177.873.443 1.162.798.299.355.448.803.448 1.344 0 .597-.172 1.092-.518 1.484-.336.383-.76.7-1.274.952.355.187.691.406 1.008.658.327.243.588.532.784.868.206.327.308.714.308 1.162 0 .55-.149 1.031-.448 1.442-.289.41-.7.728-1.232.952-.522.224-1.129.336-1.82.336-1.12 0-1.988-.238-2.604-.714-.606-.476-.91-1.13-.91-1.96 0-.69.187-1.246.56-1.666.374-.42.826-.76 1.358-1.022a4.61 4.61 0 01-1.148-1.008c-.308-.401-.462-.9-.462-1.498 0-.532.15-.975.448-1.33.299-.355.691-.62 1.176-.798a4.655 4.655 0 011.582-.266zm-.014 1.54c-.345 0-.634.089-.868.266-.224.177-.336.43-.336.756 0 .345.122.625.364.84.243.215.528.401.854.56a3.76 3.76 0 00.84-.532c.243-.215.364-.504.364-.868 0-.327-.116-.579-.35-.756-.224-.177-.513-.266-.868-.266zm-1.54 5.922c0 .364.126.663.378.896.262.233.644.35 1.148.35.523 0 .915-.112 1.176-.336.262-.224.392-.523.392-.896 0-.252-.074-.471-.224-.658a2.291 2.291 0 00-.56-.518 6.213 6.213 0 00-.672-.434l-.182-.098a3.776 3.776 0 00-1.05.714c-.27.27-.406.597-.406.98zm12.716-5.096c0 .69-.21 1.241-.63 1.652-.411.41-.919.69-1.526.84v.042c.803.093 1.409.336 1.82.728.42.392.63.92.63 1.582 0 .579-.145 1.101-.434 1.568-.28.457-.719.821-1.316 1.092-.588.261-1.349.392-2.282.392-1.083 0-2.044-.182-2.884-.546v-1.792a6.25 6.25 0 002.66.658c.756 0 1.283-.13 1.582-.392.308-.261.462-.63.462-1.106 0-.28-.07-.513-.21-.7-.14-.196-.387-.34-.742-.434-.345-.103-.831-.154-1.456-.154h-.756V31.55h.77c.616 0 1.083-.056 1.4-.168.327-.121.546-.28.658-.476.121-.205.182-.439.182-.7 0-.355-.112-.63-.336-.826-.215-.205-.579-.308-1.092-.308-.476 0-.891.084-1.246.252a6.89 6.89 0 00-.882.476l-.98-1.456c.392-.28.849-.513 1.372-.7.532-.187 1.162-.28 1.89-.28 1.027 0 1.839.21 2.436.63.607.41.91.994.91 1.75zm3.644-2.38c.784 0 1.377.275 1.778.826.411.541.616 1.307.616 2.296 0 .99-.191 1.764-.574 2.324-.383.55-.989.826-1.82.826-.765 0-1.349-.275-1.75-.826-.401-.56-.602-1.335-.602-2.324 0-.99.187-1.755.56-2.296.373-.55.971-.826 1.792-.826zm7.098.14l-5.544 9.996h-1.638l5.544-9.996h1.638zm-7.084 1.288c-.429 0-.644.57-.644 1.708 0 1.148.215 1.722.644 1.722.439 0 .658-.574.658-1.722 0-1.139-.219-1.708-.658-1.708zm6.986 2.562c.784 0 1.377.275 1.778.826.411.541.616 1.307.616 2.296 0 .99-.191 1.764-.574 2.324-.383.55-.989.826-1.82.826-.765 0-1.349-.275-1.75-.826-.401-.56-.602-1.335-.602-2.324 0-.99.187-1.755.56-2.296.373-.55.971-.826 1.792-.826zm.014 1.428c-.429 0-.644.57-.644 1.708 0 1.148.215 1.722.644 1.722.439 0 .658-.574.658-1.722 0-1.139-.219-1.708-.658-1.708zm10.124-3.85l-3.192 8.568h-1.032l3.192-8.568h1.032zm4.381 8.568h-1.032v-5.988c0-.344.004-.62.012-.828.008-.208.02-.424.036-.648a5.805 5.805 0 01-.348.324l-.396.336-.912.744-.552-.708 2.316-1.8h.876V37.5zm8.883-4.296c0 .92-.096 1.712-.288 2.376-.192.656-.496 1.16-.912 1.512-.416.352-.968.528-1.656.528-.968 0-1.684-.388-2.148-1.164-.456-.784-.684-1.868-.684-3.252 0-.928.092-1.72.276-2.376.192-.656.496-1.156.912-1.5.416-.352.964-.528 1.644-.528.96 0 1.676.388 2.148 1.164.472.768.708 1.848.708 3.24zm-4.632 0c0 1.176.132 2.056.396 2.64.272.584.732.876 1.38.876.64 0 1.096-.288 1.368-.864.28-.584.42-1.468.42-2.652 0-1.168-.14-2.044-.42-2.628-.272-.584-.728-.876-1.368-.876-.648 0-1.108.292-1.38.876-.264.584-.396 1.46-.396 2.628zm11.499 0c0 .92-.096 1.712-.288 2.376-.192.656-.496 1.16-.912 1.512-.416.352-.968.528-1.656.528-.968 0-1.684-.388-2.148-1.164-.456-.784-.684-1.868-.684-3.252 0-.928.092-1.72.276-2.376.192-.656.496-1.156.912-1.5.416-.352.964-.528 1.644-.528.96 0 1.676.388 2.148 1.164.472.768.708 1.848.708 3.24zm-4.632 0c0 1.176.132 2.056.396 2.64.272.584.732.876 1.38.876.64 0 1.096-.288 1.368-.864.28-.584.42-1.468.42-2.652 0-1.168-.14-2.044-.42-2.628-.272-.584-.728-.876-1.368-.876-.648 0-1.108.292-1.38.876-.264.584-.396 1.46-.396 2.628zm7.563-4.392c.592 0 1.04.236 1.344.708.304.464.456 1.12.456 1.968 0 .848-.148 1.512-.444 1.992-.288.472-.74.708-1.356.708-.568 0-1.004-.236-1.308-.708-.296-.48-.444-1.144-.444-1.992 0-.848.14-1.504.42-1.968.28-.472.724-.708 1.332-.708zm5.484.12l-4.752 8.568h-.924l4.752-8.568h.924zm-5.484.624c-.304 0-.528.164-.672.492-.136.32-.204.8-.204 1.44 0 .64.068 1.124.204 1.452.144.328.368.492.672.492.616 0 .924-.648.924-1.944 0-1.288-.308-1.932-.924-1.932zm5.244 2.688c.584 0 1.028.236 1.332.708.312.464.468 1.12.468 1.968 0 .848-.148 1.512-.444 1.992-.288.472-.74.708-1.356.708-.568 0-1.004-.236-1.308-.708-.296-.48-.444-1.144-.444-1.992 0-.848.14-1.504.42-1.968.28-.472.724-.708 1.332-.708zm0 .756c-.304 0-.528.16-.672.48-.136.32-.204.8-.204 1.44 0 .648.068 1.136.204 1.464.144.32.368.48.672.48.616 0 .924-.648.924-1.944 0-1.28-.308-1.92-.924-1.92z" fill="#8A8A8A"/></g><defs><linearGradient id="paint0_linear_1366_25153" x1="99" y1="144.616" x2="262.202" y2="144.616" gradientUnits="userSpaceOnUse"><stop stop-color="#8F6B45"/><stop offset="1" stop-color="#C7A77F"/></linearGradient><clipPath id="clip0_1366_25153"><path fill="#fff" d="M0 0h361v258.5H0z"/></clipPath><filter id="filter0_d_1366_25153" x="311" y="10" width="40" height="40" filterUnits="userSpaceOnUse" color-interpolation-filters="sRGB"><feFlood flood-opacity="0" result="BackgroundImageFix"/><feColorMatrix in="SourceAlpha" values="0 0 0 0 0 0 0 0 0 0 0 0 0 0 0 0 0 0 127 0" result="hardAlpha"/><feOffset/><feGaussianBlur stdDeviation="1"/><feComposite in2="hardAlpha" operator="out"/><feColorMatrix values="0 0 0 0 0 0 0 0 0 0 0 0 0 0 0 0 0 0 0.25 0"/><feBlend in2="BackgroundImageFix" result="effect1_dropShadow_1366_25153"/><feBlend in="SourceGraphic" in2="effect1_dropShadow_1366_25153" result="shape"/></filter></defs></svg>