<svg width="361" height="259" viewBox="0 0 361 259" fill="none" xmlns="http://www.w3.org/2000/svg"><g clip-path="url(#clip0_1366_24133)"><rect width="361" height="258.5" rx="4" fill="#FAFAFA"/><path fill="#000" fill-opacity=".05" d="M44.609 17h1.075v194.83h-1.075zm41.504 0h1.075v194.83h-1.075zm41.504 0h1.075v194.83h-1.075zm41.504 0h1.075v194.83h-1.075zm41.504 0h1.075v194.83h-1.075zm41.503 0h1.075v194.83h-1.075zm41.504 0h1.075v194.83h-1.075zm41.504 0h1.075v194.83h-1.075z"/><path d="M42.086 237.194h-1.032v-5.988c0-.344.004-.62.012-.828.008-.208.02-.424.036-.648a5.805 5.805 0 01-.348.324l-.396.336-.912.744-.552-.708 2.316-1.8h.876v8.568zm9.003-4.296c0 .92-.096 1.712-.288 2.376-.192.656-.496 1.16-.912 1.512-.416.352-.968.528-1.656.528-.968 0-1.684-.388-2.148-1.164-.456-.784-.684-1.868-.684-3.252 0-.928.092-1.72.276-2.376.192-.656.496-1.156.912-1.5.416-.352.964-.528 1.644-.528.96 0 1.676.388 2.148 1.164.472.768.708 1.848.708 3.24zm-4.632 0c0 1.176.132 2.056.396 2.64.272.584.732.876 1.38.876.64 0 1.096-.288 1.368-.864.28-.584.42-1.468.42-2.652 0-1.168-.14-2.044-.42-2.628-.272-.584-.728-.876-1.368-.876-.648 0-1.108.292-1.38.876-.264.584-.396 1.46-.396 2.628zm39.819 4.296h-5.664v-.876l2.244-2.268a25.57 25.57 0 001.092-1.152c.296-.336.52-.664.672-.984.152-.328.228-.684.228-1.068 0-.472-.14-.828-.42-1.068-.28-.248-.644-.372-1.092-.372-.416 0-.784.072-1.104.216a4.944 4.944 0 00-.96.6l-.564-.708c.336-.28.72-.516 1.152-.708.44-.2.932-.3 1.476-.3.8 0 1.432.204 1.896.612.464.4.696.956.696 1.668 0 .448-.092.868-.276 1.26-.184.392-.44.78-.768 1.164-.328.376-.712.78-1.152 1.212l-1.788 1.764v.048h4.332v.96zm7.023-4.296c0 .92-.096 1.712-.288 2.376-.192.656-.496 1.16-.912 1.512-.416.352-.968.528-1.656.528-.968 0-1.684-.388-2.148-1.164-.456-.784-.684-1.868-.684-3.252 0-.928.092-1.72.276-2.376.192-.656.496-1.156.912-1.5.416-.352.964-.528 1.644-.528.96 0 1.676.388 2.148 1.164.472.768.708 1.848.708 3.24zm-4.632 0c0 1.176.132 2.056.396 2.64.272.584.732.876 1.38.876.64 0 1.096-.288 1.368-.864.28-.584.42-1.468.42-2.652 0-1.168-.14-2.044-.42-2.628-.272-.584-.728-.876-1.368-.876-.648 0-1.108.292-1.38.876-.264.584-.396 1.46-.396 2.628zm39.494-2.268c0 .576-.16 1.036-.48 1.38-.32.336-.752.56-1.296.672v.048c.688.08 1.2.296 1.536.648.336.352.504.812.504 1.38 0 .496-.116.94-.348 1.332-.232.384-.592.684-1.08.9-.48.216-1.1.324-1.86.324-.448 0-.864-.036-1.248-.108a3.883 3.883 0 01-1.104-.36v-.984a5.9 5.9 0 001.164.42c.416.096.816.144 1.2.144.768 0 1.32-.148 1.656-.444.344-.304.516-.72.516-1.248 0-.536-.212-.92-.636-1.152-.416-.24-1.004-.36-1.764-.36h-.828v-.9h.84c.704 0 1.236-.148 1.596-.444.368-.296.552-.688.552-1.176 0-.416-.14-.736-.42-.96-.28-.232-.66-.348-1.14-.348-.464 0-.86.068-1.188.204a6.005 6.005 0 00-.972.516l-.528-.72c.304-.24.68-.448 1.128-.624a4.273 4.273 0 011.548-.264c.896 0 1.56.2 1.992.6.44.4.66.908.66 1.524zm7.347 2.268c0 .92-.096 1.712-.288 2.376-.192.656-.496 1.16-.912 1.512-.416.352-.968.528-1.656.528-.968 0-1.684-.388-2.148-1.164-.456-.784-.684-1.868-.684-3.252 0-.928.092-1.72.276-2.376.192-.656.496-1.156.912-1.5.416-.352.964-.528 1.644-.528.96 0 1.676.388 2.148 1.164.472.768.708 1.848.708 3.24zm-4.632 0c0 1.176.132 2.056.396 2.64.272.584.732.876 1.38.876.64 0 1.096-.288 1.368-.864.28-.584.42-1.468.42-2.652 0-1.168-.14-2.044-.42-2.628-.272-.584-.728-.876-1.368-.876-.648 0-1.108.292-1.38.876-.264.584-.396 1.46-.396 2.628zm40.203 2.352h-1.248v1.944h-1.02v-1.944h-4.104v-.9l4.032-5.772h1.092v5.724h1.248v.948zm-2.268-3.648c0-.416.008-.768.024-1.056.016-.296.028-.576.036-.84h-.048a5.467 5.467 0 01-.516.936l-2.568 3.66h3.072v-2.7zm8.907 1.296c0 .92-.096 1.712-.288 2.376-.192.656-.496 1.16-.912 1.512-.416.352-.968.528-1.656.528-.968 0-1.684-.388-2.148-1.164-.456-.784-.684-1.868-.684-3.252 0-.928.092-1.72.276-2.376.192-.656.496-1.156.912-1.5.416-.352.964-.528 1.644-.528.96 0 1.676.388 2.148 1.164.472.768.708 1.848.708 3.24zm-4.632 0c0 1.176.132 2.056.396 2.64.272.584.732.876 1.38.876.64 0 1.096-.288 1.368-.864.28-.584.42-1.468.42-2.652 0-1.168-.14-2.044-.42-2.628-.272-.584-.728-.876-1.368-.876-.648 0-1.108.292-1.38.876-.264.584-.396 1.46-.396 2.628zm36.878-.96c.88 0 1.58.22 2.1.66.52.44.78 1.06.78 1.86 0 .888-.284 1.588-.852 2.1-.56.504-1.344.756-2.352.756-.44 0-.856-.04-1.248-.12a3.29 3.29 0 01-.972-.348v-.996c.288.176.636.316 1.044.42.416.096.812.144 1.188.144.632 0 1.14-.148 1.524-.444.392-.304.588-.772.588-1.404 0-.56-.172-.988-.516-1.284-.344-.304-.888-.456-1.632-.456-.224 0-.48.02-.768.06-.288.04-.52.08-.696.12l-.528-.336.324-4.044h4.296v.96h-3.396l-.204 2.484c.136-.024.32-.052.552-.084.232-.032.488-.048.768-.048zm9.963.96c0 .92-.096 1.712-.288 2.376-.192.656-.496 1.16-.912 1.512-.416.352-.968.528-1.656.528-.968 0-1.684-.388-2.148-1.164-.456-.784-.684-1.868-.684-3.252 0-.928.092-1.72.276-2.376.192-.656.496-1.156.912-1.5.416-.352.964-.528 1.644-.528.96 0 1.676.388 2.148 1.164.472.768.708 1.848.708 3.24zm-4.632 0c0 1.176.132 2.056.396 2.64.272.584.732.876 1.38.876.64 0 1.096-.288 1.368-.864.28-.584.42-1.468.42-2.652 0-1.168-.14-2.044-.42-2.628-.272-.584-.728-.876-1.368-.876-.648 0-1.108.292-1.38.876-.264.584-.396 1.46-.396 2.628zm34.238.636c0-.616.052-1.22.156-1.812.112-.6.308-1.14.588-1.62a3.166 3.166 0 011.2-1.164c.512-.288 1.172-.432 1.98-.432.168 0 .352.008.552.024.208.016.376.044.504.084v.9a2.64 2.64 0 00-.492-.108 3.993 3.993 0 00-.54-.036c-.552 0-1.012.092-1.38.276-.368.184-.66.436-.876.756-.208.32-.36.688-.456 1.104-.096.416-.156.86-.18 1.332h.072c.184-.28.44-.516.768-.708.328-.2.748-.3 1.26-.3.744 0 1.344.228 1.8.684.456.448.684 1.088.684 1.92 0 .896-.248 1.6-.744 2.112-.488.512-1.148.768-1.98.768a2.75 2.75 0 01-1.476-.408c-.44-.272-.792-.688-1.056-1.248-.256-.56-.384-1.268-.384-2.124zm2.904 2.892c.504 0 .912-.16 1.224-.48.312-.328.468-.832.468-1.512 0-.544-.14-.976-.42-1.296-.272-.32-.684-.48-1.236-.48-.376 0-.704.08-.984.24-.28.152-.5.348-.66.588-.152.24-.228.488-.228.744 0 .344.068.688.204 1.032.136.336.34.616.612.84.272.216.612.324 1.02.324zm9.699-3.528c0 .92-.096 1.712-.288 2.376-.192.656-.496 1.16-.912 1.512-.416.352-.968.528-1.656.528-.968 0-1.684-.388-2.148-1.164-.456-.784-.684-1.868-.684-3.252 0-.928.092-1.72.276-2.376.192-.656.496-1.156.912-1.5.416-.352.964-.528 1.644-.528.96 0 1.676.388 2.148 1.164.472.768.708 1.848.708 3.24zm-4.632 0c0 1.176.132 2.056.396 2.64.272.584.732.876 1.38.876.64 0 1.096-.288 1.368-.864.28-.584.42-1.468.42-2.652 0-1.168-.14-2.044-.42-2.628-.272-.584-.728-.876-1.368-.876-.648 0-1.108.292-1.38.876-.264.584-.396 1.46-.396 2.628zm35.211 4.296l3.516-7.608h-4.62v-.96h5.748v.816l-3.48 7.752h-1.164zm11.631-4.296c0 .92-.096 1.712-.288 2.376-.192.656-.496 1.16-.912 1.512-.416.352-.968.528-1.656.528-.968 0-1.684-.388-2.148-1.164-.456-.784-.684-1.868-.684-3.252 0-.928.092-1.72.276-2.376.192-.656.496-1.156.912-1.5.416-.352.964-.528 1.644-.528.96 0 1.676.388 2.148 1.164.472.768.708 1.848.708 3.24zm-4.632 0c0 1.176.132 2.056.396 2.64.272.584.732.876 1.38.876.64 0 1.096-.288 1.368-.864.28-.584.42-1.468.42-2.652 0-1.168-.14-2.044-.42-2.628-.272-.584-.728-.876-1.368-.876-.648 0-1.108.292-1.38.876-.264.584-.396 1.46-.396 2.628zm36.998-4.392c.752 0 1.368.176 1.848.528.48.352.72.86.72 1.524 0 .344-.076.644-.228.9-.144.256-.34.484-.588.684-.248.192-.52.364-.816.516.352.168.672.36.96.576.288.208.516.452.684.732.176.28.264.616.264 1.008 0 .72-.256 1.292-.768 1.716-.504.416-1.184.624-2.04.624-.92 0-1.628-.2-2.124-.6-.496-.408-.744-.976-.744-1.704 0-.392.08-.732.24-1.02.168-.288.388-.536.66-.744.272-.208.564-.384.876-.528a4.217 4.217 0 01-1.068-.864c-.288-.344-.432-.78-.432-1.308 0-.44.112-.808.336-1.104.224-.304.528-.536.912-.696.384-.16.82-.24 1.308-.24zm-.012.852c-.44 0-.804.108-1.092.324-.28.208-.42.512-.42.912 0 .296.068.544.204.744.144.2.336.372.576.516.24.136.504.268.792.396a3.783 3.783 0 001.044-.636c.288-.248.432-.588.432-1.02 0-.4-.14-.704-.42-.912-.28-.216-.652-.324-1.116-.324zm-1.788 5.664c0 .416.148.764.444 1.044.296.272.752.408 1.368.408.584 0 1.028-.136 1.332-.408.312-.28.468-.64.468-1.08 0-.416-.164-.76-.492-1.032-.328-.28-.764-.524-1.308-.732l-.192-.072c-.528.224-.932.484-1.212.78-.272.288-.408.652-.408 1.092zm11.643-2.124c0 .92-.096 1.712-.288 2.376-.192.656-.496 1.16-.912 1.512-.416.352-.968.528-1.656.528-.968 0-1.684-.388-2.148-1.164-.456-.784-.684-1.868-.684-3.252 0-.928.092-1.72.276-2.376.192-.656.496-1.156.912-1.5.416-.352.964-.528 1.644-.528.96 0 1.676.388 2.148 1.164.472.768.708 1.848.708 3.24zm-4.632 0c0 1.176.132 2.056.396 2.64.272.584.732.876 1.38.876.64 0 1.096-.288 1.368-.864.28-.584.42-1.468.42-2.652 0-1.168-.14-2.044-.42-2.628-.272-.584-.728-.876-1.368-.876-.648 0-1.108.292-1.38.876-.264.584-.396 1.46-.396 2.628zM16.34 30l3.516-7.608h-4.62v-.96h5.748v.816L17.504 30H16.34zm8.655-5.256c.88 0 1.58.22 2.1.66.52.44.78 1.06.78 1.86 0 .888-.284 1.588-.852 2.1-.56.504-1.344.756-2.352.756-.44 0-.856-.04-1.248-.12a3.29 3.29 0 01-.972-.348v-.996c.288.176.636.316 1.044.42.416.096.812.144 1.188.144.632 0 1.14-.148 1.524-.444.392-.304.588-.772.588-1.404 0-.56-.172-.988-.516-1.284-.344-.304-.888-.456-1.632-.456-.224 0-.48.02-.768.06-.288.04-.52.08-.696.12l-.528-.336.324-4.044h4.296v.96H23.88l-.204 2.484c.136-.024.32-.052.552-.084.232-.032.488-.048.768-.048zm-6.987 61.811c.88 0 1.58.22 2.1.66.52.44.78 1.06.78 1.86 0 .888-.284 1.588-.852 2.1-.56.505-1.344.757-2.352.757-.44 0-.856-.04-1.248-.12a3.29 3.29 0 01-.972-.349v-.995c.288.175.636.316 1.044.42.416.096.812.143 1.188.143.632 0 1.14-.148 1.524-.444.392-.303.588-.772.588-1.404 0-.56-.172-.988-.516-1.284-.344-.303-.888-.456-1.632-.456-.224 0-.48.02-.768.06-.288.04-.52.08-.696.12l-.528-.336.324-4.044h4.296v.96h-3.396l-.204 2.484c.136-.023.32-.052.552-.084a5.82 5.82 0 01.768-.047zm9.963.96c0 .92-.096 1.713-.288 2.376-.192.656-.496 1.16-.912 1.512-.416.352-.968.528-1.656.528-.968 0-1.684-.388-2.148-1.163-.456-.784-.684-1.868-.684-3.252 0-.928.092-1.72.276-2.377.192-.655.496-1.155.912-1.5.416-.352.964-.527 1.644-.527.96 0 1.676.388 2.148 1.163.472.768.708 1.849.708 3.24zm-4.632 0c0 1.177.132 2.056.396 2.64.272.585.732.876 1.38.876.64 0 1.096-.288 1.368-.864.28-.584.42-1.468.42-2.651 0-1.169-.14-2.044-.42-2.629-.272-.584-.728-.876-1.368-.876-.648 0-1.108.293-1.38.877-.264.584-.396 1.46-.396 2.627zm-2.391 66.108h-5.664v-.876l2.244-2.268a25.57 25.57 0 001.092-1.152c.296-.336.52-.664.672-.984.152-.328.228-.684.228-1.068 0-.472-.14-.828-.42-1.068-.28-.248-.644-.372-1.092-.372-.416 0-.784.072-1.104.216a4.944 4.944 0 00-.96.6l-.564-.708c.336-.28.72-.516 1.152-.708.44-.2.932-.3 1.476-.3.8 0 1.432.204 1.896.612.464.4.696.956.696 1.668 0 .448-.092.868-.276 1.26-.184.392-.44.78-.768 1.164-.328.376-.712.78-1.152 1.212l-1.788 1.764v.048h4.332v.96zm4.047-5.256c.88 0 1.58.22 2.1.66.52.44.78 1.06.78 1.86 0 .888-.284 1.588-.852 2.1-.56.504-1.344.756-2.352.756-.44 0-.856-.04-1.248-.12a3.29 3.29 0 01-.972-.348v-.996c.288.176.636.316 1.044.42.416.096.812.144 1.188.144.632 0 1.14-.148 1.524-.444.392-.304.588-.772.588-1.404 0-.56-.172-.988-.516-1.284-.344-.304-.888-.456-1.632-.456-.224 0-.48.02-.768.06-.288.04-.52.08-.696.12l-.528-.336.324-4.044h4.296v.96H23.88l-.204 2.484c.136-.024.32-.052.552-.084.232-.032.488-.048.768-.048zm2.989 62.772c0 .92-.096 1.712-.288 2.376-.192.656-.496 1.16-.912 1.512-.416.352-.968.528-1.656.528-.968 0-1.684-.388-2.148-1.164-.456-.784-.684-1.868-.684-3.252 0-.928.092-1.72.276-2.376.192-.656.496-1.156.912-1.5.416-.352.964-.528 1.644-.528.96 0 1.676.388 2.148 1.164.472.768.708 1.848.708 3.24zm-4.632 0c0 1.176.132 2.056.396 2.64.272.584.732.876 1.38.876.64 0 1.096-.288 1.368-.864.28-.584.42-1.468.42-2.652 0-1.168-.14-2.044-.42-2.628-.272-.584-.728-.876-1.368-.876-.648 0-1.108.292-1.38.876-.264.584-.396 1.46-.396 2.628z" fill="#595959"/><path d="M167.876 74h-5.134V58.53c.023-.567.046-1.156.068-1.768.023-.612.046-1.156.068-1.632-.113.136-.362.385-.748.748-.362.34-.702.646-1.02.918l-2.788 2.244-2.482-3.094 7.82-6.222h4.216V74zm18.437 0h-5.134V58.53c.023-.567.046-1.156.068-1.768.023-.612.046-1.156.068-1.632-.113.136-.362.385-.748.748-.362.34-.702.646-1.02.918l-2.788 2.244-2.482-3.094 7.82-6.222h4.216V74zm22.722 0h-16.966v-3.57l6.086-6.154c1.224-1.27 2.21-2.323 2.958-3.162.748-.861 1.292-1.632 1.632-2.312.34-.703.51-1.45.51-2.244 0-.975-.272-1.7-.816-2.176-.522-.476-1.236-.714-2.142-.714-.93 0-1.836.215-2.72.646-.884.43-1.814 1.043-2.788 1.836l-2.788-3.298a22.76 22.76 0 012.21-1.7c.793-.521 1.7-.94 2.72-1.258 1.042-.34 2.289-.51 3.74-.51 1.586 0 2.946.295 4.08.884 1.156.567 2.04 1.349 2.652 2.346.634.975.952 2.085.952 3.332 0 1.02-.159 1.96-.476 2.822a9.634 9.634 0 01-1.326 2.516c-.567.793-1.27 1.62-2.108 2.482-.839.839-1.791 1.757-2.856 2.754l-3.128 2.924v.238h10.574V74z" fill="#111"/><path d="M166.614 96v-1.75h2.492c.616 0 1.069-.21 1.358-.63.299-.42.448-1.008.448-1.764 0-.812-.149-1.437-.448-1.876-.289-.448-.742-.672-1.358-.672h-2.492l.224-1.75h2.268c1.298 0 2.282.378 2.954 1.134.682.747 1.022 1.801 1.022 3.164 0 1.316-.34 2.338-1.022 3.066-.672.719-1.656 1.078-2.954 1.078h-2.492zm7.117-4.592c.084-.299.158-.616.224-.952a25.883 25.883 0 00.378-2.002c.056-.327.098-.625.126-.896h1.848l.084.154c-.084.345-.187.742-.308 1.19-.122.439-.252.882-.392 1.33-.14.448-.29.84-.448 1.176h-1.512zm3.108 0c.112-.401.21-.83.294-1.288.093-.457.177-.905.252-1.344.084-.448.144-.854.182-1.218h1.848l.07.154a24.9 24.9 0 01-.294 1.19c-.122.439-.252.882-.392 1.33-.14.448-.29.84-.448 1.176h-1.512zM186.042 96v-5.432c0-.42-.108-.733-.322-.938-.206-.215-.5-.322-.882-.322h-4.354l.238-1.75h4.228c1.064 0 1.866.252 2.408.756.541.495.812 1.232.812 2.212V96h-2.128zm-5.376 0v-4.55l2.128-.112V96h-2.128zm13.218.126c-1.334 0-2.338-.336-3.01-1.008-.662-.681-.994-1.643-.994-2.884v-.126c0-.653.112-1.218.336-1.694.234-.476.523-.817.868-1.022v-.196l1.806-.042-.07.182c-.298.121-.513.387-.644.798-.121.41-.182.924-.182 1.54 0 .887.145 1.568.434 2.044.299.476.784.714 1.456.714.682 0 1.172-.257 1.47-.77.299-.513.448-1.246.448-2.198 0-.69-.116-1.223-.35-1.596-.224-.373-.639-.56-1.246-.56h-4.676l.224-1.75h4.466c1.27 0 2.203.34 2.8 1.022.607.681.91 1.647.91 2.898 0 1.475-.34 2.618-1.022 3.43-.672.812-1.68 1.218-3.024 1.218z" fill="#000"/><path d="M151.456 27.995V37a1 1 0 001 1h.088a1 1 0 001-1v-9.005l3.773 3.774a1 1 0 001.414 0l.062-.062a1 1 0 000-1.414l-5.586-5.586a1 1 0 00-1.414 0l-5.586 5.586a1 1 0 000 1.414l.062.062a1 1 0 001.414 0l3.773-3.774z" fill="#C7A77F"/><path d="M159.5 32.414h0a2 2 0 000-2.828L153.914 24a2 2 0 00-2.828 0l-5.586 5.586a2 2 0 000 2.828l.062.062a2 2 0 002.828 0l2.066-2.067V37a2 2 0 002 2h.088a2 2 0 002-2v-6.59l2.066 2.066a2 2 0 002.828 0s0 0 0 0l.062-.062z" stroke="#C69F7C" stroke-opacity=".2" stroke-width="2"/><path d="M151.456 27.995V37a1 1 0 001 1h.088a1 1 0 001-1v-9.005l3.773 3.774a1 1 0 001.414 0l.062-.062a1 1 0 000-1.414l-5.586-5.586a1 1 0 00-1.414 0l-5.586 5.586a1 1 0 000 1.414l.062.062a1 1 0 001.414 0l3.773-3.774z" fill="#C7A77F"/><path d="M173.023 36h-6.986v-1.47l2.506-2.534c.504-.523.91-.957 1.218-1.302.308-.355.532-.672.672-.952.14-.29.21-.597.21-.924 0-.401-.112-.7-.336-.896-.215-.196-.509-.294-.882-.294a2.53 2.53 0 00-1.12.266c-.364.177-.747.43-1.148.756l-1.148-1.358c.289-.252.592-.485.91-.7.326-.215.7-.387 1.12-.518.429-.14.942-.21 1.54-.21.653 0 1.213.121 1.68.364.476.233.84.555 1.092.966.261.401.392.859.392 1.372a3.39 3.39 0 01-.336 1.512c-.215.457-.532.91-.952 1.358-.411.448-.91.943-1.498 1.484l-1.288 1.204v.098h4.354V36zm4.665-6.384c.607 0 1.148.117 1.624.35.476.233.85.574 1.12 1.022.28.448.42 1.003.42 1.666 0 1.083-.336 1.937-1.008 2.562-.672.616-1.666.924-2.982.924a7.568 7.568 0 01-1.484-.14 4.689 4.689 0 01-1.204-.406v-1.82c.346.177.761.331 1.246.462a5.69 5.69 0 001.372.182c.626 0 1.102-.126 1.428-.378.336-.261.504-.663.504-1.204 0-1.008-.667-1.512-2.002-1.512a4.14 4.14 0 00-.812.084c-.28.047-.513.093-.7.14l-.84-.448.378-5.096h5.418v1.792h-3.57l-.182 1.96c.159-.028.327-.056.504-.084.187-.037.444-.056.77-.056zm10.238-2.184L184.734 36h-1.032l3.192-8.568h1.032zM193.543 36v-4.776c0-.424-.104-.74-.312-.948-.2-.216-.504-.324-.912-.324h-3.636l.144-1.116h3.576c.816 0 1.432.2 1.848.6.424.392.636.976.636 1.752V36h-1.344zm-4.692 0v-3.996l1.344-.096V36h-1.344zm8.114-3.108v-4.056h1.344v4.056h-1.344zm-1.044-2.94l.144-1.116h1.668v1.116h-1.812zm4.724 2.94v-4.056h1.344v4.056h-1.344zm-1.044-2.94l.144-1.116h1.668v1.116h-1.812zm4.939-1.116h4.284l-.12.828L206.556 36h-1.392l2.088-6.048h-4.056v-2.928l1.344-.144v1.956zm5.126 7.596l-.012-1.104 2.58-.552c.328-.08.624-.188.888-.324.264-.144.488-.356.672-.636.192-.28.348-.66.468-1.14.12-.488.2-1.112.24-1.872l.132-1.968h1.344l-.132 1.98a13.244 13.244 0 01-.18 1.644c-.088.48-.22.908-.396 1.284a3.372 3.372 0 01-.66.984 3.686 3.686 0 01-.996.696c-.384.192-.84.344-1.368.456l-2.58.552zm1.824-.996l-1.488-6.504 1.308-.168 1.116 4.872c.04.192.048.396.024.612a2.203 2.203 0 01-.144.624c-.072.2-.172.388-.3.564h-.516z" fill="#8A8A8A"/><path d="M48.229 185.318L45 184.513v27.379h291V106l-2.018 1.208-3.632 9.26-2.019 1.611-3.632-.805-4.036-4.027-2.422.403-3.632 8.858-2.422 5.637h-3.229l-3.228-5.235-2.165-.402h-2.275l-4.44 12.884-1.211.805-2.018.805-2.018-2.818-3.229-16.91-2.018-2.014-2.018.806-4.036 13.689-2.421 1.611-4.44-2.416-2.422-2.013h-3.228l-3.229 7.65-2.018 2.818-4.036.805-3.229 4.027-2.018.805-2.018-.805-4.44-10.469-3.632-.805-4.44 10.871-1.614 1.611-2.422-.403-4.843-6.845-3.633-.402-2.825-4.429-2.018-3.221-2.018-.806-1.615 1.208-4.036 15.3-1.21 2.416-1.615.403-2.018-4.027-4.036-21.339-1.211-1.611h-.807l-2.018 1.208-3.229 12.079-1.614 2.416-3.229.805-4.036 8.053-1.211 1.208h-2.018l-2.422-1.611-2.421-3.623-2.018-.806-3.229 2.013-2.018 6.845-2.018 2.416-2.018.805-3.633-2.013-2.825-2.416-2.825-.402-1.211-1.208-3.229-4.429-2.018-1.208-2.018 1.208-3.229 17.313-2.421 6.442h-2.422l-3.633-4.429-2.018-.805-3.228-.403-2.826 6.04-2.825 3.221-1.614.402-3.229-4.831-3.633-2.013-2.421.805-4.844 18.118-2.018.805-3.228-3.221-4.44-3.221h-2.018l-2.422-2.818-3.632-1.208-2.422 1.208L89.8 182.5l-3.229 2.013-2.018.805-2.825 1.208-4.44.805-2.421-2.013-2.825-4.429-3.633-.805-3.229-2.416-2.825-1.61-1.614.402-1.615 3.221-3.229 7.65-2.018 1.611-2.421-.403-3.23-3.221z" fill="url(#paint0_linear_1366_24133)"/><path d="M336 106c-4.157 0-4.157 12.315-8.314 12.315s-3.984-5.168-8.315-5.168c-4.33 0-3.984 15.174-8.314 15.174s-3.637-6.092-8.314-6.092-3.464 14.8-8.314 14.8-4.158-21.793-8.315-21.793c-4.157 0-3.81 15.9-8.314 15.9s-3.811-4.354-8.314-4.354c-4.504 0-3.811 10.885-8.315 10.885-4.503 0-3.984 5.278-8.314 5.278s-3.984-11.875-8.314-11.875c-4.331 0-3.811 12.491-8.314 12.491-4.504 0-3.465-7.543-8.315-7.543s-3.984-8.401-8.314-8.401-3.811 19.176-8.314 19.176c-4.504 0-3.811-27.378-8.315-27.378-4.503 0-3.984 16.361-8.314 16.361s-3.464 9.786-8.314 9.786-3.638-5.938-8.314-5.938c-4.677 0-3.465 12.095-8.315 12.095s-3.637-4.662-8.314-4.662-3.811-7.059-8.314-7.059c-4.504 0-3.811 25.356-8.315 25.356-4.503 0-3.464-6.202-8.314-6.202s-4.157 9.699-8.314 9.699-3.638-6.928-8.314-6.928c-4.677 0-3.984 20.012-8.315 20.012-4.33 0-3.464-6.025-8.314-6.025s-3.638-4.377-8.314-4.377c-4.677 0-3.811 13.415-8.315 13.415-4.503 0-3.464 2.815-8.314 2.815s-3.464-7.411-8.314-7.411-4.157-3.958-8.314-3.958c-4.158 0-4.158 12.864-8.315 12.864-4.157 0-3.81-4.53-8.314-4.53" stroke="#C7A77F" stroke-width="2"/><circle cx="62.378" cy="177.538" r="3.446" fill="#000" stroke="#fff" stroke-width="2"/><circle cx="94.713" cy="172.687" r="3.446" fill="#000" stroke="#fff" stroke-width="2"/><circle cx="119.771" cy="162.179" r="3.446" fill="#000" stroke="#fff" stroke-width="2"/><circle cx="152.914" cy="139.545" r="3.446" fill="#000" stroke="#fff" stroke-width="2"/><circle cx="177.972" cy="141.163" r="3.446" fill="#000" stroke="#fff" stroke-width="2"/><circle cx="203.029" cy="120.955" r="3.446" fill="#000" stroke="#fff" stroke-width="2"/><circle cx="220.813" cy="127.42" r="3.446" fill="#111" stroke="#fff" stroke-width="2"/><circle cx="253.145" cy="141.163" r="3.446" fill="#111" stroke="#fff" stroke-width="2"/><circle cx="285.48" cy="116.104" r="3.446" fill="#111" stroke="#fff" stroke-width="2"/><circle cx="318.621" cy="113.679" r="3.446" fill="#111" stroke="#fff" stroke-width="2"/><circle cx="294.371" cy="135.504" r="3.446" fill="#111" stroke="#fff" stroke-width="2"/><circle cx="145.637" cy="163.795" r="3.446" fill="#000" stroke="#fff" stroke-width="2"/><g filter="url(#filter0_d_1366_24133)"><rect x="313" y="12" width="36" height="36" rx="18" fill="#fff" shape-rendering="crispEdges"/><path d="M323 25h16m0 0l-4 4m4-4l-4-4m4 14h-16m0 0l4 4m-4-4l4-4" stroke="#000" stroke-width="2" stroke-linecap="round" stroke-linejoin="round"/></g></g><defs><linearGradient id="paint0_linear_1366_24133" x1="190.5" y1="106" x2="190.5" y2="211.892" gradientUnits="userSpaceOnUse"><stop stop-color="#C69F7C" stop-opacity=".3"/><stop offset="1" stop-color="#fff" stop-opacity="0"/></linearGradient><clipPath id="clip0_1366_24133"><path fill="#fff" d="M0 0h361v258.5H0z"/></clipPath><filter id="filter0_d_1366_24133" x="311" y="10" width="40" height="40" filterUnits="userSpaceOnUse" color-interpolation-filters="sRGB"><feFlood flood-opacity="0" result="BackgroundImageFix"/><feColorMatrix in="SourceAlpha" values="0 0 0 0 0 0 0 0 0 0 0 0 0 0 0 0 0 0 127 0" result="hardAlpha"/><feOffset/><feGaussianBlur stdDeviation="1"/><feComposite in2="hardAlpha" operator="out"/><feColorMatrix values="0 0 0 0 0 0 0 0 0 0 0 0 0 0 0 0 0 0 0.25 0"/><feBlend in2="BackgroundImageFix" result="effect1_dropShadow_1366_24133"/><feBlend in="SourceGraphic" in2="effect1_dropShadow_1366_24133" result="shape"/></filter></defs></svg>