<svg width="361" height="259" viewBox="0 0 361 259" fill="none" xmlns="http://www.w3.org/2000/svg"><g clip-path="url(#clip0_1366_25063)"><rect width="361" height="258.5" rx="4" fill="#FAFAFA"/><path d="M150.478 58.496c1.474 0 2.788.283 3.944.85a6.4 6.4 0 012.72 2.482c.68 1.088 1.02 2.437 1.02 4.046 0 1.745-.362 3.253-1.088 4.522-.725 1.27-1.813 2.244-3.264 2.924-1.428.68-3.207 1.02-5.338 1.02a18.36 18.36 0 01-3.604-.34c-1.11-.227-2.085-.555-2.924-.986v-4.42c.839.43 1.848.805 3.026 1.122 1.179.295 2.29.442 3.332.442 1.02 0 1.87-.136 2.55-.408.703-.272 1.236-.691 1.598-1.258.363-.567.544-1.292.544-2.176 0-1.201-.396-2.108-1.19-2.72-.793-.635-2.017-.952-3.672-.952-.634 0-1.292.068-1.972.204-.68.113-1.246.227-1.7.34l-2.04-1.088.918-12.376h13.158v4.352h-8.67l-.442 4.76c.386-.068.794-.136 1.224-.204.454-.09 1.077-.136 1.87-.136zm15.853 11.934a34.789 34.789 0 01-.782 2.584 65.316 65.316 0 01-1.02 2.72c-.362.93-.736 1.813-1.122 2.652h-3.638a67.35 67.35 0 00.646-2.856c.204-.975.397-1.938.578-2.89.182-.952.329-1.813.442-2.584h4.658l.238.374zm2.25-6.732c0-1.405.102-2.788.306-4.148.204-1.36.555-2.64 1.054-3.842a10.423 10.423 0 012.142-3.23c.929-.952 2.096-1.689 3.502-2.21 1.428-.544 3.15-.816 5.168-.816.476 0 1.031.023 1.666.068a9.6 9.6 0 011.598.17v4.114a8.535 8.535 0 00-1.428-.238 11.071 11.071 0 00-1.496-.102c-1.519 0-2.777.181-3.774.544-.975.363-1.746.884-2.312 1.564-.567.68-.986 1.485-1.258 2.414-.25.907-.397 1.927-.442 3.06h.204a5.894 5.894 0 011.156-1.428 5.237 5.237 0 011.734-1.02c.68-.25 1.473-.374 2.38-.374 1.428 0 2.652.306 3.672.918 1.042.59 1.847 1.462 2.414 2.618.566 1.133.85 2.516.85 4.148 0 1.745-.34 3.253-1.02 4.522a6.846 6.846 0 01-2.856 2.924c-1.224.657-2.686.986-4.386.986a9.426 9.426 0 01-3.502-.646 7.96 7.96 0 01-2.822-1.938c-.794-.884-1.417-1.995-1.87-3.332-.454-1.337-.68-2.913-.68-4.726zm8.772 6.528c.997 0 1.813-.34 2.448-1.02.634-.703.952-1.78.952-3.23 0-1.179-.272-2.108-.816-2.788-.544-.68-1.372-1.02-2.482-1.02-.748 0-1.406.17-1.972.51a3.538 3.538 0 00-1.326 1.258c-.318.521-.476 1.054-.476 1.598 0 .567.079 1.133.238 1.7.158.544.385 1.043.68 1.496a3.76 3.76 0 001.156 1.088c.453.272.986.408 1.598.408zm26.665-8.364c0 1.95-.159 3.695-.476 5.236-.295 1.541-.782 2.856-1.462 3.944a6.632 6.632 0 01-2.618 2.448c-1.066.567-2.38.85-3.944.85-1.95 0-3.548-.499-4.794-1.496-1.247-.997-2.176-2.425-2.788-4.284-.59-1.859-.884-4.091-.884-6.698 0-2.63.272-4.873.816-6.732.544-1.859 1.439-3.287 2.686-4.284 1.246-.997 2.901-1.496 4.964-1.496 1.949 0 3.547.499 4.794 1.496 1.246.975 2.176 2.403 2.788 4.284.612 1.859.918 4.103.918 6.732zm-11.866 0c0 1.836.102 3.377.306 4.624.204 1.224.544 2.153 1.02 2.788.498.612 1.178.918 2.04.918.861 0 1.53-.306 2.006-.918.498-.612.85-1.53 1.054-2.754.226-1.247.34-2.8.34-4.658 0-1.859-.114-3.4-.34-4.624-.204-1.247-.556-2.176-1.054-2.788-.476-.635-1.145-.952-2.006-.952-.862 0-1.542.317-2.04.952-.476.612-.816 1.541-1.02 2.788-.204 1.224-.306 2.765-.306 4.624zm30.303 0c0 1.95-.159 3.695-.476 5.236-.295 1.541-.782 2.856-1.462 3.944a6.632 6.632 0 01-2.618 2.448c-1.066.567-2.38.85-3.944.85-1.95 0-3.548-.499-4.794-1.496-1.247-.997-2.176-2.425-2.788-4.284-.59-1.859-.884-4.091-.884-6.698 0-2.63.272-4.873.816-6.732.544-1.859 1.439-3.287 2.686-4.284 1.246-.997 2.901-1.496 4.964-1.496 1.949 0 3.547.499 4.794 1.496 1.246.975 2.176 2.403 2.788 4.284.612 1.859.918 4.103.918 6.732zm-11.866 0c0 1.836.102 3.377.306 4.624.204 1.224.544 2.153 1.02 2.788.498.612 1.178.918 2.04.918.861 0 1.53-.306 2.006-.918.498-.612.85-1.53 1.054-2.754.226-1.247.34-2.8.34-4.658 0-1.859-.114-3.4-.34-4.624-.204-1.247-.556-2.176-1.054-2.788-.476-.635-1.145-.952-2.006-.952-.862 0-1.542.317-2.04.952-.476.612-.816 1.541-1.02 2.788-.204 1.224-.306 2.765-.306 4.624z" fill="#111"/><path d="M174.178 87.558c1.064 0 1.867.252 2.408.756.542.495.812 1.232.812 2.212V96h-2.128v-5.432c0-.42-.102-.733-.308-.938-.205-.215-.504-.322-.896-.322h-1.932c-.046.075-.093.2-.14.378-.037.168-.056.462-.056.882V96h-2.128v-4.788c0-.373.033-.71.098-1.008.075-.308.22-.593.434-.854l-.112-.098v-1.694h3.948zm-5.068 1.75l.224-1.75h3.934v1.75h-4.158zm9.332 2.1c.084-.299.158-.616.224-.952a25.883 25.883 0 00.378-2.002c.056-.327.098-.625.126-.896h1.848l.084.154c-.084.345-.187.742-.308 1.19-.122.439-.252.882-.392 1.33-.14.448-.29.84-.448 1.176h-1.512zm3.108 0c.112-.401.21-.83.294-1.288.093-.457.177-.905.252-1.344.084-.448.144-.854.182-1.218h1.848l.07.154a24.9 24.9 0 01-.294 1.19c-.122.439-.252.882-.392 1.33-.14.448-.29.84-.448 1.176h-1.512zm8.432 4.69c-.97 0-1.806-.191-2.506-.574-.7-.383-1.236-.952-1.61-1.708-.373-.756-.56-1.708-.56-2.856v-3.402h2.114v3.388c0 .812.098 1.475.294 1.988.196.504.481.877.854 1.12.383.233.84.35 1.372.35h.056c.551-.01 1.013-.13 1.386-.364.383-.233.672-.602.868-1.106.196-.513.294-1.171.294-1.974v-3.402h2.128v3.416c0 1.148-.186 2.1-.56 2.856-.373.747-.905 1.311-1.596 1.694-.681.373-1.502.565-2.464.574h-.07zm-3.164-3.416l-.112-1.428c.607.037 1.069-.033 1.386-.21.318-.187.537-.476.658-.868.131-.392.196-.873.196-1.442v-1.176h2.114v1.078c0 .625-.074 1.195-.224 1.708a3.08 3.08 0 01-.7 1.302c-.326.355-.76.625-1.302.812-.541.177-1.213.252-2.016.224z" fill="#000"/><path d="M148.5 36.5c2.5-5.5 3.892-6.07 6.195-1.544.342.672 2.718-6.127 3.305-6.456.434-.244 2.007 5.434 2.326 4.938 1.991-3.097 6.438-8.966 7.915-4.321.712 2.24 7.7-1.333 8.265-3.617" stroke="#C7A77F" stroke-opacity=".2" stroke-width="6" stroke-linecap="round"/><path d="M148.5 36.5c2.5-5.5 3.892-6.07 6.195-1.544.342.672 2.718-6.127 3.305-6.456.434-.244 2.007 5.434 2.326 4.938 1.991-3.097 6.438-8.966 7.915-4.321.712 2.24 7.7-1.333 8.265-3.617" stroke="#C7A77F" stroke-width="2" stroke-linecap="round"/><path d="M185.592 30.316h2.646v1.498h-2.646v2.632h-1.498v-2.632h-2.646v-1.498h2.646v-2.66h1.498v2.66zM190.411 36l3.752-8.218h-4.928v-1.778h7.168v1.33L192.623 36h-2.212zm10.658-6.384c.607 0 1.148.117 1.624.35.476.233.849.574 1.12 1.022.28.448.42 1.003.42 1.666 0 .719-.149 1.34-.448 1.862-.299.523-.747.924-1.344 1.204-.588.28-1.321.42-2.198.42a7.56 7.56 0 01-1.484-.14 4.676 4.676 0 01-1.204-.406v-1.82c.345.177.761.331 1.246.462a5.67 5.67 0 001.372.182c.42 0 .77-.056 1.05-.168a1.32 1.32 0 00.658-.518c.149-.233.224-.532.224-.896 0-.495-.163-.868-.49-1.12-.327-.261-.831-.392-1.512-.392a4.14 4.14 0 00-.812.084c-.28.047-.513.093-.7.14l-.84-.448.378-5.096h5.418v1.792h-3.57l-.182 1.96c.159-.028.327-.056.504-.084a4.13 4.13 0 01.77-.056zm6.598-3.752c.784 0 1.377.275 1.778.826.411.541.616 1.307.616 2.296 0 .99-.191 1.764-.574 2.324-.383.55-.989.826-1.82.826-.513 0-.947-.126-1.302-.378-.345-.252-.607-.611-.784-1.078-.177-.476-.266-1.04-.266-1.694 0-.99.187-1.755.56-2.296.373-.55.971-.826 1.792-.826zm.014 1.428c-.224 0-.387.14-.49.42-.103.28-.154.71-.154 1.288 0 .57.051.999.154 1.288.103.29.266.434.49.434.224 0 .387-.145.49-.434.112-.29.168-.719.168-1.288 0-.579-.056-1.008-.168-1.288-.103-.28-.266-.42-.49-.42zm7.084-1.288L209.221 36h-1.638l5.544-9.996h1.638zm-.098 3.85c.523 0 .961.126 1.316.378.355.243.621.597.798 1.064.187.457.28 1.017.28 1.68 0 .99-.191 1.764-.574 2.324-.383.55-.989.826-1.82.826-.513 0-.947-.126-1.302-.378-.345-.252-.607-.611-.784-1.078-.177-.476-.266-1.04-.266-1.694 0-.99.187-1.755.56-2.296.373-.55.971-.826 1.792-.826zm.014 1.428c-.224 0-.387.14-.49.42-.103.28-.154.71-.154 1.288 0 .57.051.999.154 1.288.103.29.266.434.49.434.224 0 .387-.14.49-.42.112-.29.168-.723.168-1.302 0-.579-.056-1.008-.168-1.288-.103-.28-.266-.42-.49-.42z" fill="#8A8A8A"/><path fill="#000" fill-opacity=".05" d="M44.609 17h1.075v194.83h-1.075zm41.504 0h1.075v194.83h-1.075zm41.504 0h1.075v194.83h-1.075zm41.504 0h1.075v194.83h-1.075zm41.504 0h1.075v194.83h-1.075zm41.503 0h1.075v194.83h-1.075zm41.504 0h1.075v194.83h-1.075zm41.504 0h1.075v194.83h-1.075z"/><path d="M42.086 237.194h-1.032v-5.988c0-.344.004-.62.012-.828.008-.208.02-.424.036-.648a5.805 5.805 0 01-.348.324l-.396.336-.912.744-.552-.708 2.316-1.8h.876v8.568zm9.003-4.296c0 .92-.096 1.712-.288 2.376-.192.656-.496 1.16-.912 1.512-.416.352-.968.528-1.656.528-.968 0-1.684-.388-2.148-1.164-.456-.784-.684-1.868-.684-3.252 0-.928.092-1.72.276-2.376.192-.656.496-1.156.912-1.5.416-.352.964-.528 1.644-.528.96 0 1.676.388 2.148 1.164.472.768.708 1.848.708 3.24zm-4.632 0c0 1.176.132 2.056.396 2.64.272.584.732.876 1.38.876.64 0 1.096-.288 1.368-.864.28-.584.42-1.468.42-2.652 0-1.168-.14-2.044-.42-2.628-.272-.584-.728-.876-1.368-.876-.648 0-1.108.292-1.38.876-.264.584-.396 1.46-.396 2.628zm39.819 4.296h-5.664v-.876l2.244-2.268a25.57 25.57 0 001.092-1.152c.296-.336.52-.664.672-.984.152-.328.228-.684.228-1.068 0-.472-.14-.828-.42-1.068-.28-.248-.644-.372-1.092-.372-.416 0-.784.072-1.104.216a4.944 4.944 0 00-.96.6l-.564-.708c.336-.28.72-.516 1.152-.708.44-.2.932-.3 1.476-.3.8 0 1.432.204 1.896.612.464.4.696.956.696 1.668 0 .448-.092.868-.276 1.26-.184.392-.44.78-.768 1.164-.328.376-.712.78-1.152 1.212l-1.788 1.764v.048h4.332v.96zm7.023-4.296c0 .92-.096 1.712-.288 2.376-.192.656-.496 1.16-.912 1.512-.416.352-.968.528-1.656.528-.968 0-1.684-.388-2.148-1.164-.456-.784-.684-1.868-.684-3.252 0-.928.092-1.72.276-2.376.192-.656.496-1.156.912-1.5.416-.352.964-.528 1.644-.528.96 0 1.676.388 2.148 1.164.472.768.708 1.848.708 3.24zm-4.632 0c0 1.176.132 2.056.396 2.64.272.584.732.876 1.38.876.64 0 1.096-.288 1.368-.864.28-.584.42-1.468.42-2.652 0-1.168-.14-2.044-.42-2.628-.272-.584-.728-.876-1.368-.876-.648 0-1.108.292-1.38.876-.264.584-.396 1.46-.396 2.628zm39.494-2.268c0 .576-.16 1.036-.48 1.38-.32.336-.752.56-1.296.672v.048c.688.08 1.2.296 1.536.648.336.352.504.812.504 1.38 0 .496-.116.94-.348 1.332-.232.384-.592.684-1.08.9-.48.216-1.1.324-1.86.324-.448 0-.864-.036-1.248-.108a3.883 3.883 0 01-1.104-.36v-.984a5.9 5.9 0 001.164.42c.416.096.816.144 1.2.144.768 0 1.32-.148 1.656-.444.344-.304.516-.72.516-1.248 0-.536-.212-.92-.636-1.152-.416-.24-1.004-.36-1.764-.36h-.828v-.9h.84c.704 0 1.236-.148 1.596-.444.368-.296.552-.688.552-1.176 0-.416-.14-.736-.42-.96-.28-.232-.66-.348-1.14-.348-.464 0-.86.068-1.188.204a6.005 6.005 0 00-.972.516l-.528-.72c.304-.24.68-.448 1.128-.624a4.273 4.273 0 011.548-.264c.896 0 1.56.2 1.992.6.44.4.66.908.66 1.524zm7.347 2.268c0 .92-.096 1.712-.288 2.376-.192.656-.496 1.16-.912 1.512-.416.352-.968.528-1.656.528-.968 0-1.684-.388-2.148-1.164-.456-.784-.684-1.868-.684-3.252 0-.928.092-1.72.276-2.376.192-.656.496-1.156.912-1.5.416-.352.964-.528 1.644-.528.96 0 1.676.388 2.148 1.164.472.768.708 1.848.708 3.24zm-4.632 0c0 1.176.132 2.056.396 2.64.272.584.732.876 1.38.876.64 0 1.096-.288 1.368-.864.28-.584.42-1.468.42-2.652 0-1.168-.14-2.044-.42-2.628-.272-.584-.728-.876-1.368-.876-.648 0-1.108.292-1.38.876-.264.584-.396 1.46-.396 2.628zm40.203 2.352h-1.248v1.944h-1.02v-1.944h-4.104v-.9l4.032-5.772h1.092v5.724h1.248v.948zm-2.268-3.648c0-.416.008-.768.024-1.056.016-.296.028-.576.036-.84h-.048a5.467 5.467 0 01-.516.936l-2.568 3.66h3.072v-2.7zm8.907 1.296c0 .92-.096 1.712-.288 2.376-.192.656-.496 1.16-.912 1.512-.416.352-.968.528-1.656.528-.968 0-1.684-.388-2.148-1.164-.456-.784-.684-1.868-.684-3.252 0-.928.092-1.72.276-2.376.192-.656.496-1.156.912-1.5.416-.352.964-.528 1.644-.528.96 0 1.676.388 2.148 1.164.472.768.708 1.848.708 3.24zm-4.632 0c0 1.176.132 2.056.396 2.64.272.584.732.876 1.38.876.64 0 1.096-.288 1.368-.864.28-.584.42-1.468.42-2.652 0-1.168-.14-2.044-.42-2.628-.272-.584-.728-.876-1.368-.876-.648 0-1.108.292-1.38.876-.264.584-.396 1.46-.396 2.628zm36.878-.96c.88 0 1.58.22 2.1.66.52.44.78 1.06.78 1.86 0 .888-.284 1.588-.852 2.1-.56.504-1.344.756-2.352.756-.44 0-.856-.04-1.248-.12a3.29 3.29 0 01-.972-.348v-.996c.288.176.636.316 1.044.42.416.096.812.144 1.188.144.632 0 1.14-.148 1.524-.444.392-.304.588-.772.588-1.404 0-.56-.172-.988-.516-1.284-.344-.304-.888-.456-1.632-.456-.224 0-.48.02-.768.06-.288.04-.52.08-.696.12l-.528-.336.324-4.044h4.296v.96h-3.396l-.204 2.484c.136-.024.32-.052.552-.084.232-.032.488-.048.768-.048zm9.963.96c0 .92-.096 1.712-.288 2.376-.192.656-.496 1.16-.912 1.512-.416.352-.968.528-1.656.528-.968 0-1.684-.388-2.148-1.164-.456-.784-.684-1.868-.684-3.252 0-.928.092-1.72.276-2.376.192-.656.496-1.156.912-1.5.416-.352.964-.528 1.644-.528.96 0 1.676.388 2.148 1.164.472.768.708 1.848.708 3.24zm-4.632 0c0 1.176.132 2.056.396 2.64.272.584.732.876 1.38.876.64 0 1.096-.288 1.368-.864.28-.584.42-1.468.42-2.652 0-1.168-.14-2.044-.42-2.628-.272-.584-.728-.876-1.368-.876-.648 0-1.108.292-1.38.876-.264.584-.396 1.46-.396 2.628zm34.238.636c0-.616.052-1.22.156-1.812.112-.6.308-1.14.588-1.62a3.166 3.166 0 011.2-1.164c.512-.288 1.172-.432 1.98-.432.168 0 .352.008.552.024.208.016.376.044.504.084v.9a2.64 2.64 0 00-.492-.108 3.993 3.993 0 00-.54-.036c-.552 0-1.012.092-1.38.276-.368.184-.66.436-.876.756-.208.32-.36.688-.456 1.104-.096.416-.156.86-.18 1.332h.072c.184-.28.44-.516.768-.708.328-.2.748-.3 1.26-.3.744 0 1.344.228 1.8.684.456.448.684 1.088.684 1.92 0 .896-.248 1.6-.744 2.112-.488.512-1.148.768-1.98.768a2.75 2.75 0 01-1.476-.408c-.44-.272-.792-.688-1.056-1.248-.256-.56-.384-1.268-.384-2.124zm2.904 2.892c.504 0 .912-.16 1.224-.48.312-.328.468-.832.468-1.512 0-.544-.14-.976-.42-1.296-.272-.32-.684-.48-1.236-.48-.376 0-.704.08-.984.24-.28.152-.5.348-.66.588-.152.24-.228.488-.228.744 0 .344.068.688.204 1.032.136.336.34.616.612.84.272.216.612.324 1.02.324zm9.699-3.528c0 .92-.096 1.712-.288 2.376-.192.656-.496 1.16-.912 1.512-.416.352-.968.528-1.656.528-.968 0-1.684-.388-2.148-1.164-.456-.784-.684-1.868-.684-3.252 0-.928.092-1.72.276-2.376.192-.656.496-1.156.912-1.5.416-.352.964-.528 1.644-.528.96 0 1.676.388 2.148 1.164.472.768.708 1.848.708 3.24zm-4.632 0c0 1.176.132 2.056.396 2.64.272.584.732.876 1.38.876.64 0 1.096-.288 1.368-.864.28-.584.42-1.468.42-2.652 0-1.168-.14-2.044-.42-2.628-.272-.584-.728-.876-1.368-.876-.648 0-1.108.292-1.38.876-.264.584-.396 1.46-.396 2.628zm35.211 4.296l3.516-7.608h-4.62v-.96h5.748v.816l-3.48 7.752h-1.164zm11.631-4.296c0 .92-.096 1.712-.288 2.376-.192.656-.496 1.16-.912 1.512-.416.352-.968.528-1.656.528-.968 0-1.684-.388-2.148-1.164-.456-.784-.684-1.868-.684-3.252 0-.928.092-1.72.276-2.376.192-.656.496-1.156.912-1.5.416-.352.964-.528 1.644-.528.96 0 1.676.388 2.148 1.164.472.768.708 1.848.708 3.24zm-4.632 0c0 1.176.132 2.056.396 2.64.272.584.732.876 1.38.876.64 0 1.096-.288 1.368-.864.28-.584.42-1.468.42-2.652 0-1.168-.14-2.044-.42-2.628-.272-.584-.728-.876-1.368-.876-.648 0-1.108.292-1.38.876-.264.584-.396 1.46-.396 2.628zm36.998-4.392c.752 0 1.368.176 1.848.528.48.352.72.86.72 1.524 0 .344-.076.644-.228.9-.144.256-.34.484-.588.684-.248.192-.52.364-.816.516.352.168.672.36.96.576.288.208.516.452.684.732.176.28.264.616.264 1.008 0 .72-.256 1.292-.768 1.716-.504.416-1.184.624-2.04.624-.92 0-1.628-.2-2.124-.6-.496-.408-.744-.976-.744-1.704 0-.392.08-.732.24-1.02.168-.288.388-.536.66-.744.272-.208.564-.384.876-.528a4.217 4.217 0 01-1.068-.864c-.288-.344-.432-.78-.432-1.308 0-.44.112-.808.336-1.104.224-.304.528-.536.912-.696.384-.16.82-.24 1.308-.24zm-.012.852c-.44 0-.804.108-1.092.324-.28.208-.42.512-.42.912 0 .296.068.544.204.744.144.2.336.372.576.516.24.136.504.268.792.396a3.783 3.783 0 001.044-.636c.288-.248.432-.588.432-1.02 0-.4-.14-.704-.42-.912-.28-.216-.652-.324-1.116-.324zm-1.788 5.664c0 .416.148.764.444 1.044.296.272.752.408 1.368.408.584 0 1.028-.136 1.332-.408.312-.28.468-.64.468-1.08 0-.416-.164-.76-.492-1.032-.328-.28-.764-.524-1.308-.732l-.192-.072c-.528.224-.932.484-1.212.78-.272.288-.408.652-.408 1.092zm11.643-2.124c0 .92-.096 1.712-.288 2.376-.192.656-.496 1.16-.912 1.512-.416.352-.968.528-1.656.528-.968 0-1.684-.388-2.148-1.164-.456-.784-.684-1.868-.684-3.252 0-.928.092-1.72.276-2.376.192-.656.496-1.156.912-1.5.416-.352.964-.528 1.644-.528.96 0 1.676.388 2.148 1.164.472.768.708 1.848.708 3.24zm-4.632 0c0 1.176.132 2.056.396 2.64.272.584.732.876 1.38.876.64 0 1.096-.288 1.368-.864.28-.584.42-1.468.42-2.652 0-1.168-.14-2.044-.42-2.628-.272-.584-.728-.876-1.368-.876-.648 0-1.108.292-1.38.876-.264.584-.396 1.46-.396 2.628zM16.34 30l3.516-7.608h-4.62v-.96h5.748v.816L17.504 30H16.34zm8.655-5.256c.88 0 1.58.22 2.1.66.52.44.78 1.06.78 1.86 0 .888-.284 1.588-.852 2.1-.56.504-1.344.756-2.352.756-.44 0-.856-.04-1.248-.12a3.29 3.29 0 01-.972-.348v-.996c.288.176.636.316 1.044.42.416.096.812.144 1.188.144.632 0 1.14-.148 1.524-.444.392-.304.588-.772.588-1.404 0-.56-.172-.988-.516-1.284-.344-.304-.888-.456-1.632-.456-.224 0-.48.02-.768.06-.288.04-.52.08-.696.12l-.528-.336.324-4.044h4.296v.96H23.88l-.204 2.484c.136-.024.32-.052.552-.084.232-.032.488-.048.768-.048zm-6.987 61.811c.88 0 1.58.22 2.1.66.52.44.78 1.06.78 1.86 0 .888-.284 1.588-.852 2.1-.56.505-1.344.757-2.352.757-.44 0-.856-.04-1.248-.12a3.29 3.29 0 01-.972-.349v-.995c.288.175.636.316 1.044.42.416.096.812.143 1.188.143.632 0 1.14-.148 1.524-.444.392-.303.588-.772.588-1.404 0-.56-.172-.988-.516-1.284-.344-.303-.888-.456-1.632-.456-.224 0-.48.02-.768.06-.288.04-.52.08-.696.12l-.528-.336.324-4.044h4.296v.96h-3.396l-.204 2.484c.136-.023.32-.052.552-.084a5.82 5.82 0 01.768-.047zm9.963.96c0 .92-.096 1.713-.288 2.376-.192.656-.496 1.16-.912 1.512-.416.352-.968.528-1.656.528-.968 0-1.684-.388-2.148-1.163-.456-.784-.684-1.868-.684-3.252 0-.928.092-1.72.276-2.377.192-.655.496-1.155.912-1.5.416-.352.964-.527 1.644-.527.96 0 1.676.388 2.148 1.163.472.768.708 1.849.708 3.24zm-4.632 0c0 1.177.132 2.056.396 2.64.272.585.732.876 1.38.876.64 0 1.096-.288 1.368-.864.28-.584.42-1.468.42-2.651 0-1.169-.14-2.044-.42-2.629-.272-.584-.728-.876-1.368-.876-.648 0-1.108.293-1.38.877-.264.584-.396 1.46-.396 2.627zm-2.391 66.108h-5.664v-.876l2.244-2.268a25.57 25.57 0 001.092-1.152c.296-.336.52-.664.672-.984.152-.328.228-.684.228-1.068 0-.472-.14-.828-.42-1.068-.28-.248-.644-.372-1.092-.372-.416 0-.784.072-1.104.216a4.944 4.944 0 00-.96.6l-.564-.708c.336-.28.72-.516 1.152-.708.44-.2.932-.3 1.476-.3.8 0 1.432.204 1.896.612.464.4.696.956.696 1.668 0 .448-.092.868-.276 1.26-.184.392-.44.78-.768 1.164-.328.376-.712.78-1.152 1.212l-1.788 1.764v.048h4.332v.96zm4.047-5.256c.88 0 1.58.22 2.1.66.52.44.78 1.06.78 1.86 0 .888-.284 1.588-.852 2.1-.56.504-1.344.756-2.352.756-.44 0-.856-.04-1.248-.12a3.29 3.29 0 01-.972-.348v-.996c.288.176.636.316 1.044.42.416.096.812.144 1.188.144.632 0 1.14-.148 1.524-.444.392-.304.588-.772.588-1.404 0-.56-.172-.988-.516-1.284-.344-.304-.888-.456-1.632-.456-.224 0-.48.02-.768.06-.288.04-.52.08-.696.12l-.528-.336.324-4.044h4.296v.96H23.88l-.204 2.484c.136-.024.32-.052.552-.084.232-.032.488-.048.768-.048zm2.989 62.772c0 .92-.096 1.712-.288 2.376-.192.656-.496 1.16-.912 1.512-.416.352-.968.528-1.656.528-.968 0-1.684-.388-2.148-1.164-.456-.784-.684-1.868-.684-3.252 0-.928.092-1.72.276-2.376.192-.656.496-1.156.912-1.5.416-.352.964-.528 1.644-.528.96 0 1.676.388 2.148 1.164.472.768.708 1.848.708 3.24zm-4.632 0c0 1.176.132 2.056.396 2.64.272.584.732.876 1.38.876.64 0 1.096-.288 1.368-.864.28-.584.42-1.468.42-2.652 0-1.168-.14-2.044-.42-2.628-.272-.584-.728-.876-1.368-.876-.648 0-1.108.292-1.38.876-.264.584-.396 1.46-.396 2.628z" fill="#595959"/><path d="M59.27 171.051C51.018 169.4 47.196 174.212 45 176.6V259h288V103c-2.731 9.479-25.472 33.6-26.072 33.6-.6 0-2.909-.6-3.209-1.2-1.605-3.2-12.034 3.6-12.03 4.212.004.612-17.51 5.342-24.287 8.357-2.013-4.112-6.548-12.545-11.817-7.769-6.587 5.969-19.211 11.188-20.858 8.8-1.647-2.388-6.19-11.378-13.326-6.602l-.148.099c-7.123 4.768-16.888 11.303-23.428 11.303-6.587 0-10.746-7.216-14.039-10.4-3.294-3.184-7.241 5.365-9.985 7.753-2.744 2.388-2.661 2.637-4.857.647-2.195-1.99-9.035.408-11.231 2-2.195 1.592-1.601 4.68-11.632 8-13.012 4.306-13-10.951-15.243-11.6-3.201-.927-11.902 6.127-19.037 10.106-7.136 3.98-7.31 4.298-12.25 5.094-4.94.796-9.795-4.004-13.637-4.8-3.843-.796-6.038 4.029-10.43 9.6-4.39 5.571-8.588 2.376-16.213.851z" fill="url(#paint0_linear_1366_25063)"/><path d="M45.8 175.8c2.197-2.497 6.481-6.825 12.633-5.826 7.69 1.248 12.083 5.826 16.478 0 4.394-5.827 7.69-10.821 11.534-9.989 3.845.833 6.591 5.411 11.535 4.578 4.943-.832-8.83 8.476 13.182-4.578 22.012-13.053 19.615-11.063 20.872-6.659 1.549 5.429 6.042 13.318 15.379 8.324s9.557-10.405 15.929-10.405c6.371 0 2.746-2.08 4.943 0 2.197 2.081 3.295 1.249 6.042-1.248 2.746-2.497 6.685-9.989 9.98-6.659 3.296 3.329 5.948 9.988 12.539 9.988 6.592 0 17.226-6.659 24.366-11.653 7.14-4.994 11.336 4.578 12.984 7.075 1.648 2.497 13.732-2.497 20.323-8.74 5.273-4.994 10.619 2.359 12.633 6.659 7.14-1.803 22.849-6.492 28.561-10.82 5.713-4.329 8.972-.417 9.887 2.081 5.127-2.914 23.454-23.707 26.2-34.528" stroke="url(#paint1_linear_1366_25063)" stroke-width="4" stroke-linecap="round" stroke-linejoin="round"/></g><defs><linearGradient id="paint0_linear_1366_25063" x1="185.513" y1="121.704" x2="185.513" y2="206.469" gradientUnits="userSpaceOnUse"><stop stop-color="#C7A77F" stop-opacity=".3"/><stop offset="1" stop-color="#fff" stop-opacity="0"/></linearGradient><linearGradient id="paint1_linear_1366_25063" x1="332.202" y1="103" x2="42.644" y2="175.993" gradientUnits="userSpaceOnUse"><stop stop-color="#C7A77F"/><stop offset="1" stop-color="#8F6B45"/></linearGradient><clipPath id="clip0_1366_25063"><path fill="#fff" d="M0 0h361v258.5H0z"/></clipPath><filter id="filter0_d_1366_25063" x="311" y="10" width="40" height="40" filterUnits="userSpaceOnUse" color-interpolation-filters="sRGB"><feFlood flood-opacity="0" result="BackgroundImageFix"/><feColorMatrix in="SourceAlpha" values="0 0 0 0 0 0 0 0 0 0 0 0 0 0 0 0 0 0 127 0" result="hardAlpha"/><feOffset/><feGaussianBlur stdDeviation="1"/><feComposite in2="hardAlpha" operator="out"/><feColorMatrix values="0 0 0 0 0 0 0 0 0 0 0 0 0 0 0 0 0 0 0.25 0"/><feBlend in2="BackgroundImageFix" result="effect1_dropShadow_1366_25063"/><feBlend in="SourceGraphic" in2="effect1_dropShadow_1366_25063" result="shape"/></filter></defs></svg>