<svg width="361" height="149" viewBox="0 0 361 149" fill="none" xmlns="http://www.w3.org/2000/svg"><path d="M7.154 16.244c0 .457-.098.854-.294 1.19a2.33 2.33 0 01-.77.826 3.404 3.404 0 01-1.092.476v.042c.803.093 1.41.336 1.82.728.42.392.63.92.63 1.582 0 .579-.145 1.101-.434 1.568-.28.457-.719.821-1.316 1.092-.588.261-1.349.392-2.282.392-.55 0-1.064-.047-1.54-.14a6.818 6.818 0 01-1.344-.406v-1.792a6.253 6.253 0 002.66.658c.756 0 1.283-.13 1.582-.392.308-.261.462-.63.462-1.106 0-.28-.07-.513-.21-.7-.14-.196-.387-.34-.742-.434-.345-.103-.83-.154-1.456-.154h-.756V18.05h.77c.616 0 1.083-.056 1.4-.168.327-.121.546-.28.658-.476a1.35 1.35 0 00.182-.7c0-.355-.112-.63-.336-.826-.215-.205-.579-.308-1.092-.308-.317 0-.607.042-.868.126-.261.075-.5.168-.714.28-.205.112-.387.22-.546.322l-.98-1.456a5.47 5.47 0 01.868-.504 5.18 5.18 0 011.078-.35 6.3 6.3 0 011.316-.126c1.027 0 1.839.21 2.436.63.607.41.91.994.91 1.75zM15.558 24H8.572v-1.47l2.506-2.534c.504-.523.91-.957 1.218-1.302.308-.355.532-.672.672-.952.14-.29.21-.597.21-.924 0-.401-.112-.7-.336-.896-.215-.196-.509-.294-.882-.294-.383 0-.756.089-1.12.266a6.04 6.04 0 00-1.148.756l-1.148-1.358a9.43 9.43 0 01.91-.7c.326-.215.7-.387 1.12-.518.43-.14.942-.21 1.54-.21.653 0 1.213.121 1.68.364.476.233.84.555 1.092.966.261.401.392.859.392 1.372 0 .42-.066.807-.196 1.162-.122.355-.304.7-.546 1.036a8.89 8.89 0 01-.868 1.022 54.27 54.27 0 01-1.176 1.134l-1.288 1.204v.098h4.354V24z" fill="#262626"/><rect x="40" y="14.5" width="209" height="8" rx="4" fill="#111"/><path d="M270.402 11.378c.192-.39.288-.584.419-.646a.415.415 0 01.358 0c.131.062.227.257.419.646l1.822 3.691c.057.115.085.173.126.217a.42.42 0 00.13.095c.055.025.119.034.245.053l4.076.596c.43.063.644.094.743.199a.413.413 0 01.111.34c-.019.144-.174.295-.485.598l-2.948 2.872a.924.924 0 00-.168.187.41.41 0 00-.049.153c-.008.06.003.123.025.25l.695 4.056c.074.428.111.642.042.769a.417.417 0 01-.291.21c-.142.027-.334-.074-.718-.276l-3.644-1.916a.9.9 0 00-.23-.102.414.414 0 00-.16 0 .9.9 0 00-.23.102l-3.644 1.916c-.385.202-.577.303-.719.277a.418.418 0 01-.29-.211c-.069-.127-.032-.341.041-.769l.696-4.056a.91.91 0 00.025-.25.41.41 0 00-.049-.153.924.924 0 00-.168-.187l-2.948-2.872c-.311-.303-.466-.454-.485-.597a.416.416 0 01.11-.341c.1-.105.314-.136.743-.2l4.076-.595a.923.923 0 00.246-.053.408.408 0 00.129-.095c.042-.044.07-.102.127-.217l1.822-3.691zm20 0c.192-.39.288-.584.419-.646a.415.415 0 01.358 0c.131.062.227.257.419.646l1.822 3.691c.057.115.085.173.126.217a.42.42 0 00.13.095c.055.025.119.034.245.053l4.076.596c.43.063.644.094.743.199a.413.413 0 01.111.34c-.019.144-.174.295-.485.598l-2.948 2.872a.924.924 0 00-.168.187.41.41 0 00-.049.153c-.008.06.003.123.025.25l.695 4.056c.074.428.111.642.042.769a.417.417 0 01-.291.21c-.142.027-.334-.074-.718-.276l-3.644-1.916a.9.9 0 00-.23-.102.414.414 0 00-.16 0 .9.9 0 00-.23.102l-3.644 1.916c-.385.202-.577.303-.719.277a.418.418 0 01-.29-.211c-.069-.127-.032-.341.041-.769l.696-4.056a.91.91 0 00.025-.25.41.41 0 00-.049-.153.924.924 0 00-.168-.187l-2.948-2.872c-.311-.303-.466-.454-.485-.597a.416.416 0 01.11-.341c.1-.105.314-.136.743-.2l4.076-.595a.923.923 0 00.246-.053.408.408 0 00.129-.095c.042-.044.07-.102.127-.217l1.822-3.691zm20 0c.192-.39.288-.584.419-.646a.415.415 0 01.358 0c.131.062.227.257.419.646l1.822 3.691c.057.115.085.173.126.217a.42.42 0 00.13.095c.055.025.119.034.245.053l4.076.596c.43.063.644.094.743.199a.413.413 0 01.111.34c-.019.144-.174.295-.485.598l-2.948 2.872a.924.924 0 00-.168.187.41.41 0 00-.049.153c-.008.06.003.123.025.25l.695 4.056c.074.428.111.642.042.769a.417.417 0 01-.291.21c-.142.027-.334-.074-.718-.276l-3.644-1.916a.9.9 0 00-.23-.102.414.414 0 00-.16 0 .9.9 0 00-.23.102l-3.644 1.916c-.385.202-.577.303-.719.277a.418.418 0 01-.29-.211c-.069-.127-.032-.341.041-.769l.696-4.056a.91.91 0 00.025-.25.41.41 0 00-.049-.153.924.924 0 00-.168-.187l-2.948-2.872c-.311-.303-.466-.454-.485-.597a.416.416 0 01.11-.341c.1-.105.314-.136.743-.2l4.076-.595a.923.923 0 00.246-.053.408.408 0 00.129-.095c.042-.044.07-.102.127-.217l1.822-3.691zm20 0c.192-.39.288-.584.419-.646a.415.415 0 01.358 0c.131.062.227.257.419.646l1.822 3.691c.057.115.085.173.126.217a.42.42 0 00.13.095c.055.025.119.034.245.053l4.076.596c.43.063.644.094.743.199a.413.413 0 01.111.34c-.019.144-.174.295-.485.598l-2.948 2.872a.924.924 0 00-.168.187.41.41 0 00-.049.153c-.008.06.003.123.025.25l.695 4.056c.074.428.111.642.042.769a.417.417 0 01-.291.21c-.142.027-.334-.074-.718-.276l-3.644-1.916a.9.9 0 00-.23-.102.414.414 0 00-.16 0 .9.9 0 00-.23.102l-3.644 1.916c-.385.202-.577.303-.719.277a.418.418 0 01-.29-.211c-.069-.127-.032-.341.041-.769l.696-4.056a.91.91 0 00.025-.25.41.41 0 00-.049-.153.924.924 0 00-.168-.187l-2.948-2.872c-.311-.303-.466-.454-.485-.597a.416.416 0 01.11-.341c.1-.105.314-.136.743-.2l4.076-.595a.923.923 0 00.246-.053.408.408 0 00.129-.095c.042-.044.07-.102.127-.217l1.822-3.691zm20 0c.192-.39.288-.584.419-.646a.415.415 0 01.358 0c.131.062.227.257.419.646l1.822 3.691c.057.115.085.173.126.217a.42.42 0 00.13.095c.055.025.119.034.245.053l4.076.596c.43.063.644.094.743.199a.413.413 0 01.111.34c-.019.144-.174.295-.485.598l-2.948 2.872a.924.924 0 00-.168.187.41.41 0 00-.049.153c-.008.06.003.123.025.25l.695 4.056c.074.428.111.642.042.769a.417.417 0 01-.291.21c-.142.027-.334-.074-.718-.276l-3.644-1.916a.9.9 0 00-.23-.102.414.414 0 00-.16 0 .9.9 0 00-.23.102l-3.644 1.916c-.385.202-.577.303-.719.277a.418.418 0 01-.29-.211c-.069-.127-.032-.341.041-.769l.696-4.056a.91.91 0 00.025-.25.41.41 0 00-.049-.153.924.924 0 00-.168-.187l-2.948-2.872c-.311-.303-.466-.454-.485-.597a.416.416 0 01.11-.341c.1-.105.314-.136.743-.2l4.076-.595a.923.923 0 00.246-.053.408.408 0 00.129-.095c.042-.044.07-.102.127-.217l1.822-3.691z" fill="#111"/><path d="M7.77 49.928H6.566V52H4.508v-2.072H.238v-1.47l4.382-6.454h1.946v6.286H7.77v1.638zm-3.262-3.332v-.56a365.633 365.633 0 01.056-1.246c.01-.177.019-.299.028-.364h-.056a9.835 9.835 0 01-.266.546c-.093.177-.205.36-.336.546L2.1 48.29h2.408v-1.694z" fill="#262626"/><rect x="40" y="42.5" width="209" height="8" rx="4" fill="#000" fill-opacity=".1"/><path d="M270.402 39.378c.192-.39.288-.584.419-.646a.415.415 0 01.358 0c.131.062.227.257.419.646l1.822 3.691c.057.115.085.173.126.217a.42.42 0 00.13.095.923.923 0 00.245.053l4.076.596c.43.063.644.094.743.199a.413.413 0 01.111.34c-.019.144-.174.295-.485.598l-2.948 2.872a.924.924 0 00-.168.187.41.41 0 00-.049.153c-.008.06.003.123.025.25l.695 4.056c.074.428.111.642.042.769a.417.417 0 01-.291.21c-.142.027-.334-.074-.718-.276l-3.644-1.916a.9.9 0 00-.23-.102.414.414 0 00-.16 0 .9.9 0 00-.23.102l-3.644 1.916c-.385.202-.577.303-.719.277a.418.418 0 01-.29-.211c-.069-.127-.032-.341.041-.769l.696-4.056a.91.91 0 00.025-.25.41.41 0 00-.049-.153.924.924 0 00-.168-.187l-2.948-2.872c-.311-.303-.466-.454-.485-.597a.416.416 0 01.11-.341c.1-.105.314-.136.743-.2l4.076-.595a.923.923 0 00.246-.053.408.408 0 00.129-.095c.042-.044.07-.102.127-.217l1.822-3.691z" fill="#000" fill-opacity=".2"/><path d="M290.402 39.378c.192-.39.288-.584.419-.646a.415.415 0 01.358 0c.131.062.227.257.419.646l1.822 3.691c.057.115.085.173.126.217a.42.42 0 00.13.095.923.923 0 00.245.053l4.076.596c.43.063.644.094.743.199a.413.413 0 01.111.34c-.019.144-.174.295-.485.598l-2.948 2.872a.924.924 0 00-.168.187.41.41 0 00-.049.153c-.008.06.003.123.025.25l.695 4.056c.074.428.111.642.042.769a.417.417 0 01-.291.21c-.142.027-.334-.074-.718-.276l-3.644-1.916a.9.9 0 00-.23-.102.414.414 0 00-.16 0 .9.9 0 00-.23.102l-3.644 1.916c-.385.202-.577.303-.719.277a.418.418 0 01-.29-.211c-.069-.127-.032-.341.041-.769l.696-4.056a.91.91 0 00.025-.25.41.41 0 00-.049-.153.924.924 0 00-.168-.187l-2.948-2.872c-.311-.303-.466-.454-.485-.597a.416.416 0 01.11-.341c.1-.105.314-.136.743-.2l4.076-.595a.923.923 0 00.246-.053.408.408 0 00.129-.095c.042-.044.07-.102.127-.217l1.822-3.691zm20 0c.192-.39.288-.584.419-.646a.415.415 0 01.358 0c.131.062.227.257.419.646l1.822 3.691c.057.115.085.173.126.217a.42.42 0 00.13.095.923.923 0 00.245.053l4.076.596c.43.063.644.094.743.199a.413.413 0 01.111.34c-.019.144-.174.295-.485.598l-2.948 2.872a.924.924 0 00-.168.187.41.41 0 00-.049.153c-.008.06.003.123.025.25l.695 4.056c.074.428.111.642.042.769a.417.417 0 01-.291.21c-.142.027-.334-.074-.718-.276l-3.644-1.916a.9.9 0 00-.23-.102.414.414 0 00-.16 0 .9.9 0 00-.23.102l-3.644 1.916c-.385.202-.577.303-.719.277a.418.418 0 01-.29-.211c-.069-.127-.032-.341.041-.769l.696-4.056a.91.91 0 00.025-.25.41.41 0 00-.049-.153.924.924 0 00-.168-.187l-2.948-2.872c-.311-.303-.466-.454-.485-.597a.416.416 0 01.11-.341c.1-.105.314-.136.743-.2l4.076-.595a.923.923 0 00.246-.053.408.408 0 00.129-.095c.042-.044.07-.102.127-.217l1.822-3.691zm20 0c.192-.39.288-.584.419-.646a.415.415 0 01.358 0c.131.062.227.257.419.646l1.822 3.691c.057.115.085.173.126.217a.42.42 0 00.13.095.923.923 0 00.245.053l4.076.596c.43.063.644.094.743.199a.413.413 0 01.111.34c-.019.144-.174.295-.485.598l-2.948 2.872a.924.924 0 00-.168.187.41.41 0 00-.049.153c-.008.06.003.123.025.25l.695 4.056c.074.428.111.642.042.769a.417.417 0 01-.291.21c-.142.027-.334-.074-.718-.276l-3.644-1.916a.9.9 0 00-.23-.102.414.414 0 00-.16 0 .9.9 0 00-.23.102l-3.644 1.916c-.385.202-.577.303-.719.277a.418.418 0 01-.29-.211c-.069-.127-.032-.341.041-.769l.696-4.056a.91.91 0 00.025-.25.41.41 0 00-.049-.153.924.924 0 00-.168-.187l-2.948-2.872c-.311-.303-.466-.454-.485-.597a.416.416 0 01.11-.341c.1-.105.314-.136.743-.2l4.076-.595a.923.923 0 00.246-.053.408.408 0 00.129-.095c.042-.044.07-.102.127-.217l1.822-3.691zm20 0c.192-.39.288-.584.419-.646a.415.415 0 01.358 0c.131.062.227.257.419.646l1.822 3.691c.057.115.085.173.126.217a.42.42 0 00.13.095.923.923 0 00.245.053l4.076.596c.43.063.644.094.743.199a.413.413 0 01.111.34c-.019.144-.174.295-.485.598l-2.948 2.872a.924.924 0 00-.168.187.41.41 0 00-.049.153c-.008.06.003.123.025.25l.695 4.056c.074.428.111.642.042.769a.417.417 0 01-.291.21c-.142.027-.334-.074-.718-.276l-3.644-1.916a.9.9 0 00-.23-.102.414.414 0 00-.16 0 .9.9 0 00-.23.102l-3.644 1.916c-.385.202-.577.303-.719.277a.418.418 0 01-.29-.211c-.069-.127-.032-.341.041-.769l.696-4.056a.91.91 0 00.025-.25.41.41 0 00-.049-.153.924.924 0 00-.168-.187l-2.948-2.872c-.311-.303-.466-.454-.485-.597a.416.416 0 01.11-.341c.1-.105.314-.136.743-.2l4.076-.595a.923.923 0 00.246-.053.408.408 0 00.129-.095c.042-.044.07-.102.127-.217l1.822-3.691z" fill="#111"/><path d="M7.49 75.002c0 .803-.065 1.521-.196 2.156-.121.635-.322 1.176-.602 1.624a2.72 2.72 0 01-1.078 1.008c-.439.233-.98.35-1.624.35-.803 0-1.46-.205-1.974-.616-.513-.41-.896-.999-1.148-1.764-.243-.765-.364-1.685-.364-2.758 0-1.083.112-2.007.336-2.772.224-.765.593-1.353 1.106-1.764.513-.41 1.195-.616 2.044-.616.803 0 1.46.205 1.974.616.513.401.896.99 1.148 1.764.252.765.378 1.69.378 2.772zm-4.886 0c0 .756.042 1.39.126 1.904.084.504.224.887.42 1.148.205.252.485.378.84.378s.63-.126.826-.378c.205-.252.35-.63.434-1.134.093-.513.14-1.153.14-1.918 0-.765-.047-1.4-.14-1.904-.084-.513-.229-.896-.434-1.148-.196-.261-.471-.392-.826-.392s-.635.13-.84.392c-.196.252-.336.635-.42 1.148-.084.504-.126 1.139-.126 1.904z" fill="#262626"/><rect x="40" y="70.5" width="209" height="8" rx="4" fill="#000" fill-opacity=".1"/><path d="M270.402 67.378c.192-.39.288-.584.419-.646a.415.415 0 01.358 0c.131.062.227.257.419.646l1.822 3.691c.057.115.085.173.126.217a.42.42 0 00.13.095c.055.025.119.034.245.053l4.076.596c.43.063.644.094.743.199a.413.413 0 01.111.34c-.019.144-.174.295-.485.598l-2.948 2.872a.924.924 0 00-.168.187.41.41 0 00-.049.153c-.008.06.003.123.025.25l.695 4.056c.074.428.111.642.042.769a.417.417 0 01-.291.21c-.142.027-.334-.074-.718-.276l-3.644-1.916a.9.9 0 00-.23-.102.414.414 0 00-.16 0 .9.9 0 00-.23.102l-3.644 1.916c-.385.202-.577.303-.719.277a.418.418 0 01-.29-.211c-.069-.127-.032-.341.041-.769l.696-4.056a.91.91 0 00.025-.25.41.41 0 00-.049-.153.924.924 0 00-.168-.187l-2.948-2.872c-.311-.303-.466-.454-.485-.597a.416.416 0 01.11-.341c.1-.105.314-.136.743-.2l4.076-.595c.127-.019.191-.028.246-.053a.408.408 0 00.129-.095c.042-.044.07-.102.127-.217l1.822-3.691zm20 0c.192-.39.288-.584.419-.646a.415.415 0 01.358 0c.131.062.227.257.419.646l1.822 3.691c.057.115.085.173.126.217a.42.42 0 00.13.095c.055.025.119.034.245.053l4.076.596c.43.063.644.094.743.199a.413.413 0 01.111.34c-.019.144-.174.295-.485.598l-2.948 2.872a.924.924 0 00-.168.187.41.41 0 00-.049.153c-.008.06.003.123.025.25l.695 4.056c.074.428.111.642.042.769a.417.417 0 01-.291.21c-.142.027-.334-.074-.718-.276l-3.644-1.916a.9.9 0 00-.23-.102.414.414 0 00-.16 0 .9.9 0 00-.23.102l-3.644 1.916c-.385.202-.577.303-.719.277a.418.418 0 01-.29-.211c-.069-.127-.032-.341.041-.769l.696-4.056a.91.91 0 00.025-.25.41.41 0 00-.049-.153.924.924 0 00-.168-.187l-2.948-2.872c-.311-.303-.466-.454-.485-.597a.416.416 0 01.11-.341c.1-.105.314-.136.743-.2l4.076-.595c.127-.019.191-.028.246-.053a.408.408 0 00.129-.095c.042-.044.07-.102.127-.217l1.822-3.691z" fill="#000" fill-opacity=".2"/><path d="M310.402 67.378c.192-.39.288-.584.419-.646a.415.415 0 01.358 0c.131.062.227.257.419.646l1.822 3.691c.057.115.085.173.126.217a.42.42 0 00.13.095c.055.025.119.034.245.053l4.076.596c.43.063.644.094.743.199a.413.413 0 01.111.34c-.019.144-.174.295-.485.598l-2.948 2.872a.924.924 0 00-.168.187.41.41 0 00-.049.153c-.008.06.003.123.025.25l.695 4.056c.074.428.111.642.042.769a.417.417 0 01-.291.21c-.142.027-.334-.074-.718-.276l-3.644-1.916a.9.9 0 00-.23-.102.414.414 0 00-.16 0 .9.9 0 00-.23.102l-3.644 1.916c-.385.202-.577.303-.719.277a.418.418 0 01-.29-.211c-.069-.127-.032-.341.041-.769l.696-4.056a.91.91 0 00.025-.25.41.41 0 00-.049-.153.924.924 0 00-.168-.187l-2.948-2.872c-.311-.303-.466-.454-.485-.597a.416.416 0 01.11-.341c.1-.105.314-.136.743-.2l4.076-.595c.127-.019.191-.028.246-.053a.408.408 0 00.129-.095c.042-.044.07-.102.127-.217l1.822-3.691zm20 0c.192-.39.288-.584.419-.646a.415.415 0 01.358 0c.131.062.227.257.419.646l1.822 3.691c.057.115.085.173.126.217a.42.42 0 00.13.095c.055.025.119.034.245.053l4.076.596c.43.063.644.094.743.199a.413.413 0 01.111.34c-.019.144-.174.295-.485.598l-2.948 2.872a.924.924 0 00-.168.187.41.41 0 00-.049.153c-.008.06.003.123.025.25l.695 4.056c.074.428.111.642.042.769a.417.417 0 01-.291.21c-.142.027-.334-.074-.718-.276l-3.644-1.916a.9.9 0 00-.23-.102.414.414 0 00-.16 0 .9.9 0 00-.23.102l-3.644 1.916c-.385.202-.577.303-.719.277a.418.418 0 01-.29-.211c-.069-.127-.032-.341.041-.769l.696-4.056a.91.91 0 00.025-.25.41.41 0 00-.049-.153.924.924 0 00-.168-.187l-2.948-2.872c-.311-.303-.466-.454-.485-.597a.416.416 0 01.11-.341c.1-.105.314-.136.743-.2l4.076-.595c.127-.019.191-.028.246-.053a.408.408 0 00.129-.095c.042-.044.07-.102.127-.217l1.822-3.691zm20 0c.192-.39.288-.584.419-.646a.415.415 0 01.358 0c.131.062.227.257.419.646l1.822 3.691c.057.115.085.173.126.217a.42.42 0 00.13.095c.055.025.119.034.245.053l4.076.596c.43.063.644.094.743.199a.413.413 0 01.111.34c-.019.144-.174.295-.485.598l-2.948 2.872a.924.924 0 00-.168.187.41.41 0 00-.049.153c-.008.06.003.123.025.25l.695 4.056c.074.428.111.642.042.769a.417.417 0 01-.291.21c-.142.027-.334-.074-.718-.276l-3.644-1.916a.9.9 0 00-.23-.102.414.414 0 00-.16 0 .9.9 0 00-.23.102l-3.644 1.916c-.385.202-.577.303-.719.277a.418.418 0 01-.29-.211c-.069-.127-.032-.341.041-.769l.696-4.056a.91.91 0 00.025-.25.41.41 0 00-.049-.153.924.924 0 00-.168-.187l-2.948-2.872c-.311-.303-.466-.454-.485-.597a.416.416 0 01.11-.341c.1-.105.314-.136.743-.2l4.076-.595c.127-.019.191-.028.246-.053a.408.408 0 00.129-.095c.042-.044.07-.102.127-.217l1.822-3.691z" fill="#111"/><path d="M5.782 108H3.668v-6.37c.01-.233.019-.476.028-.728l.028-.672c-.047.056-.15.159-.308.308-.15.14-.29.266-.42.378l-1.148.924-1.022-1.274 3.22-2.562h1.736V108z" fill="#262626"/><rect x="40" y="98.5" width="209" height="8" rx="4" fill="#000" fill-opacity=".1"/><path d="M270.402 95.378c.192-.39.288-.584.419-.646a.415.415 0 01.358 0c.131.062.227.257.419.646l1.822 3.691c.057.115.085.173.126.217a.42.42 0 00.13.095c.055.025.119.034.245.053l4.076.596c.43.063.644.094.743.199a.412.412 0 01.111.341c-.019.143-.174.294-.485.597l-2.948 2.872a.92.92 0 00-.168.187.41.41 0 00-.049.153.87.87 0 00.025.25l.695 4.056c.074.428.111.642.042.769a.419.419 0 01-.291.211c-.142.026-.334-.075-.718-.277l-3.644-1.916a.908.908 0 00-.23-.102.43.43 0 00-.16 0 .908.908 0 00-.23.102l-3.644 1.916c-.385.202-.577.303-.719.277a.42.42 0 01-.29-.211c-.069-.127-.032-.341.041-.769l.696-4.056a.909.909 0 00.025-.25.41.41 0 00-.049-.153.92.92 0 00-.168-.187l-2.948-2.872c-.311-.303-.466-.454-.485-.597a.415.415 0 01.11-.341c.1-.105.314-.136.743-.199l4.076-.596c.127-.019.191-.028.246-.053a.408.408 0 00.129-.095c.042-.044.07-.102.127-.217l1.822-3.691zm20 0c.192-.39.288-.584.419-.646a.415.415 0 01.358 0c.131.062.227.257.419.646l1.822 3.691c.057.115.085.173.126.217a.42.42 0 00.13.095c.055.025.119.034.245.053l4.076.596c.43.063.644.094.743.199a.412.412 0 01.111.341c-.019.143-.174.294-.485.597l-2.948 2.872a.92.92 0 00-.168.187.41.41 0 00-.049.153.87.87 0 00.025.25l.695 4.056c.074.428.111.642.042.769a.419.419 0 01-.291.211c-.142.026-.334-.075-.718-.277l-3.644-1.916a.908.908 0 00-.23-.102.43.43 0 00-.16 0 .908.908 0 00-.23.102l-3.644 1.916c-.385.202-.577.303-.719.277a.42.42 0 01-.29-.211c-.069-.127-.032-.341.041-.769l.696-4.056a.909.909 0 00.025-.25.41.41 0 00-.049-.153.92.92 0 00-.168-.187l-2.948-2.872c-.311-.303-.466-.454-.485-.597a.415.415 0 01.11-.341c.1-.105.314-.136.743-.199l4.076-.596c.127-.019.191-.028.246-.053a.408.408 0 00.129-.095c.042-.044.07-.102.127-.217l1.822-3.691zm20 0c.192-.39.288-.584.419-.646a.415.415 0 01.358 0c.131.062.227.257.419.646l1.822 3.691c.057.115.085.173.126.217a.42.42 0 00.13.095c.055.025.119.034.245.053l4.076.596c.43.063.644.094.743.199a.412.412 0 01.111.341c-.019.143-.174.294-.485.597l-2.948 2.872a.92.92 0 00-.168.187.41.41 0 00-.049.153.87.87 0 00.025.25l.695 4.056c.074.428.111.642.042.769a.419.419 0 01-.291.211c-.142.026-.334-.075-.718-.277l-3.644-1.916a.908.908 0 00-.23-.102.43.43 0 00-.16 0 .908.908 0 00-.23.102l-3.644 1.916c-.385.202-.577.303-.719.277a.42.42 0 01-.29-.211c-.069-.127-.032-.341.041-.769l.696-4.056a.909.909 0 00.025-.25.41.41 0 00-.049-.153.92.92 0 00-.168-.187l-2.948-2.872c-.311-.303-.466-.454-.485-.597a.415.415 0 01.11-.341c.1-.105.314-.136.743-.199l4.076-.596c.127-.019.191-.028.246-.053a.408.408 0 00.129-.095c.042-.044.07-.102.127-.217l1.822-3.691z" fill="#000" fill-opacity=".2"/><path d="M330.402 95.378c.192-.39.288-.584.419-.646a.415.415 0 01.358 0c.131.062.227.257.419.646l1.822 3.691c.057.115.085.173.126.217a.42.42 0 00.13.095c.055.025.119.034.245.053l4.076.596c.43.063.644.094.743.199a.412.412 0 01.111.341c-.019.143-.174.294-.485.597l-2.948 2.872a.92.92 0 00-.168.187.41.41 0 00-.049.153.87.87 0 00.025.25l.695 4.056c.074.428.111.642.042.769a.419.419 0 01-.291.211c-.142.026-.334-.075-.718-.277l-3.644-1.916a.908.908 0 00-.23-.102.43.43 0 00-.16 0 .908.908 0 00-.23.102l-3.644 1.916c-.385.202-.577.303-.719.277a.42.42 0 01-.29-.211c-.069-.127-.032-.341.041-.769l.696-4.056a.909.909 0 00.025-.25.41.41 0 00-.049-.153.92.92 0 00-.168-.187l-2.948-2.872c-.311-.303-.466-.454-.485-.597a.415.415 0 01.11-.341c.1-.105.314-.136.743-.199l4.076-.596c.127-.019.191-.028.246-.053a.408.408 0 00.129-.095c.042-.044.07-.102.127-.217l1.822-3.691zm20 0c.192-.39.288-.584.419-.646a.415.415 0 01.358 0c.131.062.227.257.419.646l1.822 3.691c.057.115.085.173.126.217a.42.42 0 00.13.095c.055.025.119.034.245.053l4.076.596c.43.063.644.094.743.199a.412.412 0 01.111.341c-.019.143-.174.294-.485.597l-2.948 2.872a.92.92 0 00-.168.187.41.41 0 00-.049.153.87.87 0 00.025.25l.695 4.056c.074.428.111.642.042.769a.419.419 0 01-.291.211c-.142.026-.334-.075-.718-.277l-3.644-1.916a.908.908 0 00-.23-.102.43.43 0 00-.16 0 .908.908 0 00-.23.102l-3.644 1.916c-.385.202-.577.303-.719.277a.42.42 0 01-.29-.211c-.069-.127-.032-.341.041-.769l.696-4.056a.909.909 0 00.025-.25.41.41 0 00-.049-.153.92.92 0 00-.168-.187l-2.948-2.872c-.311-.303-.466-.454-.485-.597a.415.415 0 01.11-.341c.1-.105.314-.136.743-.199l4.076-.596c.127-.019.191-.028.246-.053a.408.408 0 00.129-.095c.042-.044.07-.102.127-.217l1.822-3.691z" fill="#111"/><path d="M7.546 136H.56v-1.47l2.506-2.534c.504-.523.91-.957 1.218-1.302.308-.355.532-.672.672-.952.14-.289.21-.597.21-.924 0-.401-.112-.7-.336-.896-.215-.196-.509-.294-.882-.294-.383 0-.756.089-1.12.266a6.01 6.01 0 00-1.148.756l-1.148-1.358c.29-.252.593-.485.91-.7a4.42 4.42 0 011.12-.518c.43-.14.943-.21 1.54-.21.653 0 1.213.121 1.68.364.476.233.84.555 1.092.966.261.401.392.859.392 1.372 0 .42-.065.807-.196 1.162-.121.355-.303.7-.546 1.036a8.901 8.901 0 01-.868 1.022c-.345.345-.737.723-1.176 1.134l-1.288 1.204v.098h4.354V136z" fill="#262626"/><rect x="40" y="126.5" width="209" height="8" rx="4" fill="#000" fill-opacity=".1"/><path d="M270.402 123.378c.192-.389.288-.584.419-.646a.416.416 0 01.358 0c.131.062.227.257.419.646l1.822 3.691c.057.115.085.173.126.217a.42.42 0 00.13.095c.055.025.119.034.245.053l4.076.596c.43.063.644.094.743.199a.412.412 0 01.111.341c-.019.143-.174.294-.485.597l-2.948 2.872a.92.92 0 00-.168.187.41.41 0 00-.049.153.87.87 0 00.025.25l.695 4.056c.074.428.111.642.042.769a.419.419 0 01-.291.211c-.142.026-.334-.075-.718-.277l-3.644-1.916a.908.908 0 00-.23-.102.43.43 0 00-.16 0 .908.908 0 00-.23.102l-3.644 1.916c-.385.202-.577.303-.719.277a.42.42 0 01-.29-.211c-.069-.127-.032-.341.041-.769l.696-4.056a.909.909 0 00.025-.25.41.41 0 00-.049-.153.92.92 0 00-.168-.187l-2.948-2.872c-.311-.303-.466-.454-.485-.597a.415.415 0 01.11-.341c.1-.105.314-.136.743-.199l4.076-.596c.127-.019.191-.028.246-.053a.404.404 0 00.129-.095c.042-.044.07-.102.127-.217l1.822-3.691zm20 0c.192-.389.288-.584.419-.646a.416.416 0 01.358 0c.131.062.227.257.419.646l1.822 3.691c.057.115.085.173.126.217a.42.42 0 00.13.095c.055.025.119.034.245.053l4.076.596c.43.063.644.094.743.199a.412.412 0 01.111.341c-.019.143-.174.294-.485.597l-2.948 2.872a.92.92 0 00-.168.187.41.41 0 00-.049.153.87.87 0 00.025.25l.695 4.056c.074.428.111.642.042.769a.419.419 0 01-.291.211c-.142.026-.334-.075-.718-.277l-3.644-1.916a.908.908 0 00-.23-.102.43.43 0 00-.16 0 .908.908 0 00-.23.102l-3.644 1.916c-.385.202-.577.303-.719.277a.42.42 0 01-.29-.211c-.069-.127-.032-.341.041-.769l.696-4.056a.909.909 0 00.025-.25.41.41 0 00-.049-.153.92.92 0 00-.168-.187l-2.948-2.872c-.311-.303-.466-.454-.485-.597a.415.415 0 01.11-.341c.1-.105.314-.136.743-.199l4.076-.596c.127-.019.191-.028.246-.053a.404.404 0 00.129-.095c.042-.044.07-.102.127-.217l1.822-3.691zm20 0c.192-.389.288-.584.419-.646a.416.416 0 01.358 0c.131.062.227.257.419.646l1.822 3.691c.057.115.085.173.126.217a.42.42 0 00.13.095c.055.025.119.034.245.053l4.076.596c.43.063.644.094.743.199a.412.412 0 01.111.341c-.019.143-.174.294-.485.597l-2.948 2.872a.92.92 0 00-.168.187.41.41 0 00-.049.153.87.87 0 00.025.25l.695 4.056c.074.428.111.642.042.769a.419.419 0 01-.291.211c-.142.026-.334-.075-.718-.277l-3.644-1.916a.908.908 0 00-.23-.102.43.43 0 00-.16 0 .908.908 0 00-.23.102l-3.644 1.916c-.385.202-.577.303-.719.277a.42.42 0 01-.29-.211c-.069-.127-.032-.341.041-.769l.696-4.056a.909.909 0 00.025-.25.41.41 0 00-.049-.153.92.92 0 00-.168-.187l-2.948-2.872c-.311-.303-.466-.454-.485-.597a.415.415 0 01.11-.341c.1-.105.314-.136.743-.199l4.076-.596c.127-.019.191-.028.246-.053a.404.404 0 00.129-.095c.042-.044.07-.102.127-.217l1.822-3.691zm20 0c.192-.389.288-.584.419-.646a.416.416 0 01.358 0c.131.062.227.257.419.646l1.822 3.691c.057.115.085.173.126.217a.42.42 0 00.13.095c.055.025.119.034.245.053l4.076.596c.43.063.644.094.743.199a.412.412 0 01.111.341c-.019.143-.174.294-.485.597l-2.948 2.872a.92.92 0 00-.168.187.41.41 0 00-.049.153.87.87 0 00.025.25l.695 4.056c.074.428.111.642.042.769a.419.419 0 01-.291.211c-.142.026-.334-.075-.718-.277l-3.644-1.916a.908.908 0 00-.23-.102.43.43 0 00-.16 0 .908.908 0 00-.23.102l-3.644 1.916c-.385.202-.577.303-.719.277a.42.42 0 01-.29-.211c-.069-.127-.032-.341.041-.769l.696-4.056a.909.909 0 00.025-.25.41.41 0 00-.049-.153.92.92 0 00-.168-.187l-2.948-2.872c-.311-.303-.466-.454-.485-.597a.415.415 0 01.11-.341c.1-.105.314-.136.743-.199l4.076-.596c.127-.019.191-.028.246-.053a.404.404 0 00.129-.095c.042-.044.07-.102.127-.217l1.822-3.691z" fill="#000" fill-opacity=".2"/><path d="M350.402 123.378c.192-.389.288-.584.419-.646a.416.416 0 01.358 0c.131.062.227.257.419.646l1.822 3.691c.057.115.085.173.126.217a.42.42 0 00.13.095c.055.025.119.034.245.053l4.076.596c.43.063.644.094.743.199a.412.412 0 01.111.341c-.019.143-.174.294-.485.597l-2.948 2.872a.92.92 0 00-.168.187.41.41 0 00-.049.153.87.87 0 00.025.25l.695 4.056c.074.428.111.642.042.769a.419.419 0 01-.291.211c-.142.026-.334-.075-.718-.277l-3.644-1.916a.908.908 0 00-.23-.102.43.43 0 00-.16 0 .908.908 0 00-.23.102l-3.644 1.916c-.385.202-.577.303-.719.277a.42.42 0 01-.29-.211c-.069-.127-.032-.341.041-.769l.696-4.056a.909.909 0 00.025-.25.41.41 0 00-.049-.153.92.92 0 00-.168-.187l-2.948-2.872c-.311-.303-.466-.454-.485-.597a.415.415 0 01.11-.341c.1-.105.314-.136.743-.199l4.076-.596c.127-.019.191-.028.246-.053a.404.404 0 00.129-.095c.042-.044.07-.102.127-.217l1.822-3.691z" fill="#111"/></svg>