<svg width="159" height="44" viewBox="0 0 159 44" fill="none" xmlns="http://www.w3.org/2000/svg"><rect x=".5" width="158.5" height="44" rx="4" fill="#fff"/><path fill="#fff" d="M33.25 10h24v24h-24z"/><path fill-rule="evenodd" clip-rule="evenodd" d="M56.29 22.26c0-.815-.073-1.6-.21-2.352H45.25v4.449h6.19a5.29 5.29 0 01-2.296 3.47v2.886h3.717c2.175-2.002 3.429-4.95 3.429-8.453z" fill="#4285F4"/><path fill-rule="evenodd" clip-rule="evenodd" d="M45.25 33.5c3.105 0 5.708-1.03 7.61-2.786l-3.716-2.885c-1.03.69-2.347 1.098-3.894 1.098-2.995 0-5.53-2.023-6.435-4.741h-3.842v2.98A11.496 11.496 0 0045.25 33.5z" fill="#34A853"/><path fill-rule="evenodd" clip-rule="evenodd" d="M38.815 24.186a6.913 6.913 0 01-.36-2.186c0-.758.13-1.494.36-2.184v-2.98h-3.842A11.495 11.495 0 0033.75 22c0 1.855.444 3.611 1.223 5.164l3.842-2.98z" fill="#FBBC05"/><path fill-rule="evenodd" clip-rule="evenodd" d="M45.25 15.074c1.688 0 3.204.58 4.396 1.72l3.298-3.299C50.953 11.64 48.35 10.5 45.25 10.5a11.496 11.496 0 00-10.277 6.335l3.842 2.98c.904-2.718 3.44-4.741 6.435-4.741z" fill="#EA4335"/><path d="M72.576 22.214h4.446v6.3c-.696.228-1.398.396-2.106.504a16.12 16.12 0 01-2.412.162c-1.332 0-2.454-.264-3.366-.792a5.282 5.282 0 01-2.088-2.286c-.468-.996-.702-2.172-.702-3.528 0-1.344.264-2.508.792-3.492a5.55 5.55 0 012.268-2.286c.996-.552 2.196-.828 3.6-.828.72 0 1.398.066 2.034.198a9.016 9.016 0 011.8.558l-.612 1.404a9.345 9.345 0 00-1.548-.522 7.104 7.104 0 00-1.764-.216c-1.02 0-1.896.21-2.628.63a4.122 4.122 0 00-1.674 1.8c-.384.768-.576 1.686-.576 2.754 0 1.02.162 1.926.486 2.718.336.78.858 1.392 1.566 1.836.708.432 1.638.648 2.79.648.384 0 .72-.012 1.008-.036.3-.036.57-.078.81-.126.252-.048.486-.096.702-.144v-3.816h-2.826v-1.44zm15.688 1.944c0 .804-.108 1.518-.324 2.142a4.29 4.29 0 01-.9 1.566 3.753 3.753 0 01-1.422.99c-.552.216-1.17.324-1.854.324A4.707 4.707 0 0182 28.856a3.987 3.987 0 01-1.404-.99 4.73 4.73 0 01-.936-1.566c-.216-.624-.324-1.338-.324-2.142 0-1.068.18-1.968.54-2.7.36-.744.876-1.308 1.548-1.692.672-.396 1.47-.594 2.394-.594.876 0 1.644.198 2.304.594.672.384 1.194.948 1.566 1.692.384.732.576 1.632.576 2.7zm-7.29 0c0 .756.096 1.416.288 1.98.204.552.516.978.936 1.278.42.3.954.45 1.602.45.648 0 1.182-.15 1.602-.45.42-.3.726-.726.918-1.278.204-.564.306-1.224.306-1.98 0-.768-.102-1.422-.306-1.962-.204-.54-.516-.954-.936-1.242-.408-.3-.942-.45-1.602-.45-.984 0-1.698.324-2.142.972-.444.648-.666 1.542-.666 2.682zm18.188 0c0 .804-.108 1.518-.324 2.142a4.29 4.29 0 01-.9 1.566 3.753 3.753 0 01-1.422.99c-.552.216-1.17.324-1.854.324a4.707 4.707 0 01-1.764-.324 3.987 3.987 0 01-1.404-.99 4.73 4.73 0 01-.936-1.566c-.216-.624-.324-1.338-.324-2.142 0-1.068.18-1.968.54-2.7.36-.744.876-1.308 1.548-1.692.672-.396 1.47-.594 2.394-.594.876 0 1.644.198 2.304.594.672.384 1.194.948 1.566 1.692.384.732.576 1.632.576 2.7zm-7.29 0c0 .756.096 1.416.288 1.98.204.552.516.978.936 1.278.42.3.954.45 1.602.45.648 0 1.182-.15 1.602-.45.42-.3.726-.726.918-1.278.204-.564.306-1.224.306-1.98 0-.768-.102-1.422-.306-1.962-.204-.54-.516-.954-.936-1.242-.408-.3-.942-.45-1.602-.45-.984 0-1.698.324-2.142.972-.444.648-.666 1.542-.666 2.682zm13.221-4.986c.636 0 1.206.12 1.71.36.516.24.954.606 1.314 1.098h.09l.216-1.278h1.26v9.81c0 .912-.156 1.674-.468 2.286a3.045 3.045 0 01-1.422 1.404c-.636.312-1.446.468-2.43.468a10.68 10.68 0 01-1.926-.162 6.33 6.33 0 01-1.548-.45V31.25c.312.156.654.288 1.026.396.372.12.774.21 1.206.27.432.06.876.09 1.332.09.828 0 1.476-.246 1.944-.738.48-.48.72-1.14.72-1.98v-.378c0-.144.006-.348.018-.612.012-.276.024-.468.036-.576h-.072a3.155 3.155 0 01-1.26 1.098c-.492.24-1.068.36-1.728.36-1.248 0-2.226-.438-2.934-1.314-.696-.876-1.044-2.1-1.044-3.672 0-1.032.156-1.92.468-2.664.324-.756.78-1.338 1.368-1.746.588-.408 1.296-.612 2.124-.612zm.216 1.332c-.54 0-1.002.144-1.386.432-.372.288-.66.708-.864 1.26-.192.552-.288 1.224-.288 2.016 0 1.188.216 2.1.648 2.736.444.624 1.086.936 1.926.936.492 0 .912-.06 1.26-.18.348-.132.636-.33.864-.594.228-.276.396-.624.504-1.044.108-.42.162-.918.162-1.494v-.378c0-.876-.102-1.584-.306-2.124-.192-.54-.498-.936-.918-1.188-.42-.252-.954-.378-1.602-.378zM114.331 29h-1.584V15.32h1.584V29zm6.782-9.828c.828 0 1.536.18 2.124.54.6.36 1.056.87 1.368 1.53.324.648.486 1.41.486 2.286v.954h-6.606c.024 1.092.3 1.926.828 2.502.54.564 1.29.846 2.25.846a7.25 7.25 0 001.62-.162c.48-.12.972-.288 1.476-.504v1.386a7.084 7.084 0 01-1.458.468c-.48.108-1.05.162-1.71.162-.912 0-1.722-.186-2.43-.558-.696-.372-1.242-.924-1.638-1.656-.384-.744-.576-1.65-.576-2.718 0-1.056.174-1.962.522-2.718.36-.756.858-1.338 1.494-1.746.648-.408 1.398-.612 2.25-.612zm-.018 1.296c-.756 0-1.356.246-1.8.738-.432.48-.69 1.152-.774 2.016h4.914c0-.552-.084-1.032-.252-1.44a2.034 2.034 0 00-.774-.954c-.336-.24-.774-.36-1.314-.36z" fill="#000" fill-opacity=".5"/></svg>