<svg width="159" height="44" viewBox="0 0 159 44" fill="none" xmlns="http://www.w3.org/2000/svg"><rect width="158.5" height="44" rx="4" fill="#fff"/><path d="M60.03 28.424a12.468 12.468 0 01-1.236 2.223c-.65.927-1.182 1.569-1.593 1.925-.636.585-1.317.885-2.047.902-.524 0-1.156-.15-1.891-.452-.738-.3-1.416-.45-2.036-.45-.65 0-1.347.15-2.093.45-.747.303-1.35.46-1.81.476-.7.03-1.397-.278-2.093-.926-.444-.387-1-1.052-1.666-1.993-.714-1.005-1.302-2.17-1.762-3.5-.492-1.435-.74-2.825-.74-4.17 0-1.542.334-2.871 1-3.985a5.868 5.868 0 012.095-2.12 5.635 5.635 0 012.832-.798c.556 0 1.285.172 2.191.51.903.339 1.483.51 1.737.51.19 0 .835-.2 1.927-.601 1.033-.372 1.904-.526 2.619-.465 1.935.156 3.388.919 4.355 2.293-1.73 1.049-2.586 2.517-2.57 4.401.016 1.468.549 2.69 1.595 3.659a5.24 5.24 0 001.593 1.045c-.128.37-.263.725-.406 1.066zM55.594 10.96c0 1.15-.42 2.224-1.258 3.218-1.01 1.182-2.234 1.865-3.56 1.757a3.58 3.58 0 01-.026-.436c0-1.104.48-2.286 1.334-3.252a5.136 5.136 0 011.626-1.22c.656-.32 1.276-.497 1.86-.527.017.154.024.308.024.46zM80.56 29l-1.548-3.978h-5.094L72.388 29H70.75l5.022-12.906h1.458L82.234 29H80.56zm-3.474-9.306c-.036-.096-.096-.27-.18-.522-.084-.252-.168-.51-.252-.774a10.601 10.601 0 00-.18-.63c-.06.24-.126.486-.198.738a7.39 7.39 0 01-.198.666c-.06.204-.114.378-.162.522l-1.458 3.888h4.068l-1.44-3.888zm11.28-.522c1.188 0 2.142.414 2.862 1.242.732.828 1.098 2.076 1.098 3.744 0 1.092-.168 2.016-.504 2.772-.324.744-.786 1.308-1.386 1.692-.588.372-1.284.558-2.088.558-.492 0-.93-.066-1.314-.198a3.65 3.65 0 01-.99-.504 4.188 4.188 0 01-.684-.702h-.108c.024.204.048.462.072.774.024.312.036.582.036.81v3.96h-1.584V19.352h1.296l.216 1.314h.072c.192-.276.42-.528.684-.756.276-.228.6-.408.972-.54.384-.132.834-.198 1.35-.198zm-.288 1.332c-.648 0-1.17.126-1.566.378-.396.24-.684.606-.864 1.098-.18.492-.276 1.116-.288 1.872v.306c0 .792.084 1.464.252 2.016.168.552.45.972.846 1.26.408.288.96.432 1.656.432.588 0 1.068-.162 1.44-.486.384-.324.666-.762.846-1.314.192-.564.288-1.206.288-1.926 0-1.104-.216-1.986-.648-2.646-.42-.66-1.074-.99-1.962-.99zm11.362-1.332c1.188 0 2.142.414 2.862 1.242.732.828 1.098 2.076 1.098 3.744 0 1.092-.168 2.016-.504 2.772-.324.744-.786 1.308-1.386 1.692-.588.372-1.284.558-2.088.558-.492 0-.93-.066-1.314-.198a3.65 3.65 0 01-.99-.504 4.188 4.188 0 01-.684-.702h-.108c.024.204.048.462.072.774.024.312.036.582.036.81v3.96H94.85V19.352h1.296l.216 1.314h.072c.192-.276.42-.528.684-.756.276-.228.6-.408.972-.54.384-.132.834-.198 1.35-.198zm-.288 1.332c-.648 0-1.17.126-1.566.378-.396.24-.684.606-.864 1.098-.18.492-.276 1.116-.288 1.872v.306c0 .792.084 1.464.252 2.016.168.552.45.972.846 1.26.408.288.96.432 1.656.432.588 0 1.068-.162 1.44-.486.384-.324.666-.762.846-1.314.192-.564.288-1.206.288-1.926 0-1.104-.216-1.986-.648-2.646-.42-.66-1.074-.99-1.962-.99zM107.51 29h-1.584V15.32h1.584V29zm6.782-9.828c.828 0 1.536.18 2.124.54.6.36 1.056.87 1.368 1.53.324.648.486 1.41.486 2.286v.954h-6.606c.024 1.092.3 1.926.828 2.502.54.564 1.29.846 2.25.846a7.25 7.25 0 001.62-.162c.48-.12.972-.288 1.476-.504v1.386a7.084 7.084 0 01-1.458.468c-.48.108-1.05.162-1.71.162-.912 0-1.722-.186-2.43-.558-.696-.372-1.242-.924-1.638-1.656-.384-.744-.576-1.65-.576-2.718 0-1.056.174-1.962.522-2.718.36-.756.858-1.338 1.494-1.746.648-.408 1.398-.612 2.25-.612zm-.018 1.296c-.756 0-1.356.246-1.8.738-.432.48-.69 1.152-.774 2.016h4.914c0-.552-.084-1.032-.252-1.44a2.034 2.034 0 00-.774-.954c-.336-.24-.774-.36-1.314-.36z" fill="#111"/></svg>