<svg width="40" height="44" viewBox="0 0 40 44" fill="none" xmlns="http://www.w3.org/2000/svg"><path d="M.562 41.716L9.02 43.97c.986.263 1.407-1.265.421-1.528l-3.47-.925 3.67-13.771c.338.05.675.077 1.012.077a6.86 6.86 0 003.449-.933 6.856 6.856 0 003.21-4.197l3.42-12.831 2.05 8.483c.764 3.157 3.598 5.282 6.712 5.282.279 0 .56-.018.842-.053l3.35 13.852-3.508.849c-.99.24-.571 1.767.421 1.528l8.508-2.058c.99-.24.571-1.768-.422-1.528l-3.459.837-3.35-13.853c3.246-1.191 5.16-4.662 4.329-8.102L32.791.981a1.285 1.285 0 00-1.55-.945L20.315 2.679c-.333.08-.615.286-.793.578a1.27 1.27 0 00-.152.97l.686 2.837L9.28 4.192a1.284 1.284 0 00-1.569.91L3.97 19.138c-.911 3.42.922 6.934 4.14 8.2l-3.67 13.77-3.457-.92c-.986-.262-1.407 1.265-.421 1.528zm30.182-19.822a5.327 5.327 0 01-6.421-3.92l-2.096-8.667h10.946l1.49 6.166a5.324 5.324 0 01-3.918 6.42zm.577-20.247l1.47 6.075H21.844l-.863-3.573 10.34-2.502zM9.163 5.803l10.28 2.74-.816 3.06H7.618l1.546-5.8zM5.5 19.546l1.695-6.358h11.01l-2.424 9.098a5.285 5.285 0 01-2.475 3.233 5.281 5.281 0 01-4.035.537 5.326 5.326 0 01-3.771-6.51z" fill="#0D0D0D"/><path d="M9.916 17.51a1.132 1.132 0 10-2.264 0 1.132 1.132 0 002.264 0zm4.6-.613a1.13 1.13 0 100-2.262 1.13 1.13 0 000 2.262zm11.86-4.857a1.132 1.132 0 10.001 2.265 1.132 1.132 0 000-2.265zm4.555 4.34a1.131 1.131 0 100 2.262 1.131 1.131 0 000-2.263zm-19.144 7.082a1.132 1.132 0 100-2.264 1.132 1.132 0 000 2.264z" fill="#0D0D0D"/></svg>