<svg width="49" height="42" viewBox="0 0 49 42" fill="none" xmlns="http://www.w3.org/2000/svg"><path d="M24.475 4.668c-.438-.313-.928-.428-1.416-.33-.699.138-1.257.68-1.626 1.158-.473-.38-1.137-.784-1.852-.751-.497.019-.947.243-1.3.649a2.162 2.162 0 00-.527 1.66c.014.144.04.287.075.42.366 1.41 1.894 2.835 3.799 3.546a.967.967 0 00.889-.103c1.564-1.049 2.685-2.626 2.854-4.014.032-.234.034-.47.006-.705a2.16 2.16 0 00-.902-1.53zm-.333 2.079c-.123 1.003-1.001 2.22-2.205 3.064-1.442-.575-2.655-1.673-2.909-2.652a1.324 1.324 0 01-.039-.221.928.928 0 01.229-.73c.165-.192.306-.22.41-.225h.023c.338 0 .835.284 1.302.745a.789.789 0 001.23-.14c.356-.572.785-.969 1.117-1.035.103-.02.247-.025.454.123a.928.928 0 01.394.674c.014.121.013.253-.006.397zm1.288-3.892c-.176 2.104 1.25 4.805 3.545 6.718a1.161 1.161 0 001.039.234c2.683-.692 5.001-2.322 5.904-4.149.155-.306.267-.618.336-.93a2.974 2.974 0 00-.472-2.392c-.423-.603-.977-.958-1.645-1.053-1.106-.159-2.239.459-2.971.982-.44-.787-1.2-1.83-2.267-2.16-.644-.199-1.295-.115-1.935.249a2.97 2.97 0 00-1.438 1.913 3.67 3.67 0 00-.096.588zm1.236.1c.01-.132.032-.262.063-.39.125-.503.41-.884.848-1.134.223-.126.435-.189.643-.189.106 0 .21.016.313.048.582.18 1.226.893 1.719 1.902a.874.874 0 001.34.306c.33-.264 1.474-1.116 2.37-.987.32.046.583.222.804.538.3.428.39.891.277 1.416-.051.223-.13.438-.234.64-.736 1.49-2.768 2.89-5.068 3.493-1.953-1.64-3.216-3.955-3.075-5.644zm12.107 9.875c-4.891-1.806-10.437-.826-14.466 2.32a14.959 14.959 0 00-4.124-2.32c-5.919-2.187-12.795-.29-16.786 4.583-3.968 4.845-4.53 11.847-1.315 17.242 3.233 5.422 9.655 8.271 15.845 7.074a14.638 14.638 0 006.385-2.96c3.391 2.645 7.856 3.802 12.202 2.96 7.032-1.358 12.056-7.674 12.142-14.764-.075-6.28-3.965-11.95-9.883-14.135zm-11.54 5.415c2.434-1.767 5.568-2.517 8.6-1.873 5.006 1.063 8.52 5.515 8.596 10.592-.068 4.513-2.855 8.65-7.148 10.182-3.407 1.215-7.202.617-10.063-1.459a15.385 15.385 0 002.85-8.722 15.377 15.377 0 00-2.835-8.72zm-2.944 3.22a11.119 11.119 0 011.55 5.5 11.217 11.217 0 01-1.54 5.507c-1.954-3.328-2.017-7.586-.034-10.967.007-.013.015-.028.024-.04zm-2.922-3.238c-3.399 4.792-3.734 11.328-.695 16.428.218.366.453.722.703 1.067a10.416 10.416 0 01-2.683 1.424c-4.243 1.514-9.094.215-11.983-3.25-2.888-3.46-3.308-8.504-1.03-12.391 2.322-3.969 7.057-6.09 11.564-5.133a10.65 10.65 0 014.124 1.855zm16.758 21.771c-4.387 1.505-9.234.658-12.855-2.065a13.112 13.112 0 01-2.161-2.03c-.046-.049-.087-.1-.13-.15a12.927 12.927 0 01-.637-.834c-3.089-4.379-3.348-10.368-.585-15.006.182-.305.373-.6.577-.885.431.402.828.838 1.187 1.305-2.501 3.83-2.655 8.907-.26 12.867a11.34 11.34 0 001.032 1.444c.368.446.77.864 1.202 1.25a12.234 12.234 0 0010.34 2.943c5.706-1.035 9.769-6.148 9.854-11.872-.076-5.034-3.165-9.58-7.917-11.34-3.81-1.411-8.106-.718-11.313 1.62a14.26 14.26 0 00-1.177-1.244c3.059-2.306 7.03-3.327 10.897-2.585 6.493 1.245 11.14 6.99 11.217 13.55-.07 5.811-3.726 11.128-9.271 13.032z" fill="#0D0D0D"/></svg>