<svg width="46" height="38" viewBox="0 0 46 38" fill="none" xmlns="http://www.w3.org/2000/svg"><path d="M3.842 6.684h37.895c1.516 0 2.842 1.327 2.842 2.842v24.632c0 1.516-1.326 2.842-2.842 2.842H3.842C2.326 37 1 35.674 1 34.158V9.526c0-1.515 1.326-2.842 2.842-2.842z" stroke="#0D0D0D" stroke-width="1.5" stroke-linecap="round" stroke-linejoin="round"/><path d="M17.106 1h11.368c1.516 0 2.842 1.326 2.842 2.842v2.842H14.264V3.842C14.264 2.326 15.59 1 17.106 1zm2.841 18.947H3.842C2.326 19.947 1 18.621 1 17.105m43.58 0c0 1.516-1.327 2.842-2.843 2.842H25.632" stroke="#0D0D0D" stroke-width="1.5" stroke-linecap="round" stroke-linejoin="round"/><path d="M25.631 18.053h-5.684v5.684h5.684v-5.684z" fill="#0D0D0D" stroke="#0D0D0D" stroke-width="1.5" stroke-linecap="round" stroke-linejoin="round"/></svg>