<svg width="49" height="49" viewBox="0 0 49 49" fill="none" xmlns="http://www.w3.org/2000/svg"><path d="M35.74 19.391L28.382 2.84C27.973 1.817 26.748 1 25.522 1h-2.044l2.452 19.004c-5.721.613-12.67 1.43-17.778 2.248L6.11 17.348H3.043l.818 5.926C2.02 23.683 1 24.09 1 24.5c0 .409 1.022.817 2.86 1.226l-.817 5.926H6.11l2.043-4.904c5.109.817 11.852 1.839 17.778 2.248L23.478 48h2.044c1.226 0 2.248-.613 2.86-1.84l7.358-16.55C41.87 29.609 48 27.565 48 24.5s-6.13-5.109-12.26-5.109z" stroke="#0D0D0D" stroke-width="1.5" stroke-linecap="round" stroke-linejoin="round"/><path d="M39.826 22.456v4.088c.613 0 1.022-.818 1.022-2.044s-.409-2.044-1.022-2.044z" stroke="#0D0D0D" stroke-width="1.5" stroke-linecap="round" stroke-linejoin="round"/></svg>