<svg width="34" height="44" viewBox="0 0 34 44" fill="none" xmlns="http://www.w3.org/2000/svg"><path d="M20.765 6.22C17.827.142 9.795-1.985 4.248 2.11-1.993 6.719-.715 15.385 3.94 20.65c1.393 1.578 3.054 2.998 4.922 3.982.371.195.762.418 1.163.566.05.513.178.97.474 1.408.33.49.826.819.826 1.468 0 .643-.499.983-.826 1.467a2.759 2.759 0 00-.488 1.572c0 .569.17 1.101.488 1.57.326.483.83.825.826 1.467-.004.642-.497.977-.826 1.466-.33.487-.452.991-.488 1.572-.063.985 1.471.981 1.533 0 .04-.654.487-.966.826-1.467a2.774 2.774 0 000-3.142c-.328-.487-.826-.82-.826-1.466 0-.65.495-.978.826-1.468a2.775 2.775 0 000-3.144c-.311-.46-.704-.758-.803-1.304.796-.3 1.549-.716 2.264-1.18 1.606 2.712 3.994 5.108 6.752 6.605.357.194.842.491 1.319.684.05.498.181.946.47 1.374.331.49.826.818.826 1.467 0 .643-.498.985-.826 1.467a2.77 2.77 0 000 3.144c.327.482.831.824.826 1.466-.004.642-.496.978-.826 1.467-.328.486-.45.99-.487 1.572-.062.985 1.47.98 1.533 0 .042-.655.488-.966.826-1.467a2.773 2.773 0 000-3.142c-.328-.486-.826-.82-.826-1.466 0-.649.496-.978.826-1.467a2.776 2.776 0 000-3.145c-.3-.443-.678-.733-.793-1.242.6-.224 1.236-.63 1.671-.881 1.494-.864 2.85-1.998 4.03-3.252 4.477-4.756 6.516-12.732 1.462-17.864-2.583-2.625-6.269-3.69-9.85-3.118zM9.329 23.141c-1.403-.786-2.648-1.823-3.758-2.98-2.173-2.27-3.751-5.11-4.06-8.274-.282-2.903.581-5.73 2.71-7.765 1.993-1.903 4.76-2.827 7.498-2.586 3.186.281 6.097 2.216 7.541 5.055a11.522 11.522 0 00-4.474 2.744c-3.502 3.66-3.638 8.875-1.664 13.315a12.48 12.48 0 01-1.497.853c-.923.436-1.448.114-2.296-.362z" fill="#0D0D0D"/></svg>