<svg width="176" height="176" viewBox="0 0 176 176" fill="none" xmlns="http://www.w3.org/2000/svg">
<rect width="176" height="176" rx="4" fill="#FAFAFA"/>
<mask id="path-2-outside-1_1151_25027" maskUnits="userSpaceOnUse" x="10" y="10.5" width="20" height="20" fill="black">
<rect fill="white" x="10" y="10.5" width="20" height="20"/>
<path d="M28 20.5C28 24.9183 24.4183 28.5 20 28.5C15.5817 28.5 12 24.9183 12 20.5C12 16.0817 15.5817 12.5 20 12.5C24.4183 12.5 28 16.0817 28 20.5ZM15.52 20.5C15.52 22.9742 17.5258 24.98 20 24.98C22.4742 24.98 24.48 22.9742 24.48 20.5C24.48 18.0258 22.4742 16.02 20 16.02C17.5258 16.02 15.52 18.0258 15.52 20.5Z"/>
</mask>
<path d="M28 20.5C28 24.9183 24.4183 28.5 20 28.5C15.5817 28.5 12 24.9183 12 20.5C12 16.0817 15.5817 12.5 20 12.5C24.4183 12.5 28 16.0817 28 20.5ZM15.52 20.5C15.52 22.9742 17.5258 24.98 20 24.98C22.4742 24.98 24.48 22.9742 24.48 20.5C24.48 18.0258 22.4742 16.02 20 16.02C17.5258 16.02 15.52 18.0258 15.52 20.5Z" fill="#C7A77F" fill-opacity="0.3"/>
<path d="M28 20.5C28 24.9183 24.4183 28.5 20 28.5C15.5817 28.5 12 24.9183 12 20.5C12 16.0817 15.5817 12.5 20 12.5C24.4183 12.5 28 16.0817 28 20.5ZM15.52 20.5C15.52 22.9742 17.5258 24.98 20 24.98C22.4742 24.98 24.48 22.9742 24.48 20.5C24.48 18.0258 22.4742 16.02 20 16.02C17.5258 16.02 15.52 18.0258 15.52 20.5Z" stroke="#C7A77F" stroke-opacity="0.3" stroke-width="4" mask="url(#path-2-outside-1_1151_25027)"/>
<path d="M26.24 20.5C27.212 20.5 28.0193 19.7027 27.8072 18.7541C27.5537 17.6207 27.0548 16.5489 26.3374 15.6176C25.2594 14.2184 23.7486 13.2152 22.0406 12.7646C20.3327 12.3141 18.5236 12.4414 16.8957 13.1269C15.2677 13.8123 13.9124 15.0172 13.041 16.5537C12.1697 18.0903 11.8314 19.8719 12.0789 21.6209C12.3264 23.3698 13.1458 24.9877 14.4092 26.2221C15.6726 27.4566 17.3091 28.2382 19.0633 28.445C20.2307 28.5826 21.4066 28.4605 22.5095 28.0962C23.4325 27.7913 23.7023 26.6892 23.2033 25.8551C22.7043 25.0209 21.6144 24.7906 20.6527 24.9322C20.2652 24.9893 19.8695 24.9956 19.4755 24.9492C18.4931 24.8334 17.5767 24.3957 16.8691 23.7044C16.1616 23.0131 15.7028 22.1071 15.5642 21.1277C15.4256 20.1483 15.615 19.1505 16.103 18.2901C16.5909 17.4296 17.3499 16.7549 18.2616 16.371C19.1732 15.9872 20.1863 15.9159 21.1428 16.1682C22.0992 16.4205 22.9453 16.9823 23.5489 17.7659C23.7911 18.0802 23.9888 18.4231 24.1387 18.7849C24.5108 19.6829 25.268 20.5 26.24 20.5Z" fill="#C7A77F"/>
<path d="M40.8614 19.774C40.8614 20.3433 40.8194 20.9127 40.7354 21.482C40.6514 22.042 40.5021 22.574 40.2874 23.078C40.0821 23.5727 39.7881 24.016 39.4054 24.408C39.0321 24.7907 38.5514 25.094 37.9634 25.318C37.3848 25.5327 36.6801 25.64 35.8494 25.64C35.6534 25.64 35.4248 25.6307 35.1634 25.612C34.9021 25.6027 34.6828 25.5793 34.5054 25.542V23.848C34.6921 23.8853 34.8881 23.918 35.0934 23.946C35.2988 23.974 35.5041 23.988 35.7094 23.988C36.5401 23.988 37.1794 23.8573 37.6274 23.596C38.0848 23.3253 38.4068 22.9567 38.5934 22.49C38.7801 22.0233 38.8874 21.482 38.9154 20.866H38.8314C38.6354 21.1927 38.3741 21.468 38.0474 21.692C37.7301 21.916 37.2541 22.028 36.6194 22.028C35.7701 22.028 35.0888 21.7527 34.5754 21.202C34.0621 20.6513 33.8054 19.872 33.8054 18.864C33.8054 17.7813 34.1088 16.932 34.7154 16.316C35.3314 15.7 36.1621 15.392 37.2074 15.392C37.8888 15.392 38.5048 15.5507 39.0554 15.868C39.6061 16.176 40.0448 16.6567 40.3714 17.31C40.6981 17.954 40.8614 18.7753 40.8614 19.774ZM37.2494 17.086C36.8388 17.086 36.5028 17.226 36.2414 17.506C35.9801 17.786 35.8494 18.2293 35.8494 18.836C35.8494 19.3213 35.9614 19.704 36.1854 19.984C36.4094 20.264 36.7501 20.404 37.2074 20.404C37.5248 20.404 37.7954 20.334 38.0194 20.194C38.2528 20.054 38.4348 19.8813 38.5654 19.676C38.6961 19.4613 38.7614 19.242 38.7614 19.018C38.7614 18.71 38.7054 18.4067 38.5934 18.108C38.4814 17.8093 38.3134 17.5667 38.0894 17.38C37.8654 17.184 37.5854 17.086 37.2494 17.086ZM48.9151 25.5H41.9291V24.03L44.4351 21.496C44.9391 20.9733 45.3451 20.5393 45.6531 20.194C45.9611 19.8393 46.1851 19.522 46.3251 19.242C46.4651 18.9527 46.5351 18.6447 46.5351 18.318C46.5351 17.9167 46.4231 17.618 46.1991 17.422C45.9845 17.226 45.6905 17.128 45.3171 17.128C44.9345 17.128 44.5611 17.2167 44.1971 17.394C43.8331 17.5713 43.4505 17.8233 43.0491 18.15L41.9011 16.792C42.1905 16.54 42.4938 16.3067 42.8111 16.092C43.1378 15.8773 43.5111 15.7047 43.9311 15.574C44.3605 15.434 44.8738 15.364 45.4711 15.364C46.1245 15.364 46.6845 15.4853 47.1511 15.728C47.6271 15.9613 47.9911 16.2833 48.2431 16.694C48.5045 17.0953 48.6351 17.5527 48.6351 18.066C48.6351 18.6167 48.5231 19.1207 48.2991 19.578C48.0845 20.0353 47.7671 20.488 47.3471 20.936C46.9365 21.384 46.4371 21.8787 45.8491 22.42L44.5611 23.624V23.722H48.9151V25.5ZM52.1669 15.364C52.9509 15.364 53.5435 15.6393 53.9449 16.19C54.3555 16.7313 54.5609 17.4967 54.5609 18.486C54.5609 19.4753 54.3695 20.25 53.9869 20.81C53.6042 21.3607 52.9975 21.636 52.1669 21.636C51.4015 21.636 50.8182 21.3607 50.4169 20.81C50.0155 20.25 49.8149 19.4753 49.8149 18.486C49.8149 17.4967 50.0015 16.7313 50.3749 16.19C50.7482 15.6393 51.3455 15.364 52.1669 15.364ZM59.2649 15.504L53.7209 25.5H52.0829L57.6269 15.504H59.2649ZM52.1809 16.792C51.7515 16.792 51.5369 17.3613 51.5369 18.5C51.5369 19.648 51.7515 20.222 52.1809 20.222C52.6195 20.222 52.8389 19.648 52.8389 18.5C52.8389 17.3613 52.6195 16.792 52.1809 16.792ZM59.1669 19.354C59.9509 19.354 60.5435 19.6293 60.9449 20.18C61.3555 20.7213 61.5609 21.4867 61.5609 22.476C61.5609 23.4653 61.3695 24.24 60.9869 24.8C60.6042 25.3507 59.9975 25.626 59.1669 25.626C58.4015 25.626 57.8182 25.3507 57.4169 24.8C57.0155 24.24 56.8149 23.4653 56.8149 22.476C56.8149 21.4867 57.0015 20.7213 57.3749 20.18C57.7482 19.6293 58.3455 19.354 59.1669 19.354ZM59.1809 20.782C58.7515 20.782 58.5369 21.3513 58.5369 22.49C58.5369 23.638 58.7515 24.212 59.1809 24.212C59.6195 24.212 59.8389 23.638 59.8389 22.49C59.8389 21.3513 59.6195 20.782 59.1809 20.782Z" fill="#8A8A8A"/>
<path d="M69.3049 16.932L66.1129 25.5H65.0809L68.2729 16.932H69.3049ZM73.6858 25.5H72.6538V19.512C72.6538 19.168 72.6578 18.892 72.6658 18.684C72.6738 18.476 72.6858 18.26 72.7018 18.036C72.5738 18.164 72.4578 18.272 72.3538 18.36C72.2498 18.448 72.1178 18.56 71.9578 18.696L71.0458 19.44L70.4938 18.732L72.8098 16.932H73.6858V25.5ZM82.569 21.204C82.569 22.124 82.473 22.916 82.281 23.58C82.089 24.236 81.785 24.74 81.369 25.092C80.953 25.444 80.401 25.62 79.713 25.62C78.745 25.62 78.029 25.232 77.565 24.456C77.109 23.672 76.881 22.588 76.881 21.204C76.881 20.276 76.973 19.484 77.157 18.828C77.349 18.172 77.653 17.672 78.069 17.328C78.485 16.976 79.033 16.8 79.713 16.8C80.673 16.8 81.389 17.188 81.861 17.964C82.333 18.732 82.569 19.812 82.569 21.204ZM77.937 21.204C77.937 22.38 78.069 23.26 78.333 23.844C78.605 24.428 79.065 24.72 79.713 24.72C80.353 24.72 80.809 24.432 81.081 23.856C81.361 23.272 81.501 22.388 81.501 21.204C81.501 20.036 81.361 19.16 81.081 18.576C80.809 17.992 80.353 17.7 79.713 17.7C79.065 17.7 78.605 17.992 78.333 18.576C78.069 19.16 77.937 20.036 77.937 21.204ZM89.4362 21.204C89.4362 22.124 89.3402 22.916 89.1482 23.58C88.9562 24.236 88.6522 24.74 88.2362 25.092C87.8202 25.444 87.2682 25.62 86.5802 25.62C85.6122 25.62 84.8962 25.232 84.4322 24.456C83.9762 23.672 83.7482 22.588 83.7482 21.204C83.7482 20.276 83.8402 19.484 84.0242 18.828C84.2162 18.172 84.5202 17.672 84.9362 17.328C85.3522 16.976 85.9002 16.8 86.5802 16.8C87.5402 16.8 88.2562 17.188 88.7282 17.964C89.2002 18.732 89.4362 19.812 89.4362 21.204ZM84.8042 21.204C84.8042 22.38 84.9362 23.26 85.2002 23.844C85.4722 24.428 85.9322 24.72 86.5802 24.72C87.2202 24.72 87.6762 24.432 87.9482 23.856C88.2282 23.272 88.3682 22.388 88.3682 21.204C88.3682 20.036 88.2282 19.16 87.9482 18.576C87.6762 17.992 87.2202 17.7 86.5802 17.7C85.9322 17.7 85.4722 17.992 85.2002 18.576C84.9362 19.16 84.8042 20.036 84.8042 21.204ZM92.3673 16.812C92.9593 16.812 93.4073 17.048 93.7113 17.52C94.0153 17.984 94.1673 18.64 94.1673 19.488C94.1673 20.336 94.0193 21 93.7233 21.48C93.4353 21.952 92.9833 22.188 92.3673 22.188C91.7993 22.188 91.3633 21.952 91.0593 21.48C90.7633 21 90.6153 20.336 90.6153 19.488C90.6153 18.64 90.7553 17.984 91.0353 17.52C91.3153 17.048 91.7593 16.812 92.3673 16.812ZM97.8513 16.932L93.0993 25.5H92.1753L96.9273 16.932H97.8513ZM92.3673 17.556C92.0633 17.556 91.8393 17.72 91.6953 18.048C91.5593 18.368 91.4913 18.848 91.4913 19.488C91.4913 20.128 91.5593 20.612 91.6953 20.94C91.8393 21.268 92.0633 21.432 92.3673 21.432C92.9833 21.432 93.2913 20.784 93.2913 19.488C93.2913 18.2 92.9833 17.556 92.3673 17.556ZM97.6113 20.244C98.1953 20.244 98.6393 20.48 98.9433 20.952C99.2553 21.416 99.4113 22.072 99.4113 22.92C99.4113 23.768 99.2633 24.432 98.9673 24.912C98.6793 25.384 98.2273 25.62 97.6113 25.62C97.0433 25.62 96.6073 25.384 96.3033 24.912C96.0073 24.432 95.8593 23.768 95.8593 22.92C95.8593 22.072 95.9993 21.416 96.2793 20.952C96.5593 20.48 97.0033 20.244 97.6113 20.244ZM97.6113 21C97.3073 21 97.0833 21.16 96.9393 21.48C96.8033 21.8 96.7353 22.28 96.7353 22.92C96.7353 23.568 96.8033 24.056 96.9393 24.384C97.0833 24.704 97.3073 24.864 97.6113 24.864C98.2273 24.864 98.5353 24.216 98.5353 22.92C98.5353 21.64 98.2273 21 97.6113 21Z" fill="#8A8A8A"/>
<path d="M137.095 25.57L136.703 23.764H136.549C136.39 24.0813 136.232 24.352 136.073 24.576C135.924 24.8 135.756 24.982 135.569 25.122C135.392 25.2527 135.191 25.3507 134.967 25.416C134.743 25.472 134.477 25.5 134.169 25.5H133.833V23.708H134.169C134.44 23.6987 134.692 23.6567 134.925 23.582C135.158 23.5073 135.368 23.4093 135.555 23.288C135.751 23.1667 135.919 23.0407 136.059 22.91C136.199 22.77 136.306 22.6393 136.381 22.518V19.732C136.381 19.3867 136.297 19.1487 136.129 19.018C135.97 18.8873 135.695 18.822 135.303 18.822H134.477L134.701 17.058H135.877C136.484 17.058 136.978 17.156 137.361 17.352C137.753 17.5387 138.042 17.814 138.229 18.178C138.416 18.542 138.509 18.99 138.509 19.522V23.036L138.985 25.234L137.095 25.57ZM140.961 25.5V17.058H143.089V25.5H140.961ZM139.813 18.808L140.051 17.058H142.361V18.808H139.813ZM148.617 25.5V20.068C148.617 19.648 148.514 19.3353 148.309 19.13C148.104 18.9153 147.805 18.808 147.413 18.808H144.557L144.781 17.058H147.525C148.589 17.058 149.392 17.31 149.933 17.814C150.474 18.3087 150.745 19.046 150.745 20.026V25.5H148.617ZM153.006 21.944V17.058H155.134V21.944H153.006ZM151.858 18.808L152.096 17.058H154.196V18.808H151.858ZM156.506 18.808V17.058H163.702L163.464 18.808H156.506ZM160.174 25.5V20.194C160.174 20.0633 160.193 19.9093 160.23 19.732C160.267 19.5453 160.333 19.368 160.426 19.2C160.529 19.032 160.669 18.9013 160.846 18.808H162.54C162.428 18.892 162.358 19.0087 162.33 19.158C162.311 19.3073 162.302 19.4847 162.302 19.69V25.5H160.174Z" fill="#858585"/>
<path d="M149.245 102.123C149.245 135.88 121.88 163.245 88.1227 163.245C54.3656 163.245 27 135.88 27 102.123C27 68.3656 54.3656 41 88.1227 41C121.88 41 149.245 68.3656 149.245 102.123ZM45.3368 102.123C45.3368 125.753 64.4927 144.909 88.1227 144.909C111.753 144.909 130.909 125.753 130.909 102.123C130.909 78.4927 111.753 59.3368 88.1227 59.3368C64.4927 59.3368 45.3368 78.4927 45.3368 102.123Z" fill="#EEEEEE"/>
<path d="M140.077 102.878C145.141 102.878 149.316 107.005 148.559 112.012C147.522 118.873 145.32 125.531 142.028 131.691C137.29 140.555 130.438 148.115 122.081 153.699C113.723 159.284 104.117 162.721 94.1138 163.706C84.1105 164.691 74.0186 163.194 64.7321 159.348C55.4455 155.501 47.2509 149.424 40.8742 141.653C34.4975 133.883 30.1354 124.661 28.1745 114.802C26.2135 104.944 26.7141 94.7535 29.6319 85.1346C31.6593 78.4511 34.8103 72.1868 38.9289 66.6015C41.9341 62.5261 47.805 62.5599 51.3855 66.1404V66.1404C54.966 69.7208 54.8641 75.489 52.1269 79.749C49.999 83.0607 48.3303 86.6626 47.1792 90.4575C45.1367 97.1907 44.7862 104.324 46.1589 111.225C47.5316 118.126 50.5851 124.582 55.0488 130.021C59.5125 135.46 65.2487 139.714 71.7493 142.407C78.2498 145.099 85.3142 146.147 92.3165 145.457C99.3188 144.768 106.043 142.362 111.893 138.453C117.744 134.544 122.54 129.252 125.857 123.047C127.726 119.549 129.093 115.822 129.93 111.976C131.007 107.028 135.013 102.878 140.077 102.878V102.878Z" fill="url(#paint0_linear_1151_25027)"/>
<path d="M83.4471 100.968H80.5231V106H75.5251V100.968H65.1551V97.398L75.7971 81.724H80.5231V96.99H83.4471V100.968ZM75.5251 92.876C75.5251 92.4907 75.5251 92.0373 75.5251 91.516C75.5478 90.972 75.5705 90.4393 75.5931 89.918C75.6158 89.374 75.6385 88.898 75.6611 88.49C75.6838 88.0593 75.7065 87.7647 75.7291 87.606H75.5931C75.3891 88.0593 75.1738 88.5013 74.9471 88.932C74.7205 89.3627 74.4485 89.8047 74.1311 90.258L69.6771 96.99H75.5251V92.876ZM84.9522 103.62C84.9522 102.577 85.2355 101.852 85.8022 101.444C86.3688 101.013 87.0602 100.798 87.8762 100.798C88.6695 100.798 89.3495 101.013 89.9162 101.444C90.4828 101.852 90.7662 102.577 90.7662 103.62C90.7662 104.617 90.4828 105.343 89.9162 105.796C89.3495 106.227 88.6695 106.442 87.8762 106.442C87.0602 106.442 86.3688 106.227 85.8022 105.796C85.2355 105.343 84.9522 104.617 84.9522 103.62ZM105.731 106H100.597V91.958C100.597 91.5727 100.597 91.0967 100.597 90.53C100.62 89.9633 100.643 89.374 100.665 88.762C100.688 88.15 100.711 87.606 100.733 87.13C100.62 87.266 100.371 87.5153 99.9855 87.878C99.6228 88.218 99.2828 88.524 98.9655 88.796L96.1775 91.04L93.6955 87.946L101.515 81.724H105.731V106Z" fill="#111111"/>
<path d="M68.0611 120.532V118.782L71.4071 118.11C71.7431 118.035 72.0371 117.928 72.2891 117.788C72.5504 117.639 72.7744 117.419 72.9611 117.13C73.1478 116.841 73.2971 116.453 73.4091 115.968C73.5304 115.473 73.6191 114.839 73.6751 114.064L73.8431 111.558H75.9711L75.7891 114.134C75.7518 114.703 75.6864 115.245 75.5931 115.758C75.5091 116.262 75.3691 116.733 75.1731 117.172C74.9864 117.611 74.7344 118.007 74.4171 118.362C74.0998 118.717 73.6938 119.02 73.1991 119.272C72.7044 119.524 72.1071 119.72 71.4071 119.86L68.0611 120.532ZM70.0631 119.202L68.4811 111.698L70.5671 111.446L71.6031 116.584C71.6684 116.883 71.6824 117.191 71.6451 117.508C71.6078 117.816 71.5191 118.119 71.3791 118.418C71.2484 118.707 71.0758 118.969 70.8611 119.202H70.0631ZM82.1855 119.972L76.8375 111.558H79.3295L81.4855 115.212L83.7815 118.754L82.1855 119.972ZM77.0335 120V118.25H83.1515L83.7815 118.754L83.5855 120H77.0335ZM81.3315 116.654L80.7295 115.268C80.9815 115.193 81.1821 115.072 81.3315 114.904C81.4808 114.736 81.5975 114.54 81.6815 114.316C81.7655 114.092 81.8261 113.868 81.8635 113.644C81.9101 113.411 81.9475 113.191 81.9755 112.986L82.1435 111.558H84.2715L84.1035 113.154C84.0661 113.481 83.9915 113.821 83.8795 114.176C83.7675 114.531 83.6041 114.871 83.3895 115.198C83.1841 115.525 82.9088 115.819 82.5635 116.08C82.2275 116.332 81.8168 116.523 81.3315 116.654ZM86.3966 120V111.558H88.5246V120H86.3966ZM85.2486 113.308L85.4866 111.558H87.7966V113.308H85.2486ZM90.1891 120L91.1271 115.044L89.9511 111.558H92.0791L92.6111 113.476H92.6671C92.7978 113.14 92.9471 112.846 93.1151 112.594C93.2831 112.333 93.4838 112.118 93.7171 111.95C93.9504 111.773 94.2164 111.642 94.5151 111.558C94.8231 111.465 95.1778 111.418 95.5791 111.418C96.2418 111.418 96.8204 111.581 97.3151 111.908C97.8191 112.225 98.2111 112.692 98.4911 113.308C98.7804 113.915 98.9251 114.652 98.9251 115.52V115.716C98.9251 116.565 98.7711 117.312 98.4631 117.956C98.1644 118.6 97.7258 119.104 97.1471 119.468C96.5684 119.823 95.8684 120 95.0471 120H93.7031L93.9551 118.25H94.9491C95.5278 118.25 95.9804 118.012 96.3071 117.536C96.6338 117.06 96.7971 116.453 96.7971 115.716V115.52C96.7971 115.016 96.7224 114.591 96.5731 114.246C96.4238 113.901 96.2231 113.644 95.9711 113.476C95.7284 113.299 95.4531 113.21 95.1451 113.21C94.8091 113.21 94.5291 113.261 94.3051 113.364C94.0811 113.457 93.8944 113.602 93.7451 113.798C93.6051 113.994 93.4884 114.227 93.3951 114.498C93.3018 114.769 93.2318 115.072 93.1851 115.408L92.3871 120H90.1891ZM99.7457 120L100.684 115.044L99.5077 111.558H101.636L102.168 113.476H102.224C102.354 113.14 102.504 112.846 102.672 112.594C102.84 112.333 103.04 112.118 103.274 111.95C103.507 111.773 103.773 111.642 104.072 111.558C104.38 111.465 104.734 111.418 105.136 111.418C105.798 111.418 106.377 111.581 106.872 111.908C107.376 112.225 107.768 112.692 108.048 113.308C108.337 113.915 108.482 114.652 108.482 115.52V115.716C108.482 116.565 108.328 117.312 108.02 117.956C107.721 118.6 107.282 119.104 106.704 119.468C106.125 119.823 105.425 120 104.604 120H103.26L103.512 118.25H104.506C105.084 118.25 105.537 118.012 105.864 117.536C106.19 117.06 106.354 116.453 106.354 115.716V115.52C106.354 115.016 106.279 114.591 106.13 114.246C105.98 113.901 105.78 113.644 105.528 113.476C105.285 113.299 105.01 113.21 104.702 113.21C104.366 113.21 104.086 113.261 103.862 113.364C103.638 113.457 103.451 113.602 103.302 113.798C103.162 113.994 103.045 114.227 102.952 114.498C102.858 114.769 102.788 115.072 102.742 115.408L101.944 120H99.7457Z" fill="black"/>
<defs>
<linearGradient id="paint0_linear_1151_25027" x1="27" y1="102.878" x2="149.245" y2="102.878" gradientUnits="userSpaceOnUse">
<stop stop-color="#8F6B45"/>
<stop offset="1" stop-color="#C7A77F"/>
</linearGradient>
</defs>
</svg>
