<svg width="177" height="176" viewBox="0 0 177 176" fill="none" xmlns="http://www.w3.org/2000/svg">
<g clip-path="url(#clip0_1366_24283)">
<rect x="0.5" width="176" height="176" rx="4" fill="#FAFAFA"/>
<path d="M74.8765 74H69.7425V59.958C69.7425 59.5727 69.7425 59.0967 69.7425 58.53C69.7651 57.9633 69.7878 57.374 69.8105 56.762C69.8331 56.15 69.8558 55.606 69.8785 55.13C69.7651 55.266 69.5158 55.5153 69.1305 55.878C68.7678 56.218 68.4278 56.524 68.1105 56.796L65.3225 59.04L62.8405 55.946L70.6605 49.724H74.8765V74ZM93.3135 74H88.1795V59.958C88.1795 59.5727 88.1795 59.0967 88.1795 58.53C88.2022 57.9633 88.2248 57.374 88.2475 56.762C88.2702 56.15 88.2928 55.606 88.3155 55.13C88.2022 55.266 87.9528 55.5153 87.5675 55.878C87.2048 56.218 86.8648 56.524 86.5475 56.796L83.7595 59.04L81.2775 55.946L89.0975 49.724H93.3135V74ZM116.035 74H99.0685V70.43L105.155 64.276C106.379 63.0067 107.365 61.9527 108.113 61.114C108.861 60.2527 109.405 59.482 109.745 58.802C110.085 58.0993 110.255 57.3513 110.255 56.558C110.255 55.5833 109.983 54.858 109.439 54.382C108.917 53.906 108.203 53.668 107.297 53.668C106.367 53.668 105.461 53.8833 104.577 54.314C103.693 54.7447 102.763 55.3567 101.789 56.15L99.0005 52.852C99.7032 52.24 100.44 51.6733 101.211 51.152C102.004 50.6307 102.911 50.2113 103.931 49.894C104.973 49.554 106.22 49.384 107.671 49.384C109.257 49.384 110.617 49.6787 111.751 50.268C112.907 50.8347 113.791 51.6167 114.403 52.614C115.037 53.5887 115.355 54.6993 115.355 55.946C115.355 56.966 115.196 57.9067 114.879 58.768C114.584 59.6293 114.142 60.468 113.553 61.284C112.986 62.0773 112.283 62.9047 111.445 63.766C110.606 64.6047 109.654 65.5227 108.589 66.52L105.461 69.444V69.682H116.035V74Z" fill="#111111"/>
<path d="M73.6143 96V94.25H76.1063C76.7223 94.25 77.175 94.04 77.4643 93.62C77.763 93.2 77.9123 92.612 77.9123 91.856C77.9123 91.044 77.763 90.4187 77.4643 89.98C77.175 89.532 76.7223 89.308 76.1063 89.308H73.6143L73.8383 87.558H76.1063C77.4037 87.558 78.3883 87.936 79.0603 88.692C79.7417 89.4387 80.0823 90.4933 80.0823 91.856C80.0823 93.172 79.7417 94.194 79.0603 94.922C78.3883 95.6407 77.4037 96 76.1063 96H73.6143ZM80.7308 91.408C80.8148 91.1093 80.8895 90.792 80.9548 90.456C81.0295 90.12 81.0995 89.784 81.1648 89.448C81.2302 89.1027 81.2862 88.7713 81.3328 88.454C81.3888 88.1273 81.4308 87.8287 81.4588 87.558H83.3068L83.3908 87.712C83.3068 88.0573 83.2042 88.454 83.0828 88.902C82.9615 89.3407 82.8308 89.784 82.6908 90.232C82.5508 90.68 82.4015 91.072 82.2428 91.408H80.7308ZM83.8388 91.408C83.9508 91.0067 84.0488 90.5773 84.1328 90.12C84.2262 89.6627 84.3102 89.2147 84.3848 88.776C84.4688 88.328 84.5295 87.922 84.5668 87.558H86.4148L86.4848 87.712C86.4102 88.0573 86.3122 88.454 86.1908 88.902C86.0695 89.3407 85.9388 89.784 85.7988 90.232C85.6588 90.68 85.5095 91.072 85.3508 91.408H83.8388ZM93.0415 96V90.568C93.0415 90.148 92.9342 89.8353 92.7195 89.63C92.5142 89.4153 92.2202 89.308 91.8375 89.308H87.4835L87.7215 87.558H91.9495C93.0135 87.558 93.8162 87.81 94.3575 88.314C94.8989 88.8087 95.1695 89.546 95.1695 90.526V96H93.0415ZM87.6655 96V91.45L89.7935 91.338V96H87.6655ZM100.884 96.126C99.5497 96.126 98.5464 95.79 97.8744 95.118C97.2117 94.4367 96.8804 93.4753 96.8804 92.234V92.108C96.8804 91.4547 96.9924 90.89 97.2164 90.414C97.4497 89.938 97.739 89.5973 98.0844 89.392V89.196L99.8904 89.154L99.8204 89.336C99.5217 89.4573 99.307 89.7233 99.1764 90.134C99.055 90.5447 98.9944 91.058 98.9944 91.674C98.9944 92.5607 99.139 93.242 99.4284 93.718C99.727 94.194 100.212 94.432 100.884 94.432C101.566 94.432 102.056 94.1753 102.354 93.662C102.653 93.1487 102.802 92.416 102.802 91.464C102.802 90.7733 102.686 90.2413 102.452 89.868C102.228 89.4947 101.813 89.308 101.206 89.308H96.5304L96.7544 87.558H101.22C102.49 87.558 103.423 87.8987 104.02 88.58C104.627 89.2613 104.93 90.2273 104.93 91.478C104.93 92.9527 104.59 94.096 103.908 94.908C103.236 95.72 102.228 96.126 100.884 96.126Z" fill="black"/>
<path d="M22.4563 17.9952V27C22.4563 27.5523 22.904 28 23.4563 28H23.5437C24.096 28 24.5437 27.5523 24.5437 27V17.9952L28.3171 21.7687C28.7076 22.1592 29.3408 22.1592 29.7313 21.7687L29.7929 21.7071C30.1834 21.3166 30.1834 20.6834 29.7929 20.2929L24.2071 14.7071C23.8166 14.3166 23.1834 14.3166 22.7929 14.7071L17.2071 20.2929C16.8166 20.6834 16.8166 21.3166 17.2071 21.7071L17.2687 21.7687C17.6592 22.1592 18.2924 22.1592 18.6829 21.7687L22.4563 17.9952Z" fill="#C7A77F"/>
<path d="M30.5 22.4142L30.5 22.4142C31.281 21.6332 31.281 20.3668 30.5 19.5858L24.9142 14C24.1332 13.2189 22.8668 13.219 22.0858 14L16.5 19.5858C15.7189 20.3668 15.719 21.6332 16.5 22.4142L16.5616 22.4758C17.3426 23.2568 18.6089 23.2568 19.39 22.4758L21.4563 20.4094V27C21.4563 28.1046 22.3517 29 23.4563 29H23.5437C24.6483 29 25.5437 28.1046 25.5437 27V20.4094L27.61 22.4758C28.3911 23.2568 29.6574 23.2568 30.4384 22.4758C30.4384 22.4758 30.4384 22.4758 30.4384 22.4758L30.5 22.4142Z" stroke="#C69F7C" stroke-opacity="0.2" stroke-width="2"/>
<path d="M22.4563 17.9952V27C22.4563 27.5523 22.904 28 23.4563 28H23.5437C24.096 28 24.5437 27.5523 24.5437 27V17.9952L28.3171 21.7687C28.7076 22.1592 29.3408 22.1592 29.7313 21.7687L29.7929 21.7071C30.1834 21.3166 30.1834 20.6834 29.7929 20.2929L24.2071 14.7071C23.8166 14.3166 23.1834 14.3166 22.7929 14.7071L17.2071 20.2929C16.8166 20.6834 16.8166 21.3166 17.2071 21.7071L17.2687 21.7687C17.6592 22.1592 18.2924 22.1592 18.6829 21.7687L22.4563 17.9952Z" fill="#C7A77F"/>
<path d="M44.0226 26H37.0366V24.53L39.5426 21.996C40.0466 21.4733 40.4526 21.0393 40.7606 20.694C41.0686 20.3393 41.2926 20.022 41.4326 19.742C41.5726 19.4527 41.6426 19.1447 41.6426 18.818C41.6426 18.4167 41.5306 18.118 41.3066 17.922C41.0919 17.726 40.7979 17.628 40.4246 17.628C40.0419 17.628 39.6686 17.7167 39.3046 17.894C38.9406 18.0713 38.5579 18.3233 38.1566 18.65L37.0086 17.292C37.2979 17.04 37.6012 16.8067 37.9186 16.592C38.2452 16.3773 38.6186 16.2047 39.0386 16.074C39.4679 15.934 39.9812 15.864 40.5786 15.864C41.2319 15.864 41.7919 15.9853 42.2586 16.228C42.7346 16.4613 43.0986 16.7833 43.3506 17.194C43.6119 17.5953 43.7426 18.0527 43.7426 18.566C43.7426 19.1167 43.6306 19.6207 43.4066 20.078C43.1919 20.5353 42.8746 20.988 42.4546 21.436C42.0439 21.884 41.5446 22.3787 40.9566 22.92L39.6686 24.124V24.222H44.0226V26ZM48.6883 19.616C49.2949 19.616 49.8363 19.7327 50.3123 19.966C50.7883 20.1993 51.1616 20.54 51.4323 20.988C51.7123 21.436 51.8523 21.9913 51.8523 22.654C51.8523 23.7367 51.5163 24.5907 50.8443 25.216C50.1723 25.832 49.1783 26.14 47.8623 26.14C47.3396 26.14 46.8449 26.0933 46.3783 26C45.9209 25.9067 45.5196 25.7713 45.1743 25.594V23.774C45.5196 23.9513 45.9349 24.1053 46.4203 24.236C46.9056 24.3573 47.3629 24.418 47.7923 24.418C48.4176 24.418 48.8936 24.292 49.2203 24.04C49.5563 23.7787 49.7243 23.3773 49.7243 22.836C49.7243 21.828 49.0569 21.324 47.7223 21.324C47.4609 21.324 47.1903 21.352 46.9103 21.408C46.6303 21.4547 46.3969 21.5013 46.2103 21.548L45.3703 21.1L45.7483 16.004H51.1663V17.796H47.5963L47.4143 19.756C47.5729 19.728 47.7409 19.7 47.9183 19.672C48.1049 19.6347 48.3616 19.616 48.6883 19.616Z" fill="#8A8A8A"/>
<path d="M58.926 17.432L55.734 26H54.702L57.894 17.432H58.926ZM64.5429 26V21.224C64.5429 20.8 64.4389 20.484 64.2309 20.276C64.0309 20.06 63.7269 19.952 63.3189 19.952H59.6829L59.8269 18.836H63.4029C64.2189 18.836 64.8349 19.036 65.2509 19.436C65.6749 19.828 65.8869 20.412 65.8869 21.188V26H64.5429ZM59.8509 26V22.004L61.1949 21.908V26H59.8509ZM67.9648 22.892V18.836H69.3088V22.892H67.9648ZM66.9208 19.952L67.0648 18.836H68.7328V19.952H66.9208ZM71.6445 22.892V18.836H72.9885V22.892H71.6445ZM70.6005 19.952L70.7445 18.836H72.4125V19.952H70.6005ZM75.5402 18.836H79.8242L79.7042 19.664L77.5562 26H76.1642L78.2522 19.952H74.1962V17.024L75.5402 16.88V18.836ZM80.6664 26.432L80.6544 25.328L83.2344 24.776C83.5624 24.696 83.8584 24.588 84.1224 24.452C84.3864 24.308 84.6104 24.096 84.7944 23.816C84.9864 23.536 85.1424 23.156 85.2624 22.676C85.3824 22.188 85.4624 21.564 85.5024 20.804L85.6344 18.836H86.9784L86.8464 20.816C86.8144 21.424 86.7544 21.972 86.6664 22.46C86.5784 22.94 86.4464 23.368 86.2704 23.744C86.1024 24.12 85.8824 24.448 85.6104 24.728C85.3384 25 85.0064 25.232 84.6144 25.424C84.2304 25.616 83.7744 25.768 83.2464 25.88L80.6664 26.432ZM82.4904 25.436L81.0024 18.932L82.3104 18.764L83.4264 23.636C83.4664 23.828 83.4744 24.032 83.4504 24.248C83.4344 24.456 83.3864 24.664 83.3064 24.872C83.2344 25.072 83.1344 25.26 83.0064 25.436H82.4904Z" fill="#8A8A8A"/>
<path d="M117.928 26V20.568C117.928 20.148 117.825 19.8353 117.62 19.63C117.415 19.4153 117.116 19.308 116.724 19.308H112.818V17.558H116.836C117.9 17.558 118.703 17.81 119.244 18.314C119.785 18.8087 120.056 19.546 120.056 20.526V26H117.928ZM111.32 26L111.544 24.25H112.048C112.225 24.25 112.37 24.2173 112.482 24.152C112.594 24.0773 112.678 23.97 112.734 23.83C112.79 23.69 112.818 23.5173 112.818 23.312V17.964H114.946V23.256C114.946 24.152 114.736 24.8333 114.316 25.3C113.905 25.7667 113.294 26 112.482 26H111.32ZM111.53 19.308L111.768 17.558H114.008V19.308H111.53ZM122.586 26V17.558H124.714V26H122.586ZM121.438 19.308L121.676 17.558H123.986V19.308H121.438ZM130.242 26V20.568C130.242 20.148 130.139 19.8353 129.934 19.63C129.729 19.4153 129.43 19.308 129.038 19.308H126.182L126.406 17.558H129.15C130.214 17.558 131.017 17.81 131.558 18.314C132.099 18.8087 132.37 19.546 132.37 20.526V26H130.242ZM133.714 26V24.25H136.206C136.822 24.25 137.275 24.04 137.564 23.62C137.863 23.2 138.012 22.612 138.012 21.856C138.012 21.044 137.863 20.4187 137.564 19.98C137.275 19.532 136.822 19.308 136.206 19.308H133.714L133.938 17.558H136.206C137.503 17.558 138.488 17.936 139.16 18.692C139.841 19.4387 140.182 20.4933 140.182 21.856C140.182 23.172 139.841 24.194 139.16 24.922C138.488 25.6407 137.503 26 136.206 26H133.714ZM145.768 26.098C144.797 26.098 143.962 25.9067 143.262 25.524C142.562 25.1413 142.025 24.572 141.652 23.816C141.278 23.06 141.092 22.108 141.092 20.96V17.558H143.206V20.946C143.206 21.758 143.304 22.4207 143.5 22.934C143.696 23.438 143.98 23.8113 144.354 24.054C144.736 24.2873 145.194 24.404 145.726 24.404H145.782C146.332 24.3947 146.794 24.2733 147.168 24.04C147.55 23.8067 147.84 23.438 148.036 22.934C148.232 22.4207 148.33 21.7627 148.33 20.96V17.558H150.458V20.974C150.458 22.122 150.271 23.074 149.898 23.83C149.524 24.5767 148.992 25.1413 148.302 25.524C147.62 25.8973 146.799 26.0887 145.838 26.098H145.768ZM142.604 22.682L142.492 21.254C143.098 21.2913 143.56 21.2213 143.878 21.044C144.195 20.8573 144.414 20.568 144.536 20.176C144.666 19.784 144.732 19.3033 144.732 18.734V17.558H146.846V18.636C146.846 19.2613 146.771 19.8307 146.622 20.344C146.482 20.8573 146.248 21.2913 145.922 21.646C145.595 22.0007 145.161 22.2713 144.62 22.458C144.078 22.6353 143.406 22.71 142.604 22.682ZM157.557 26V20.568C157.557 20.148 157.45 19.8353 157.235 19.63C157.03 19.4153 156.736 19.308 156.353 19.308H151.999L152.237 17.558H156.465C157.529 17.558 158.332 17.81 158.873 18.314C159.414 18.8087 159.685 19.546 159.685 20.526V26H157.557ZM152.181 26V21.45L154.309 21.338V26H152.181Z" fill="#858585"/>
<path d="M3.82871 158.771L0.5 157.941L0.5 186.167H300.5V77L298.42 78.2452L294.675 87.7921L292.594 89.4525L288.85 88.6223L284.689 84.4715L282.192 84.8866L278.447 94.0184L275.951 99.8295H272.622L269.293 94.4335L267.062 94.0184H264.716L260.139 107.301L258.891 108.131L256.811 108.961L254.73 106.056L251.402 88.6223L249.321 86.5469L247.241 87.3771L243.08 101.49L240.583 103.15L236.006 100.66L233.51 98.5843H230.181L226.852 106.471L224.772 109.376L220.611 110.207L217.282 114.357L215.202 115.188L213.121 114.357L208.544 103.565L204.8 102.735L200.223 113.942L198.558 115.603L196.062 115.188L191.069 108.131L187.324 107.716L184.411 103.15L182.331 99.8295L180.25 98.9994L178.586 100.245L174.425 116.018L173.177 118.508L171.512 118.923L169.432 114.772L165.271 92.7731L164.023 91.1128H163.191L161.11 92.358L157.782 104.811L156.117 107.301L152.788 108.131L148.628 116.433L147.379 117.678H145.299L142.802 116.018L140.306 112.282L138.225 111.452L134.897 113.527L132.816 120.584L130.736 123.074L128.655 123.904L124.911 121.829L121.998 119.338L119.085 118.923L117.837 117.678L114.508 113.112L112.428 111.867L110.347 113.112L107.019 130.961L104.522 137.602H102.026L98.2809 133.036L96.2004 132.206L92.8717 131.791L89.9591 138.017L87.0465 141.338L85.3821 141.753L82.0534 136.772L78.3086 134.696L75.8121 135.527L70.819 154.205L68.7386 155.035L65.4098 151.715L60.8329 148.394H58.7524L56.2559 145.489L52.5111 144.243L50.0146 145.489L46.6859 155.866L43.3571 157.941L41.2767 158.771L38.3641 160.016L33.7871 160.847L31.2906 158.771L28.3779 154.205L24.6331 153.375L21.3044 150.885L18.3918 149.224L16.7275 149.639L15.0631 152.96L11.7344 160.847L9.65395 162.507L7.15742 162.092L3.82871 158.771Z" fill="url(#paint0_linear_1366_24283)"/>
<path d="M300.5 77C296.214 77 296.214 89.6959 291.929 89.6959C287.643 89.6959 287.821 84.3682 283.357 84.3682C278.893 84.3682 279.25 100.011 274.786 100.011C270.321 100.011 271.036 93.7314 266.214 93.7314C261.393 93.7314 262.643 108.989 257.643 108.989C252.643 108.989 253.357 86.5219 249.071 86.5219C244.786 86.5219 245.143 102.913 240.5 102.913C235.857 102.913 236.571 98.4243 231.929 98.4243C227.286 98.4243 228 109.647 223.357 109.647C218.714 109.647 219.25 115.088 214.786 115.088C210.321 115.088 210.679 102.845 206.214 102.845C201.75 102.845 202.286 115.722 197.643 115.722C193 115.722 194.071 107.946 189.071 107.946C184.071 107.946 184.964 99.2858 180.5 99.2858C176.036 99.2858 176.571 119.055 171.929 119.055C167.286 119.055 168 90.8295 163.357 90.8295C158.714 90.8295 159.25 107.697 154.786 107.697C150.321 107.697 151.214 117.786 146.214 117.786C141.214 117.786 142.464 111.664 137.643 111.664C132.821 111.664 134.071 124.134 129.071 124.134C124.071 124.134 125.321 119.327 120.5 119.327C115.679 119.327 116.571 112.05 111.929 112.05C107.286 112.05 108 138.19 103.357 138.19C98.7143 138.19 99.7857 131.796 94.7857 131.796C89.7857 131.796 90.5 141.794 86.2143 141.794C81.9286 141.794 82.4643 134.653 77.6428 134.653C72.8214 134.653 73.5357 155.284 69.0714 155.284C64.6071 155.284 65.5 149.072 60.5 149.072C55.5 149.072 56.75 144.56 51.9286 144.56C47.1072 144.56 48 158.39 43.3571 158.39C38.7143 158.39 39.7857 161.292 34.7857 161.292C29.7857 161.292 31.2143 153.651 26.2143 153.651C21.2143 153.651 21.9286 149.571 17.6428 149.571C13.3571 149.571 13.3571 162.833 9.07143 162.833C4.78571 162.833 5.14286 158.163 0.500007 158.163" stroke="#C7A77F" stroke-width="2"/>
<circle cx="18.4154" cy="150.75" r="3.58333" fill="black" stroke="white" stroke-width="2"/>
<circle cx="51.7503" cy="145.75" r="3.58333" fill="black" stroke="white" stroke-width="2"/>
<circle cx="77.5833" cy="134.916" r="3.58333" fill="black" stroke="white" stroke-width="2"/>
<circle cx="111.751" cy="111.583" r="3.58333" fill="black" stroke="white" stroke-width="2"/>
<circle cx="137.584" cy="113.25" r="3.58333" fill="black" stroke="white" stroke-width="2"/>
<circle cx="163.416" cy="92.4173" r="3.58333" fill="black" stroke="white" stroke-width="2"/>
<circle cx="104.249" cy="136.583" r="3.58333" fill="black" stroke="white" stroke-width="2"/>
</g>
<defs>
<linearGradient id="paint0_linear_1366_24283" x1="150.5" y1="77" x2="150.5" y2="186.167" gradientUnits="userSpaceOnUse">
<stop stop-color="#C69F7C" stop-opacity="0.3"/>
<stop offset="1" stop-color="white" stop-opacity="0"/>
</linearGradient>
<clipPath id="clip0_1366_24283">
<rect width="176" height="176" fill="white" transform="translate(0.5)"/>
</clipPath>
</defs>
</svg>
