<svg width="177" height="176" viewBox="0 0 177 176" fill="none" xmlns="http://www.w3.org/2000/svg">
<g clip-path="url(#clip0_1366_24352)">
<rect x="0.5" width="176" height="176" rx="4" fill="#FAFAFA"/>
<path d="M60.8203 77H55.6863V62.958C55.6863 62.5727 55.6863 62.0967 55.6863 61.53C55.7089 60.9633 55.7316 60.374 55.7543 59.762C55.7769 59.15 55.7996 58.606 55.8223 58.13C55.7089 58.266 55.4596 58.5153 55.0743 58.878C54.7116 59.218 54.3716 59.524 54.0543 59.796L51.2663 62.04L48.7843 58.946L56.6043 52.724H60.8203V77ZM72.8313 73.43C72.6273 74.2233 72.3666 75.0847 72.0493 76.014C71.732 76.9207 71.392 77.8273 71.0293 78.734C70.6666 79.6633 70.2926 80.5473 69.9073 81.386H66.2693C66.496 80.4793 66.7113 79.5273 66.9153 78.53C67.1193 77.5553 67.312 76.592 67.4933 75.64C67.6746 74.688 67.822 73.8267 67.9353 73.056H72.5933L72.8313 73.43ZM92.2166 77H75.2506V73.43L81.3366 67.276C82.5606 66.0067 83.5466 64.9527 84.2946 64.114C85.0426 63.2527 85.5866 62.482 85.9266 61.802C86.2666 61.0993 86.4366 60.3513 86.4366 59.558C86.4366 58.5833 86.1646 57.858 85.6206 57.382C85.0993 56.906 84.3853 56.668 83.4786 56.668C82.5493 56.668 81.6426 56.8833 80.7586 57.314C79.8746 57.7447 78.9453 58.3567 77.9706 59.15L75.1826 55.852C75.8853 55.24 76.622 54.6733 77.3926 54.152C78.186 53.6307 79.0926 53.2113 80.1126 52.894C81.1553 52.554 82.402 52.384 83.8526 52.384C85.4393 52.384 86.7993 52.6787 87.9326 53.268C89.0886 53.8347 89.9726 54.6167 90.5846 55.614C91.2193 56.5887 91.5366 57.6993 91.5366 58.946C91.5366 59.966 91.378 60.9067 91.0606 61.768C90.766 62.6293 90.324 63.468 89.7346 64.284C89.168 65.0773 88.4653 65.9047 87.6266 66.766C86.788 67.6047 85.836 68.5227 84.7706 69.52L81.6426 72.444V72.682H92.2166V77ZM110.518 64.862C110.518 66.8113 110.359 68.5567 110.042 70.098C109.747 71.6393 109.26 72.954 108.58 74.042C107.922 75.1073 107.05 75.9233 105.962 76.49C104.896 77.0567 103.582 77.34 102.018 77.34C100.068 77.34 98.4703 76.8413 97.2237 75.844C95.977 74.8467 95.0477 73.4187 94.4357 71.56C93.8463 69.7013 93.5517 67.4687 93.5517 64.862C93.5517 62.2327 93.8237 59.9887 94.3677 58.13C94.9117 56.2713 95.807 54.8433 97.0537 53.846C98.3003 52.8487 99.955 52.35 102.018 52.35C103.967 52.35 105.565 52.8487 106.812 53.846C108.058 54.8207 108.988 56.2487 109.6 58.13C110.212 59.9887 110.518 62.2327 110.518 64.862ZM98.6517 64.862C98.6517 66.698 98.7537 68.2393 98.9577 69.486C99.1617 70.71 99.5017 71.6393 99.9777 72.274C100.476 72.886 101.156 73.192 102.018 73.192C102.879 73.192 103.548 72.886 104.024 72.274C104.522 71.662 104.874 70.744 105.078 69.52C105.304 68.2733 105.418 66.7207 105.418 64.862C105.418 63.0033 105.304 61.462 105.078 60.238C104.874 58.9913 104.522 58.062 104.024 57.45C103.548 56.8153 102.879 56.498 102.018 56.498C101.156 56.498 100.476 56.8153 99.9777 57.45C99.5017 58.062 99.1617 58.9913 98.9577 60.238C98.7537 61.462 98.6517 63.0033 98.6517 64.862ZM128.955 64.862C128.955 66.8113 128.796 68.5567 128.479 70.098C128.184 71.6393 127.697 72.954 127.017 74.042C126.359 75.1073 125.487 75.9233 124.399 76.49C123.333 77.0567 122.019 77.34 120.455 77.34C118.505 77.34 116.907 76.8413 115.661 75.844C114.414 74.8467 113.485 73.4187 112.873 71.56C112.283 69.7013 111.989 67.4687 111.989 64.862C111.989 62.2327 112.261 59.9887 112.805 58.13C113.349 56.2713 114.244 54.8433 115.491 53.846C116.737 52.8487 118.392 52.35 120.455 52.35C122.404 52.35 124.002 52.8487 125.249 53.846C126.495 54.8207 127.425 56.2487 128.037 58.13C128.649 59.9887 128.955 62.2327 128.955 64.862ZM117.089 64.862C117.089 66.698 117.191 68.2393 117.395 69.486C117.599 70.71 117.939 71.6393 118.415 72.274C118.913 72.886 119.593 73.192 120.455 73.192C121.316 73.192 121.985 72.886 122.461 72.274C122.959 71.662 123.311 70.744 123.515 69.52C123.741 68.2733 123.855 66.7207 123.855 64.862C123.855 63.0033 123.741 61.462 123.515 60.238C123.311 58.9913 122.959 58.062 122.461 57.45C121.985 56.8153 121.316 56.498 120.455 56.498C119.593 56.498 118.913 56.8153 118.415 57.45C117.939 58.062 117.599 58.9913 117.395 60.238C117.191 61.462 117.089 63.0033 117.089 64.862Z" fill="#111111"/>
<path d="M80.6784 90.558C81.7424 90.558 82.5451 90.81 83.0864 91.314C83.6278 91.8087 83.8984 92.546 83.8984 93.526V99H81.7704V93.568C81.7704 93.148 81.6678 92.8353 81.4624 92.63C81.2571 92.4153 80.9584 92.308 80.5664 92.308H78.6344C78.5878 92.3827 78.5411 92.5087 78.4944 92.686C78.4571 92.854 78.4384 93.148 78.4384 93.568V99H76.3104V94.212C76.3104 93.8387 76.3431 93.5027 76.4084 93.204C76.4831 92.896 76.6278 92.6113 76.8424 92.35L76.7304 92.252V90.558H80.6784ZM75.6104 92.308L75.8344 90.558H79.7684V92.308H75.6104ZM84.9418 94.408C85.0258 94.1093 85.1004 93.792 85.1658 93.456C85.2404 93.12 85.3104 92.784 85.3758 92.448C85.4411 92.1027 85.4971 91.7713 85.5438 91.454C85.5998 91.1273 85.6418 90.8287 85.6698 90.558H87.5178L87.6018 90.712C87.5178 91.0573 87.4151 91.454 87.2938 91.902C87.1724 92.3407 87.0418 92.784 86.9018 93.232C86.7618 93.68 86.6124 94.072 86.4538 94.408H84.9418ZM88.0498 94.408C88.1618 94.0067 88.2598 93.5773 88.3438 93.12C88.4371 92.6627 88.5211 92.2147 88.5958 91.776C88.6798 91.328 88.7404 90.922 88.7778 90.558H90.6258L90.6958 90.712C90.6211 91.0573 90.5231 91.454 90.4018 91.902C90.2804 92.3407 90.1498 92.784 90.0098 93.232C89.8698 93.68 89.7204 94.072 89.5618 94.408H88.0498ZM96.4825 99.098C95.5118 99.098 94.6765 98.9067 93.9765 98.524C93.2765 98.1413 92.7398 97.572 92.3665 96.816C91.9931 96.06 91.8065 95.108 91.8065 93.96V90.558H93.9205V93.946C93.9205 94.758 94.0185 95.4207 94.2145 95.934C94.4105 96.438 94.6951 96.8113 95.0685 97.054C95.4511 97.2873 95.9085 97.404 96.4405 97.404H96.4965C97.0471 97.3947 97.5091 97.2733 97.8825 97.04C98.2651 96.8067 98.5545 96.438 98.7505 95.934C98.9465 95.4207 99.0445 94.7627 99.0445 93.96V90.558H101.172V93.974C101.172 95.122 100.986 96.074 100.612 96.83C100.239 97.5767 99.7071 98.1413 99.0165 98.524C98.3351 98.8973 97.5138 99.0887 96.5525 99.098H96.4825ZM93.3185 95.682L93.2065 94.254C93.8131 94.2913 94.2751 94.2213 94.5925 94.044C94.9098 93.8573 95.1291 93.568 95.2505 93.176C95.3811 92.784 95.4465 92.3033 95.4465 91.734V90.558H97.5605V91.636C97.5605 92.2613 97.4858 92.8307 97.3365 93.344C97.1965 93.8573 96.9631 94.2913 96.6365 94.646C96.3098 95.0007 95.8758 95.2713 95.3345 95.458C94.7931 95.6353 94.1211 95.71 93.3185 95.682Z" fill="black"/>
<path d="M16.5 26.4996C19 20.9996 20.3921 20.4303 22.695 24.9565C23.0367 25.6279 25.413 18.8293 26 18.4997C26.4341 18.2559 28.0071 23.9336 28.3258 23.438C30.3173 20.3412 34.7636 14.4719 36.2407 19.117C36.9532 21.3572 43.9412 17.7836 44.506 15.5" stroke="#C7A77F" stroke-opacity="0.2" stroke-width="6" stroke-linecap="round"/>
<path d="M16.5 26.4996C19 20.9996 20.3921 20.4303 22.695 24.9565C23.0367 25.6279 25.413 18.8293 26 18.4997C26.4341 18.2559 28.0071 23.9336 28.3258 23.438C30.3173 20.3412 34.7636 14.4719 36.2407 19.117C36.9532 21.3572 43.9412 17.7836 44.506 15.5" stroke="#C7A77F" stroke-width="2" stroke-linecap="round"/>
<path d="M53.5917 20.316H56.2377V21.814H53.5917V24.446H52.0937V21.814H49.4477V20.316H52.0937V17.656H53.5917V20.316ZM60.8614 15.878C61.4401 15.878 61.9674 15.9667 62.4434 16.144C62.9288 16.3213 63.3161 16.5873 63.6054 16.942C63.9041 17.2967 64.0534 17.7447 64.0534 18.286C64.0534 18.8833 63.8808 19.378 63.5354 19.77C63.1994 20.1527 62.7748 20.47 62.2614 20.722C62.6161 20.9087 62.9521 21.128 63.2694 21.38C63.5961 21.6227 63.8574 21.912 64.0534 22.248C64.2588 22.5747 64.3614 22.962 64.3614 23.41C64.3614 23.9607 64.2121 24.4413 63.9134 24.852C63.6241 25.2627 63.2134 25.58 62.6814 25.804C62.1588 26.028 61.5521 26.14 60.8614 26.14C59.7414 26.14 58.8734 25.902 58.2574 25.426C57.6508 24.95 57.3474 24.2967 57.3474 23.466C57.3474 22.7753 57.5341 22.22 57.9074 21.8C58.2808 21.38 58.7334 21.0393 59.2654 20.778C58.8174 20.498 58.4348 20.162 58.1174 19.77C57.8094 19.3687 57.6554 18.8693 57.6554 18.272C57.6554 17.74 57.8048 17.2967 58.1034 16.942C58.4021 16.5873 58.7941 16.3213 59.2794 16.144C59.7741 15.9667 60.3014 15.878 60.8614 15.878ZM60.8474 17.418C60.5021 17.418 60.2128 17.5067 59.9794 17.684C59.7554 17.8613 59.6434 18.1133 59.6434 18.44C59.6434 18.7853 59.7648 19.0653 60.0074 19.28C60.2501 19.4947 60.5348 19.6813 60.8614 19.84C61.1788 19.6907 61.4588 19.5133 61.7014 19.308C61.9441 19.0933 62.0654 18.804 62.0654 18.44C62.0654 18.1133 61.9488 17.8613 61.7154 17.684C61.4914 17.5067 61.2021 17.418 60.8474 17.418ZM59.3074 23.34C59.3074 23.704 59.4334 24.0027 59.6854 24.236C59.9468 24.4693 60.3294 24.586 60.8334 24.586C61.3561 24.586 61.7481 24.474 62.0094 24.25C62.2708 24.026 62.4014 23.7273 62.4014 23.354C62.4014 23.102 62.3268 22.8827 62.1774 22.696C62.0281 22.5 61.8414 22.3273 61.6174 22.178C61.4028 22.0193 61.1788 21.8747 60.9454 21.744L60.7634 21.646C60.3341 21.8513 59.9841 22.0893 59.7134 22.36C59.4428 22.6307 59.3074 22.9573 59.3074 23.34ZM65.3591 21.758C65.3591 21.1793 65.4011 20.61 65.4851 20.05C65.5691 19.49 65.7138 18.9627 65.9191 18.468C66.1338 17.964 66.4278 17.5207 66.8011 17.138C67.1838 16.746 67.6645 16.4427 68.2431 16.228C68.8311 16.004 69.5405 15.892 70.3711 15.892C70.5671 15.892 70.7958 15.9013 71.0571 15.92C71.3185 15.9293 71.5378 15.9527 71.7151 15.99V17.684C71.5378 17.6373 71.3418 17.6047 71.1271 17.586C70.9218 17.558 70.7165 17.544 70.5111 17.544C69.6805 17.544 69.0365 17.6747 68.5791 17.936C68.1311 18.1973 67.8138 18.566 67.6271 19.042C67.4405 19.5087 67.3331 20.05 67.3051 20.666H67.3891C67.5758 20.3393 67.8418 20.064 68.1871 19.84C68.5418 19.616 68.9991 19.504 69.5591 19.504C70.4365 19.504 71.1318 19.7793 71.6451 20.33C72.1585 20.8807 72.4151 21.66 72.4151 22.668C72.4151 23.7507 72.1071 24.6 71.4911 25.216C70.8845 25.832 70.0585 26.14 69.0131 26.14C68.3318 26.14 67.7158 25.986 67.1651 25.678C66.6145 25.3607 66.1758 24.88 65.8491 24.236C65.5225 23.5827 65.3591 22.7567 65.3591 21.758ZM68.9711 24.446C69.3818 24.446 69.7178 24.306 69.9791 24.026C70.2405 23.7367 70.3711 23.2933 70.3711 22.696C70.3711 22.2107 70.2591 21.828 70.0351 21.548C69.8111 21.268 69.4705 21.128 69.0131 21.128C68.7051 21.128 68.4345 21.198 68.2011 21.338C67.9678 21.4687 67.7858 21.6413 67.6551 21.856C67.5245 22.0707 67.4591 22.29 67.4591 22.514C67.4591 22.822 67.5151 23.1253 67.6271 23.424C67.7391 23.7133 67.9071 23.956 68.1311 24.152C68.3645 24.348 68.6445 24.446 68.9711 24.446ZM75.6669 15.864C76.4509 15.864 77.0435 16.1393 77.4449 16.69C77.8555 17.2313 78.0609 17.9967 78.0609 18.986C78.0609 19.9753 77.8695 20.75 77.4869 21.31C77.1042 21.8607 76.4975 22.136 75.6669 22.136C74.9015 22.136 74.3182 21.8607 73.9169 21.31C73.5155 20.75 73.3149 19.9753 73.3149 18.986C73.3149 17.9967 73.5015 17.2313 73.8749 16.69C74.2482 16.1393 74.8455 15.864 75.6669 15.864ZM82.7649 16.004L77.2209 26H75.5829L81.1269 16.004H82.7649ZM75.6809 17.292C75.2515 17.292 75.0369 17.8613 75.0369 19C75.0369 20.148 75.2515 20.722 75.6809 20.722C76.1195 20.722 76.3389 20.148 76.3389 19C76.3389 17.8613 76.1195 17.292 75.6809 17.292ZM82.6669 19.854C83.4509 19.854 84.0435 20.1293 84.4449 20.68C84.8555 21.2213 85.0609 21.9867 85.0609 22.976C85.0609 23.9653 84.8695 24.74 84.4869 25.3C84.1042 25.8507 83.4975 26.126 82.6669 26.126C81.9015 26.126 81.3182 25.8507 80.9169 25.3C80.5155 24.74 80.3149 23.9653 80.3149 22.976C80.3149 21.9867 80.5015 21.2213 80.8749 20.68C81.2482 20.1293 81.8455 19.854 82.6669 19.854ZM82.6809 21.282C82.2515 21.282 82.0369 21.8513 82.0369 22.99C82.0369 24.138 82.2515 24.712 82.6809 24.712C83.1195 24.712 83.3389 24.138 83.3389 22.99C83.3389 21.8513 83.1195 21.282 82.6809 21.282Z" fill="#8A8A8A"/>
<path d="M130.716 26.126C129.419 26.126 128.42 25.7293 127.72 24.936C127.03 24.1333 126.684 22.9573 126.684 21.408V17.558H128.798V21.408C128.798 22.3973 128.962 23.1487 129.288 23.662C129.624 24.1753 130.086 24.432 130.674 24.432C131.281 24.432 131.757 24.1753 132.102 23.662C132.448 23.1487 132.62 22.3973 132.62 21.408C132.62 20.708 132.532 20.162 132.354 19.77C132.186 19.378 131.888 19.1773 131.458 19.168C131.253 19.1587 131.062 19.1727 130.884 19.21C130.716 19.2473 130.53 19.2893 130.324 19.336V17.642C130.595 17.5953 130.847 17.5533 131.08 17.516C131.314 17.4787 131.566 17.46 131.836 17.46C132.835 17.4787 133.568 17.8287 134.034 18.51C134.501 19.182 134.734 20.148 134.734 21.408C134.734 22.9573 134.384 24.1333 133.684 24.936C132.994 25.7293 132.004 26.126 130.716 26.126ZM136.757 22.444V17.558H138.885V22.444H136.757ZM135.609 19.308L135.847 17.558H137.947V19.308H135.609ZM140.258 19.308V17.558H147.454L147.216 19.308H140.258ZM143.926 26V20.694C143.926 20.5633 143.945 20.4093 143.982 20.232C144.019 20.0453 144.085 19.868 144.178 19.7C144.281 19.532 144.421 19.4013 144.598 19.308H146.292C146.18 19.392 146.11 19.5087 146.082 19.658C146.063 19.8073 146.054 19.9847 146.054 20.19V26H143.926ZM152.33 26V20.568C152.33 20.148 152.227 19.8353 152.022 19.63C151.817 19.4153 151.518 19.308 151.126 19.308H148.27L148.494 17.558H151.238C152.302 17.558 153.105 17.81 153.646 18.314C154.187 18.8087 154.458 19.546 154.458 20.526V26H152.33ZM159.792 26L161.738 19.294H155.998L156.222 17.558H164.146L164.006 18.818L161.92 26H159.792ZM156.334 28.576V21.086L158.462 20.96V28.464L156.334 28.576Z" fill="#858585"/>
<path d="M9.2211 147.587C4.17688 146.578 1.84171 149.519 0.5 150.978V201.333H176.5V106C174.831 111.793 160.934 126.533 160.567 126.533C160.2 126.533 158.79 126.166 158.606 125.8C157.625 123.844 151.252 128 151.255 128.374C151.257 128.748 140.554 131.638 136.412 133.481C135.182 130.968 132.411 125.815 129.191 128.733C125.166 132.381 117.451 135.57 116.444 134.111C115.438 132.652 112.661 127.158 108.301 130.077L108.21 130.137C103.857 133.051 97.89 137.044 93.8928 137.044C89.8676 137.044 87.3259 132.634 85.3134 130.689C83.3008 128.743 80.8889 133.968 79.2117 135.427C77.5346 136.886 77.5854 137.038 76.2437 135.822C74.902 134.606 70.7219 136.072 69.3802 137.044C68.0385 138.017 68.4016 139.905 62.2716 141.933C54.3202 144.565 54.3271 135.241 52.9568 134.844C51.0002 134.278 45.6831 138.588 41.3225 141.02C36.962 143.452 36.8559 143.647 33.837 144.133C30.8182 144.62 27.8508 141.686 25.5028 141.2C23.1548 140.714 21.8129 143.662 19.1295 147.067C16.4461 150.471 13.8809 148.519 9.2211 147.587Z" fill="url(#paint0_linear_1366_24352)"/>
<path d="M0.98877 150.489C2.33141 148.963 4.94955 146.317 8.70893 146.928C13.4082 147.691 16.0934 150.489 18.7787 146.928C21.464 143.367 23.4779 140.315 25.8276 140.824C28.1772 141.333 29.8555 144.13 32.8764 143.622C35.8973 143.113 27.4805 148.801 40.9322 140.824C54.3839 132.847 52.9194 134.063 53.6873 136.754C54.6338 140.072 57.3795 144.893 63.0857 141.841C68.7919 138.789 68.9262 135.483 72.8198 135.483C76.7135 135.483 74.4981 134.211 75.8408 135.483C77.1834 136.754 77.8547 136.246 79.533 134.72C81.2113 133.194 83.6182 128.616 85.6321 130.65C87.6461 132.685 89.2671 136.754 93.2951 136.754C97.323 136.754 103.822 132.685 108.185 129.633C112.549 126.581 115.113 132.431 116.12 133.957C117.127 135.483 124.511 132.431 128.539 128.616C131.762 125.564 135.029 130.057 136.259 132.685C140.623 131.583 150.223 128.717 153.714 126.072C157.205 123.427 159.196 125.818 159.756 127.344C162.888 125.564 174.088 112.857 175.767 106.244" stroke="url(#paint1_linear_1366_24352)" stroke-width="4" stroke-linecap="round" stroke-linejoin="round"/>
</g>
<defs>
<linearGradient id="paint0_linear_1366_24352" x1="86.3693" y1="117.43" x2="86.3693" y2="169.231" gradientUnits="userSpaceOnUse">
<stop stop-color="#C7A77F" stop-opacity="0.3"/>
<stop offset="1" stop-color="white" stop-opacity="0"/>
</linearGradient>
<linearGradient id="paint1_linear_1366_24352" x1="176.012" y1="106" x2="-0.939851" y2="150.606" gradientUnits="userSpaceOnUse">
<stop stop-color="#C7A77F"/>
<stop offset="1" stop-color="#8F6B45"/>
</linearGradient>
<clipPath id="clip0_1366_24352">
<rect width="176" height="176" fill="white" transform="translate(0.5)"/>
</clipPath>
</defs>
</svg>
