<svg width="176" height="176" viewBox="0 0 176 176" fill="none" xmlns="http://www.w3.org/2000/svg">
<g clip-path="url(#clip0_1151_25009)">
<rect width="176" height="176" rx="4" fill="#FAFAFA"/>
<path d="M87.879 74H70.913V70.43L76.999 64.276C78.223 63.0067 79.209 61.9527 79.957 61.114C80.705 60.2527 81.249 59.482 81.589 58.802C81.929 58.0993 82.099 57.3513 82.099 56.558C82.099 55.5833 81.827 54.858 81.283 54.382C80.7616 53.906 80.0476 53.668 79.141 53.668C78.2116 53.668 77.305 53.8833 76.421 54.314C75.537 54.7447 74.6076 55.3567 73.633 56.15L70.845 52.852C71.5476 52.24 72.2843 51.6733 73.055 51.152C73.8483 50.6307 74.755 50.2113 75.775 49.894C76.8176 49.554 78.0643 49.384 79.515 49.384C81.1016 49.384 82.4616 49.6787 83.595 50.268C84.751 50.8347 85.635 51.6167 86.247 52.614C86.8816 53.5887 87.199 54.6993 87.199 55.946C87.199 56.966 87.0403 57.9067 86.723 58.768C86.4283 59.6293 85.9863 60.468 85.397 61.284C84.8303 62.0773 84.1276 62.9047 83.289 63.766C82.4503 64.6047 81.4983 65.5227 80.433 66.52L77.305 69.444V69.682H87.879V74ZM106.86 68.968H103.936V74H98.938V68.968H88.568V65.398L99.21 49.724H103.936V64.99H106.86V68.968ZM98.938 60.876C98.938 60.4907 98.938 60.0373 98.938 59.516C98.9607 58.972 98.9833 58.4393 99.006 57.918C99.0287 57.374 99.0513 56.898 99.074 56.49C99.0967 56.0593 99.1193 55.7647 99.142 55.606H99.006C98.802 56.0593 98.5867 56.5013 98.36 56.932C98.1333 57.3627 97.8613 57.8047 97.544 58.258L93.09 64.99H98.938V60.876Z" fill="#111111"/>
<path d="M73.1143 96V94.25H75.6063C76.2223 94.25 76.675 94.04 76.9643 93.62C77.263 93.2 77.4123 92.612 77.4123 91.856C77.4123 91.044 77.263 90.4187 76.9643 89.98C76.675 89.532 76.2223 89.308 75.6063 89.308H73.1143L73.3383 87.558H75.6063C76.9037 87.558 77.8883 87.936 78.5603 88.692C79.2417 89.4387 79.5823 90.4933 79.5823 91.856C79.5823 93.172 79.2417 94.194 78.5603 94.922C77.8883 95.6407 76.9037 96 75.6063 96H73.1143ZM80.2308 91.408C80.3148 91.1093 80.3895 90.792 80.4548 90.456C80.5295 90.12 80.5995 89.784 80.6648 89.448C80.7302 89.1027 80.7862 88.7713 80.8328 88.454C80.8888 88.1273 80.9308 87.8287 80.9588 87.558H82.8068L82.8908 87.712C82.8068 88.0573 82.7042 88.454 82.5828 88.902C82.4615 89.3407 82.3308 89.784 82.1908 90.232C82.0508 90.68 81.9015 91.072 81.7428 91.408H80.2308ZM83.3388 91.408C83.4508 91.0067 83.5488 90.5773 83.6328 90.12C83.7262 89.6627 83.8102 89.2147 83.8848 88.776C83.9688 88.328 84.0295 87.922 84.0668 87.558H85.9148L85.9848 87.712C85.9102 88.0573 85.8122 88.454 85.6908 88.902C85.5695 89.3407 85.4388 89.784 85.2988 90.232C85.1588 90.68 85.0095 91.072 84.8508 91.408H83.3388ZM92.5415 96V90.568C92.5415 90.148 92.4342 89.8353 92.2195 89.63C92.0142 89.4153 91.7202 89.308 91.3375 89.308H86.9835L87.2215 87.558H91.4495C92.5135 87.558 93.3162 87.81 93.8575 88.314C94.3989 88.8087 94.6695 89.546 94.6695 90.526V96H92.5415ZM87.1655 96V91.45L89.2935 91.338V96H87.1655ZM100.384 96.126C99.0497 96.126 98.0464 95.79 97.3744 95.118C96.7117 94.4367 96.3804 93.4753 96.3804 92.234V92.108C96.3804 91.4547 96.4924 90.89 96.7164 90.414C96.9497 89.938 97.239 89.5973 97.5844 89.392V89.196L99.3904 89.154L99.3204 89.336C99.0217 89.4573 98.807 89.7233 98.6764 90.134C98.555 90.5447 98.4944 91.058 98.4944 91.674C98.4944 92.5607 98.639 93.242 98.9284 93.718C99.227 94.194 99.7124 94.432 100.384 94.432C101.066 94.432 101.556 94.1753 101.854 93.662C102.153 93.1487 102.302 92.416 102.302 91.464C102.302 90.7733 102.186 90.2413 101.952 89.868C101.728 89.4947 101.313 89.308 100.706 89.308H96.0304L96.2544 87.558H100.72C101.99 87.558 102.923 87.8987 103.52 88.58C104.127 89.2613 104.43 90.2273 104.43 91.478C104.43 92.9527 104.09 94.096 103.408 94.908C102.736 95.72 101.728 96.126 100.384 96.126Z" fill="black"/>
<path d="M17.9563 17.9952L17.9563 27C17.9563 27.5523 18.404 28 18.9563 28L19.0437 28C19.596 28 20.0437 27.5523 20.0437 27L20.0437 17.9952L23.8171 21.7687C24.2076 22.1592 24.8408 22.1592 25.2313 21.7687L25.2929 21.7071C25.6834 21.3166 25.6834 20.6834 25.2929 20.2929L19.7071 14.7071C19.3166 14.3166 18.6834 14.3166 18.2929 14.7071L12.7071 20.2929C12.3166 20.6834 12.3166 21.3166 12.7071 21.7071L12.7687 21.7687C13.1592 22.1592 13.7924 22.1592 14.1829 21.7687L17.9563 17.9952Z" fill="#C7A77F"/>
<path d="M26 22.4142L26 22.4142C26.781 21.6332 26.781 20.3668 26 19.5858L20.4142 14C19.6332 13.2189 18.3668 13.219 17.5858 14L12 19.5858C11.219 20.3668 11.219 21.6332 12 22.4142L12.0616 22.4758C12.8426 23.2568 14.1089 23.2568 14.89 22.4758L16.9563 20.4094L16.9563 27C16.9563 28.1046 17.8517 29 18.9563 29L19.0437 29C20.1483 29 21.0437 28.1046 21.0437 27L21.0437 20.4094L23.11 22.4758C23.8911 23.2568 25.1574 23.2568 25.9384 22.4758C25.9384 22.4758 25.9384 22.4758 25.9384 22.4758L26 22.4142Z" stroke="#C69F7C" stroke-opacity="0.2" stroke-width="2"/>
<path d="M17.9563 17.9952L17.9563 27C17.9563 27.5523 18.404 28 18.9563 28L19.0437 28C19.596 28 20.0437 27.5523 20.0437 27L20.0437 17.9952L23.8171 21.7687C24.2076 22.1592 24.8408 22.1592 25.2313 21.7687L25.2929 21.7071C25.6834 21.3166 25.6834 20.6834 25.2929 20.2929L19.7071 14.7071C19.3166 14.3166 18.6834 14.3166 18.2929 14.7071L12.7071 20.2929C12.3166 20.6834 12.3166 21.3166 12.7071 21.7071L12.7687 21.7687C13.1592 22.1592 13.7924 22.1592 14.1829 21.7687L17.9563 17.9952Z" fill="#C7A77F"/>
<path d="M37.7586 26H35.6446V20.218C35.6446 19.9753 35.6492 19.658 35.6586 19.266C35.6772 18.874 35.6912 18.5287 35.7006 18.23C35.6539 18.286 35.5512 18.3887 35.3926 18.538C35.2432 18.678 35.1032 18.804 34.9726 18.916L33.8246 19.84L32.8026 18.566L36.0226 16.004H37.7586V26ZM41.5423 26L45.2943 17.782H40.3663V16.004H47.5343V17.334L43.7543 26H41.5423Z" fill="#8A8A8A"/>
<path d="M54.426 17.432L51.234 26H50.202L53.394 17.432H54.426ZM60.0429 26V21.224C60.0429 20.8 59.9389 20.484 59.7309 20.276C59.5309 20.06 59.2269 19.952 58.8189 19.952H55.1829L55.3269 18.836H58.9029C59.7189 18.836 60.3349 19.036 60.7509 19.436C61.1749 19.828 61.3869 20.412 61.3869 21.188V26H60.0429ZM55.3509 26V22.004L56.6949 21.908V26H55.3509ZM63.4648 22.892V18.836H64.8088V22.892H63.4648ZM62.4208 19.952L62.5648 18.836H64.2328V19.952H62.4208ZM67.1445 22.892V18.836H68.4885V22.892H67.1445ZM66.1005 19.952L66.2445 18.836H67.9125V19.952H66.1005ZM71.0402 18.836H75.3242L75.2042 19.664L73.0562 26H71.6642L73.7522 19.952H69.6962V17.024L71.0402 16.88V18.836ZM76.1664 26.432L76.1544 25.328L78.7344 24.776C79.0624 24.696 79.3584 24.588 79.6224 24.452C79.8864 24.308 80.1104 24.096 80.2944 23.816C80.4864 23.536 80.6424 23.156 80.7624 22.676C80.8824 22.188 80.9624 21.564 81.0024 20.804L81.1344 18.836H82.4784L82.3464 20.816C82.3144 21.424 82.2544 21.972 82.1664 22.46C82.0784 22.94 81.9464 23.368 81.7704 23.744C81.6024 24.12 81.3824 24.448 81.1104 24.728C80.8384 25 80.5064 25.232 80.1144 25.424C79.7304 25.616 79.2744 25.768 78.7464 25.88L76.1664 26.432ZM77.9904 25.436L76.5024 18.932L77.8104 18.764L78.9264 23.636C78.9664 23.828 78.9744 24.032 78.9504 24.248C78.9344 24.456 78.8864 24.664 78.8064 24.872C78.7344 25.072 78.6344 25.26 78.5064 25.436H77.9904Z" fill="#8A8A8A"/>
<path d="M127.348 26V20.568C127.348 20.148 127.245 19.8353 127.04 19.63C126.835 19.4153 126.536 19.308 126.144 19.308H122.238V17.558H126.256C127.32 17.558 128.123 17.81 128.664 18.314C129.205 18.8087 129.476 19.546 129.476 20.526V26H127.348ZM120.74 26L120.964 24.25H121.468C121.645 24.25 121.79 24.2173 121.902 24.152C122.014 24.0773 122.098 23.97 122.154 23.83C122.21 23.69 122.238 23.5173 122.238 23.312V17.964H124.366V23.256C124.366 24.152 124.156 24.8333 123.736 25.3C123.325 25.7667 122.714 26 121.902 26H120.74ZM120.95 19.308L121.188 17.558H123.428V19.308H120.95ZM132.006 26V17.558H134.134V26H132.006ZM130.858 19.308L131.096 17.558H133.406V19.308H130.858ZM139.662 26V20.568C139.662 20.148 139.559 19.8353 139.354 19.63C139.149 19.4153 138.85 19.308 138.458 19.308H135.602L135.826 17.558H138.57C139.634 17.558 140.437 17.81 140.978 18.314C141.519 18.8087 141.79 19.546 141.79 20.526V26H139.662ZM144.05 22.444V17.558H146.178V22.444H144.05ZM142.902 19.308L143.14 17.558H145.24V19.308H142.902ZM147.509 26V24.25H150.001C150.617 24.25 151.07 24.04 151.359 23.62C151.658 23.2 151.807 22.612 151.807 21.856C151.807 21.044 151.658 20.4187 151.359 19.98C151.07 19.532 150.617 19.308 150.001 19.308H147.509L147.733 17.558H150.001C151.298 17.558 152.283 17.936 152.955 18.692C153.636 19.4387 153.977 20.4933 153.977 21.856C153.977 23.172 153.636 24.194 152.955 24.922C152.283 25.6407 151.298 26 150.001 26H147.509ZM154.884 26L155.822 21.044L154.646 17.558H156.774L157.306 19.476H157.362C157.493 19.14 157.642 18.846 157.81 18.594C157.978 18.3327 158.179 18.118 158.412 17.95C158.645 17.7727 158.911 17.642 159.21 17.558C159.518 17.4647 159.873 17.418 160.274 17.418C160.937 17.418 161.515 17.5813 162.01 17.908C162.514 18.2253 162.906 18.692 163.186 19.308C163.475 19.9147 163.62 20.652 163.62 21.52V21.716C163.62 22.5653 163.466 23.312 163.158 23.956C162.859 24.6 162.421 25.104 161.842 25.468C161.263 25.8227 160.563 26 159.742 26H158.398L158.65 24.25H159.644C160.223 24.25 160.675 24.012 161.002 23.536C161.329 23.06 161.492 22.4533 161.492 21.716V21.52C161.492 21.016 161.417 20.5913 161.268 20.246C161.119 19.9007 160.918 19.644 160.666 19.476C160.423 19.2987 160.148 19.21 159.84 19.21C159.504 19.21 159.224 19.2613 159 19.364C158.776 19.4573 158.589 19.602 158.44 19.798C158.3 19.994 158.183 20.2273 158.09 20.498C157.997 20.7687 157.927 21.072 157.88 21.408L157.082 26H154.884Z" fill="#858585"/>
<path d="M0 157.844C22.0078 157.844 24.8192 139.541 46.827 139.541C68.8348 139.541 65.1863 145 87.1941 145C109.202 145 108.781 125.559 130.789 125.559C152.797 125.559 153.992 135.92 176 135.92" stroke="#C69F7C" stroke-opacity="0.15" stroke-width="20" stroke-linecap="round"/>
<path d="M0 157.844C22.0078 157.844 24.8192 139.541 46.827 139.541C68.8348 139.541 65.1863 145 87.1941 145C109.202 145 108.781 125.559 130.789 125.559C152.797 125.559 153.992 135.92 176 135.92" stroke="#C7A77F" stroke-width="6" stroke-linecap="round" stroke-linejoin="round"/>
<path d="M0 168C22.6255 168 19.9521 126 42.5776 126C65.203 126 62.5255 137.2 85.1509 137.2C107.776 137.2 104.291 155.6 126.917 155.6C149.542 155.6 153.375 165.052 176 165.052" stroke="#6AC4DC" stroke-width="6" stroke-linecap="round"/>
</g>
<defs>
<clipPath id="clip0_1151_25009">
<rect width="176" height="176" fill="white"/>
</clipPath>
</defs>
</svg>
