<svg width="177" height="176" viewBox="0 0 177 176" fill="none" xmlns="http://www.w3.org/2000/svg">
<rect x="0.5" width="176" height="176" rx="4" fill="#FAFAFA"/>
<mask id="path-2-outside-1_1366_24330" maskUnits="userSpaceOnUse" x="10.5" y="10.5" width="20" height="20" fill="black">
<rect fill="white" x="10.5" y="10.5" width="20" height="20"/>
<path d="M28.5 20.5C28.5 24.9183 24.9183 28.5 20.5 28.5C16.0817 28.5 12.5 24.9183 12.5 20.5C12.5 16.0817 16.0817 12.5 20.5 12.5C24.9183 12.5 28.5 16.0817 28.5 20.5ZM16.02 20.5C16.02 22.9742 18.0258 24.98 20.5 24.98C22.9742 24.98 24.98 22.9742 24.98 20.5C24.98 18.0258 22.9742 16.02 20.5 16.02C18.0258 16.02 16.02 18.0258 16.02 20.5Z"/>
</mask>
<path d="M28.5 20.5C28.5 24.9183 24.9183 28.5 20.5 28.5C16.0817 28.5 12.5 24.9183 12.5 20.5C12.5 16.0817 16.0817 12.5 20.5 12.5C24.9183 12.5 28.5 16.0817 28.5 20.5ZM16.02 20.5C16.02 22.9742 18.0258 24.98 20.5 24.98C22.9742 24.98 24.98 22.9742 24.98 20.5C24.98 18.0258 22.9742 16.02 20.5 16.02C18.0258 16.02 16.02 18.0258 16.02 20.5Z" fill="#C7A77F" fill-opacity="0.3"/>
<path d="M28.5 20.5C28.5 24.9183 24.9183 28.5 20.5 28.5C16.0817 28.5 12.5 24.9183 12.5 20.5C12.5 16.0817 16.0817 12.5 20.5 12.5C24.9183 12.5 28.5 16.0817 28.5 20.5ZM16.02 20.5C16.02 22.9742 18.0258 24.98 20.5 24.98C22.9742 24.98 24.98 22.9742 24.98 20.5C24.98 18.0258 22.9742 16.02 20.5 16.02C18.0258 16.02 16.02 18.0258 16.02 20.5Z" stroke="#C7A77F" stroke-opacity="0.3" stroke-width="4" mask="url(#path-2-outside-1_1366_24330)"/>
<path d="M26.74 20.5C27.712 20.5 28.5193 19.7027 28.3072 18.7541C28.0537 17.6207 27.5548 16.5489 26.8374 15.6176C25.7594 14.2184 24.2486 13.2152 22.5406 12.7646C20.8327 12.3141 19.0236 12.4414 17.3957 13.1269C15.7677 13.8123 14.4124 15.0172 13.541 16.5537C12.6697 18.0903 12.3314 19.8719 12.5789 21.6209C12.8264 23.3698 13.6458 24.9877 14.9092 26.2221C16.1726 27.4566 17.8091 28.2382 19.5633 28.445C20.7307 28.5826 21.9066 28.4605 23.0095 28.0962C23.9325 27.7913 24.2023 26.6892 23.7033 25.8551C23.2043 25.0209 22.1144 24.7906 21.1527 24.9322C20.7652 24.9893 20.3695 24.9956 19.9755 24.9492C18.9931 24.8334 18.0767 24.3957 17.3691 23.7044C16.6616 23.0131 16.2028 22.1071 16.0642 21.1277C15.9256 20.1483 16.115 19.1505 16.603 18.2901C17.0909 17.4296 17.8499 16.7549 18.7616 16.371C19.6732 15.9872 20.6863 15.9159 21.6428 16.1682C22.5992 16.4205 23.4453 16.9823 24.0489 17.7659C24.2911 18.0802 24.4888 18.4231 24.6387 18.7849C25.0108 19.6829 25.768 20.5 26.74 20.5Z" fill="#C7A77F"/>
<path d="M37.8614 15.378C38.4401 15.378 38.9674 15.4667 39.4434 15.644C39.9288 15.8213 40.3161 16.0873 40.6054 16.442C40.9041 16.7967 41.0534 17.2447 41.0534 17.786C41.0534 18.3833 40.8808 18.878 40.5354 19.27C40.1994 19.6527 39.7748 19.97 39.2614 20.222C39.6161 20.4087 39.9521 20.628 40.2694 20.88C40.5961 21.1227 40.8574 21.412 41.0534 21.748C41.2588 22.0747 41.3614 22.462 41.3614 22.91C41.3614 23.4607 41.2121 23.9413 40.9134 24.352C40.6241 24.7627 40.2134 25.08 39.6814 25.304C39.1588 25.528 38.5521 25.64 37.8614 25.64C36.7414 25.64 35.8734 25.402 35.2574 24.926C34.6508 24.45 34.3474 23.7967 34.3474 22.966C34.3474 22.2753 34.5341 21.72 34.9074 21.3C35.2808 20.88 35.7334 20.5393 36.2654 20.278C35.8174 19.998 35.4348 19.662 35.1174 19.27C34.8094 18.8687 34.6554 18.3693 34.6554 17.772C34.6554 17.24 34.8048 16.7967 35.1034 16.442C35.4021 16.0873 35.7941 15.8213 36.2794 15.644C36.7741 15.4667 37.3014 15.378 37.8614 15.378ZM37.8474 16.918C37.5021 16.918 37.2128 17.0067 36.9794 17.184C36.7554 17.3613 36.6434 17.6133 36.6434 17.94C36.6434 18.2853 36.7648 18.5653 37.0074 18.78C37.2501 18.9947 37.5348 19.1813 37.8614 19.34C38.1788 19.1907 38.4588 19.0133 38.7014 18.808C38.9441 18.5933 39.0654 18.304 39.0654 17.94C39.0654 17.6133 38.9488 17.3613 38.7154 17.184C38.4914 17.0067 38.2021 16.918 37.8474 16.918ZM36.3074 22.84C36.3074 23.204 36.4334 23.5027 36.6854 23.736C36.9468 23.9693 37.3294 24.086 37.8334 24.086C38.3561 24.086 38.7481 23.974 39.0094 23.75C39.2708 23.526 39.4014 23.2273 39.4014 22.854C39.4014 22.602 39.3268 22.3827 39.1774 22.196C39.0281 22 38.8414 21.8273 38.6174 21.678C38.4028 21.5193 38.1788 21.3747 37.9454 21.244L37.7634 21.146C37.3341 21.3513 36.9841 21.5893 36.7134 21.86C36.4428 22.1307 36.3074 22.4573 36.3074 22.84ZM49.0231 17.744C49.0231 18.4347 48.8131 18.9853 48.3931 19.396C47.9825 19.8067 47.4738 20.0867 46.8671 20.236V20.278C47.6698 20.3713 48.2765 20.614 48.6871 21.006C49.1071 21.398 49.3171 21.9253 49.3171 22.588C49.3171 23.1667 49.1725 23.6893 48.8831 24.156C48.6031 24.6133 48.1645 24.9773 47.5671 25.248C46.9791 25.5093 46.2185 25.64 45.2851 25.64C44.2025 25.64 43.2411 25.458 42.4011 25.094V23.302C42.8305 23.5167 43.2785 23.68 43.7451 23.792C44.2211 23.904 44.6598 23.96 45.0611 23.96C45.8171 23.96 46.3445 23.8293 46.6431 23.568C46.9511 23.3067 47.1051 22.938 47.1051 22.462C47.1051 22.182 47.0351 21.9487 46.8951 21.762C46.7551 21.566 46.5078 21.4213 46.1531 21.328C45.8078 21.2253 45.3225 21.174 44.6971 21.174H43.9411V19.55H44.7111C45.3271 19.55 45.7938 19.494 46.1111 19.382C46.4378 19.2607 46.6571 19.102 46.7691 18.906C46.8905 18.7007 46.9511 18.4673 46.9511 18.206C46.9511 17.8513 46.8391 17.576 46.6151 17.38C46.4005 17.1747 46.0365 17.072 45.5231 17.072C45.0471 17.072 44.6318 17.156 44.2771 17.324C43.9318 17.4827 43.6378 17.6413 43.3951 17.8L42.4151 16.344C42.8071 16.064 43.2645 15.8307 43.7871 15.644C44.3191 15.4573 44.9491 15.364 45.6771 15.364C46.7038 15.364 47.5158 15.574 48.1131 15.994C48.7198 16.4047 49.0231 16.988 49.0231 17.744ZM52.6669 15.364C53.4509 15.364 54.0435 15.6393 54.4449 16.19C54.8555 16.7313 55.0609 17.4967 55.0609 18.486C55.0609 19.4753 54.8695 20.25 54.4869 20.81C54.1042 21.3607 53.4975 21.636 52.6669 21.636C51.9015 21.636 51.3182 21.3607 50.9169 20.81C50.5155 20.25 50.3149 19.4753 50.3149 18.486C50.3149 17.4967 50.5015 16.7313 50.8749 16.19C51.2482 15.6393 51.8455 15.364 52.6669 15.364ZM59.7649 15.504L54.2209 25.5H52.5829L58.1269 15.504H59.7649ZM52.6809 16.792C52.2515 16.792 52.0369 17.3613 52.0369 18.5C52.0369 19.648 52.2515 20.222 52.6809 20.222C53.1195 20.222 53.3389 19.648 53.3389 18.5C53.3389 17.3613 53.1195 16.792 52.6809 16.792ZM59.6669 19.354C60.4509 19.354 61.0435 19.6293 61.4449 20.18C61.8555 20.7213 62.0609 21.4867 62.0609 22.476C62.0609 23.4653 61.8695 24.24 61.4869 24.8C61.1042 25.3507 60.4975 25.626 59.6669 25.626C58.9015 25.626 58.3182 25.3507 57.9169 24.8C57.5155 24.24 57.3149 23.4653 57.3149 22.476C57.3149 21.4867 57.5015 20.7213 57.8749 20.18C58.2482 19.6293 58.8455 19.354 59.6669 19.354ZM59.6809 20.782C59.2515 20.782 59.0369 21.3513 59.0369 22.49C59.0369 23.638 59.2515 24.212 59.6809 24.212C60.1195 24.212 60.3389 23.638 60.3389 22.49C60.3389 21.3513 60.1195 20.782 59.6809 20.782Z" fill="#8A8A8A"/>
<path d="M69.8049 16.932L66.6129 25.5H65.5809L68.7729 16.932H69.8049ZM74.1858 25.5H73.1538V19.512C73.1538 19.168 73.1578 18.892 73.1658 18.684C73.1738 18.476 73.1858 18.26 73.2018 18.036C73.0738 18.164 72.9578 18.272 72.8538 18.36C72.7498 18.448 72.6178 18.56 72.4578 18.696L71.5458 19.44L70.9938 18.732L73.3098 16.932H74.1858V25.5ZM83.069 21.204C83.069 22.124 82.973 22.916 82.781 23.58C82.589 24.236 82.285 24.74 81.869 25.092C81.453 25.444 80.901 25.62 80.213 25.62C79.245 25.62 78.529 25.232 78.065 24.456C77.609 23.672 77.381 22.588 77.381 21.204C77.381 20.276 77.473 19.484 77.657 18.828C77.849 18.172 78.153 17.672 78.569 17.328C78.985 16.976 79.533 16.8 80.213 16.8C81.173 16.8 81.889 17.188 82.361 17.964C82.833 18.732 83.069 19.812 83.069 21.204ZM78.437 21.204C78.437 22.38 78.569 23.26 78.833 23.844C79.105 24.428 79.565 24.72 80.213 24.72C80.853 24.72 81.309 24.432 81.581 23.856C81.861 23.272 82.001 22.388 82.001 21.204C82.001 20.036 81.861 19.16 81.581 18.576C81.309 17.992 80.853 17.7 80.213 17.7C79.565 17.7 79.105 17.992 78.833 18.576C78.569 19.16 78.437 20.036 78.437 21.204ZM89.9362 21.204C89.9362 22.124 89.8402 22.916 89.6482 23.58C89.4562 24.236 89.1522 24.74 88.7362 25.092C88.3202 25.444 87.7682 25.62 87.0802 25.62C86.1122 25.62 85.3962 25.232 84.9322 24.456C84.4762 23.672 84.2482 22.588 84.2482 21.204C84.2482 20.276 84.3402 19.484 84.5242 18.828C84.7162 18.172 85.0202 17.672 85.4362 17.328C85.8522 16.976 86.4002 16.8 87.0802 16.8C88.0402 16.8 88.7562 17.188 89.2282 17.964C89.7002 18.732 89.9362 19.812 89.9362 21.204ZM85.3042 21.204C85.3042 22.38 85.4362 23.26 85.7002 23.844C85.9722 24.428 86.4322 24.72 87.0802 24.72C87.7202 24.72 88.1762 24.432 88.4482 23.856C88.7282 23.272 88.8682 22.388 88.8682 21.204C88.8682 20.036 88.7282 19.16 88.4482 18.576C88.1762 17.992 87.7202 17.7 87.0802 17.7C86.4322 17.7 85.9722 17.992 85.7002 18.576C85.4362 19.16 85.3042 20.036 85.3042 21.204ZM92.8673 16.812C93.4593 16.812 93.9073 17.048 94.2113 17.52C94.5153 17.984 94.6673 18.64 94.6673 19.488C94.6673 20.336 94.5193 21 94.2233 21.48C93.9353 21.952 93.4833 22.188 92.8673 22.188C92.2993 22.188 91.8633 21.952 91.5593 21.48C91.2633 21 91.1153 20.336 91.1153 19.488C91.1153 18.64 91.2553 17.984 91.5353 17.52C91.8153 17.048 92.2593 16.812 92.8673 16.812ZM98.3513 16.932L93.5993 25.5H92.6753L97.4273 16.932H98.3513ZM92.8673 17.556C92.5633 17.556 92.3393 17.72 92.1953 18.048C92.0593 18.368 91.9913 18.848 91.9913 19.488C91.9913 20.128 92.0593 20.612 92.1953 20.94C92.3393 21.268 92.5633 21.432 92.8673 21.432C93.4833 21.432 93.7913 20.784 93.7913 19.488C93.7913 18.2 93.4833 17.556 92.8673 17.556ZM98.1113 20.244C98.6953 20.244 99.1393 20.48 99.4433 20.952C99.7553 21.416 99.9113 22.072 99.9113 22.92C99.9113 23.768 99.7633 24.432 99.4673 24.912C99.1793 25.384 98.7273 25.62 98.1113 25.62C97.5433 25.62 97.1073 25.384 96.8033 24.912C96.5073 24.432 96.3593 23.768 96.3593 22.92C96.3593 22.072 96.4993 21.416 96.7793 20.952C97.0593 20.48 97.5033 20.244 98.1113 20.244ZM98.1113 21C97.8073 21 97.5833 21.16 97.4393 21.48C97.3033 21.8 97.2353 22.28 97.2353 22.92C97.2353 23.568 97.3033 24.056 97.4393 24.384C97.5833 24.704 97.8073 24.864 98.1113 24.864C98.7273 24.864 99.0353 24.216 99.0353 22.92C99.0353 21.64 98.7273 21 98.1113 21Z" fill="#8A8A8A"/>
<path d="M137.595 25.57L137.203 23.764H137.049C136.89 24.0813 136.732 24.352 136.573 24.576C136.424 24.8 136.256 24.982 136.069 25.122C135.892 25.2527 135.691 25.3507 135.467 25.416C135.243 25.472 134.977 25.5 134.669 25.5H134.333V23.708H134.669C134.94 23.6987 135.192 23.6567 135.425 23.582C135.658 23.5073 135.868 23.4093 136.055 23.288C136.251 23.1667 136.419 23.0407 136.559 22.91C136.699 22.77 136.806 22.6393 136.881 22.518V19.732C136.881 19.3867 136.797 19.1487 136.629 19.018C136.47 18.8873 136.195 18.822 135.803 18.822H134.977L135.201 17.058H136.377C136.984 17.058 137.478 17.156 137.861 17.352C138.253 17.5387 138.542 17.814 138.729 18.178C138.916 18.542 139.009 18.99 139.009 19.522V23.036L139.485 25.234L137.595 25.57ZM141.461 25.5V17.058H143.589V25.5H141.461ZM140.313 18.808L140.551 17.058H142.861V18.808H140.313ZM149.117 25.5V20.068C149.117 19.648 149.014 19.3353 148.809 19.13C148.604 18.9153 148.305 18.808 147.913 18.808H145.057L145.281 17.058H148.025C149.089 17.058 149.892 17.31 150.433 17.814C150.974 18.3087 151.245 19.046 151.245 20.026V25.5H149.117ZM153.506 21.944V17.058H155.634V21.944H153.506ZM152.358 18.808L152.596 17.058H154.696V18.808H152.358ZM157.006 18.808V17.058H164.202L163.964 18.808H157.006ZM160.674 25.5V20.194C160.674 20.0633 160.693 19.9093 160.73 19.732C160.767 19.5453 160.833 19.368 160.926 19.2C161.029 19.032 161.169 18.9013 161.346 18.808H163.04C162.928 18.892 162.858 19.0087 162.83 19.158C162.811 19.3073 162.802 19.4847 162.802 19.69V25.5H160.674Z" fill="#858585"/>
<path d="M149.745 102.123C149.745 135.88 122.38 163.245 88.6227 163.245C54.8656 163.245 27.5 135.88 27.5 102.123C27.5 68.3656 54.8656 41 88.6227 41C122.38 41 149.745 68.3656 149.745 102.123ZM45.8368 102.123C45.8368 125.753 64.9927 144.909 88.6227 144.909C112.253 144.909 131.409 125.753 131.409 102.123C131.409 78.4927 112.253 59.3368 88.6227 59.3368C64.9927 59.3368 45.8368 78.4927 45.8368 102.123Z" fill="#EEEEEE"/>
<path d="M140.577 102.878C145.641 102.878 149.816 107.005 149.059 112.012C147.934 119.455 145.439 126.654 141.675 133.234C136.386 142.477 128.774 150.177 119.593 155.573C110.412 160.969 99.9813 163.872 89.333 163.996C78.6847 164.12 68.1889 161.46 58.8852 156.279C49.5815 151.098 41.7928 143.576 36.2907 134.458C30.7886 125.341 27.764 114.944 27.5165 104.298C27.269 93.652 29.8073 83.1259 34.8798 73.7626C38.4907 67.0972 43.2967 61.1857 49.0322 56.3096C52.89 53.0298 58.5975 54.4057 61.2639 58.7103C63.9304 63.015 62.5116 68.6068 58.8725 72.1277C55.7484 75.1502 53.0902 78.6437 51.0027 82.4971C47.4519 89.0514 45.6751 96.4196 45.8484 103.872C46.0216 111.324 48.1388 118.602 51.9903 124.984C55.8418 131.366 61.2939 136.632 67.8064 140.258C74.319 143.885 81.6661 145.747 89.1199 145.661C96.5737 145.574 103.876 143.541 110.302 139.764C116.729 135.987 122.057 130.597 125.759 124.127C127.936 120.323 129.506 116.224 130.43 111.976C131.507 107.028 135.513 102.878 140.577 102.878Z" fill="url(#paint0_linear_1366_24330)"/>
<path d="M83.9471 100.968H81.0231V106H76.0251V100.968H65.6551V97.398L76.2971 81.724H81.0231V96.99H83.9471V100.968ZM76.0251 92.876C76.0251 92.4907 76.0251 92.0373 76.0251 91.516C76.0478 90.972 76.0705 90.4393 76.0931 89.918C76.1158 89.374 76.1385 88.898 76.1611 88.49C76.1838 88.0593 76.2065 87.7647 76.2291 87.606H76.0931C75.8891 88.0593 75.6738 88.5013 75.4471 88.932C75.2205 89.3627 74.9485 89.8047 74.6311 90.258L70.1771 96.99H76.0251V92.876ZM85.4522 103.62C85.4522 102.577 85.7355 101.852 86.3022 101.444C86.8688 101.013 87.5602 100.798 88.3762 100.798C89.1695 100.798 89.8495 101.013 90.4162 101.444C90.9828 101.852 91.2662 102.577 91.2662 103.62C91.2662 104.617 90.9828 105.343 90.4162 105.796C89.8495 106.227 89.1695 106.442 88.3762 106.442C87.5602 106.442 86.8688 106.227 86.3022 105.796C85.7355 105.343 85.4522 104.617 85.4522 103.62ZM93.3795 95.698C93.3795 94.2927 93.4815 92.91 93.6855 91.55C93.8895 90.19 94.2408 88.9093 94.7395 87.708C95.2608 86.484 95.9748 85.4073 96.8815 84.478C97.8108 83.526 98.9781 82.7893 100.383 82.268C101.811 81.724 103.534 81.452 105.551 81.452C106.027 81.452 106.583 81.4747 107.217 81.52C107.852 81.5427 108.385 81.5993 108.815 81.69V85.804C108.385 85.6907 107.909 85.6113 107.387 85.566C106.889 85.498 106.39 85.464 105.891 85.464C104.373 85.464 103.115 85.6453 102.117 86.008C101.143 86.3707 100.372 86.892 99.8055 87.572C99.2388 88.252 98.8195 89.0567 98.5475 89.986C98.2981 90.8927 98.1508 91.9127 98.1055 93.046H98.3095C98.6268 92.502 99.0121 92.026 99.4655 91.618C99.9415 91.1873 100.519 90.8473 101.199 90.598C101.879 90.3487 102.673 90.224 103.579 90.224C105.007 90.224 106.231 90.53 107.251 91.142C108.294 91.7313 109.099 92.604 109.665 93.76C110.232 94.8933 110.515 96.276 110.515 97.908C110.515 99.6533 110.175 101.161 109.495 102.43C108.838 103.699 107.886 104.674 106.639 105.354C105.415 106.011 103.953 106.34 102.253 106.34C101.007 106.34 99.8395 106.125 98.7515 105.694C97.6861 105.263 96.7455 104.617 95.9295 103.756C95.1361 102.872 94.5128 101.761 94.0595 100.424C93.6061 99.0867 93.3795 97.5113 93.3795 95.698ZM102.151 102.226C103.149 102.226 103.965 101.886 104.599 101.206C105.234 100.503 105.551 99.4267 105.551 97.976C105.551 96.7973 105.279 95.868 104.735 95.188C104.191 94.508 103.364 94.168 102.253 94.168C101.505 94.168 100.848 94.338 100.281 94.678C99.7148 94.9953 99.2728 95.4147 98.9555 95.936C98.6381 96.4573 98.4795 96.99 98.4795 97.534C98.4795 98.1007 98.5588 98.6673 98.7175 99.234C98.8761 99.778 99.1028 100.277 99.3975 100.73C99.7148 101.183 100.1 101.546 100.553 101.818C101.007 102.09 101.539 102.226 102.151 102.226Z" fill="#111111"/>
<path d="M68.5611 120.532V118.782L71.9071 118.11C72.2431 118.035 72.5371 117.928 72.7891 117.788C73.0504 117.639 73.2744 117.419 73.4611 117.13C73.6478 116.841 73.7971 116.453 73.9091 115.968C74.0304 115.473 74.1191 114.839 74.1751 114.064L74.3431 111.558H76.4711L76.2891 114.134C76.2518 114.703 76.1864 115.245 76.0931 115.758C76.0091 116.262 75.8691 116.733 75.6731 117.172C75.4864 117.611 75.2344 118.007 74.9171 118.362C74.5998 118.717 74.1938 119.02 73.6991 119.272C73.2044 119.524 72.6071 119.72 71.9071 119.86L68.5611 120.532ZM70.5631 119.202L68.9811 111.698L71.0671 111.446L72.1031 116.584C72.1684 116.883 72.1824 117.191 72.1451 117.508C72.1078 117.816 72.0191 118.119 71.8791 118.418C71.7484 118.707 71.5758 118.969 71.3611 119.202H70.5631ZM82.6855 119.972L77.3375 111.558H79.8295L81.9855 115.212L84.2815 118.754L82.6855 119.972ZM77.5335 120V118.25H83.6515L84.2815 118.754L84.0855 120H77.5335ZM81.8315 116.654L81.2295 115.268C81.4815 115.193 81.6821 115.072 81.8315 114.904C81.9808 114.736 82.0975 114.54 82.1815 114.316C82.2655 114.092 82.3261 113.868 82.3635 113.644C82.4101 113.411 82.4475 113.191 82.4755 112.986L82.6435 111.558H84.7715L84.6035 113.154C84.5661 113.481 84.4915 113.821 84.3795 114.176C84.2675 114.531 84.1041 114.871 83.8895 115.198C83.6841 115.525 83.4088 115.819 83.0635 116.08C82.7275 116.332 82.3168 116.523 81.8315 116.654ZM86.8966 120V111.558H89.0246V120H86.8966ZM85.7486 113.308L85.9866 111.558H88.2966V113.308H85.7486ZM90.6891 120L91.6271 115.044L90.4511 111.558H92.5791L93.1111 113.476H93.1671C93.2978 113.14 93.4471 112.846 93.6151 112.594C93.7831 112.333 93.9838 112.118 94.2171 111.95C94.4504 111.773 94.7164 111.642 95.0151 111.558C95.3231 111.465 95.6778 111.418 96.0791 111.418C96.7418 111.418 97.3204 111.581 97.8151 111.908C98.3191 112.225 98.7111 112.692 98.9911 113.308C99.2804 113.915 99.4251 114.652 99.4251 115.52V115.716C99.4251 116.565 99.2711 117.312 98.9631 117.956C98.6644 118.6 98.2258 119.104 97.6471 119.468C97.0684 119.823 96.3684 120 95.5471 120H94.2031L94.4551 118.25H95.4491C96.0278 118.25 96.4804 118.012 96.8071 117.536C97.1338 117.06 97.2971 116.453 97.2971 115.716V115.52C97.2971 115.016 97.2224 114.591 97.0731 114.246C96.9238 113.901 96.7231 113.644 96.4711 113.476C96.2284 113.299 95.9531 113.21 95.6451 113.21C95.3091 113.21 95.0291 113.261 94.8051 113.364C94.5811 113.457 94.3944 113.602 94.2451 113.798C94.1051 113.994 93.9884 114.227 93.8951 114.498C93.8018 114.769 93.7318 115.072 93.6851 115.408L92.8871 120H90.6891ZM100.246 120L101.184 115.044L100.008 111.558H102.136L102.668 113.476H102.724C102.854 113.14 103.004 112.846 103.172 112.594C103.34 112.333 103.54 112.118 103.774 111.95C104.007 111.773 104.273 111.642 104.572 111.558C104.88 111.465 105.234 111.418 105.636 111.418C106.298 111.418 106.877 111.581 107.372 111.908C107.876 112.225 108.268 112.692 108.548 113.308C108.837 113.915 108.982 114.652 108.982 115.52V115.716C108.982 116.565 108.828 117.312 108.52 117.956C108.221 118.6 107.782 119.104 107.204 119.468C106.625 119.823 105.925 120 105.104 120H103.76L104.012 118.25H105.006C105.584 118.25 106.037 118.012 106.364 117.536C106.69 117.06 106.854 116.453 106.854 115.716V115.52C106.854 115.016 106.779 114.591 106.63 114.246C106.48 113.901 106.28 113.644 106.028 113.476C105.785 113.299 105.51 113.21 105.202 113.21C104.866 113.21 104.586 113.261 104.362 113.364C104.138 113.457 103.951 113.602 103.802 113.798C103.662 113.994 103.545 114.227 103.452 114.498C103.358 114.769 103.288 115.072 103.242 115.408L102.444 120H100.246Z" fill="black"/>
<defs>
<linearGradient id="paint0_linear_1366_24330" x1="27.5" y1="102.878" x2="149.745" y2="102.878" gradientUnits="userSpaceOnUse">
<stop stop-color="#8F6B45"/>
<stop offset="1" stop-color="#C7A77F"/>
</linearGradient>
</defs>
</svg>
