<svg width="177" height="176" viewBox="0 0 177 176" fill="none" xmlns="http://www.w3.org/2000/svg">
<g clip-path="url(#clip0_1366_24312)">
<rect x="0.5" width="176" height="176" rx="4" fill="#FAFAFA"/>
<path d="M87.427 55.164C87.427 56.2747 87.189 57.238 86.713 58.054C86.2596 58.87 85.6363 59.5387 84.843 60.06C84.0723 60.5813 83.1883 60.9667 82.191 61.216V61.318C84.1403 61.5447 85.6136 62.134 86.611 63.086C87.631 64.038 88.141 65.3187 88.141 66.928C88.141 68.3333 87.7896 69.6027 87.087 70.736C86.407 71.8467 85.3416 72.7307 83.891 73.388C82.463 74.0227 80.6156 74.34 78.349 74.34C77.0116 74.34 75.765 74.2267 74.609 74C73.453 73.7733 72.365 73.4447 71.345 73.014V68.662C72.3876 69.1833 73.4756 69.58 74.609 69.852C75.765 70.124 76.8303 70.26 77.805 70.26C79.641 70.26 80.9216 69.9427 81.647 69.308C82.395 68.6733 82.769 67.778 82.769 66.622C82.769 65.942 82.599 65.3753 82.259 64.922C81.919 64.446 81.3183 64.0947 80.457 63.868C79.6183 63.6187 78.4396 63.494 76.921 63.494H75.085V59.55H76.955C78.451 59.55 79.5843 59.414 80.355 59.142C81.1483 58.8473 81.681 58.462 81.953 57.986C82.2476 57.4873 82.395 56.9207 82.395 56.286C82.395 55.4247 82.123 54.756 81.579 54.28C81.0576 53.7813 80.1736 53.532 78.927 53.532C78.1563 53.532 77.4536 53.634 76.819 53.838C76.1843 54.0193 75.6063 54.246 75.085 54.518C74.5863 54.79 74.1443 55.0507 73.759 55.3L71.379 51.764C72.0136 51.3107 72.7163 50.9027 73.487 50.54C74.2803 50.1773 75.153 49.894 76.105 49.69C77.057 49.486 78.1223 49.384 79.301 49.384C81.7943 49.384 83.7663 49.894 85.217 50.914C86.6903 51.9113 87.427 53.328 87.427 55.164ZM89.68 63.698C89.68 62.2927 89.782 60.91 89.986 59.55C90.19 58.19 90.5413 56.9093 91.04 55.708C91.5613 54.484 92.2753 53.4073 93.182 52.478C94.1113 51.526 95.2787 50.7893 96.684 50.268C98.112 49.724 99.8347 49.452 101.852 49.452C102.328 49.452 102.883 49.4747 103.518 49.52C104.153 49.5427 104.685 49.5993 105.116 49.69V53.804C104.685 53.6907 104.209 53.6113 103.688 53.566C103.189 53.498 102.691 53.464 102.192 53.464C100.673 53.464 99.4153 53.6453 98.418 54.008C97.4433 54.3707 96.6727 54.892 96.106 55.572C95.5393 56.252 95.12 57.0567 94.848 57.986C94.5987 58.8927 94.4513 59.9127 94.406 61.046H94.61C94.9273 60.502 95.3127 60.026 95.766 59.618C96.242 59.1873 96.82 58.8473 97.5 58.598C98.18 58.3487 98.9733 58.224 99.88 58.224C101.308 58.224 102.532 58.53 103.552 59.142C104.595 59.7313 105.399 60.604 105.966 61.76C106.533 62.8933 106.816 64.276 106.816 65.908C106.816 67.6533 106.476 69.1607 105.796 70.43C105.139 71.6993 104.187 72.674 102.94 73.354C101.716 74.0113 100.254 74.34 98.554 74.34C97.3073 74.34 96.14 74.1247 95.052 73.694C93.9867 73.2633 93.046 72.6173 92.23 71.756C91.4367 70.872 90.8133 69.7613 90.36 68.424C89.9067 67.0867 89.68 65.5113 89.68 63.698ZM98.452 70.226C99.4493 70.226 100.265 69.886 100.9 69.206C101.535 68.5033 101.852 67.4267 101.852 65.976C101.852 64.7973 101.58 63.868 101.036 63.188C100.492 62.508 99.6647 62.168 98.554 62.168C97.806 62.168 97.1487 62.338 96.582 62.678C96.0153 62.9953 95.5733 63.4147 95.256 63.936C94.9387 64.4573 94.78 64.99 94.78 65.534C94.78 66.1007 94.8593 66.6673 95.018 67.234C95.1767 67.778 95.4033 68.2767 95.698 68.73C96.0153 69.1833 96.4007 69.546 96.854 69.818C97.3073 70.09 97.84 70.226 98.452 70.226Z" fill="#111111"/>
<path d="M73.6143 96V94.25H76.1063C76.7223 94.25 77.175 94.04 77.4643 93.62C77.763 93.2 77.9123 92.612 77.9123 91.856C77.9123 91.044 77.763 90.4187 77.4643 89.98C77.175 89.532 76.7223 89.308 76.1063 89.308H73.6143L73.8383 87.558H76.1063C77.4037 87.558 78.3883 87.936 79.0603 88.692C79.7417 89.4387 80.0823 90.4933 80.0823 91.856C80.0823 93.172 79.7417 94.194 79.0603 94.922C78.3883 95.6407 77.4037 96 76.1063 96H73.6143ZM80.7308 91.408C80.8148 91.1093 80.8895 90.792 80.9548 90.456C81.0295 90.12 81.0995 89.784 81.1648 89.448C81.2302 89.1027 81.2862 88.7713 81.3328 88.454C81.3888 88.1273 81.4308 87.8287 81.4588 87.558H83.3068L83.3908 87.712C83.3068 88.0573 83.2042 88.454 83.0828 88.902C82.9615 89.3407 82.8308 89.784 82.6908 90.232C82.5508 90.68 82.4015 91.072 82.2428 91.408H80.7308ZM83.8388 91.408C83.9508 91.0067 84.0488 90.5773 84.1328 90.12C84.2262 89.6627 84.3102 89.2147 84.3848 88.776C84.4688 88.328 84.5295 87.922 84.5668 87.558H86.4148L86.4848 87.712C86.4102 88.0573 86.3122 88.454 86.1908 88.902C86.0695 89.3407 85.9388 89.784 85.7988 90.232C85.6588 90.68 85.5095 91.072 85.3508 91.408H83.8388ZM93.0415 96V90.568C93.0415 90.148 92.9342 89.8353 92.7195 89.63C92.5142 89.4153 92.2202 89.308 91.8375 89.308H87.4835L87.7215 87.558H91.9495C93.0135 87.558 93.8162 87.81 94.3575 88.314C94.8989 88.8087 95.1695 89.546 95.1695 90.526V96H93.0415ZM87.6655 96V91.45L89.7935 91.338V96H87.6655ZM100.884 96.126C99.5497 96.126 98.5464 95.79 97.8744 95.118C97.2117 94.4367 96.8804 93.4753 96.8804 92.234V92.108C96.8804 91.4547 96.9924 90.89 97.2164 90.414C97.4497 89.938 97.739 89.5973 98.0844 89.392V89.196L99.8904 89.154L99.8204 89.336C99.5217 89.4573 99.307 89.7233 99.1764 90.134C99.055 90.5447 98.9944 91.058 98.9944 91.674C98.9944 92.5607 99.139 93.242 99.4284 93.718C99.727 94.194 100.212 94.432 100.884 94.432C101.566 94.432 102.056 94.1753 102.354 93.662C102.653 93.1487 102.802 92.416 102.802 91.464C102.802 90.7733 102.686 90.2413 102.452 89.868C102.228 89.4947 101.813 89.308 101.206 89.308H96.5304L96.7544 87.558H101.22C102.49 87.558 103.423 87.8987 104.02 88.58C104.627 89.2613 104.93 90.2273 104.93 91.478C104.93 92.9527 104.59 94.096 103.908 94.908C103.236 95.72 102.228 96.126 100.884 96.126Z" fill="black"/>
<path d="M18.4563 17.9952L18.4563 27C18.4563 27.5523 18.904 28 19.4563 28L19.5437 28C20.096 28 20.5437 27.5523 20.5437 27L20.5437 17.9952L24.3171 21.7687C24.7076 22.1592 25.3408 22.1592 25.7313 21.7687L25.7929 21.7071C26.1834 21.3166 26.1834 20.6834 25.7929 20.2929L20.2071 14.7071C19.8166 14.3166 19.1834 14.3166 18.7929 14.7071L13.2071 20.2929C12.8166 20.6834 12.8166 21.3166 13.2071 21.7071L13.2687 21.7687C13.6592 22.1592 14.2924 22.1592 14.6829 21.7687L18.4563 17.9952Z" fill="#C7A77F"/>
<path d="M26.5 22.4142L26.5 22.4142C27.281 21.6332 27.281 20.3668 26.5 19.5858L20.9142 14C20.1332 13.2189 18.8668 13.219 18.0858 14L12.5 19.5858C11.719 20.3668 11.719 21.6332 12.5 22.4142L12.5616 22.4758C13.3426 23.2568 14.6089 23.2568 15.39 22.4758L17.4563 20.4094L17.4563 27C17.4563 28.1046 18.3517 29 19.4563 29L19.5437 29C20.6483 29 21.5437 28.1046 21.5437 27L21.5437 20.4094L23.61 22.4758C24.3911 23.2568 25.6574 23.2568 26.4384 22.4758C26.4384 22.4758 26.4384 22.4758 26.4384 22.4758L26.5 22.4142Z" stroke="#C69F7C" stroke-opacity="0.2" stroke-width="2"/>
<path d="M18.4563 17.9952L18.4563 27C18.4563 27.5523 18.904 28 19.4563 28L19.5437 28C20.096 28 20.5437 27.5523 20.5437 27L20.5437 17.9952L24.3171 21.7687C24.7076 22.1592 25.3408 22.1592 25.7313 21.7687L25.7929 21.7071C26.1834 21.3166 26.1834 20.6834 25.7929 20.2929L20.2071 14.7071C19.8166 14.3166 19.1834 14.3166 18.7929 14.7071L13.2071 20.2929C12.8166 20.6834 12.8166 21.3166 13.2071 21.7071L13.2687 21.7687C13.6592 22.1592 14.2924 22.1592 14.6829 21.7687L18.4563 17.9952Z" fill="#C7A77F"/>
<path d="M38.2586 26H36.1446V20.218C36.1446 19.9753 36.1492 19.658 36.1586 19.266C36.1772 18.874 36.1912 18.5287 36.2006 18.23C36.1539 18.286 36.0512 18.3887 35.8926 18.538C35.7432 18.678 35.6032 18.804 35.4726 18.916L34.3246 19.84L33.3026 18.566L36.5226 16.004H38.2586V26ZM42.0423 26L45.7943 17.782H40.8663V16.004H48.0343V17.334L44.2543 26H42.0423Z" fill="#8A8A8A"/>
<path d="M54.926 17.432L51.734 26H50.702L53.894 17.432H54.926ZM60.5429 26V21.224C60.5429 20.8 60.4389 20.484 60.2309 20.276C60.0309 20.06 59.7269 19.952 59.3189 19.952H55.6829L55.8269 18.836H59.4029C60.2189 18.836 60.8349 19.036 61.2509 19.436C61.6749 19.828 61.8869 20.412 61.8869 21.188V26H60.5429ZM55.8509 26V22.004L57.1949 21.908V26H55.8509ZM63.9648 22.892V18.836H65.3088V22.892H63.9648ZM62.9208 19.952L63.0648 18.836H64.7328V19.952H62.9208ZM67.6445 22.892V18.836H68.9885V22.892H67.6445ZM66.6005 19.952L66.7445 18.836H68.4125V19.952H66.6005ZM71.5402 18.836H75.8242L75.7042 19.664L73.5562 26H72.1642L74.2522 19.952H70.1962V17.024L71.5402 16.88V18.836ZM76.6664 26.432L76.6544 25.328L79.2344 24.776C79.5624 24.696 79.8584 24.588 80.1224 24.452C80.3864 24.308 80.6104 24.096 80.7944 23.816C80.9864 23.536 81.1424 23.156 81.2624 22.676C81.3824 22.188 81.4624 21.564 81.5024 20.804L81.6344 18.836H82.9784L82.8464 20.816C82.8144 21.424 82.7544 21.972 82.6664 22.46C82.5784 22.94 82.4464 23.368 82.2704 23.744C82.1024 24.12 81.8824 24.448 81.6104 24.728C81.3384 25 81.0064 25.232 80.6144 25.424C80.2304 25.616 79.7744 25.768 79.2464 25.88L76.6664 26.432ZM78.4904 25.436L77.0024 18.932L78.3104 18.764L79.4264 23.636C79.4664 23.828 79.4744 24.032 79.4504 24.248C79.4344 24.456 79.3864 24.664 79.3064 24.872C79.2344 25.072 79.1344 25.26 79.0064 25.436H78.4904Z" fill="#8A8A8A"/>
<path d="M127.848 26V20.568C127.848 20.148 127.745 19.8353 127.54 19.63C127.335 19.4153 127.036 19.308 126.644 19.308H122.738V17.558H126.756C127.82 17.558 128.623 17.81 129.164 18.314C129.705 18.8087 129.976 19.546 129.976 20.526V26H127.848ZM121.24 26L121.464 24.25H121.968C122.145 24.25 122.29 24.2173 122.402 24.152C122.514 24.0773 122.598 23.97 122.654 23.83C122.71 23.69 122.738 23.5173 122.738 23.312V17.964H124.866V23.256C124.866 24.152 124.656 24.8333 124.236 25.3C123.825 25.7667 123.214 26 122.402 26H121.24ZM121.45 19.308L121.688 17.558H123.928V19.308H121.45ZM132.506 26V17.558H134.634V26H132.506ZM131.358 19.308L131.596 17.558H133.906V19.308H131.358ZM140.162 26V20.568C140.162 20.148 140.059 19.8353 139.854 19.63C139.649 19.4153 139.35 19.308 138.958 19.308H136.102L136.326 17.558H139.07C140.134 17.558 140.937 17.81 141.478 18.314C142.019 18.8087 142.29 19.546 142.29 20.526V26H140.162ZM144.55 22.444V17.558H146.678V22.444H144.55ZM143.402 19.308L143.64 17.558H145.74V19.308H143.402ZM148.009 26V24.25H150.501C151.117 24.25 151.57 24.04 151.859 23.62C152.158 23.2 152.307 22.612 152.307 21.856C152.307 21.044 152.158 20.4187 151.859 19.98C151.57 19.532 151.117 19.308 150.501 19.308H148.009L148.233 17.558H150.501C151.798 17.558 152.783 17.936 153.455 18.692C154.136 19.4387 154.477 20.4933 154.477 21.856C154.477 23.172 154.136 24.194 153.455 24.922C152.783 25.6407 151.798 26 150.501 26H148.009ZM155.384 26L156.322 21.044L155.146 17.558H157.274L157.806 19.476H157.862C157.993 19.14 158.142 18.846 158.31 18.594C158.478 18.3327 158.679 18.118 158.912 17.95C159.145 17.7727 159.411 17.642 159.71 17.558C160.018 17.4647 160.373 17.418 160.774 17.418C161.437 17.418 162.015 17.5813 162.51 17.908C163.014 18.2253 163.406 18.692 163.686 19.308C163.975 19.9147 164.12 20.652 164.12 21.52V21.716C164.12 22.5653 163.966 23.312 163.658 23.956C163.359 24.6 162.921 25.104 162.342 25.468C161.763 25.8227 161.063 26 160.242 26H158.898L159.15 24.25H160.144C160.723 24.25 161.175 24.012 161.502 23.536C161.829 23.06 161.992 22.4533 161.992 21.716V21.52C161.992 21.016 161.917 20.5913 161.768 20.246C161.619 19.9007 161.418 19.644 161.166 19.476C160.923 19.2987 160.648 19.21 160.34 19.21C160.004 19.21 159.724 19.2613 159.5 19.364C159.276 19.4573 159.089 19.602 158.94 19.798C158.8 19.994 158.683 20.2273 158.59 20.498C158.497 20.7687 158.427 21.072 158.38 21.408L157.582 26H155.384Z" fill="#858585"/>
<path d="M0.5 157.844C22.5078 157.844 25.3192 139.541 47.327 139.541C69.3348 139.541 65.6863 145 87.6941 145C109.702 145 109.281 125.559 131.289 125.559C153.297 125.559 154.492 135.92 176.5 135.92" stroke="#C69F7C" stroke-opacity="0.15" stroke-width="20" stroke-linecap="round"/>
<path d="M0.5 157.844C22.5078 157.844 25.3192 139.541 47.327 139.541C69.3348 139.541 65.6863 145 87.6941 145C109.702 145 109.281 125.559 131.289 125.559C153.297 125.559 154.492 135.92 176.5 135.92" stroke="#C7A77F" stroke-width="6" stroke-linecap="round" stroke-linejoin="round"/>
<path d="M0.5 168C23.1255 168 20.4521 126 43.0776 126C65.703 126 63.0255 137.2 85.6509 137.2C108.276 137.2 104.791 155.6 127.417 155.6C150.042 155.6 153.875 165.052 176.5 165.052" stroke="#6AC4DC" stroke-width="6" stroke-linecap="round"/>
</g>
<defs>
<clipPath id="clip0_1366_24312">
<rect width="176" height="176" fill="white" transform="translate(0.5)"/>
</clipPath>
</defs>
</svg>
