<svg width="176" height="176" viewBox="0 0 176 176" fill="none" xmlns="http://www.w3.org/2000/svg">
<g clip-path="url(#clip0_1151_25049)">
<rect width="176" height="176" rx="4" fill="#FAFAFA"/>
<path d="M69.5585 52.418C70.9638 52.418 72.2445 52.6333 73.4005 53.064C74.5791 53.4947 75.5198 54.1407 76.2225 55.002C76.9478 55.8633 77.3105 56.9513 77.3105 58.266C77.3105 59.2407 77.1178 60.102 76.7325 60.85C76.3471 61.5753 75.8258 62.21 75.1685 62.754C74.5338 63.298 73.7971 63.774 72.9585 64.182C73.8198 64.6353 74.6358 65.168 75.4065 65.78C76.1998 66.3693 76.8345 67.072 77.3105 67.888C77.8091 68.6813 78.0585 69.622 78.0585 70.71C78.0585 72.0473 77.6958 73.2147 76.9705 74.212C76.2678 75.2093 75.2705 75.98 73.9785 76.524C72.7091 77.068 71.2358 77.34 69.5585 77.34C67.7451 77.34 66.2038 77.0793 64.9345 76.558C63.6651 76.0367 62.6905 75.2887 62.0105 74.314C61.3531 73.3393 61.0245 72.1833 61.0245 70.846C61.0245 69.7353 61.2285 68.772 61.6365 67.956C62.0671 67.14 62.6338 66.4373 63.3365 65.848C64.0391 65.236 64.8211 64.726 65.6825 64.318C64.9571 63.8647 64.2998 63.3547 63.7105 62.788C63.1211 62.1987 62.6451 61.5413 62.2825 60.816C61.9425 60.068 61.7725 59.2067 61.7725 58.232C61.7725 56.94 62.1351 55.8633 62.8605 55.002C63.5858 54.1407 64.5378 53.4947 65.7165 53.064C66.9178 52.6333 68.1985 52.418 69.5585 52.418ZM65.7845 70.54C65.7845 71.424 66.0905 72.1493 66.7025 72.716C67.3371 73.2827 68.2665 73.566 69.4905 73.566C70.3518 73.566 71.0545 73.4413 71.5985 73.192C72.1651 72.9427 72.5845 72.5913 72.8565 72.138C73.1511 71.6847 73.2985 71.1633 73.2985 70.574C73.2985 69.962 73.1171 69.4293 72.7545 68.976C72.3918 68.5 71.9385 68.0807 71.3945 67.718C70.8731 67.3327 70.3291 66.9813 69.7625 66.664L69.3205 66.426C68.6178 66.7433 67.9945 67.106 67.4505 67.514C66.9291 67.922 66.5211 68.3753 66.2265 68.874C65.9318 69.35 65.7845 69.9053 65.7845 70.54ZM69.5245 56.158C68.6858 56.158 67.9831 56.3733 67.4165 56.804C66.8725 57.2347 66.6005 57.8467 66.6005 58.64C66.6005 59.184 66.7365 59.6713 67.0085 60.102C67.2805 60.51 67.6431 60.8727 68.0965 61.19C68.5498 61.4847 69.0371 61.768 69.5585 62.04C70.0798 61.7907 70.5558 61.5187 70.9865 61.224C71.4398 60.9293 71.8025 60.578 72.0745 60.17C72.3465 59.7393 72.4825 59.2293 72.4825 58.64C72.4825 57.8467 72.1991 57.2347 71.6325 56.804C71.0885 56.3733 70.3858 56.158 69.5245 56.158ZM96.4615 64.862C96.4615 66.8113 96.3028 68.5567 95.9855 70.098C95.6908 71.6393 95.2035 72.954 94.5235 74.042C93.8662 75.1073 92.9935 75.9233 91.9055 76.49C90.8402 77.0567 89.5255 77.34 87.9615 77.34C86.0122 77.34 84.4142 76.8413 83.1675 75.844C81.9208 74.8467 80.9915 73.4187 80.3795 71.56C79.7902 69.7013 79.4955 67.4687 79.4955 64.862C79.4955 62.2327 79.7675 59.9887 80.3115 58.13C80.8555 56.2713 81.7508 54.8433 82.9975 53.846C84.2442 52.8487 85.8988 52.35 87.9615 52.35C89.9108 52.35 91.5088 52.8487 92.7555 53.846C94.0022 54.8207 94.9315 56.2487 95.5435 58.13C96.1555 59.9887 96.4615 62.2327 96.4615 64.862ZM84.5955 64.862C84.5955 66.698 84.6975 68.2393 84.9015 69.486C85.1055 70.71 85.4455 71.6393 85.9215 72.274C86.4202 72.886 87.1002 73.192 87.9615 73.192C88.8228 73.192 89.4915 72.886 89.9675 72.274C90.4662 71.662 90.8175 70.744 91.0215 69.52C91.2482 68.2733 91.3615 66.7207 91.3615 64.862C91.3615 63.0033 91.2482 61.462 91.0215 60.238C90.8175 58.9913 90.4662 58.062 89.9675 57.45C89.4915 56.8153 88.8228 56.498 87.9615 56.498C87.1002 56.498 86.4202 56.8153 85.9215 57.45C85.4455 58.062 85.1055 58.9913 84.9015 60.238C84.6975 61.462 84.5955 63.0033 84.5955 64.862ZM114.899 64.862C114.899 66.8113 114.74 68.5567 114.423 70.098C114.128 71.6393 113.641 72.954 112.961 74.042C112.303 75.1073 111.431 75.9233 110.343 76.49C109.277 77.0567 107.963 77.34 106.399 77.34C104.449 77.34 102.851 76.8413 101.605 75.844C100.358 74.8467 99.4285 73.4187 98.8165 71.56C98.2272 69.7013 97.9325 67.4687 97.9325 64.862C97.9325 62.2327 98.2045 59.9887 98.7485 58.13C99.2925 56.2713 100.188 54.8433 101.435 53.846C102.681 52.8487 104.336 52.35 106.399 52.35C108.348 52.35 109.946 52.8487 111.193 53.846C112.439 54.8207 113.369 56.2487 113.981 58.13C114.593 59.9887 114.899 62.2327 114.899 64.862ZM103.033 64.862C103.033 66.698 103.135 68.2393 103.339 69.486C103.543 70.71 103.883 71.6393 104.359 72.274C104.857 72.886 105.537 73.192 106.399 73.192C107.26 73.192 107.929 72.886 108.405 72.274C108.903 71.662 109.255 70.744 109.459 69.52C109.685 68.2733 109.799 66.7207 109.799 64.862C109.799 63.0033 109.685 61.462 109.459 60.238C109.255 58.9913 108.903 58.062 108.405 57.45C107.929 56.8153 107.26 56.498 106.399 56.498C105.537 56.498 104.857 56.8153 104.359 57.45C103.883 58.062 103.543 58.9913 103.339 60.238C103.135 61.462 103.033 63.0033 103.033 64.862Z" fill="#111111"/>
<path d="M80.1784 90.558C81.2424 90.558 82.0451 90.81 82.5864 91.314C83.1278 91.8087 83.3984 92.546 83.3984 93.526V99H81.2704V93.568C81.2704 93.148 81.1678 92.8353 80.9624 92.63C80.7571 92.4153 80.4584 92.308 80.0664 92.308H78.1344C78.0878 92.3827 78.0411 92.5087 77.9944 92.686C77.9571 92.854 77.9384 93.148 77.9384 93.568V99H75.8104V94.212C75.8104 93.8387 75.8431 93.5027 75.9084 93.204C75.9831 92.896 76.1278 92.6113 76.3424 92.35L76.2304 92.252V90.558H80.1784ZM75.1104 92.308L75.3344 90.558H79.2684V92.308H75.1104ZM84.4418 94.408C84.5258 94.1093 84.6004 93.792 84.6658 93.456C84.7404 93.12 84.8104 92.784 84.8758 92.448C84.9411 92.1027 84.9971 91.7713 85.0438 91.454C85.0998 91.1273 85.1418 90.8287 85.1698 90.558H87.0178L87.1018 90.712C87.0178 91.0573 86.9151 91.454 86.7938 91.902C86.6724 92.3407 86.5418 92.784 86.4018 93.232C86.2618 93.68 86.1124 94.072 85.9538 94.408H84.4418ZM87.5498 94.408C87.6618 94.0067 87.7598 93.5773 87.8438 93.12C87.9371 92.6627 88.0211 92.2147 88.0958 91.776C88.1798 91.328 88.2404 90.922 88.2778 90.558H90.1258L90.1958 90.712C90.1211 91.0573 90.0231 91.454 89.9018 91.902C89.7804 92.3407 89.6498 92.784 89.5098 93.232C89.3698 93.68 89.2204 94.072 89.0618 94.408H87.5498ZM95.9825 99.098C95.0118 99.098 94.1765 98.9067 93.4765 98.524C92.7765 98.1413 92.2398 97.572 91.8665 96.816C91.4931 96.06 91.3065 95.108 91.3065 93.96V90.558H93.4205V93.946C93.4205 94.758 93.5185 95.4207 93.7145 95.934C93.9105 96.438 94.1951 96.8113 94.5685 97.054C94.9511 97.2873 95.4085 97.404 95.9405 97.404H95.9965C96.5471 97.3947 97.0091 97.2733 97.3825 97.04C97.7651 96.8067 98.0545 96.438 98.2505 95.934C98.4465 95.4207 98.5445 94.7627 98.5445 93.96V90.558H100.672V93.974C100.672 95.122 100.486 96.074 100.112 96.83C99.7391 97.5767 99.2071 98.1413 98.5165 98.524C97.8351 98.8973 97.0138 99.0887 96.0525 99.098H95.9825ZM92.8185 95.682L92.7065 94.254C93.3131 94.2913 93.7751 94.2213 94.0925 94.044C94.4098 93.8573 94.6291 93.568 94.7505 93.176C94.8811 92.784 94.9465 92.3033 94.9465 91.734V90.558H97.0605V91.636C97.0605 92.2613 96.9858 92.8307 96.8365 93.344C96.6965 93.8573 96.4631 94.2913 96.1365 94.646C95.8098 95.0007 95.3758 95.2713 94.8345 95.458C94.2931 95.6353 93.6211 95.71 92.8185 95.682Z" fill="black"/>
<path d="M16 26.4996C18.5 20.9996 19.8921 20.4303 22.195 24.9565C22.5367 25.6279 24.913 18.8293 25.5 18.4997C25.9341 18.2559 27.5071 23.9336 27.8258 23.438C29.8173 20.3412 34.2636 14.4719 35.7407 19.117C36.4532 21.3572 43.4412 17.7836 44.006 15.5" stroke="#C7A77F" stroke-opacity="0.2" stroke-width="6" stroke-linecap="round"/>
<path d="M16 26.4996C18.5 20.9996 19.8921 20.4303 22.195 24.9565C22.5367 25.6279 24.913 18.8293 25.5 18.4997C25.9341 18.2559 27.5071 23.9336 27.8258 23.438C29.8173 20.3412 34.2636 14.4719 35.7407 19.117C36.4532 21.3572 43.4412 17.7836 44.006 15.5" stroke="#C7A77F" stroke-width="2" stroke-linecap="round"/>
<path d="M53.0917 20.316H55.7377V21.814H53.0917V24.446H51.5937V21.814H48.9477V20.316H51.5937V17.656H53.0917V20.316ZM60.3614 15.878C60.9401 15.878 61.4674 15.9667 61.9434 16.144C62.4288 16.3213 62.8161 16.5873 63.1054 16.942C63.4041 17.2967 63.5534 17.7447 63.5534 18.286C63.5534 18.8833 63.3808 19.378 63.0354 19.77C62.6994 20.1527 62.2748 20.47 61.7614 20.722C62.1161 20.9087 62.4521 21.128 62.7694 21.38C63.0961 21.6227 63.3574 21.912 63.5534 22.248C63.7588 22.5747 63.8614 22.962 63.8614 23.41C63.8614 23.9607 63.7121 24.4413 63.4134 24.852C63.1241 25.2627 62.7134 25.58 62.1814 25.804C61.6588 26.028 61.0521 26.14 60.3614 26.14C59.2414 26.14 58.3734 25.902 57.7574 25.426C57.1508 24.95 56.8474 24.2967 56.8474 23.466C56.8474 22.7753 57.0341 22.22 57.4074 21.8C57.7808 21.38 58.2334 21.0393 58.7654 20.778C58.3174 20.498 57.9348 20.162 57.6174 19.77C57.3094 19.3687 57.1554 18.8693 57.1554 18.272C57.1554 17.74 57.3048 17.2967 57.6034 16.942C57.9021 16.5873 58.2941 16.3213 58.7794 16.144C59.2741 15.9667 59.8014 15.878 60.3614 15.878ZM60.3474 17.418C60.0021 17.418 59.7128 17.5067 59.4794 17.684C59.2554 17.8613 59.1434 18.1133 59.1434 18.44C59.1434 18.7853 59.2648 19.0653 59.5074 19.28C59.7501 19.4947 60.0348 19.6813 60.3614 19.84C60.6788 19.6907 60.9588 19.5133 61.2014 19.308C61.4441 19.0933 61.5654 18.804 61.5654 18.44C61.5654 18.1133 61.4488 17.8613 61.2154 17.684C60.9914 17.5067 60.7021 17.418 60.3474 17.418ZM58.8074 23.34C58.8074 23.704 58.9334 24.0027 59.1854 24.236C59.4468 24.4693 59.8294 24.586 60.3334 24.586C60.8561 24.586 61.2481 24.474 61.5094 24.25C61.7708 24.026 61.9014 23.7273 61.9014 23.354C61.9014 23.102 61.8268 22.8827 61.6774 22.696C61.5281 22.5 61.3414 22.3273 61.1174 22.178C60.9028 22.0193 60.6788 21.8747 60.4454 21.744L60.2634 21.646C59.8341 21.8513 59.4841 22.0893 59.2134 22.36C58.9428 22.6307 58.8074 22.9573 58.8074 23.34ZM64.8591 21.758C64.8591 21.1793 64.9011 20.61 64.9851 20.05C65.0691 19.49 65.2138 18.9627 65.4191 18.468C65.6338 17.964 65.9278 17.5207 66.3011 17.138C66.6838 16.746 67.1645 16.4427 67.7431 16.228C68.3311 16.004 69.0405 15.892 69.8711 15.892C70.0671 15.892 70.2958 15.9013 70.5571 15.92C70.8185 15.9293 71.0378 15.9527 71.2151 15.99V17.684C71.0378 17.6373 70.8418 17.6047 70.6271 17.586C70.4218 17.558 70.2165 17.544 70.0111 17.544C69.1805 17.544 68.5365 17.6747 68.0791 17.936C67.6311 18.1973 67.3138 18.566 67.1271 19.042C66.9405 19.5087 66.8331 20.05 66.8051 20.666H66.8891C67.0758 20.3393 67.3418 20.064 67.6871 19.84C68.0418 19.616 68.4991 19.504 69.0591 19.504C69.9365 19.504 70.6318 19.7793 71.1451 20.33C71.6585 20.8807 71.9151 21.66 71.9151 22.668C71.9151 23.7507 71.6071 24.6 70.9911 25.216C70.3845 25.832 69.5585 26.14 68.5131 26.14C67.8318 26.14 67.2158 25.986 66.6651 25.678C66.1145 25.3607 65.6758 24.88 65.3491 24.236C65.0225 23.5827 64.8591 22.7567 64.8591 21.758ZM68.4711 24.446C68.8818 24.446 69.2178 24.306 69.4791 24.026C69.7405 23.7367 69.8711 23.2933 69.8711 22.696C69.8711 22.2107 69.7591 21.828 69.5351 21.548C69.3111 21.268 68.9705 21.128 68.5131 21.128C68.2051 21.128 67.9345 21.198 67.7011 21.338C67.4678 21.4687 67.2858 21.6413 67.1551 21.856C67.0245 22.0707 66.9591 22.29 66.9591 22.514C66.9591 22.822 67.0151 23.1253 67.1271 23.424C67.2391 23.7133 67.4071 23.956 67.6311 24.152C67.8645 24.348 68.1445 24.446 68.4711 24.446ZM75.1669 15.864C75.9509 15.864 76.5435 16.1393 76.9449 16.69C77.3555 17.2313 77.5609 17.9967 77.5609 18.986C77.5609 19.9753 77.3695 20.75 76.9869 21.31C76.6042 21.8607 75.9975 22.136 75.1669 22.136C74.4015 22.136 73.8182 21.8607 73.4169 21.31C73.0155 20.75 72.8149 19.9753 72.8149 18.986C72.8149 17.9967 73.0015 17.2313 73.3749 16.69C73.7482 16.1393 74.3455 15.864 75.1669 15.864ZM82.2649 16.004L76.7209 26H75.0829L80.6269 16.004H82.2649ZM75.1809 17.292C74.7515 17.292 74.5369 17.8613 74.5369 19C74.5369 20.148 74.7515 20.722 75.1809 20.722C75.6195 20.722 75.8389 20.148 75.8389 19C75.8389 17.8613 75.6195 17.292 75.1809 17.292ZM82.1669 19.854C82.9509 19.854 83.5435 20.1293 83.9449 20.68C84.3555 21.2213 84.5609 21.9867 84.5609 22.976C84.5609 23.9653 84.3695 24.74 83.9869 25.3C83.6042 25.8507 82.9975 26.126 82.1669 26.126C81.4015 26.126 80.8182 25.8507 80.4169 25.3C80.0155 24.74 79.8149 23.9653 79.8149 22.976C79.8149 21.9867 80.0015 21.2213 80.3749 20.68C80.7482 20.1293 81.3455 19.854 82.1669 19.854ZM82.1809 21.282C81.7515 21.282 81.5369 21.8513 81.5369 22.99C81.5369 24.138 81.7515 24.712 82.1809 24.712C82.6195 24.712 82.8389 24.138 82.8389 22.99C82.8389 21.8513 82.6195 21.282 82.1809 21.282Z" fill="#8A8A8A"/>
<path d="M130.216 26.126C128.919 26.126 127.92 25.7293 127.22 24.936C126.53 24.1333 126.184 22.9573 126.184 21.408V17.558H128.298V21.408C128.298 22.3973 128.462 23.1487 128.788 23.662C129.124 24.1753 129.586 24.432 130.174 24.432C130.781 24.432 131.257 24.1753 131.602 23.662C131.948 23.1487 132.12 22.3973 132.12 21.408C132.12 20.708 132.032 20.162 131.854 19.77C131.686 19.378 131.388 19.1773 130.958 19.168C130.753 19.1587 130.562 19.1727 130.384 19.21C130.216 19.2473 130.03 19.2893 129.824 19.336V17.642C130.095 17.5953 130.347 17.5533 130.58 17.516C130.814 17.4787 131.066 17.46 131.336 17.46C132.335 17.4787 133.068 17.8287 133.534 18.51C134.001 19.182 134.234 20.148 134.234 21.408C134.234 22.9573 133.884 24.1333 133.184 24.936C132.494 25.7293 131.504 26.126 130.216 26.126ZM136.257 22.444V17.558H138.385V22.444H136.257ZM135.109 19.308L135.347 17.558H137.447V19.308H135.109ZM139.758 19.308V17.558H146.954L146.716 19.308H139.758ZM143.426 26V20.694C143.426 20.5633 143.445 20.4093 143.482 20.232C143.519 20.0453 143.585 19.868 143.678 19.7C143.781 19.532 143.921 19.4013 144.098 19.308H145.792C145.68 19.392 145.61 19.5087 145.582 19.658C145.563 19.8073 145.554 19.9847 145.554 20.19V26H143.426ZM151.83 26V20.568C151.83 20.148 151.727 19.8353 151.522 19.63C151.317 19.4153 151.018 19.308 150.626 19.308H147.77L147.994 17.558H150.738C151.802 17.558 152.605 17.81 153.146 18.314C153.687 18.8087 153.958 19.546 153.958 20.526V26H151.83ZM159.292 26L161.238 19.294H155.498L155.722 17.558H163.646L163.506 18.818L161.42 26H159.292ZM155.834 28.576V21.086L157.962 20.96V28.464L155.834 28.576Z" fill="#858585"/>
<path d="M8.7211 147.587C3.67688 146.578 1.34171 149.519 0 150.978V201.333H176V106C174.331 111.793 160.434 126.533 160.067 126.533C159.7 126.533 158.29 126.166 158.106 125.8C157.125 123.844 150.752 128 150.755 128.374C150.757 128.748 140.054 131.638 135.912 133.481C134.682 130.968 131.911 125.815 128.691 128.733C124.666 132.381 116.951 135.57 115.944 134.111C114.938 132.652 112.161 127.158 107.801 130.077L107.71 130.137C103.357 133.051 97.39 137.044 93.3928 137.044C89.3676 137.044 86.8259 132.634 84.8134 130.689C82.8008 128.743 80.3889 133.968 78.7117 135.427C77.0346 136.886 77.0854 137.038 75.7437 135.822C74.402 134.606 70.2219 136.072 68.8802 137.044C67.5385 138.017 67.9016 139.905 61.7716 141.933C53.8202 144.565 53.8271 135.241 52.4568 134.844C50.5002 134.278 45.1831 138.588 40.8225 141.02C36.462 143.452 36.3559 143.647 33.337 144.133C30.3182 144.62 27.3508 141.686 25.0028 141.2C22.6548 140.714 21.3129 143.662 18.6295 147.067C15.9461 150.471 13.3809 148.519 8.7211 147.587Z" fill="url(#paint0_linear_1151_25049)"/>
<path d="M0.48877 150.489C1.83141 148.963 4.44955 146.317 8.20893 146.928C12.9082 147.691 15.5934 150.489 18.2787 146.928C20.964 143.367 22.9779 140.315 25.3276 140.824C27.6772 141.333 29.3555 144.13 32.3764 143.622C35.3973 143.113 26.9805 148.801 40.4322 140.824C53.8839 132.847 52.4194 134.063 53.1873 136.754C54.1338 140.072 56.8795 144.893 62.5857 141.841C68.2919 138.789 68.4262 135.483 72.3198 135.483C76.2135 135.483 73.9981 134.211 75.3408 135.483C76.6834 136.754 77.3547 136.246 79.033 134.72C80.7113 133.194 83.1182 128.616 85.1321 130.65C87.1461 132.685 88.7671 136.754 92.7951 136.754C96.823 136.754 103.322 132.685 107.685 129.633C112.049 126.581 114.613 132.431 115.62 133.957C116.627 135.483 124.011 132.431 128.039 128.616C131.262 125.564 134.529 130.057 135.759 132.685C140.123 131.583 149.723 128.717 153.214 126.072C156.705 123.427 158.696 125.818 159.256 127.344C162.388 125.564 173.588 112.857 175.267 106.244" stroke="url(#paint1_linear_1151_25049)" stroke-width="4" stroke-linecap="round" stroke-linejoin="round"/>
</g>
<defs>
<linearGradient id="paint0_linear_1151_25049" x1="85.8693" y1="117.43" x2="85.8693" y2="169.231" gradientUnits="userSpaceOnUse">
<stop stop-color="#C7A77F" stop-opacity="0.3"/>
<stop offset="1" stop-color="white" stop-opacity="0"/>
</linearGradient>
<linearGradient id="paint1_linear_1151_25049" x1="175.512" y1="106" x2="-1.43985" y2="150.606" gradientUnits="userSpaceOnUse">
<stop stop-color="#C7A77F"/>
<stop offset="1" stop-color="#8F6B45"/>
</linearGradient>
<clipPath id="clip0_1151_25049">
<rect width="176" height="176" fill="white"/>
</clipPath>
</defs>
</svg>
