<svg width="176" height="176" viewBox="0 0 176 176" fill="none" xmlns="http://www.w3.org/2000/svg">
<g clip-path="url(#clip0_1151_24980)">
<rect width="176" height="176" rx="4" fill="#FAFAFA"/>
<path d="M79.277 49.418C80.6823 49.418 81.963 49.6333 83.119 50.064C84.2976 50.4947 85.2383 51.1407 85.941 52.002C86.6663 52.8633 87.029 53.9513 87.029 55.266C87.029 56.2407 86.8363 57.102 86.451 57.85C86.0656 58.5753 85.5443 59.21 84.887 59.754C84.2523 60.298 83.5156 60.774 82.677 61.182C83.5383 61.6353 84.3543 62.168 85.125 62.78C85.9183 63.3693 86.553 64.072 87.029 64.888C87.5276 65.6813 87.777 66.622 87.777 67.71C87.777 69.0473 87.4143 70.2147 86.689 71.212C85.9863 72.2093 84.989 72.98 83.697 73.524C82.4276 74.068 80.9543 74.34 79.277 74.34C77.4636 74.34 75.9223 74.0793 74.653 73.558C73.3836 73.0367 72.409 72.2887 71.729 71.314C71.0716 70.3393 70.743 69.1833 70.743 67.846C70.743 66.7353 70.947 65.772 71.355 64.956C71.7856 64.14 72.3523 63.4373 73.055 62.848C73.7576 62.236 74.5396 61.726 75.401 61.318C74.6756 60.8647 74.0183 60.3547 73.429 59.788C72.8396 59.1987 72.3636 58.5413 72.001 57.816C71.661 57.068 71.491 56.2067 71.491 55.232C71.491 53.94 71.8536 52.8633 72.579 52.002C73.3043 51.1407 74.2563 50.4947 75.435 50.064C76.6363 49.6333 77.917 49.418 79.277 49.418ZM75.503 67.54C75.503 68.424 75.809 69.1493 76.421 69.716C77.0556 70.2827 77.985 70.566 79.209 70.566C80.0703 70.566 80.773 70.4413 81.317 70.192C81.8836 69.9427 82.303 69.5913 82.575 69.138C82.8696 68.6847 83.017 68.1633 83.017 67.574C83.017 66.962 82.8356 66.4293 82.473 65.976C82.1103 65.5 81.657 65.0807 81.113 64.718C80.5916 64.3327 80.0476 63.9813 79.481 63.664L79.039 63.426C78.3363 63.7433 77.713 64.106 77.169 64.514C76.6476 64.922 76.2396 65.3753 75.945 65.874C75.6503 66.35 75.503 66.9053 75.503 67.54ZM79.243 53.158C78.4043 53.158 77.7016 53.3733 77.135 53.804C76.591 54.2347 76.319 54.8467 76.319 55.64C76.319 56.184 76.455 56.6713 76.727 57.102C76.999 57.51 77.3616 57.8727 77.815 58.19C78.2683 58.4847 78.7556 58.768 79.277 59.04C79.7983 58.7907 80.2743 58.5187 80.705 58.224C81.1583 57.9293 81.521 57.578 81.793 57.17C82.065 56.7393 82.201 56.2293 82.201 55.64C82.201 54.8467 81.9176 54.2347 81.351 53.804C80.807 53.3733 80.1043 53.158 79.243 53.158ZM89.18 63.698C89.18 62.2927 89.282 60.91 89.486 59.55C89.69 58.19 90.0413 56.9093 90.54 55.708C91.0613 54.484 91.7753 53.4073 92.682 52.478C93.6113 51.526 94.7787 50.7893 96.184 50.268C97.612 49.724 99.3347 49.452 101.352 49.452C101.828 49.452 102.383 49.4747 103.018 49.52C103.653 49.5427 104.185 49.5993 104.616 49.69V53.804C104.185 53.6907 103.709 53.6113 103.188 53.566C102.689 53.498 102.191 53.464 101.692 53.464C100.173 53.464 98.9153 53.6453 97.918 54.008C96.9433 54.3707 96.1727 54.892 95.606 55.572C95.0393 56.252 94.62 57.0567 94.348 57.986C94.0987 58.8927 93.9513 59.9127 93.906 61.046H94.11C94.4273 60.502 94.8127 60.026 95.266 59.618C95.742 59.1873 96.32 58.8473 97 58.598C97.68 58.3487 98.4733 58.224 99.38 58.224C100.808 58.224 102.032 58.53 103.052 59.142C104.095 59.7313 104.899 60.604 105.466 61.76C106.033 62.8933 106.316 64.276 106.316 65.908C106.316 67.6533 105.976 69.1607 105.296 70.43C104.639 71.6993 103.687 72.674 102.44 73.354C101.216 74.0113 99.754 74.34 98.054 74.34C96.8073 74.34 95.64 74.1247 94.552 73.694C93.4867 73.2633 92.546 72.6173 91.73 71.756C90.9367 70.872 90.3133 69.7613 89.86 68.424C89.4067 67.0867 89.18 65.5113 89.18 63.698ZM97.952 70.226C98.9493 70.226 99.7653 69.886 100.4 69.206C101.035 68.5033 101.352 67.4267 101.352 65.976C101.352 64.7973 101.08 63.868 100.536 63.188C99.992 62.508 99.1647 62.168 98.054 62.168C97.306 62.168 96.6487 62.338 96.082 62.678C95.5153 62.9953 95.0733 63.4147 94.756 63.936C94.4387 64.4573 94.28 64.99 94.28 65.534C94.28 66.1007 94.3593 66.6673 94.518 67.234C94.6767 67.778 94.9033 68.2767 95.198 68.73C95.5153 69.1833 95.9007 69.546 96.354 69.818C96.8073 70.09 97.34 70.226 97.952 70.226Z" fill="#111111"/>
<path d="M73.1143 96V94.25H75.6063C76.2223 94.25 76.675 94.04 76.9643 93.62C77.263 93.2 77.4123 92.612 77.4123 91.856C77.4123 91.044 77.263 90.4187 76.9643 89.98C76.675 89.532 76.2223 89.308 75.6063 89.308H73.1143L73.3383 87.558H75.6063C76.9037 87.558 77.8883 87.936 78.5603 88.692C79.2417 89.4387 79.5823 90.4933 79.5823 91.856C79.5823 93.172 79.2417 94.194 78.5603 94.922C77.8883 95.6407 76.9037 96 75.6063 96H73.1143ZM80.2308 91.408C80.3148 91.1093 80.3895 90.792 80.4548 90.456C80.5295 90.12 80.5995 89.784 80.6648 89.448C80.7302 89.1027 80.7862 88.7713 80.8328 88.454C80.8888 88.1273 80.9308 87.8287 80.9588 87.558H82.8068L82.8908 87.712C82.8068 88.0573 82.7042 88.454 82.5828 88.902C82.4615 89.3407 82.3308 89.784 82.1908 90.232C82.0508 90.68 81.9015 91.072 81.7428 91.408H80.2308ZM83.3388 91.408C83.4508 91.0067 83.5488 90.5773 83.6328 90.12C83.7262 89.6627 83.8102 89.2147 83.8848 88.776C83.9688 88.328 84.0295 87.922 84.0668 87.558H85.9148L85.9848 87.712C85.9102 88.0573 85.8122 88.454 85.6908 88.902C85.5695 89.3407 85.4388 89.784 85.2988 90.232C85.1588 90.68 85.0095 91.072 84.8508 91.408H83.3388ZM92.5415 96V90.568C92.5415 90.148 92.4342 89.8353 92.2195 89.63C92.0142 89.4153 91.7202 89.308 91.3375 89.308H86.9835L87.2215 87.558H91.4495C92.5135 87.558 93.3162 87.81 93.8575 88.314C94.3989 88.8087 94.6695 89.546 94.6695 90.526V96H92.5415ZM87.1655 96V91.45L89.2935 91.338V96H87.1655ZM100.384 96.126C99.0497 96.126 98.0464 95.79 97.3744 95.118C96.7117 94.4367 96.3804 93.4753 96.3804 92.234V92.108C96.3804 91.4547 96.4924 90.89 96.7164 90.414C96.9497 89.938 97.239 89.5973 97.5844 89.392V89.196L99.3904 89.154L99.3204 89.336C99.0217 89.4573 98.807 89.7233 98.6764 90.134C98.555 90.5447 98.4944 91.058 98.4944 91.674C98.4944 92.5607 98.639 93.242 98.9284 93.718C99.227 94.194 99.7124 94.432 100.384 94.432C101.066 94.432 101.556 94.1753 101.854 93.662C102.153 93.1487 102.302 92.416 102.302 91.464C102.302 90.7733 102.186 90.2413 101.952 89.868C101.728 89.4947 101.313 89.308 100.706 89.308H96.0304L96.2544 87.558H100.72C101.99 87.558 102.923 87.8987 103.52 88.58C104.127 89.2613 104.43 90.2273 104.43 91.478C104.43 92.9527 104.09 94.096 103.408 94.908C102.736 95.72 101.728 96.126 100.384 96.126Z" fill="black"/>
<path d="M21.9563 17.9952V27C21.9563 27.5523 22.404 28 22.9563 28H23.0437C23.596 28 24.0437 27.5523 24.0437 27V17.9952L27.8171 21.7687C28.2076 22.1592 28.8408 22.1592 29.2313 21.7687L29.2929 21.7071C29.6834 21.3166 29.6834 20.6834 29.2929 20.2929L23.7071 14.7071C23.3166 14.3166 22.6834 14.3166 22.2929 14.7071L16.7071 20.2929C16.3166 20.6834 16.3166 21.3166 16.7071 21.7071L16.7687 21.7687C17.1592 22.1592 17.7924 22.1592 18.1829 21.7687L21.9563 17.9952Z" fill="#C7A77F"/>
<path d="M30 22.4142L30 22.4142C30.781 21.6332 30.781 20.3668 30 19.5858L24.4142 14C23.6332 13.2189 22.3668 13.219 21.5858 14L16 19.5858C15.2189 20.3668 15.219 21.6332 16 22.4142L16.0616 22.4758C16.8426 23.2568 18.1089 23.2568 18.89 22.4758L20.9563 20.4094V27C20.9563 28.1046 21.8517 29 22.9563 29H23.0437C24.1483 29 25.0437 28.1046 25.0437 27V20.4094L27.11 22.4758C27.8911 23.2568 29.1574 23.2568 29.9384 22.4758C29.9384 22.4758 29.9384 22.4758 29.9384 22.4758L30 22.4142Z" stroke="#C69F7C" stroke-opacity="0.2" stroke-width="2"/>
<path d="M21.9563 17.9952V27C21.9563 27.5523 22.404 28 22.9563 28H23.0437C23.596 28 24.0437 27.5523 24.0437 27V17.9952L27.8171 21.7687C28.2076 22.1592 28.8408 22.1592 29.2313 21.7687L29.2929 21.7071C29.6834 21.3166 29.6834 20.6834 29.2929 20.2929L23.7071 14.7071C23.3166 14.3166 22.6834 14.3166 22.2929 14.7071L16.7071 20.2929C16.3166 20.6834 16.3166 21.3166 16.7071 21.7071L16.7687 21.7687C17.1592 22.1592 17.7924 22.1592 18.1829 21.7687L21.9563 17.9952Z" fill="#C7A77F"/>
<path d="M43.5226 26H36.5366V24.53L39.0426 21.996C39.5466 21.4733 39.9526 21.0393 40.2606 20.694C40.5686 20.3393 40.7926 20.022 40.9326 19.742C41.0726 19.4527 41.1426 19.1447 41.1426 18.818C41.1426 18.4167 41.0306 18.118 40.8066 17.922C40.5919 17.726 40.2979 17.628 39.9246 17.628C39.5419 17.628 39.1686 17.7167 38.8046 17.894C38.4406 18.0713 38.0579 18.3233 37.6566 18.65L36.5086 17.292C36.7979 17.04 37.1012 16.8067 37.4186 16.592C37.7452 16.3773 38.1186 16.2047 38.5386 16.074C38.9679 15.934 39.4812 15.864 40.0786 15.864C40.7319 15.864 41.2919 15.9853 41.7586 16.228C42.2346 16.4613 42.5986 16.7833 42.8506 17.194C43.1119 17.5953 43.2426 18.0527 43.2426 18.566C43.2426 19.1167 43.1306 19.6207 42.9066 20.078C42.6919 20.5353 42.3746 20.988 41.9546 21.436C41.5439 21.884 41.0446 22.3787 40.4566 22.92L39.1686 24.124V24.222H43.5226V26ZM48.1883 19.616C48.7949 19.616 49.3363 19.7327 49.8123 19.966C50.2883 20.1993 50.6616 20.54 50.9323 20.988C51.2123 21.436 51.3523 21.9913 51.3523 22.654C51.3523 23.7367 51.0163 24.5907 50.3443 25.216C49.6723 25.832 48.6783 26.14 47.3623 26.14C46.8396 26.14 46.3449 26.0933 45.8783 26C45.4209 25.9067 45.0196 25.7713 44.6743 25.594V23.774C45.0196 23.9513 45.4349 24.1053 45.9203 24.236C46.4056 24.3573 46.8629 24.418 47.2923 24.418C47.9176 24.418 48.3936 24.292 48.7203 24.04C49.0563 23.7787 49.2243 23.3773 49.2243 22.836C49.2243 21.828 48.5569 21.324 47.2223 21.324C46.9609 21.324 46.6903 21.352 46.4103 21.408C46.1303 21.4547 45.8969 21.5013 45.7103 21.548L44.8703 21.1L45.2483 16.004H50.6663V17.796H47.0963L46.9143 19.756C47.0729 19.728 47.2409 19.7 47.4183 19.672C47.6049 19.6347 47.8616 19.616 48.1883 19.616Z" fill="#8A8A8A"/>
<path d="M58.426 17.432L55.234 26H54.202L57.394 17.432H58.426ZM64.0429 26V21.224C64.0429 20.8 63.9389 20.484 63.7309 20.276C63.5309 20.06 63.2269 19.952 62.8189 19.952H59.1829L59.3269 18.836H62.9029C63.7189 18.836 64.3349 19.036 64.7509 19.436C65.1749 19.828 65.3869 20.412 65.3869 21.188V26H64.0429ZM59.3509 26V22.004L60.6949 21.908V26H59.3509ZM67.4648 22.892V18.836H68.8088V22.892H67.4648ZM66.4208 19.952L66.5648 18.836H68.2328V19.952H66.4208ZM71.1445 22.892V18.836H72.4885V22.892H71.1445ZM70.1005 19.952L70.2445 18.836H71.9125V19.952H70.1005ZM75.0402 18.836H79.3242L79.2042 19.664L77.0562 26H75.6642L77.7522 19.952H73.6962V17.024L75.0402 16.88V18.836ZM80.1664 26.432L80.1544 25.328L82.7344 24.776C83.0624 24.696 83.3584 24.588 83.6224 24.452C83.8864 24.308 84.1104 24.096 84.2944 23.816C84.4864 23.536 84.6424 23.156 84.7624 22.676C84.8824 22.188 84.9624 21.564 85.0024 20.804L85.1344 18.836H86.4784L86.3464 20.816C86.3144 21.424 86.2544 21.972 86.1664 22.46C86.0784 22.94 85.9464 23.368 85.7704 23.744C85.6024 24.12 85.3824 24.448 85.1104 24.728C84.8384 25 84.5064 25.232 84.1144 25.424C83.7304 25.616 83.2744 25.768 82.7464 25.88L80.1664 26.432ZM81.9904 25.436L80.5024 18.932L81.8104 18.764L82.9264 23.636C82.9664 23.828 82.9744 24.032 82.9504 24.248C82.9344 24.456 82.8864 24.664 82.8064 24.872C82.7344 25.072 82.6344 25.26 82.5064 25.436H81.9904Z" fill="#8A8A8A"/>
<path d="M117.428 26V20.568C117.428 20.148 117.325 19.8353 117.12 19.63C116.915 19.4153 116.616 19.308 116.224 19.308H112.318V17.558H116.336C117.4 17.558 118.203 17.81 118.744 18.314C119.285 18.8087 119.556 19.546 119.556 20.526V26H117.428ZM110.82 26L111.044 24.25H111.548C111.725 24.25 111.87 24.2173 111.982 24.152C112.094 24.0773 112.178 23.97 112.234 23.83C112.29 23.69 112.318 23.5173 112.318 23.312V17.964H114.446V23.256C114.446 24.152 114.236 24.8333 113.816 25.3C113.405 25.7667 112.794 26 111.982 26H110.82ZM111.03 19.308L111.268 17.558H113.508V19.308H111.03ZM122.086 26V17.558H124.214V26H122.086ZM120.938 19.308L121.176 17.558H123.486V19.308H120.938ZM129.742 26V20.568C129.742 20.148 129.639 19.8353 129.434 19.63C129.229 19.4153 128.93 19.308 128.538 19.308H125.682L125.906 17.558H128.65C129.714 17.558 130.517 17.81 131.058 18.314C131.599 18.8087 131.87 19.546 131.87 20.526V26H129.742ZM133.214 26V24.25H135.706C136.322 24.25 136.775 24.04 137.064 23.62C137.363 23.2 137.512 22.612 137.512 21.856C137.512 21.044 137.363 20.4187 137.064 19.98C136.775 19.532 136.322 19.308 135.706 19.308H133.214L133.438 17.558H135.706C137.003 17.558 137.988 17.936 138.66 18.692C139.341 19.4387 139.682 20.4933 139.682 21.856C139.682 23.172 139.341 24.194 138.66 24.922C137.988 25.6407 137.003 26 135.706 26H133.214ZM145.268 26.098C144.297 26.098 143.462 25.9067 142.762 25.524C142.062 25.1413 141.525 24.572 141.152 23.816C140.778 23.06 140.592 22.108 140.592 20.96V17.558H142.706V20.946C142.706 21.758 142.804 22.4207 143 22.934C143.196 23.438 143.48 23.8113 143.854 24.054C144.236 24.2873 144.694 24.404 145.226 24.404H145.282C145.832 24.3947 146.294 24.2733 146.668 24.04C147.05 23.8067 147.34 23.438 147.536 22.934C147.732 22.4207 147.83 21.7627 147.83 20.96V17.558H149.958V20.974C149.958 22.122 149.771 23.074 149.398 23.83C149.024 24.5767 148.492 25.1413 147.802 25.524C147.12 25.8973 146.299 26.0887 145.338 26.098H145.268ZM142.104 22.682L141.992 21.254C142.598 21.2913 143.06 21.2213 143.378 21.044C143.695 20.8573 143.914 20.568 144.036 20.176C144.166 19.784 144.232 19.3033 144.232 18.734V17.558H146.346V18.636C146.346 19.2613 146.271 19.8307 146.122 20.344C145.982 20.8573 145.748 21.2913 145.422 21.646C145.095 22.0007 144.661 22.2713 144.12 22.458C143.578 22.6353 142.906 22.71 142.104 22.682ZM157.057 26V20.568C157.057 20.148 156.95 19.8353 156.735 19.63C156.53 19.4153 156.236 19.308 155.853 19.308H151.499L151.737 17.558H155.965C157.029 17.558 157.832 17.81 158.373 18.314C158.914 18.8087 159.185 19.546 159.185 20.526V26H157.057ZM151.681 26V21.45L153.809 21.338V26H151.681Z" fill="#858585"/>
<path d="M3.32871 158.771L0 157.941L0 186.167H300V77L297.92 78.2452L294.175 87.7921L292.094 89.4525L288.35 88.6223L284.189 84.4715L281.692 84.8866L277.947 94.0184L275.451 99.8295H272.122L268.793 94.4335L266.562 94.0184H264.216L259.639 107.301L258.391 108.131L256.311 108.961L254.23 106.056L250.902 88.6223L248.821 86.5469L246.741 87.3771L242.58 101.49L240.083 103.15L235.506 100.66L233.01 98.5843H229.681L226.352 106.471L224.272 109.376L220.111 110.207L216.782 114.357L214.702 115.188L212.621 114.357L208.044 103.565L204.3 102.735L199.723 113.942L198.058 115.603L195.562 115.188L190.569 108.131L186.824 107.716L183.911 103.15L181.831 99.8295L179.75 98.9994L178.086 100.245L173.925 116.018L172.677 118.508L171.012 118.923L168.932 114.772L164.771 92.7731L163.523 91.1128H162.691L160.61 92.358L157.282 104.811L155.617 107.301L152.288 108.131L148.128 116.433L146.879 117.678H144.799L142.302 116.018L139.806 112.282L137.725 111.452L134.397 113.527L132.316 120.584L130.236 123.074L128.155 123.904L124.411 121.829L121.498 119.338L118.585 118.923L117.337 117.678L114.008 113.112L111.928 111.867L109.847 113.112L106.519 130.961L104.022 137.602H101.526L97.7809 133.036L95.7004 132.206L92.3717 131.791L89.4591 138.017L86.5465 141.338L84.8821 141.753L81.5534 136.772L77.8086 134.696L75.3121 135.527L70.319 154.205L68.2386 155.035L64.9098 151.715L60.3329 148.394H58.2524L55.7559 145.489L52.0111 144.243L49.5146 145.489L46.1859 155.866L42.8571 157.941L40.7767 158.771L37.8641 160.016L33.2871 160.847L30.7906 158.771L27.8779 154.205L24.1331 153.375L20.8044 150.885L17.8918 149.224L16.2275 149.639L14.5631 152.96L11.2344 160.847L9.15395 162.507L6.65742 162.092L3.32871 158.771Z" fill="url(#paint0_linear_1151_24980)"/>
<path d="M300 77C295.714 77 295.714 89.6959 291.429 89.6959C287.143 89.6959 287.321 84.3682 282.857 84.3682C278.393 84.3682 278.75 100.011 274.286 100.011C269.821 100.011 270.536 93.7314 265.714 93.7314C260.893 93.7314 262.143 108.989 257.143 108.989C252.143 108.989 252.857 86.5219 248.571 86.5219C244.286 86.5219 244.643 102.913 240 102.913C235.357 102.913 236.071 98.4243 231.429 98.4243C226.786 98.4243 227.5 109.647 222.857 109.647C218.214 109.647 218.75 115.088 214.286 115.088C209.821 115.088 210.179 102.845 205.714 102.845C201.25 102.845 201.786 115.722 197.143 115.722C192.5 115.722 193.571 107.946 188.571 107.946C183.571 107.946 184.464 99.2858 180 99.2858C175.536 99.2858 176.071 119.055 171.429 119.055C166.786 119.055 167.5 90.8295 162.857 90.8295C158.214 90.8295 158.75 107.697 154.286 107.697C149.821 107.697 150.714 117.786 145.714 117.786C140.714 117.786 141.964 111.664 137.143 111.664C132.321 111.664 133.571 124.134 128.571 124.134C123.571 124.134 124.821 119.327 120 119.327C115.179 119.327 116.071 112.05 111.429 112.05C106.786 112.05 107.5 138.19 102.857 138.19C98.2143 138.19 99.2857 131.796 94.2857 131.796C89.2857 131.796 90 141.794 85.7143 141.794C81.4286 141.794 81.9643 134.653 77.1428 134.653C72.3214 134.653 73.0357 155.284 68.5714 155.284C64.1071 155.284 65 149.072 60 149.072C55 149.072 56.25 144.56 51.4286 144.56C46.6072 144.56 47.5 158.39 42.8571 158.39C38.2143 158.39 39.2857 161.292 34.2857 161.292C29.2857 161.292 30.7143 153.651 25.7143 153.651C20.7143 153.651 21.4286 149.571 17.1428 149.571C12.8571 149.571 12.8571 162.833 8.57143 162.833C4.28571 162.833 4.64286 158.163 7.15256e-06 158.163" stroke="#C7A77F" stroke-width="2"/>
<circle cx="17.9154" cy="150.75" r="3.58333" fill="black" stroke="white" stroke-width="2"/>
<circle cx="51.2503" cy="145.75" r="3.58333" fill="black" stroke="white" stroke-width="2"/>
<circle cx="77.0833" cy="134.916" r="3.58333" fill="black" stroke="white" stroke-width="2"/>
<circle cx="111.251" cy="111.583" r="3.58333" fill="black" stroke="white" stroke-width="2"/>
<circle cx="137.084" cy="113.25" r="3.58333" fill="black" stroke="white" stroke-width="2"/>
<circle cx="162.916" cy="92.4173" r="3.58333" fill="black" stroke="white" stroke-width="2"/>
<circle cx="103.749" cy="136.583" r="3.58333" fill="black" stroke="white" stroke-width="2"/>
</g>
<defs>
<linearGradient id="paint0_linear_1151_24980" x1="150" y1="77" x2="150" y2="186.167" gradientUnits="userSpaceOnUse">
<stop stop-color="#C69F7C" stop-opacity="0.3"/>
<stop offset="1" stop-color="white" stop-opacity="0"/>
</linearGradient>
<clipPath id="clip0_1151_24980">
<rect width="176" height="176" fill="white"/>
</clipPath>
</defs>
</svg>
