<svg width="361" height="259" viewBox="0 0 361 259" fill="none" xmlns="http://www.w3.org/2000/svg">
<g clip-path="url(#clip0_1366_25153)">
<rect width="361" height="258.5" rx="4" fill="#FAFAFA"/>
<path d="M262.202 143.601C262.202 188.668 225.668 225.202 180.601 225.202C135.534 225.202 99 188.668 99 143.601C99 98.5341 135.534 62 180.601 62C225.668 62 262.202 98.5341 262.202 143.601ZM123.48 143.601C123.48 175.148 149.054 200.722 180.601 200.722C212.148 200.722 237.722 175.148 237.722 143.601C237.722 112.054 212.148 86.4803 180.601 86.4803C149.054 86.4803 123.48 112.054 123.48 143.601Z" fill="#EEEEEE"/>
<path d="M249.962 144.616C256.722 144.616 262.296 150.126 261.286 156.81C259.784 166.748 256.453 176.358 251.427 185.142C244.367 197.482 234.205 207.763 221.948 214.966C209.691 222.17 195.765 226.046 181.549 226.211C167.334 226.377 153.321 222.825 140.9 215.908C128.48 208.991 118.081 198.949 110.736 186.777C103.39 174.605 99.3524 160.725 99.022 146.512C98.6916 132.299 102.08 118.246 108.852 105.746C113.673 96.8476 120.089 88.9556 127.746 82.4457C132.897 78.0671 140.516 79.904 144.076 85.6508C147.636 91.3976 145.742 98.863 140.883 103.563C136.713 107.599 133.164 112.263 130.377 117.407C125.637 126.157 123.264 135.994 123.496 145.943C123.727 155.892 126.554 165.608 131.695 174.129C136.837 182.649 144.116 189.679 152.811 194.52C161.505 199.362 171.314 201.848 181.265 201.733C191.216 201.617 200.964 198.904 209.544 193.861C218.124 188.819 225.237 181.622 230.179 172.984C233.085 167.906 235.181 162.433 236.415 156.763C237.853 150.157 243.202 144.616 249.962 144.616Z" fill="url(#paint0_linear_1366_25153)"/>
<path d="M156.867 151H150.223V132.828C150.223 132.329 150.223 131.713 150.223 130.98C150.252 130.247 150.282 129.484 150.311 128.692C150.34 127.9 150.37 127.196 150.399 126.58C150.252 126.756 149.93 127.079 149.431 127.548C148.962 127.988 148.522 128.384 148.111 128.736L144.503 131.64L141.291 127.636L151.411 119.584H156.867V151ZM186.271 151H164.315V146.38L172.191 138.416C173.775 136.773 175.051 135.409 176.019 134.324C176.987 133.209 177.691 132.212 178.131 131.332C178.571 130.423 178.791 129.455 178.791 128.428C178.791 127.167 178.439 126.228 177.735 125.612C177.06 124.996 176.136 124.688 174.963 124.688C173.76 124.688 172.587 124.967 171.443 125.524C170.299 126.081 169.096 126.873 167.835 127.9L164.227 123.632C165.136 122.84 166.089 122.107 167.087 121.432C168.113 120.757 169.287 120.215 170.607 119.804C171.956 119.364 173.569 119.144 175.447 119.144C177.5 119.144 179.26 119.525 180.727 120.288C182.223 121.021 183.367 122.033 184.159 123.324C184.98 124.585 185.391 126.023 185.391 127.636C185.391 128.956 185.185 130.173 184.775 131.288C184.393 132.403 183.821 133.488 183.059 134.544C182.325 135.571 181.416 136.641 180.331 137.756C179.245 138.841 178.013 140.029 176.635 141.32L172.587 145.104V145.412H186.271V151ZM188.922 147.92C188.922 146.571 189.289 145.632 190.022 145.104C190.756 144.547 191.65 144.268 192.706 144.268C193.733 144.268 194.613 144.547 195.346 145.104C196.08 145.632 196.446 146.571 196.446 147.92C196.446 149.211 196.08 150.149 195.346 150.736C194.613 151.293 193.733 151.572 192.706 151.572C191.65 151.572 190.756 151.293 190.022 150.736C189.289 150.149 188.922 149.211 188.922 147.92ZM199.181 137.668C199.181 135.849 199.313 134.06 199.577 132.3C199.841 130.54 200.296 128.883 200.941 127.328C201.616 125.744 202.54 124.351 203.713 123.148C204.916 121.916 206.426 120.963 208.245 120.288C210.093 119.584 212.322 119.232 214.933 119.232C215.549 119.232 216.268 119.261 217.089 119.32C217.91 119.349 218.6 119.423 219.157 119.54V124.864C218.6 124.717 217.984 124.615 217.309 124.556C216.664 124.468 216.018 124.424 215.373 124.424C213.408 124.424 211.78 124.659 210.489 125.128C209.228 125.597 208.23 126.272 207.497 127.152C206.764 128.032 206.221 129.073 205.869 130.276C205.546 131.449 205.356 132.769 205.297 134.236H205.561C205.972 133.532 206.47 132.916 207.057 132.388C207.673 131.831 208.421 131.391 209.301 131.068C210.181 130.745 211.208 130.584 212.381 130.584C214.229 130.584 215.813 130.98 217.133 131.772C218.482 132.535 219.524 133.664 220.257 135.16C220.99 136.627 221.357 138.416 221.357 140.528C221.357 142.787 220.917 144.737 220.037 146.38C219.186 148.023 217.954 149.284 216.341 150.164C214.757 151.015 212.865 151.44 210.665 151.44C209.052 151.44 207.541 151.161 206.133 150.604C204.754 150.047 203.537 149.211 202.481 148.096C201.454 146.952 200.648 145.515 200.061 143.784C199.474 142.053 199.181 140.015 199.181 137.668ZM210.533 146.116C211.824 146.116 212.88 145.676 213.701 144.796C214.522 143.887 214.933 142.493 214.933 140.616C214.933 139.091 214.581 137.888 213.877 137.008C213.173 136.128 212.102 135.688 210.665 135.688C209.697 135.688 208.846 135.908 208.113 136.348C207.38 136.759 206.808 137.301 206.397 137.976C205.986 138.651 205.781 139.34 205.781 140.044C205.781 140.777 205.884 141.511 206.089 142.244C206.294 142.948 206.588 143.593 206.969 144.18C207.38 144.767 207.878 145.236 208.465 145.588C209.052 145.94 209.741 146.116 210.533 146.116Z" fill="#111111"/>
<path d="M151.971 169.76V167.26L156.751 166.3C157.231 166.193 157.651 166.04 158.011 165.84C158.384 165.627 158.704 165.313 158.971 164.9C159.238 164.487 159.451 163.933 159.611 163.24C159.784 162.533 159.911 161.627 159.991 160.52L160.231 156.94H163.271L163.011 160.62C162.958 161.433 162.864 162.207 162.731 162.94C162.611 163.66 162.411 164.333 162.131 164.96C161.864 165.587 161.504 166.153 161.051 166.66C160.598 167.167 160.018 167.6 159.311 167.96C158.604 168.32 157.751 168.6 156.751 168.8L151.971 169.76ZM154.831 167.86L152.571 157.14L155.551 156.78L157.031 164.12C157.124 164.547 157.144 164.987 157.091 165.44C157.038 165.88 156.911 166.313 156.711 166.74C156.524 167.153 156.278 167.527 155.971 167.86H154.831ZM172.149 168.96L164.509 156.94H168.069L171.149 162.16L174.429 167.22L172.149 168.96ZM164.789 169V166.5H173.529L174.429 167.22L174.149 169H164.789ZM170.929 164.22L170.069 162.24C170.429 162.133 170.715 161.96 170.929 161.72C171.142 161.48 171.309 161.2 171.429 160.88C171.549 160.56 171.635 160.24 171.689 159.92C171.755 159.587 171.809 159.273 171.849 158.98L172.089 156.94H175.129L174.889 159.22C174.835 159.687 174.729 160.173 174.569 160.68C174.409 161.187 174.175 161.673 173.869 162.14C173.575 162.607 173.182 163.027 172.689 163.4C172.209 163.76 171.622 164.033 170.929 164.22ZM178.165 169V156.94H181.205V169H178.165ZM176.525 159.44L176.865 156.94H180.165V159.44H176.525ZM183.583 169L184.923 161.92L183.243 156.94H186.283L187.043 159.68H187.123C187.309 159.2 187.523 158.78 187.763 158.42C188.003 158.047 188.289 157.74 188.623 157.5C188.956 157.247 189.336 157.06 189.763 156.94C190.203 156.807 190.709 156.74 191.283 156.74C192.229 156.74 193.056 156.973 193.763 157.44C194.483 157.893 195.043 158.56 195.443 159.44C195.856 160.307 196.063 161.36 196.063 162.6V162.88C196.063 164.093 195.843 165.16 195.403 166.08C194.976 167 194.349 167.72 193.523 168.24C192.696 168.747 191.696 169 190.523 169H188.603L188.963 166.5H190.383C191.209 166.5 191.856 166.16 192.323 165.48C192.789 164.8 193.023 163.933 193.023 162.88V162.6C193.023 161.88 192.916 161.273 192.703 160.78C192.489 160.287 192.203 159.92 191.843 159.68C191.496 159.427 191.103 159.3 190.663 159.3C190.183 159.3 189.783 159.373 189.463 159.52C189.143 159.653 188.876 159.86 188.663 160.14C188.463 160.42 188.296 160.753 188.163 161.14C188.029 161.527 187.929 161.96 187.863 162.44L186.723 169H183.583ZM197.235 169L198.575 161.92L196.895 156.94H199.935L200.695 159.68H200.775C200.962 159.2 201.175 158.78 201.415 158.42C201.655 158.047 201.942 157.74 202.275 157.5C202.608 157.247 202.988 157.06 203.415 156.94C203.855 156.807 204.362 156.74 204.935 156.74C205.882 156.74 206.708 156.973 207.415 157.44C208.135 157.893 208.695 158.56 209.095 159.44C209.508 160.307 209.715 161.36 209.715 162.6V162.88C209.715 164.093 209.495 165.16 209.055 166.08C208.628 167 208.002 167.72 207.175 168.24C206.348 168.747 205.348 169 204.175 169H202.255L202.615 166.5H204.035C204.862 166.5 205.508 166.16 205.975 165.48C206.442 164.8 206.675 163.933 206.675 162.88V162.6C206.675 161.88 206.568 161.273 206.355 160.78C206.142 160.287 205.855 159.92 205.495 159.68C205.148 159.427 204.755 159.3 204.315 159.3C203.835 159.3 203.435 159.373 203.115 159.52C202.795 159.653 202.528 159.86 202.315 160.14C202.115 160.42 201.948 160.753 201.815 161.14C201.682 161.527 201.582 161.96 201.515 162.44L200.375 169H197.235Z" fill="black"/>
<mask id="path-6-outside-1_1366_25153" maskUnits="userSpaceOnUse" x="132" y="22.5" width="20" height="20" fill="black">
<rect fill="white" x="132" y="22.5" width="20" height="20"/>
<path d="M150 32.5C150 36.9183 146.418 40.5 142 40.5C137.582 40.5 134 36.9183 134 32.5C134 28.0817 137.582 24.5 142 24.5C146.418 24.5 150 28.0817 150 32.5ZM137.52 32.5C137.52 34.9742 139.526 36.98 142 36.98C144.474 36.98 146.48 34.9742 146.48 32.5C146.48 30.0258 144.474 28.02 142 28.02C139.526 28.02 137.52 30.0258 137.52 32.5Z"/>
</mask>
<path d="M150 32.5C150 36.9183 146.418 40.5 142 40.5C137.582 40.5 134 36.9183 134 32.5C134 28.0817 137.582 24.5 142 24.5C146.418 24.5 150 28.0817 150 32.5ZM137.52 32.5C137.52 34.9742 139.526 36.98 142 36.98C144.474 36.98 146.48 34.9742 146.48 32.5C146.48 30.0258 144.474 28.02 142 28.02C139.526 28.02 137.52 30.0258 137.52 32.5Z" fill="#C7A77F" fill-opacity="0.3"/>
<path d="M150 32.5C150 36.9183 146.418 40.5 142 40.5C137.582 40.5 134 36.9183 134 32.5C134 28.0817 137.582 24.5 142 24.5C146.418 24.5 150 28.0817 150 32.5ZM137.52 32.5C137.52 34.9742 139.526 36.98 142 36.98C144.474 36.98 146.48 34.9742 146.48 32.5C146.48 30.0258 144.474 28.02 142 28.02C139.526 28.02 137.52 30.0258 137.52 32.5Z" stroke="#C7A77F" stroke-opacity="0.3" stroke-width="4" mask="url(#path-6-outside-1_1366_25153)"/>
<path d="M148.24 32.5C149.212 32.5 150.019 31.7027 149.807 30.7541C149.554 29.6207 149.055 28.5489 148.337 27.6176C147.259 26.2184 145.749 25.2152 144.041 24.7646C142.333 24.3141 140.524 24.4414 138.896 25.1269C137.268 25.8123 135.912 27.0172 135.041 28.5537C134.17 30.0903 133.831 31.8719 134.079 33.6209C134.326 35.3698 135.146 36.9877 136.409 38.2221C137.673 39.4566 139.309 40.2382 141.063 40.445C142.231 40.5826 143.407 40.4605 144.509 40.0962C145.432 39.7913 145.702 38.6892 145.203 37.8551C144.704 37.0209 143.614 36.7906 142.653 36.9322C142.265 36.9893 141.869 36.9956 141.475 36.9492C140.493 36.8334 139.577 36.3957 138.869 35.7044C138.162 35.0131 137.703 34.1071 137.564 33.1277C137.426 32.1483 137.615 31.1505 138.103 30.2901C138.591 29.4296 139.35 28.7549 140.262 28.371C141.173 27.9872 142.186 27.9159 143.143 28.1682C144.099 28.4205 144.945 28.9823 145.549 29.7659C145.791 30.0802 145.989 30.4231 146.139 30.7849C146.511 31.6829 147.268 32.5 148.24 32.5Z" fill="#C7A77F"/>
<path d="M159.361 27.378C159.94 27.378 160.467 27.4667 160.943 27.644C161.429 27.8213 161.816 28.0873 162.105 28.442C162.404 28.7967 162.553 29.2447 162.553 29.786C162.553 30.3833 162.381 30.878 162.035 31.27C161.699 31.6527 161.275 31.97 160.761 32.222C161.116 32.4087 161.452 32.628 161.769 32.88C162.096 33.1227 162.357 33.412 162.553 33.748C162.759 34.0747 162.861 34.462 162.861 34.91C162.861 35.4607 162.712 35.9413 162.413 36.352C162.124 36.7627 161.713 37.08 161.181 37.304C160.659 37.528 160.052 37.64 159.361 37.64C158.241 37.64 157.373 37.402 156.757 36.926C156.151 36.45 155.847 35.7967 155.847 34.966C155.847 34.2753 156.034 33.72 156.407 33.3C156.781 32.88 157.233 32.5393 157.765 32.278C157.317 31.998 156.935 31.662 156.617 31.27C156.309 30.8687 156.155 30.3693 156.155 29.772C156.155 29.24 156.305 28.7967 156.603 28.442C156.902 28.0873 157.294 27.8213 157.779 27.644C158.274 27.4667 158.801 27.378 159.361 27.378ZM159.347 28.918C159.002 28.918 158.713 29.0067 158.479 29.184C158.255 29.3613 158.143 29.6133 158.143 29.94C158.143 30.2853 158.265 30.5653 158.507 30.78C158.75 30.9947 159.035 31.1813 159.361 31.34C159.679 31.1907 159.959 31.0133 160.201 30.808C160.444 30.5933 160.565 30.304 160.565 29.94C160.565 29.6133 160.449 29.3613 160.215 29.184C159.991 29.0067 159.702 28.918 159.347 28.918ZM157.807 34.84C157.807 35.204 157.933 35.5027 158.185 35.736C158.447 35.9693 158.829 36.086 159.333 36.086C159.856 36.086 160.248 35.974 160.509 35.75C160.771 35.526 160.901 35.2273 160.901 34.854C160.901 34.602 160.827 34.3827 160.677 34.196C160.528 34 160.341 33.8273 160.117 33.678C159.903 33.5193 159.679 33.3747 159.445 33.244L159.263 33.146C158.834 33.3513 158.484 33.5893 158.213 33.86C157.943 34.1307 157.807 34.4573 157.807 34.84ZM170.523 29.744C170.523 30.4347 170.313 30.9853 169.893 31.396C169.482 31.8067 168.974 32.0867 168.367 32.236V32.278C169.17 32.3713 169.776 32.614 170.187 33.006C170.607 33.398 170.817 33.9253 170.817 34.588C170.817 35.1667 170.672 35.6893 170.383 36.156C170.103 36.6133 169.664 36.9773 169.067 37.248C168.479 37.5093 167.718 37.64 166.785 37.64C165.702 37.64 164.741 37.458 163.901 37.094V35.302C164.33 35.5167 164.778 35.68 165.245 35.792C165.721 35.904 166.16 35.96 166.561 35.96C167.317 35.96 167.844 35.8293 168.143 35.568C168.451 35.3067 168.605 34.938 168.605 34.462C168.605 34.182 168.535 33.9487 168.395 33.762C168.255 33.566 168.008 33.4213 167.653 33.328C167.308 33.2253 166.822 33.174 166.197 33.174H165.441V31.55H166.211C166.827 31.55 167.294 31.494 167.611 31.382C167.938 31.2607 168.157 31.102 168.269 30.906C168.39 30.7007 168.451 30.4673 168.451 30.206C168.451 29.8513 168.339 29.576 168.115 29.38C167.9 29.1747 167.536 29.072 167.023 29.072C166.547 29.072 166.132 29.156 165.777 29.324C165.432 29.4827 165.138 29.6413 164.895 29.8L163.915 28.344C164.307 28.064 164.764 27.8307 165.287 27.644C165.819 27.4573 166.449 27.364 167.177 27.364C168.204 27.364 169.016 27.574 169.613 27.994C170.22 28.4047 170.523 28.988 170.523 29.744ZM174.167 27.364C174.951 27.364 175.544 27.6393 175.945 28.19C176.356 28.7313 176.561 29.4967 176.561 30.486C176.561 31.4753 176.37 32.25 175.987 32.81C175.604 33.3607 174.998 33.636 174.167 33.636C173.402 33.636 172.818 33.3607 172.417 32.81C172.016 32.25 171.815 31.4753 171.815 30.486C171.815 29.4967 172.002 28.7313 172.375 28.19C172.748 27.6393 173.346 27.364 174.167 27.364ZM181.265 27.504L175.721 37.5H174.083L179.627 27.504H181.265ZM174.181 28.792C173.752 28.792 173.537 29.3613 173.537 30.5C173.537 31.648 173.752 32.222 174.181 32.222C174.62 32.222 174.839 31.648 174.839 30.5C174.839 29.3613 174.62 28.792 174.181 28.792ZM181.167 31.354C181.951 31.354 182.544 31.6293 182.945 32.18C183.356 32.7213 183.561 33.4867 183.561 34.476C183.561 35.4653 183.37 36.24 182.987 36.8C182.604 37.3507 181.998 37.626 181.167 37.626C180.402 37.626 179.818 37.3507 179.417 36.8C179.016 36.24 178.815 35.4653 178.815 34.476C178.815 33.4867 179.002 32.7213 179.375 32.18C179.748 31.6293 180.346 31.354 181.167 31.354ZM181.181 32.782C180.752 32.782 180.537 33.3513 180.537 34.49C180.537 35.638 180.752 36.212 181.181 36.212C181.62 36.212 181.839 35.638 181.839 34.49C181.839 33.3513 181.62 32.782 181.181 32.782Z" fill="#8A8A8A"/>
<path d="M191.305 28.932L188.113 37.5H187.081L190.273 28.932H191.305ZM195.686 37.5H194.654V31.512C194.654 31.168 194.658 30.892 194.666 30.684C194.674 30.476 194.686 30.26 194.702 30.036C194.574 30.164 194.458 30.272 194.354 30.36C194.25 30.448 194.118 30.56 193.958 30.696L193.046 31.44L192.494 30.732L194.81 28.932H195.686V37.5ZM204.569 33.204C204.569 34.124 204.473 34.916 204.281 35.58C204.089 36.236 203.785 36.74 203.369 37.092C202.953 37.444 202.401 37.62 201.713 37.62C200.745 37.62 200.029 37.232 199.565 36.456C199.109 35.672 198.881 34.588 198.881 33.204C198.881 32.276 198.973 31.484 199.157 30.828C199.349 30.172 199.653 29.672 200.069 29.328C200.485 28.976 201.033 28.8 201.713 28.8C202.673 28.8 203.389 29.188 203.861 29.964C204.333 30.732 204.569 31.812 204.569 33.204ZM199.937 33.204C199.937 34.38 200.069 35.26 200.333 35.844C200.605 36.428 201.065 36.72 201.713 36.72C202.353 36.72 202.809 36.432 203.081 35.856C203.361 35.272 203.501 34.388 203.501 33.204C203.501 32.036 203.361 31.16 203.081 30.576C202.809 29.992 202.353 29.7 201.713 29.7C201.065 29.7 200.605 29.992 200.333 30.576C200.069 31.16 199.937 32.036 199.937 33.204ZM211.436 33.204C211.436 34.124 211.34 34.916 211.148 35.58C210.956 36.236 210.652 36.74 210.236 37.092C209.82 37.444 209.268 37.62 208.58 37.62C207.612 37.62 206.896 37.232 206.432 36.456C205.976 35.672 205.748 34.588 205.748 33.204C205.748 32.276 205.84 31.484 206.024 30.828C206.216 30.172 206.52 29.672 206.936 29.328C207.352 28.976 207.9 28.8 208.58 28.8C209.54 28.8 210.256 29.188 210.728 29.964C211.2 30.732 211.436 31.812 211.436 33.204ZM206.804 33.204C206.804 34.38 206.936 35.26 207.2 35.844C207.472 36.428 207.932 36.72 208.58 36.72C209.22 36.72 209.676 36.432 209.948 35.856C210.228 35.272 210.368 34.388 210.368 33.204C210.368 32.036 210.228 31.16 209.948 30.576C209.676 29.992 209.22 29.7 208.58 29.7C207.932 29.7 207.472 29.992 207.2 30.576C206.936 31.16 206.804 32.036 206.804 33.204ZM214.367 28.812C214.959 28.812 215.407 29.048 215.711 29.52C216.015 29.984 216.167 30.64 216.167 31.488C216.167 32.336 216.019 33 215.723 33.48C215.435 33.952 214.983 34.188 214.367 34.188C213.799 34.188 213.363 33.952 213.059 33.48C212.763 33 212.615 32.336 212.615 31.488C212.615 30.64 212.755 29.984 213.035 29.52C213.315 29.048 213.759 28.812 214.367 28.812ZM219.851 28.932L215.099 37.5H214.175L218.927 28.932H219.851ZM214.367 29.556C214.063 29.556 213.839 29.72 213.695 30.048C213.559 30.368 213.491 30.848 213.491 31.488C213.491 32.128 213.559 32.612 213.695 32.94C213.839 33.268 214.063 33.432 214.367 33.432C214.983 33.432 215.291 32.784 215.291 31.488C215.291 30.2 214.983 29.556 214.367 29.556ZM219.611 32.244C220.195 32.244 220.639 32.48 220.943 32.952C221.255 33.416 221.411 34.072 221.411 34.92C221.411 35.768 221.263 36.432 220.967 36.912C220.679 37.384 220.227 37.62 219.611 37.62C219.043 37.62 218.607 37.384 218.303 36.912C218.007 36.432 217.859 35.768 217.859 34.92C217.859 34.072 217.999 33.416 218.279 32.952C218.559 32.48 219.003 32.244 219.611 32.244ZM219.611 33C219.307 33 219.083 33.16 218.939 33.48C218.803 33.8 218.735 34.28 218.735 34.92C218.735 35.568 218.803 36.056 218.939 36.384C219.083 36.704 219.307 36.864 219.611 36.864C220.227 36.864 220.535 36.216 220.535 34.92C220.535 33.64 220.227 33 219.611 33Z" fill="#8A8A8A"/>
<!--g filter="url(#filter0_d_1366_25153)">
<rect x="313" y="12" width="36" height="36" rx="18" fill="white" shape-rendering="crispEdges"/>
<path d="M323 25H339M339 25L335 29M339 25L335 21M339 35H323M323 35L327 39M323 35L327 31" stroke="black" stroke-width="2" stroke-linecap="round" stroke-linejoin="round"/>
</g-->
</g>
<defs>
<filter id="filter0_d_1366_25153" x="311" y="10" width="40" height="40" filterUnits="userSpaceOnUse" color-interpolation-filters="sRGB">
<feFlood flood-opacity="0" result="BackgroundImageFix"/>
<feColorMatrix in="SourceAlpha" type="matrix" values="0 0 0 0 0 0 0 0 0 0 0 0 0 0 0 0 0 0 127 0" result="hardAlpha"/>
<feOffset/>
<feGaussianBlur stdDeviation="1"/>
<feComposite in2="hardAlpha" operator="out"/>
<feColorMatrix type="matrix" values="0 0 0 0 0 0 0 0 0 0 0 0 0 0 0 0 0 0 0.25 0"/>
<feBlend mode="normal" in2="BackgroundImageFix" result="effect1_dropShadow_1366_25153"/>
<feBlend mode="normal" in="SourceGraphic" in2="effect1_dropShadow_1366_25153" result="shape"/>
</filter>
<linearGradient id="paint0_linear_1366_25153" x1="99" y1="144.616" x2="262.202" y2="144.616" gradientUnits="userSpaceOnUse">
<stop stop-color="#8F6B45"/>
<stop offset="1" stop-color="#C7A77F"/>
</linearGradient>
<clipPath id="clip0_1366_25153">
<rect width="361" height="258.5" fill="white"/>
</clipPath>
</defs>
</svg>
