<svg width="361" height="259" viewBox="0 0 361 259" fill="none" xmlns="http://www.w3.org/2000/svg">
<g clip-path="url(#clip0_1366_25063)">
<rect width="361" height="258.5" rx="4" fill="#FAFAFA"/>
<path d="M150.478 58.496C151.952 58.496 153.266 58.7793 154.422 59.346C155.578 59.9127 156.485 60.74 157.142 61.828C157.822 62.916 158.162 64.2647 158.162 65.874C158.162 67.6193 157.8 69.1267 157.074 70.396C156.349 71.6653 155.261 72.64 153.81 73.32C152.382 74 150.603 74.34 148.472 74.34C147.203 74.34 146.002 74.2267 144.868 74C143.758 73.7733 142.783 73.4447 141.944 73.014V68.594C142.783 69.0247 143.792 69.3987 144.97 69.716C146.149 70.0107 147.26 70.158 148.302 70.158C149.322 70.158 150.172 70.022 150.852 69.75C151.555 69.478 152.088 69.0587 152.45 68.492C152.813 67.9253 152.994 67.2 152.994 66.316C152.994 65.1147 152.598 64.208 151.804 63.596C151.011 62.9613 149.787 62.644 148.132 62.644C147.498 62.644 146.84 62.712 146.16 62.848C145.48 62.9613 144.914 63.0747 144.46 63.188L142.42 62.1L143.338 49.724H156.496V54.076H147.826L147.384 58.836C147.77 58.768 148.178 58.7 148.608 58.632C149.062 58.5413 149.685 58.496 150.478 58.496ZM166.331 70.43C166.127 71.2233 165.867 72.0847 165.549 73.014C165.232 73.9207 164.892 74.8273 164.529 75.734C164.167 76.6633 163.793 77.5473 163.407 78.386H159.769C159.996 77.4793 160.211 76.5273 160.415 75.53C160.619 74.5553 160.812 73.592 160.993 72.64C161.175 71.688 161.322 70.8267 161.435 70.056H166.093L166.331 70.43ZM168.581 63.698C168.581 62.2927 168.683 60.91 168.887 59.55C169.091 58.19 169.442 56.9093 169.941 55.708C170.462 54.484 171.176 53.4073 172.083 52.478C173.012 51.526 174.179 50.7893 175.585 50.268C177.013 49.724 178.735 49.452 180.753 49.452C181.229 49.452 181.784 49.4747 182.419 49.52C183.053 49.5427 183.586 49.5993 184.017 49.69V53.804C183.586 53.6907 183.11 53.6113 182.589 53.566C182.09 53.498 181.591 53.464 181.093 53.464C179.574 53.464 178.316 53.6453 177.319 54.008C176.344 54.3707 175.573 54.892 175.007 55.572C174.44 56.252 174.021 57.0567 173.749 57.986C173.499 58.8927 173.352 59.9127 173.307 61.046H173.511C173.828 60.502 174.213 60.026 174.667 59.618C175.143 59.1873 175.721 58.8473 176.401 58.598C177.081 58.3487 177.874 58.224 178.781 58.224C180.209 58.224 181.433 58.53 182.453 59.142C183.495 59.7313 184.3 60.604 184.867 61.76C185.433 62.8933 185.717 64.276 185.717 65.908C185.717 67.6533 185.377 69.1607 184.697 70.43C184.039 71.6993 183.087 72.674 181.841 73.354C180.617 74.0113 179.155 74.34 177.455 74.34C176.208 74.34 175.041 74.1247 173.953 73.694C172.887 73.2633 171.947 72.6173 171.131 71.756C170.337 70.872 169.714 69.7613 169.261 68.424C168.807 67.0867 168.581 65.5113 168.581 63.698ZM177.353 70.226C178.35 70.226 179.166 69.886 179.801 69.206C180.435 68.5033 180.753 67.4267 180.753 65.976C180.753 64.7973 180.481 63.868 179.937 63.188C179.393 62.508 178.565 62.168 177.455 62.168C176.707 62.168 176.049 62.338 175.483 62.678C174.916 62.9953 174.474 63.4147 174.157 63.936C173.839 64.4573 173.681 64.99 173.681 65.534C173.681 66.1007 173.76 66.6673 173.919 67.234C174.077 67.778 174.304 68.2767 174.599 68.73C174.916 69.1833 175.301 69.546 175.755 69.818C176.208 70.09 176.741 70.226 177.353 70.226ZM204.018 61.862C204.018 63.8113 203.859 65.5567 203.542 67.098C203.247 68.6393 202.76 69.954 202.08 71.042C201.422 72.1073 200.55 72.9233 199.462 73.49C198.396 74.0567 197.082 74.34 195.518 74.34C193.568 74.34 191.97 73.8413 190.724 72.844C189.477 71.8467 188.548 70.4187 187.936 68.56C187.346 66.7013 187.052 64.4687 187.052 61.862C187.052 59.2327 187.324 56.9887 187.868 55.13C188.412 53.2713 189.307 51.8433 190.554 50.846C191.8 49.8487 193.455 49.35 195.518 49.35C197.467 49.35 199.065 49.8487 200.312 50.846C201.558 51.8207 202.488 53.2487 203.1 55.13C203.712 56.9887 204.018 59.2327 204.018 61.862ZM192.152 61.862C192.152 63.698 192.254 65.2393 192.458 66.486C192.662 67.71 193.002 68.6393 193.478 69.274C193.976 69.886 194.656 70.192 195.518 70.192C196.379 70.192 197.048 69.886 197.524 69.274C198.022 68.662 198.374 67.744 198.578 66.52C198.804 65.2733 198.918 63.7207 198.918 61.862C198.918 60.0033 198.804 58.462 198.578 57.238C198.374 55.9913 198.022 55.062 197.524 54.45C197.048 53.8153 196.379 53.498 195.518 53.498C194.656 53.498 193.976 53.8153 193.478 54.45C193.002 55.062 192.662 55.9913 192.458 57.238C192.254 58.462 192.152 60.0033 192.152 61.862ZM222.455 61.862C222.455 63.8113 222.296 65.5567 221.979 67.098C221.684 68.6393 221.197 69.954 220.517 71.042C219.859 72.1073 218.987 72.9233 217.899 73.49C216.833 74.0567 215.519 74.34 213.955 74.34C212.005 74.34 210.407 73.8413 209.161 72.844C207.914 71.8467 206.985 70.4187 206.373 68.56C205.783 66.7013 205.489 64.4687 205.489 61.862C205.489 59.2327 205.761 56.9887 206.305 55.13C206.849 53.2713 207.744 51.8433 208.991 50.846C210.237 49.8487 211.892 49.35 213.955 49.35C215.904 49.35 217.502 49.8487 218.749 50.846C219.995 51.8207 220.925 53.2487 221.537 55.13C222.149 56.9887 222.455 59.2327 222.455 61.862ZM210.589 61.862C210.589 63.698 210.691 65.2393 210.895 66.486C211.099 67.71 211.439 68.6393 211.915 69.274C212.413 69.886 213.093 70.192 213.955 70.192C214.816 70.192 215.485 69.886 215.961 69.274C216.459 68.662 216.811 67.744 217.015 66.52C217.241 65.2733 217.355 63.7207 217.355 61.862C217.355 60.0033 217.241 58.462 217.015 57.238C216.811 55.9913 216.459 55.062 215.961 54.45C215.485 53.8153 214.816 53.498 213.955 53.498C213.093 53.498 212.413 53.8153 211.915 54.45C211.439 55.062 211.099 55.9913 210.895 57.238C210.691 58.462 210.589 60.0033 210.589 61.862Z" fill="#111111"/>
<path d="M174.178 87.558C175.242 87.558 176.045 87.81 176.586 88.314C177.128 88.8087 177.398 89.546 177.398 90.526V96H175.27V90.568C175.27 90.148 175.168 89.8353 174.962 89.63C174.757 89.4153 174.458 89.308 174.066 89.308H172.134C172.088 89.3827 172.041 89.5087 171.994 89.686C171.957 89.854 171.938 90.148 171.938 90.568V96H169.81V91.212C169.81 90.8387 169.843 90.5027 169.908 90.204C169.983 89.896 170.128 89.6113 170.342 89.35L170.23 89.252V87.558H174.178ZM169.11 89.308L169.334 87.558H173.268V89.308H169.11ZM178.442 91.408C178.526 91.1093 178.6 90.792 178.666 90.456C178.74 90.12 178.81 89.784 178.876 89.448C178.941 89.1027 178.997 88.7713 179.044 88.454C179.1 88.1273 179.142 87.8287 179.17 87.558H181.018L181.102 87.712C181.018 88.0573 180.915 88.454 180.794 88.902C180.672 89.3407 180.542 89.784 180.402 90.232C180.262 90.68 180.112 91.072 179.954 91.408H178.442ZM181.55 91.408C181.662 91.0067 181.76 90.5773 181.844 90.12C181.937 89.6627 182.021 89.2147 182.096 88.776C182.18 88.328 182.24 87.922 182.278 87.558H184.126L184.196 87.712C184.121 88.0573 184.023 88.454 183.902 88.902C183.78 89.3407 183.65 89.784 183.51 90.232C183.37 90.68 183.22 91.072 183.062 91.408H181.55ZM189.982 96.098C189.012 96.098 188.176 95.9067 187.476 95.524C186.776 95.1413 186.24 94.572 185.866 93.816C185.493 93.06 185.306 92.108 185.306 90.96V87.558H187.42V90.946C187.42 91.758 187.518 92.4207 187.714 92.934C187.91 93.438 188.195 93.8113 188.568 94.054C188.951 94.2873 189.408 94.404 189.94 94.404H189.996C190.547 94.3947 191.009 94.2733 191.382 94.04C191.765 93.8067 192.054 93.438 192.25 92.934C192.446 92.4207 192.544 91.7627 192.544 90.96V87.558H194.672V90.974C194.672 92.122 194.486 93.074 194.112 93.83C193.739 94.5767 193.207 95.1413 192.516 95.524C191.835 95.8973 191.014 96.0887 190.052 96.098H189.982ZM186.818 92.682L186.706 91.254C187.313 91.2913 187.775 91.2213 188.092 91.044C188.41 90.8573 188.629 90.568 188.75 90.176C188.881 89.784 188.946 89.3033 188.946 88.734V87.558H191.06V88.636C191.06 89.2613 190.986 89.8307 190.836 90.344C190.696 90.8573 190.463 91.2913 190.136 91.646C189.81 92.0007 189.376 92.2713 188.834 92.458C188.293 92.6353 187.621 92.71 186.818 92.682Z" fill="black"/>
<path d="M148.5 36.4996C151 30.9996 152.392 30.4303 154.695 34.9565C155.037 35.6279 157.413 28.8293 158 28.4997C158.434 28.2559 160.007 33.9336 160.326 33.438C162.317 30.3412 166.764 24.4719 168.241 29.117C168.953 31.3572 175.941 27.7836 176.506 25.5" stroke="#C7A77F" stroke-opacity="0.2" stroke-width="6" stroke-linecap="round"/>
<path d="M148.5 36.4996C151 30.9996 152.392 30.4303 154.695 34.9565C155.037 35.6279 157.413 28.8293 158 28.4997C158.434 28.2559 160.007 33.9336 160.326 33.438C162.317 30.3412 166.764 24.4719 168.241 29.117C168.953 31.3572 175.941 27.7836 176.506 25.5" stroke="#C7A77F" stroke-width="2" stroke-linecap="round"/>
<path d="M185.592 30.316H188.238V31.814H185.592V34.446H184.094V31.814H181.448V30.316H184.094V27.656H185.592V30.316ZM190.411 36L194.163 27.782H189.235V26.004H196.403V27.334L192.623 36H190.411ZM201.069 29.616C201.676 29.616 202.217 29.7327 202.693 29.966C203.169 30.1993 203.542 30.54 203.813 30.988C204.093 31.436 204.233 31.9913 204.233 32.654C204.233 33.3727 204.084 33.9933 203.785 34.516C203.486 35.0387 203.038 35.44 202.441 35.72C201.853 36 201.12 36.14 200.243 36.14C199.72 36.14 199.226 36.0933 198.759 36C198.302 35.9067 197.9 35.7713 197.555 35.594V33.774C197.9 33.9513 198.316 34.1053 198.801 34.236C199.286 34.3573 199.744 34.418 200.173 34.418C200.593 34.418 200.943 34.362 201.223 34.25C201.512 34.138 201.732 33.9653 201.881 33.732C202.03 33.4987 202.105 33.2 202.105 32.836C202.105 32.3413 201.942 31.968 201.615 31.716C201.288 31.4547 200.784 31.324 200.103 31.324C199.842 31.324 199.571 31.352 199.291 31.408C199.011 31.4547 198.778 31.5013 198.591 31.548L197.751 31.1L198.129 26.004H203.547V27.796H199.977L199.795 29.756C199.954 29.728 200.122 29.7 200.299 29.672C200.486 29.6347 200.742 29.616 201.069 29.616ZM207.667 25.864C208.451 25.864 209.044 26.1393 209.445 26.69C209.856 27.2313 210.061 27.9967 210.061 28.986C210.061 29.9753 209.87 30.75 209.487 31.31C209.104 31.8607 208.498 32.136 207.667 32.136C207.154 32.136 206.72 32.01 206.365 31.758C206.02 31.506 205.758 31.1467 205.581 30.68C205.404 30.204 205.315 29.6393 205.315 28.986C205.315 27.9967 205.502 27.2313 205.875 26.69C206.248 26.1393 206.846 25.864 207.667 25.864ZM207.681 27.292C207.457 27.292 207.294 27.432 207.191 27.712C207.088 27.992 207.037 28.4213 207.037 29C207.037 29.5693 207.088 29.9987 207.191 30.288C207.294 30.5773 207.457 30.722 207.681 30.722C207.905 30.722 208.068 30.5773 208.171 30.288C208.283 29.9987 208.339 29.5693 208.339 29C208.339 28.4213 208.283 27.992 208.171 27.712C208.068 27.432 207.905 27.292 207.681 27.292ZM214.765 26.004L209.221 36H207.583L213.127 26.004H214.765ZM214.667 29.854C215.19 29.854 215.628 29.98 215.983 30.232C216.338 30.4747 216.604 30.8293 216.781 31.296C216.968 31.7533 217.061 32.3133 217.061 32.976C217.061 33.9653 216.87 34.74 216.487 35.3C216.104 35.8507 215.498 36.126 214.667 36.126C214.154 36.126 213.72 36 213.365 35.748C213.02 35.496 212.758 35.1367 212.581 34.67C212.404 34.194 212.315 33.6293 212.315 32.976C212.315 31.9867 212.502 31.2213 212.875 30.68C213.248 30.1293 213.846 29.854 214.667 29.854ZM214.681 31.282C214.457 31.282 214.294 31.422 214.191 31.702C214.088 31.982 214.037 32.4113 214.037 32.99C214.037 33.5593 214.088 33.9887 214.191 34.278C214.294 34.5673 214.457 34.712 214.681 34.712C214.905 34.712 215.068 34.572 215.171 34.292C215.283 34.0027 215.339 33.5687 215.339 32.99C215.339 32.4113 215.283 31.982 215.171 31.702C215.068 31.422 214.905 31.282 214.681 31.282Z" fill="#8A8A8A"/>
<rect x="44.6089" y="17" width="1.07453" height="194.83" fill="black" fill-opacity="0.05"/>
<rect x="86.1128" y="17" width="1.07453" height="194.83" fill="black" fill-opacity="0.05"/>
<rect x="127.617" y="17" width="1.07453" height="194.83" fill="black" fill-opacity="0.05"/>
<rect x="169.121" y="17" width="1.07453" height="194.83" fill="black" fill-opacity="0.05"/>
<rect x="210.625" y="17" width="1.07453" height="194.83" fill="black" fill-opacity="0.05"/>
<rect x="252.128" y="17" width="1.07453" height="194.83" fill="black" fill-opacity="0.05"/>
<rect x="293.632" y="17" width="1.07453" height="194.83" fill="black" fill-opacity="0.05"/>
<rect x="335.136" y="17" width="1.07453" height="194.83" fill="black" fill-opacity="0.05"/>
<path d="M42.0862 237.194H41.0542V231.206C41.0542 230.862 41.0582 230.586 41.0662 230.378C41.0742 230.17 41.0862 229.954 41.1022 229.73C40.9742 229.858 40.8582 229.966 40.7542 230.054C40.6502 230.142 40.5182 230.254 40.3582 230.39L39.4462 231.134L38.8942 230.426L41.2102 228.626H42.0862V237.194ZM51.0894 232.898C51.0894 233.818 50.9934 234.61 50.8014 235.274C50.6094 235.93 50.3054 236.434 49.8894 236.786C49.4734 237.138 48.9214 237.314 48.2334 237.314C47.2654 237.314 46.5494 236.926 46.0854 236.15C45.6294 235.366 45.4014 234.282 45.4014 232.898C45.4014 231.97 45.4934 231.178 45.6774 230.522C45.8694 229.866 46.1734 229.366 46.5894 229.022C47.0054 228.67 47.5534 228.494 48.2334 228.494C49.1934 228.494 49.9094 228.882 50.3814 229.658C50.8534 230.426 51.0894 231.506 51.0894 232.898ZM46.4574 232.898C46.4574 234.074 46.5894 234.954 46.8534 235.538C47.1254 236.122 47.5854 236.414 48.2334 236.414C48.8734 236.414 49.3294 236.126 49.6014 235.55C49.8814 234.966 50.0214 234.082 50.0214 232.898C50.0214 231.73 49.8814 230.854 49.6014 230.27C49.3294 229.686 48.8734 229.394 48.2334 229.394C47.5854 229.394 47.1254 229.686 46.8534 230.27C46.5894 230.854 46.4574 231.73 46.4574 232.898Z" fill="#595959"/>
<path d="M86.2756 237.194H80.6116V236.318L82.8556 234.05C83.2876 233.618 83.6516 233.234 83.9476 232.898C84.2436 232.562 84.4676 232.234 84.6196 231.914C84.7716 231.586 84.8476 231.23 84.8476 230.846C84.8476 230.374 84.7076 230.018 84.4276 229.778C84.1476 229.53 83.7836 229.406 83.3356 229.406C82.9196 229.406 82.5516 229.478 82.2316 229.622C81.9196 229.766 81.5996 229.966 81.2716 230.222L80.7076 229.514C81.0436 229.234 81.4276 228.998 81.8596 228.806C82.2996 228.606 82.7916 228.506 83.3356 228.506C84.1356 228.506 84.7676 228.71 85.2316 229.118C85.6956 229.518 85.9276 230.074 85.9276 230.786C85.9276 231.234 85.8356 231.654 85.6516 232.046C85.4676 232.438 85.2116 232.826 84.8836 233.21C84.5556 233.586 84.1716 233.99 83.7316 234.422L81.9436 236.186V236.234H86.2756V237.194ZM93.2988 232.898C93.2988 233.818 93.2028 234.61 93.0108 235.274C92.8188 235.93 92.5148 236.434 92.0988 236.786C91.6828 237.138 91.1308 237.314 90.4428 237.314C89.4748 237.314 88.7588 236.926 88.2948 236.15C87.8388 235.366 87.6108 234.282 87.6108 232.898C87.6108 231.97 87.7028 231.178 87.8868 230.522C88.0788 229.866 88.3828 229.366 88.7988 229.022C89.2148 228.67 89.7628 228.494 90.4428 228.494C91.4028 228.494 92.1188 228.882 92.5908 229.658C93.0628 230.426 93.2988 231.506 93.2988 232.898ZM88.6668 232.898C88.6668 234.074 88.7988 234.954 89.0628 235.538C89.3348 236.122 89.7948 236.414 90.4428 236.414C91.0828 236.414 91.5388 236.126 91.8108 235.55C92.0908 234.966 92.2308 234.082 92.2308 232.898C92.2308 231.73 92.0908 230.854 91.8108 230.27C91.5388 229.686 91.0828 229.394 90.4428 229.394C89.7948 229.394 89.3348 229.686 89.0628 230.27C88.7988 230.854 88.6668 231.73 88.6668 232.898Z" fill="#595959"/>
<path d="M128.161 230.63C128.161 231.206 128.001 231.666 127.681 232.01C127.361 232.346 126.929 232.57 126.385 232.682V232.73C127.073 232.81 127.585 233.026 127.921 233.378C128.257 233.73 128.425 234.19 128.425 234.758C128.425 235.254 128.309 235.698 128.077 236.09C127.845 236.474 127.485 236.774 126.997 236.99C126.517 237.206 125.897 237.314 125.137 237.314C124.689 237.314 124.273 237.278 123.889 237.206C123.505 237.142 123.137 237.022 122.785 236.846V235.862C123.145 236.038 123.533 236.178 123.949 236.282C124.365 236.378 124.765 236.426 125.149 236.426C125.917 236.426 126.469 236.278 126.805 235.982C127.149 235.678 127.321 235.262 127.321 234.734C127.321 234.198 127.109 233.814 126.685 233.582C126.269 233.342 125.681 233.222 124.921 233.222H124.093V232.322H124.933C125.637 232.322 126.169 232.174 126.529 231.878C126.897 231.582 127.081 231.19 127.081 230.702C127.081 230.286 126.941 229.966 126.661 229.742C126.381 229.51 126.001 229.394 125.521 229.394C125.057 229.394 124.661 229.462 124.333 229.598C124.005 229.734 123.681 229.906 123.361 230.114L122.833 229.394C123.137 229.154 123.513 228.946 123.961 228.77C124.417 228.594 124.933 228.506 125.509 228.506C126.405 228.506 127.069 228.706 127.501 229.106C127.941 229.506 128.161 230.014 128.161 230.63ZM135.508 232.898C135.508 233.818 135.412 234.61 135.22 235.274C135.028 235.93 134.724 236.434 134.308 236.786C133.892 237.138 133.34 237.314 132.652 237.314C131.684 237.314 130.968 236.926 130.504 236.15C130.048 235.366 129.82 234.282 129.82 232.898C129.82 231.97 129.912 231.178 130.096 230.522C130.288 229.866 130.592 229.366 131.008 229.022C131.424 228.67 131.972 228.494 132.652 228.494C133.612 228.494 134.328 228.882 134.8 229.658C135.272 230.426 135.508 231.506 135.508 232.898ZM130.876 232.898C130.876 234.074 131.008 234.954 131.272 235.538C131.544 236.122 132.004 236.414 132.652 236.414C133.292 236.414 133.748 236.126 134.02 235.55C134.3 234.966 134.44 234.082 134.44 232.898C134.44 231.73 134.3 230.854 134.02 230.27C133.748 229.686 133.292 229.394 132.652 229.394C132.004 229.394 131.544 229.686 131.272 230.27C131.008 230.854 130.876 231.73 130.876 232.898Z" fill="#595959"/>
<path d="M171.079 235.25H169.831V237.194H168.811V235.25H164.707V234.35L168.739 228.578H169.831V234.302H171.079V235.25ZM168.811 231.602C168.811 231.186 168.819 230.834 168.835 230.546C168.851 230.25 168.863 229.97 168.871 229.706H168.823C168.759 229.858 168.679 230.022 168.583 230.198C168.487 230.374 168.395 230.522 168.307 230.642L165.739 234.302H168.811V231.602ZM177.718 232.898C177.718 233.818 177.622 234.61 177.43 235.274C177.238 235.93 176.934 236.434 176.518 236.786C176.102 237.138 175.55 237.314 174.862 237.314C173.894 237.314 173.178 236.926 172.714 236.15C172.258 235.366 172.03 234.282 172.03 232.898C172.03 231.97 172.122 231.178 172.306 230.522C172.498 229.866 172.802 229.366 173.218 229.022C173.634 228.67 174.182 228.494 174.862 228.494C175.822 228.494 176.538 228.882 177.01 229.658C177.482 230.426 177.718 231.506 177.718 232.898ZM173.086 232.898C173.086 234.074 173.218 234.954 173.482 235.538C173.754 236.122 174.214 236.414 174.862 236.414C175.502 236.414 175.958 236.126 176.23 235.55C176.51 234.966 176.65 234.082 176.65 232.898C176.65 231.73 176.51 230.854 176.23 230.27C175.958 229.686 175.502 229.394 174.862 229.394C174.214 229.394 173.754 229.686 173.482 230.27C173.218 230.854 173.086 231.73 173.086 232.898Z" fill="#595959"/>
<path d="M209.964 231.938C210.844 231.938 211.544 232.158 212.064 232.598C212.584 233.038 212.844 233.658 212.844 234.458C212.844 235.346 212.56 236.046 211.992 236.558C211.432 237.062 210.648 237.314 209.64 237.314C209.2 237.314 208.784 237.274 208.392 237.194C208.008 237.114 207.684 236.998 207.42 236.846V235.85C207.708 236.026 208.056 236.166 208.464 236.27C208.88 236.366 209.276 236.414 209.652 236.414C210.284 236.414 210.792 236.266 211.176 235.97C211.568 235.666 211.764 235.198 211.764 234.566C211.764 234.006 211.592 233.578 211.248 233.282C210.904 232.978 210.36 232.826 209.616 232.826C209.392 232.826 209.136 232.846 208.848 232.886C208.56 232.926 208.328 232.966 208.152 233.006L207.624 232.67L207.948 228.626H212.244V229.586H208.848L208.644 232.07C208.78 232.046 208.964 232.018 209.196 231.986C209.428 231.954 209.684 231.938 209.964 231.938ZM219.927 232.898C219.927 233.818 219.831 234.61 219.639 235.274C219.447 235.93 219.143 236.434 218.727 236.786C218.311 237.138 217.759 237.314 217.071 237.314C216.103 237.314 215.387 236.926 214.923 236.15C214.467 235.366 214.239 234.282 214.239 232.898C214.239 231.97 214.331 231.178 214.515 230.522C214.707 229.866 215.011 229.366 215.427 229.022C215.843 228.67 216.391 228.494 217.071 228.494C218.031 228.494 218.747 228.882 219.219 229.658C219.691 230.426 219.927 231.506 219.927 232.898ZM215.295 232.898C215.295 234.074 215.427 234.954 215.691 235.538C215.963 236.122 216.423 236.414 217.071 236.414C217.711 236.414 218.167 236.126 218.439 235.55C218.719 234.966 218.859 234.082 218.859 232.898C218.859 231.73 218.719 230.854 218.439 230.27C218.167 229.686 217.711 229.394 217.071 229.394C216.423 229.394 215.963 229.686 215.691 230.27C215.427 230.854 215.295 231.73 215.295 232.898Z" fill="#595959"/>
<path d="M249.533 233.534C249.533 232.918 249.585 232.314 249.689 231.722C249.801 231.122 249.997 230.582 250.277 230.102C250.565 229.614 250.965 229.226 251.477 228.938C251.989 228.65 252.649 228.506 253.457 228.506C253.625 228.506 253.809 228.514 254.009 228.53C254.217 228.546 254.385 228.574 254.513 228.614V229.514C254.369 229.466 254.205 229.43 254.021 229.406C253.845 229.382 253.665 229.37 253.481 229.37C252.929 229.37 252.469 229.462 252.101 229.646C251.733 229.83 251.441 230.082 251.225 230.402C251.017 230.722 250.865 231.09 250.769 231.506C250.673 231.922 250.613 232.366 250.589 232.838H250.661C250.845 232.558 251.101 232.322 251.429 232.13C251.757 231.93 252.177 231.83 252.689 231.83C253.433 231.83 254.033 232.058 254.489 232.514C254.945 232.962 255.173 233.602 255.173 234.434C255.173 235.33 254.925 236.034 254.429 236.546C253.941 237.058 253.281 237.314 252.449 237.314C251.905 237.314 251.413 237.178 250.973 236.906C250.533 236.634 250.181 236.218 249.917 235.658C249.661 235.098 249.533 234.39 249.533 233.534ZM252.437 236.426C252.941 236.426 253.349 236.266 253.661 235.946C253.973 235.618 254.129 235.114 254.129 234.434C254.129 233.89 253.989 233.458 253.709 233.138C253.437 232.818 253.025 232.658 252.473 232.658C252.097 232.658 251.769 232.738 251.489 232.898C251.209 233.05 250.989 233.246 250.829 233.486C250.677 233.726 250.601 233.974 250.601 234.23C250.601 234.574 250.669 234.918 250.805 235.262C250.941 235.598 251.145 235.878 251.417 236.102C251.689 236.318 252.029 236.426 252.437 236.426ZM262.136 232.898C262.136 233.818 262.04 234.61 261.848 235.274C261.656 235.93 261.352 236.434 260.936 236.786C260.52 237.138 259.968 237.314 259.28 237.314C258.312 237.314 257.596 236.926 257.132 236.15C256.676 235.366 256.448 234.282 256.448 232.898C256.448 231.97 256.54 231.178 256.724 230.522C256.916 229.866 257.22 229.366 257.636 229.022C258.052 228.67 258.6 228.494 259.28 228.494C260.24 228.494 260.956 228.882 261.428 229.658C261.9 230.426 262.136 231.506 262.136 232.898ZM257.504 232.898C257.504 234.074 257.636 234.954 257.9 235.538C258.172 236.122 258.632 236.414 259.28 236.414C259.92 236.414 260.376 236.126 260.648 235.55C260.928 234.966 261.068 234.082 261.068 232.898C261.068 231.73 260.928 230.854 260.648 230.27C260.376 229.686 259.92 229.394 259.28 229.394C258.632 229.394 258.172 229.686 257.9 230.27C257.636 230.854 257.504 231.73 257.504 232.898Z" fill="#595959"/>
<path d="M292.715 237.194L296.231 229.586H291.611V228.626H297.359V229.442L293.879 237.194H292.715ZM304.346 232.898C304.346 233.818 304.25 234.61 304.058 235.274C303.866 235.93 303.562 236.434 303.146 236.786C302.73 237.138 302.178 237.314 301.49 237.314C300.522 237.314 299.806 236.926 299.342 236.15C298.886 235.366 298.658 234.282 298.658 232.898C298.658 231.97 298.75 231.178 298.934 230.522C299.126 229.866 299.43 229.366 299.846 229.022C300.262 228.67 300.81 228.494 301.49 228.494C302.45 228.494 303.166 228.882 303.638 229.658C304.11 230.426 304.346 231.506 304.346 232.898ZM299.714 232.898C299.714 234.074 299.846 234.954 300.11 235.538C300.382 236.122 300.842 236.414 301.49 236.414C302.13 236.414 302.586 236.126 302.858 235.55C303.138 234.966 303.278 234.082 303.278 232.898C303.278 231.73 303.138 230.854 302.858 230.27C302.586 229.686 302.13 229.394 301.49 229.394C300.842 229.394 300.382 229.686 300.11 230.27C299.846 230.854 299.714 231.73 299.714 232.898Z" fill="#595959"/>
<path d="M336.712 228.506C337.464 228.506 338.08 228.682 338.56 229.034C339.04 229.386 339.28 229.894 339.28 230.558C339.28 230.902 339.204 231.202 339.052 231.458C338.908 231.714 338.712 231.942 338.464 232.142C338.216 232.334 337.944 232.506 337.648 232.658C338 232.826 338.32 233.018 338.608 233.234C338.896 233.442 339.124 233.686 339.292 233.966C339.468 234.246 339.556 234.582 339.556 234.974C339.556 235.694 339.3 236.266 338.788 236.69C338.284 237.106 337.604 237.314 336.748 237.314C335.828 237.314 335.12 237.114 334.624 236.714C334.128 236.306 333.88 235.738 333.88 235.01C333.88 234.618 333.96 234.278 334.12 233.99C334.288 233.702 334.508 233.454 334.78 233.246C335.052 233.038 335.344 232.862 335.656 232.718C335.24 232.478 334.884 232.19 334.588 231.854C334.3 231.51 334.156 231.074 334.156 230.546C334.156 230.106 334.268 229.738 334.492 229.442C334.716 229.138 335.02 228.906 335.404 228.746C335.788 228.586 336.224 228.506 336.712 228.506ZM336.7 229.358C336.26 229.358 335.896 229.466 335.608 229.682C335.328 229.89 335.188 230.194 335.188 230.594C335.188 230.89 335.256 231.138 335.392 231.338C335.536 231.538 335.728 231.71 335.968 231.854C336.208 231.99 336.472 232.122 336.76 232.25C337.176 232.074 337.524 231.862 337.804 231.614C338.092 231.366 338.236 231.026 338.236 230.594C338.236 230.194 338.096 229.89 337.816 229.682C337.536 229.466 337.164 229.358 336.7 229.358ZM334.912 235.022C334.912 235.438 335.06 235.786 335.356 236.066C335.652 236.338 336.108 236.474 336.724 236.474C337.308 236.474 337.752 236.338 338.056 236.066C338.368 235.786 338.524 235.426 338.524 234.986C338.524 234.57 338.36 234.226 338.032 233.954C337.704 233.674 337.268 233.43 336.724 233.222L336.532 233.15C336.004 233.374 335.6 233.634 335.32 233.93C335.048 234.218 334.912 234.582 334.912 235.022ZM346.555 232.898C346.555 233.818 346.459 234.61 346.267 235.274C346.075 235.93 345.771 236.434 345.355 236.786C344.939 237.138 344.387 237.314 343.699 237.314C342.731 237.314 342.015 236.926 341.551 236.15C341.095 235.366 340.867 234.282 340.867 232.898C340.867 231.97 340.959 231.178 341.143 230.522C341.335 229.866 341.639 229.366 342.055 229.022C342.471 228.67 343.019 228.494 343.699 228.494C344.659 228.494 345.375 228.882 345.847 229.658C346.319 230.426 346.555 231.506 346.555 232.898ZM341.923 232.898C341.923 234.074 342.055 234.954 342.319 235.538C342.591 236.122 343.051 236.414 343.699 236.414C344.339 236.414 344.795 236.126 345.067 235.55C345.347 234.966 345.487 234.082 345.487 232.898C345.487 231.73 345.347 230.854 345.067 230.27C344.795 229.686 344.339 229.394 343.699 229.394C343.051 229.394 342.591 229.686 342.319 230.27C342.055 230.854 341.923 231.73 341.923 232.898Z" fill="#595959"/>
<path d="M16.34 30L19.856 22.392H15.236V21.432H20.984V22.248L17.504 30H16.34ZM24.9952 24.744C25.8752 24.744 26.5752 24.964 27.0952 25.404C27.6152 25.844 27.8752 26.464 27.8752 27.264C27.8752 28.152 27.5912 28.852 27.0232 29.364C26.4632 29.868 25.6792 30.12 24.6712 30.12C24.2312 30.12 23.8152 30.08 23.4232 30C23.0392 29.92 22.7152 29.804 22.4512 29.652V28.656C22.7392 28.832 23.0872 28.972 23.4952 29.076C23.9112 29.172 24.3072 29.22 24.6832 29.22C25.3152 29.22 25.8232 29.072 26.2072 28.776C26.5992 28.472 26.7952 28.004 26.7952 27.372C26.7952 26.812 26.6232 26.384 26.2792 26.088C25.9352 25.784 25.3912 25.632 24.6472 25.632C24.4232 25.632 24.1672 25.652 23.8792 25.692C23.5912 25.732 23.3592 25.772 23.1832 25.812L22.6552 25.476L22.9792 21.432H27.2752V22.392H23.8792L23.6752 24.876C23.8112 24.852 23.9952 24.824 24.2272 24.792C24.4592 24.76 24.7152 24.744 24.9952 24.744Z" fill="#595959"/>
<path d="M18.008 86.5555C18.888 86.5555 19.588 86.7755 20.108 87.2155C20.628 87.6555 20.888 88.2755 20.888 89.0755C20.888 89.9635 20.604 90.6635 20.036 91.1755C19.476 91.6795 18.692 91.9315 17.684 91.9315C17.244 91.9315 16.828 91.8915 16.436 91.8115C16.052 91.7315 15.728 91.6155 15.464 91.4635V90.4675C15.752 90.6435 16.1 90.7835 16.508 90.8875C16.924 90.9835 17.32 91.0315 17.696 91.0315C18.328 91.0315 18.836 90.8835 19.22 90.5875C19.612 90.2835 19.808 89.8155 19.808 89.1835C19.808 88.6235 19.636 88.1955 19.292 87.8995C18.948 87.5955 18.404 87.4435 17.66 87.4435C17.436 87.4435 17.18 87.4635 16.892 87.5035C16.604 87.5435 16.372 87.5835 16.196 87.6235L15.668 87.2875L15.992 83.2435H20.288V84.2035H16.892L16.688 86.6875C16.824 86.6635 17.008 86.6355 17.24 86.6035C17.472 86.5715 17.728 86.5555 18.008 86.5555ZM27.9712 87.5155C27.9712 88.4355 27.8752 89.2275 27.6832 89.8915C27.4912 90.5475 27.1872 91.0515 26.7712 91.4035C26.3552 91.7555 25.8032 91.9315 25.1152 91.9315C24.1472 91.9315 23.4312 91.5435 22.9672 90.7675C22.5112 89.9835 22.2832 88.8995 22.2832 87.5155C22.2832 86.5875 22.3752 85.7955 22.5592 85.1395C22.7512 84.4835 23.0552 83.9835 23.4712 83.6395C23.8872 83.2875 24.4352 83.1115 25.1152 83.1115C26.0752 83.1115 26.7912 83.4995 27.2632 84.2755C27.7352 85.0435 27.9712 86.1235 27.9712 87.5155ZM23.3392 87.5155C23.3392 88.6915 23.4712 89.5715 23.7352 90.1555C24.0072 90.7395 24.4672 91.0315 25.1152 91.0315C25.7552 91.0315 26.2112 90.7435 26.4832 90.1675C26.7632 89.5835 26.9032 88.6995 26.9032 87.5155C26.9032 86.3475 26.7632 85.4715 26.4832 84.8875C26.2112 84.3035 25.7552 84.0115 25.1152 84.0115C24.4672 84.0115 24.0072 84.3035 23.7352 84.8875C23.4712 85.4715 23.3392 86.3475 23.3392 87.5155Z" fill="#595959"/>
<path d="M20.948 153.623H15.284V152.747L17.528 150.479C17.96 150.047 18.324 149.663 18.62 149.327C18.916 148.991 19.14 148.663 19.292 148.343C19.444 148.015 19.52 147.659 19.52 147.275C19.52 146.803 19.38 146.447 19.1 146.207C18.82 145.959 18.456 145.835 18.008 145.835C17.592 145.835 17.224 145.907 16.904 146.051C16.592 146.195 16.272 146.395 15.944 146.651L15.38 145.943C15.716 145.663 16.1 145.427 16.532 145.235C16.972 145.035 17.464 144.935 18.008 144.935C18.808 144.935 19.44 145.139 19.904 145.547C20.368 145.947 20.6 146.503 20.6 147.215C20.6 147.663 20.508 148.083 20.324 148.475C20.14 148.867 19.884 149.255 19.556 149.639C19.228 150.015 18.844 150.419 18.404 150.851L16.616 152.615V152.663H20.948V153.623ZM24.9952 148.367C25.8752 148.367 26.5752 148.587 27.0952 149.027C27.6152 149.467 27.8752 150.087 27.8752 150.887C27.8752 151.775 27.5912 152.475 27.0232 152.987C26.4632 153.491 25.6792 153.743 24.6712 153.743C24.2312 153.743 23.8152 153.703 23.4232 153.623C23.0392 153.543 22.7152 153.427 22.4512 153.275V152.279C22.7392 152.455 23.0872 152.595 23.4952 152.699C23.9112 152.795 24.3072 152.843 24.6832 152.843C25.3152 152.843 25.8232 152.695 26.2072 152.399C26.5992 152.095 26.7952 151.627 26.7952 150.995C26.7952 150.435 26.6232 150.007 26.2792 149.711C25.9352 149.407 25.3912 149.255 24.6472 149.255C24.4232 149.255 24.1672 149.275 23.8792 149.315C23.5912 149.355 23.3592 149.395 23.1832 149.435L22.6552 149.099L22.9792 145.055H27.2752V146.015H23.8792L23.6752 148.499C23.8112 148.475 23.9952 148.447 24.2272 148.415C24.4592 148.383 24.7152 148.367 24.9952 148.367Z" fill="#595959"/>
<path d="M27.984 211.139C27.984 212.059 27.888 212.851 27.696 213.515C27.504 214.171 27.2 214.675 26.784 215.027C26.368 215.379 25.816 215.555 25.128 215.555C24.16 215.555 23.444 215.167 22.98 214.391C22.524 213.607 22.296 212.523 22.296 211.139C22.296 210.211 22.388 209.419 22.572 208.763C22.764 208.107 23.068 207.607 23.484 207.263C23.9 206.911 24.448 206.735 25.128 206.735C26.088 206.735 26.804 207.123 27.276 207.899C27.748 208.667 27.984 209.747 27.984 211.139ZM23.352 211.139C23.352 212.315 23.484 213.195 23.748 213.779C24.02 214.363 24.48 214.655 25.128 214.655C25.768 214.655 26.224 214.367 26.496 213.791C26.776 213.207 26.916 212.323 26.916 211.139C26.916 209.971 26.776 209.095 26.496 208.511C26.224 207.927 25.768 207.635 25.128 207.635C24.48 207.635 24.02 207.927 23.748 208.511C23.484 209.095 23.352 209.971 23.352 211.139Z" fill="#595959"/>
<path d="M59.2709 171.051C51.0167 169.4 47.1955 174.212 45 176.6V259H333V103C330.269 112.479 307.528 136.6 306.928 136.6C306.328 136.6 304.019 136 303.719 135.4C302.114 132.2 291.685 139 291.689 139.612C291.693 140.224 274.179 144.954 267.402 147.969C265.389 143.857 260.854 135.424 255.585 140.2C248.998 146.169 236.374 151.388 234.727 149C233.08 146.612 228.537 137.622 221.401 142.398L221.253 142.497C214.13 147.265 204.365 153.8 197.825 153.8C191.238 153.8 187.079 146.584 183.786 143.4C180.492 140.216 176.545 148.765 173.801 151.153C171.057 153.541 171.14 153.79 168.944 151.8C166.749 149.81 159.909 152.208 157.713 153.8C155.518 155.392 156.112 158.48 146.081 161.8C133.069 166.106 133.081 150.849 130.838 150.2C127.637 149.273 118.936 156.327 111.801 160.306C104.665 164.286 104.491 164.604 99.5515 165.4C94.6116 166.196 89.7558 161.396 85.9136 160.6C82.0715 159.804 79.8757 164.629 75.4847 170.2C71.0936 175.771 66.896 172.576 59.2709 171.051Z" fill="url(#paint0_linear_1366_25063)"/>
<path d="M45.7998 175.8C47.9968 173.303 52.2811 168.975 58.4328 169.974C66.1224 171.222 70.5165 175.8 74.9106 169.974C79.3047 164.147 82.6003 159.153 86.4451 159.985C90.2899 160.818 93.0362 165.396 97.9796 164.563C102.923 163.731 89.1499 173.039 111.162 159.985C133.174 146.932 130.777 148.922 132.034 153.326C133.583 158.755 138.076 166.644 147.413 161.65C156.75 156.656 156.97 151.245 163.342 151.245C169.713 151.245 166.088 149.165 168.285 151.245C170.482 153.326 171.58 152.494 174.327 149.997C177.073 147.5 181.012 140.008 184.307 143.338C187.603 146.667 190.255 153.326 196.846 153.326C203.438 153.326 214.072 146.667 221.212 141.673C228.352 136.679 232.548 146.251 234.196 148.748C235.844 151.245 247.928 146.251 254.519 140.008C259.792 135.014 265.138 142.367 267.152 146.667C274.292 144.864 290.001 140.175 295.713 135.847C301.426 131.518 304.685 135.43 305.6 137.928C310.727 135.014 329.054 114.221 331.8 103.4" stroke="url(#paint1_linear_1366_25063)" stroke-width="4" stroke-linecap="round" stroke-linejoin="round"/>
<!--g filter="url(#filter0_d_1366_25063)">
<rect x="313" y="12" width="36" height="36" rx="18" fill="white" shape-rendering="crispEdges"/>
<path d="M323 25H339M339 25L335 29M339 25L335 21M339 35H323M323 35L327 39M323 35L327 31" stroke="black" stroke-width="2" stroke-linecap="round" stroke-linejoin="round"/>
</g-->
</g>
<defs>
<filter id="filter0_d_1366_25063" x="311" y="10" width="40" height="40" filterUnits="userSpaceOnUse" color-interpolation-filters="sRGB">
<feFlood flood-opacity="0" result="BackgroundImageFix"/>
<feColorMatrix in="SourceAlpha" type="matrix" values="0 0 0 0 0 0 0 0 0 0 0 0 0 0 0 0 0 0 127 0" result="hardAlpha"/>
<feOffset/>
<feGaussianBlur stdDeviation="1"/>
<feComposite in2="hardAlpha" operator="out"/>
<feColorMatrix type="matrix" values="0 0 0 0 0 0 0 0 0 0 0 0 0 0 0 0 0 0 0.25 0"/>
<feBlend mode="normal" in2="BackgroundImageFix" result="effect1_dropShadow_1366_25063"/>
<feBlend mode="normal" in="SourceGraphic" in2="effect1_dropShadow_1366_25063" result="shape"/>
</filter>
<linearGradient id="paint0_linear_1366_25063" x1="185.513" y1="121.704" x2="185.513" y2="206.469" gradientUnits="userSpaceOnUse">
<stop stop-color="#C7A77F" stop-opacity="0.3"/>
<stop offset="1" stop-color="white" stop-opacity="0"/>
</linearGradient>
<linearGradient id="paint1_linear_1366_25063" x1="332.202" y1="103" x2="42.6439" y2="175.993" gradientUnits="userSpaceOnUse">
<stop stop-color="#C7A77F"/>
<stop offset="1" stop-color="#8F6B45"/>
</linearGradient>
<clipPath id="clip0_1366_25063">
<rect width="361" height="258.5" fill="white"/>
</clipPath>
</defs>
</svg>
