<svg width="361" height="259" viewBox="0 0 361 259" fill="none" xmlns="http://www.w3.org/2000/svg">
<g clip-path="url(#clip0_1366_24133)">
<rect width="361" height="258.5" rx="4" fill="#FAFAFA"/>
<rect x="44.6089" y="17" width="1.07453" height="194.83" fill="black" fill-opacity="0.05"/>
<rect x="86.1128" y="17" width="1.07453" height="194.83" fill="black" fill-opacity="0.05"/>
<rect x="127.617" y="17" width="1.07453" height="194.83" fill="black" fill-opacity="0.05"/>
<rect x="169.121" y="17" width="1.07453" height="194.83" fill="black" fill-opacity="0.05"/>
<rect x="210.625" y="17" width="1.07453" height="194.83" fill="black" fill-opacity="0.05"/>
<rect x="252.128" y="17" width="1.07453" height="194.83" fill="black" fill-opacity="0.05"/>
<rect x="293.632" y="17" width="1.07453" height="194.83" fill="black" fill-opacity="0.05"/>
<rect x="335.136" y="17" width="1.07453" height="194.83" fill="black" fill-opacity="0.05"/>
<path d="M42.0862 237.194H41.0542V231.206C41.0542 230.862 41.0582 230.586 41.0662 230.378C41.0742 230.17 41.0862 229.954 41.1022 229.73C40.9742 229.858 40.8582 229.966 40.7542 230.054C40.6502 230.142 40.5182 230.254 40.3582 230.39L39.4462 231.134L38.8942 230.426L41.2102 228.626H42.0862V237.194ZM51.0894 232.898C51.0894 233.818 50.9934 234.61 50.8014 235.274C50.6094 235.93 50.3054 236.434 49.8894 236.786C49.4734 237.138 48.9214 237.314 48.2334 237.314C47.2654 237.314 46.5494 236.926 46.0854 236.15C45.6294 235.366 45.4014 234.282 45.4014 232.898C45.4014 231.97 45.4934 231.178 45.6774 230.522C45.8694 229.866 46.1734 229.366 46.5894 229.022C47.0054 228.67 47.5534 228.494 48.2334 228.494C49.1934 228.494 49.9094 228.882 50.3814 229.658C50.8534 230.426 51.0894 231.506 51.0894 232.898ZM46.4574 232.898C46.4574 234.074 46.5894 234.954 46.8534 235.538C47.1254 236.122 47.5854 236.414 48.2334 236.414C48.8734 236.414 49.3294 236.126 49.6014 235.55C49.8814 234.966 50.0214 234.082 50.0214 232.898C50.0214 231.73 49.8814 230.854 49.6014 230.27C49.3294 229.686 48.8734 229.394 48.2334 229.394C47.5854 229.394 47.1254 229.686 46.8534 230.27C46.5894 230.854 46.4574 231.73 46.4574 232.898Z" fill="#595959"/>
<path d="M86.2756 237.194H80.6116V236.318L82.8556 234.05C83.2876 233.618 83.6516 233.234 83.9476 232.898C84.2436 232.562 84.4676 232.234 84.6196 231.914C84.7716 231.586 84.8476 231.23 84.8476 230.846C84.8476 230.374 84.7076 230.018 84.4276 229.778C84.1476 229.53 83.7836 229.406 83.3356 229.406C82.9196 229.406 82.5516 229.478 82.2316 229.622C81.9196 229.766 81.5996 229.966 81.2716 230.222L80.7076 229.514C81.0436 229.234 81.4276 228.998 81.8596 228.806C82.2996 228.606 82.7916 228.506 83.3356 228.506C84.1356 228.506 84.7676 228.71 85.2316 229.118C85.6956 229.518 85.9276 230.074 85.9276 230.786C85.9276 231.234 85.8356 231.654 85.6516 232.046C85.4676 232.438 85.2116 232.826 84.8836 233.21C84.5556 233.586 84.1716 233.99 83.7316 234.422L81.9436 236.186V236.234H86.2756V237.194ZM93.2988 232.898C93.2988 233.818 93.2028 234.61 93.0108 235.274C92.8188 235.93 92.5148 236.434 92.0988 236.786C91.6828 237.138 91.1308 237.314 90.4428 237.314C89.4748 237.314 88.7588 236.926 88.2948 236.15C87.8388 235.366 87.6108 234.282 87.6108 232.898C87.6108 231.97 87.7028 231.178 87.8868 230.522C88.0788 229.866 88.3828 229.366 88.7988 229.022C89.2148 228.67 89.7628 228.494 90.4428 228.494C91.4028 228.494 92.1188 228.882 92.5908 229.658C93.0628 230.426 93.2988 231.506 93.2988 232.898ZM88.6668 232.898C88.6668 234.074 88.7988 234.954 89.0628 235.538C89.3348 236.122 89.7948 236.414 90.4428 236.414C91.0828 236.414 91.5388 236.126 91.8108 235.55C92.0908 234.966 92.2308 234.082 92.2308 232.898C92.2308 231.73 92.0908 230.854 91.8108 230.27C91.5388 229.686 91.0828 229.394 90.4428 229.394C89.7948 229.394 89.3348 229.686 89.0628 230.27C88.7988 230.854 88.6668 231.73 88.6668 232.898Z" fill="#595959"/>
<path d="M128.161 230.63C128.161 231.206 128.001 231.666 127.681 232.01C127.361 232.346 126.929 232.57 126.385 232.682V232.73C127.073 232.81 127.585 233.026 127.921 233.378C128.257 233.73 128.425 234.19 128.425 234.758C128.425 235.254 128.309 235.698 128.077 236.09C127.845 236.474 127.485 236.774 126.997 236.99C126.517 237.206 125.897 237.314 125.137 237.314C124.689 237.314 124.273 237.278 123.889 237.206C123.505 237.142 123.137 237.022 122.785 236.846V235.862C123.145 236.038 123.533 236.178 123.949 236.282C124.365 236.378 124.765 236.426 125.149 236.426C125.917 236.426 126.469 236.278 126.805 235.982C127.149 235.678 127.321 235.262 127.321 234.734C127.321 234.198 127.109 233.814 126.685 233.582C126.269 233.342 125.681 233.222 124.921 233.222H124.093V232.322H124.933C125.637 232.322 126.169 232.174 126.529 231.878C126.897 231.582 127.081 231.19 127.081 230.702C127.081 230.286 126.941 229.966 126.661 229.742C126.381 229.51 126.001 229.394 125.521 229.394C125.057 229.394 124.661 229.462 124.333 229.598C124.005 229.734 123.681 229.906 123.361 230.114L122.833 229.394C123.137 229.154 123.513 228.946 123.961 228.77C124.417 228.594 124.933 228.506 125.509 228.506C126.405 228.506 127.069 228.706 127.501 229.106C127.941 229.506 128.161 230.014 128.161 230.63ZM135.508 232.898C135.508 233.818 135.412 234.61 135.22 235.274C135.028 235.93 134.724 236.434 134.308 236.786C133.892 237.138 133.34 237.314 132.652 237.314C131.684 237.314 130.968 236.926 130.504 236.15C130.048 235.366 129.82 234.282 129.82 232.898C129.82 231.97 129.912 231.178 130.096 230.522C130.288 229.866 130.592 229.366 131.008 229.022C131.424 228.67 131.972 228.494 132.652 228.494C133.612 228.494 134.328 228.882 134.8 229.658C135.272 230.426 135.508 231.506 135.508 232.898ZM130.876 232.898C130.876 234.074 131.008 234.954 131.272 235.538C131.544 236.122 132.004 236.414 132.652 236.414C133.292 236.414 133.748 236.126 134.02 235.55C134.3 234.966 134.44 234.082 134.44 232.898C134.44 231.73 134.3 230.854 134.02 230.27C133.748 229.686 133.292 229.394 132.652 229.394C132.004 229.394 131.544 229.686 131.272 230.27C131.008 230.854 130.876 231.73 130.876 232.898Z" fill="#595959"/>
<path d="M171.079 235.25H169.831V237.194H168.811V235.25H164.707V234.35L168.739 228.578H169.831V234.302H171.079V235.25ZM168.811 231.602C168.811 231.186 168.819 230.834 168.835 230.546C168.851 230.25 168.863 229.97 168.871 229.706H168.823C168.759 229.858 168.679 230.022 168.583 230.198C168.487 230.374 168.395 230.522 168.307 230.642L165.739 234.302H168.811V231.602ZM177.718 232.898C177.718 233.818 177.622 234.61 177.43 235.274C177.238 235.93 176.934 236.434 176.518 236.786C176.102 237.138 175.55 237.314 174.862 237.314C173.894 237.314 173.178 236.926 172.714 236.15C172.258 235.366 172.03 234.282 172.03 232.898C172.03 231.97 172.122 231.178 172.306 230.522C172.498 229.866 172.802 229.366 173.218 229.022C173.634 228.67 174.182 228.494 174.862 228.494C175.822 228.494 176.538 228.882 177.01 229.658C177.482 230.426 177.718 231.506 177.718 232.898ZM173.086 232.898C173.086 234.074 173.218 234.954 173.482 235.538C173.754 236.122 174.214 236.414 174.862 236.414C175.502 236.414 175.958 236.126 176.23 235.55C176.51 234.966 176.65 234.082 176.65 232.898C176.65 231.73 176.51 230.854 176.23 230.27C175.958 229.686 175.502 229.394 174.862 229.394C174.214 229.394 173.754 229.686 173.482 230.27C173.218 230.854 173.086 231.73 173.086 232.898Z" fill="#595959"/>
<path d="M209.964 231.938C210.844 231.938 211.544 232.158 212.064 232.598C212.584 233.038 212.844 233.658 212.844 234.458C212.844 235.346 212.56 236.046 211.992 236.558C211.432 237.062 210.648 237.314 209.64 237.314C209.2 237.314 208.784 237.274 208.392 237.194C208.008 237.114 207.684 236.998 207.42 236.846V235.85C207.708 236.026 208.056 236.166 208.464 236.27C208.88 236.366 209.276 236.414 209.652 236.414C210.284 236.414 210.792 236.266 211.176 235.97C211.568 235.666 211.764 235.198 211.764 234.566C211.764 234.006 211.592 233.578 211.248 233.282C210.904 232.978 210.36 232.826 209.616 232.826C209.392 232.826 209.136 232.846 208.848 232.886C208.56 232.926 208.328 232.966 208.152 233.006L207.624 232.67L207.948 228.626H212.244V229.586H208.848L208.644 232.07C208.78 232.046 208.964 232.018 209.196 231.986C209.428 231.954 209.684 231.938 209.964 231.938ZM219.927 232.898C219.927 233.818 219.831 234.61 219.639 235.274C219.447 235.93 219.143 236.434 218.727 236.786C218.311 237.138 217.759 237.314 217.071 237.314C216.103 237.314 215.387 236.926 214.923 236.15C214.467 235.366 214.239 234.282 214.239 232.898C214.239 231.97 214.331 231.178 214.515 230.522C214.707 229.866 215.011 229.366 215.427 229.022C215.843 228.67 216.391 228.494 217.071 228.494C218.031 228.494 218.747 228.882 219.219 229.658C219.691 230.426 219.927 231.506 219.927 232.898ZM215.295 232.898C215.295 234.074 215.427 234.954 215.691 235.538C215.963 236.122 216.423 236.414 217.071 236.414C217.711 236.414 218.167 236.126 218.439 235.55C218.719 234.966 218.859 234.082 218.859 232.898C218.859 231.73 218.719 230.854 218.439 230.27C218.167 229.686 217.711 229.394 217.071 229.394C216.423 229.394 215.963 229.686 215.691 230.27C215.427 230.854 215.295 231.73 215.295 232.898Z" fill="#595959"/>
<path d="M249.533 233.534C249.533 232.918 249.585 232.314 249.689 231.722C249.801 231.122 249.997 230.582 250.277 230.102C250.565 229.614 250.965 229.226 251.477 228.938C251.989 228.65 252.649 228.506 253.457 228.506C253.625 228.506 253.809 228.514 254.009 228.53C254.217 228.546 254.385 228.574 254.513 228.614V229.514C254.369 229.466 254.205 229.43 254.021 229.406C253.845 229.382 253.665 229.37 253.481 229.37C252.929 229.37 252.469 229.462 252.101 229.646C251.733 229.83 251.441 230.082 251.225 230.402C251.017 230.722 250.865 231.09 250.769 231.506C250.673 231.922 250.613 232.366 250.589 232.838H250.661C250.845 232.558 251.101 232.322 251.429 232.13C251.757 231.93 252.177 231.83 252.689 231.83C253.433 231.83 254.033 232.058 254.489 232.514C254.945 232.962 255.173 233.602 255.173 234.434C255.173 235.33 254.925 236.034 254.429 236.546C253.941 237.058 253.281 237.314 252.449 237.314C251.905 237.314 251.413 237.178 250.973 236.906C250.533 236.634 250.181 236.218 249.917 235.658C249.661 235.098 249.533 234.39 249.533 233.534ZM252.437 236.426C252.941 236.426 253.349 236.266 253.661 235.946C253.973 235.618 254.129 235.114 254.129 234.434C254.129 233.89 253.989 233.458 253.709 233.138C253.437 232.818 253.025 232.658 252.473 232.658C252.097 232.658 251.769 232.738 251.489 232.898C251.209 233.05 250.989 233.246 250.829 233.486C250.677 233.726 250.601 233.974 250.601 234.23C250.601 234.574 250.669 234.918 250.805 235.262C250.941 235.598 251.145 235.878 251.417 236.102C251.689 236.318 252.029 236.426 252.437 236.426ZM262.136 232.898C262.136 233.818 262.04 234.61 261.848 235.274C261.656 235.93 261.352 236.434 260.936 236.786C260.52 237.138 259.968 237.314 259.28 237.314C258.312 237.314 257.596 236.926 257.132 236.15C256.676 235.366 256.448 234.282 256.448 232.898C256.448 231.97 256.54 231.178 256.724 230.522C256.916 229.866 257.22 229.366 257.636 229.022C258.052 228.67 258.6 228.494 259.28 228.494C260.24 228.494 260.956 228.882 261.428 229.658C261.9 230.426 262.136 231.506 262.136 232.898ZM257.504 232.898C257.504 234.074 257.636 234.954 257.9 235.538C258.172 236.122 258.632 236.414 259.28 236.414C259.92 236.414 260.376 236.126 260.648 235.55C260.928 234.966 261.068 234.082 261.068 232.898C261.068 231.73 260.928 230.854 260.648 230.27C260.376 229.686 259.92 229.394 259.28 229.394C258.632 229.394 258.172 229.686 257.9 230.27C257.636 230.854 257.504 231.73 257.504 232.898Z" fill="#595959"/>
<path d="M292.715 237.194L296.231 229.586H291.611V228.626H297.359V229.442L293.879 237.194H292.715ZM304.346 232.898C304.346 233.818 304.25 234.61 304.058 235.274C303.866 235.93 303.562 236.434 303.146 236.786C302.73 237.138 302.178 237.314 301.49 237.314C300.522 237.314 299.806 236.926 299.342 236.15C298.886 235.366 298.658 234.282 298.658 232.898C298.658 231.97 298.75 231.178 298.934 230.522C299.126 229.866 299.43 229.366 299.846 229.022C300.262 228.67 300.81 228.494 301.49 228.494C302.45 228.494 303.166 228.882 303.638 229.658C304.11 230.426 304.346 231.506 304.346 232.898ZM299.714 232.898C299.714 234.074 299.846 234.954 300.11 235.538C300.382 236.122 300.842 236.414 301.49 236.414C302.13 236.414 302.586 236.126 302.858 235.55C303.138 234.966 303.278 234.082 303.278 232.898C303.278 231.73 303.138 230.854 302.858 230.27C302.586 229.686 302.13 229.394 301.49 229.394C300.842 229.394 300.382 229.686 300.11 230.27C299.846 230.854 299.714 231.73 299.714 232.898Z" fill="#595959"/>
<path d="M336.712 228.506C337.464 228.506 338.08 228.682 338.56 229.034C339.04 229.386 339.28 229.894 339.28 230.558C339.28 230.902 339.204 231.202 339.052 231.458C338.908 231.714 338.712 231.942 338.464 232.142C338.216 232.334 337.944 232.506 337.648 232.658C338 232.826 338.32 233.018 338.608 233.234C338.896 233.442 339.124 233.686 339.292 233.966C339.468 234.246 339.556 234.582 339.556 234.974C339.556 235.694 339.3 236.266 338.788 236.69C338.284 237.106 337.604 237.314 336.748 237.314C335.828 237.314 335.12 237.114 334.624 236.714C334.128 236.306 333.88 235.738 333.88 235.01C333.88 234.618 333.96 234.278 334.12 233.99C334.288 233.702 334.508 233.454 334.78 233.246C335.052 233.038 335.344 232.862 335.656 232.718C335.24 232.478 334.884 232.19 334.588 231.854C334.3 231.51 334.156 231.074 334.156 230.546C334.156 230.106 334.268 229.738 334.492 229.442C334.716 229.138 335.02 228.906 335.404 228.746C335.788 228.586 336.224 228.506 336.712 228.506ZM336.7 229.358C336.26 229.358 335.896 229.466 335.608 229.682C335.328 229.89 335.188 230.194 335.188 230.594C335.188 230.89 335.256 231.138 335.392 231.338C335.536 231.538 335.728 231.71 335.968 231.854C336.208 231.99 336.472 232.122 336.76 232.25C337.176 232.074 337.524 231.862 337.804 231.614C338.092 231.366 338.236 231.026 338.236 230.594C338.236 230.194 338.096 229.89 337.816 229.682C337.536 229.466 337.164 229.358 336.7 229.358ZM334.912 235.022C334.912 235.438 335.06 235.786 335.356 236.066C335.652 236.338 336.108 236.474 336.724 236.474C337.308 236.474 337.752 236.338 338.056 236.066C338.368 235.786 338.524 235.426 338.524 234.986C338.524 234.57 338.36 234.226 338.032 233.954C337.704 233.674 337.268 233.43 336.724 233.222L336.532 233.15C336.004 233.374 335.6 233.634 335.32 233.93C335.048 234.218 334.912 234.582 334.912 235.022ZM346.555 232.898C346.555 233.818 346.459 234.61 346.267 235.274C346.075 235.93 345.771 236.434 345.355 236.786C344.939 237.138 344.387 237.314 343.699 237.314C342.731 237.314 342.015 236.926 341.551 236.15C341.095 235.366 340.867 234.282 340.867 232.898C340.867 231.97 340.959 231.178 341.143 230.522C341.335 229.866 341.639 229.366 342.055 229.022C342.471 228.67 343.019 228.494 343.699 228.494C344.659 228.494 345.375 228.882 345.847 229.658C346.319 230.426 346.555 231.506 346.555 232.898ZM341.923 232.898C341.923 234.074 342.055 234.954 342.319 235.538C342.591 236.122 343.051 236.414 343.699 236.414C344.339 236.414 344.795 236.126 345.067 235.55C345.347 234.966 345.487 234.082 345.487 232.898C345.487 231.73 345.347 230.854 345.067 230.27C344.795 229.686 344.339 229.394 343.699 229.394C343.051 229.394 342.591 229.686 342.319 230.27C342.055 230.854 341.923 231.73 341.923 232.898Z" fill="#595959"/>
<path d="M16.34 30L19.856 22.392H15.236V21.432H20.984V22.248L17.504 30H16.34ZM24.9952 24.744C25.8752 24.744 26.5752 24.964 27.0952 25.404C27.6152 25.844 27.8752 26.464 27.8752 27.264C27.8752 28.152 27.5912 28.852 27.0232 29.364C26.4632 29.868 25.6792 30.12 24.6712 30.12C24.2312 30.12 23.8152 30.08 23.4232 30C23.0392 29.92 22.7152 29.804 22.4512 29.652V28.656C22.7392 28.832 23.0872 28.972 23.4952 29.076C23.9112 29.172 24.3072 29.22 24.6832 29.22C25.3152 29.22 25.8232 29.072 26.2072 28.776C26.5992 28.472 26.7952 28.004 26.7952 27.372C26.7952 26.812 26.6232 26.384 26.2792 26.088C25.9352 25.784 25.3912 25.632 24.6472 25.632C24.4232 25.632 24.1672 25.652 23.8792 25.692C23.5912 25.732 23.3592 25.772 23.1832 25.812L22.6552 25.476L22.9792 21.432H27.2752V22.392H23.8792L23.6752 24.876C23.8112 24.852 23.9952 24.824 24.2272 24.792C24.4592 24.76 24.7152 24.744 24.9952 24.744Z" fill="#595959"/>
<path d="M18.008 86.5555C18.888 86.5555 19.588 86.7755 20.108 87.2155C20.628 87.6555 20.888 88.2755 20.888 89.0755C20.888 89.9635 20.604 90.6635 20.036 91.1755C19.476 91.6795 18.692 91.9315 17.684 91.9315C17.244 91.9315 16.828 91.8915 16.436 91.8115C16.052 91.7315 15.728 91.6155 15.464 91.4635V90.4675C15.752 90.6435 16.1 90.7835 16.508 90.8875C16.924 90.9835 17.32 91.0315 17.696 91.0315C18.328 91.0315 18.836 90.8835 19.22 90.5875C19.612 90.2835 19.808 89.8155 19.808 89.1835C19.808 88.6235 19.636 88.1955 19.292 87.8995C18.948 87.5955 18.404 87.4435 17.66 87.4435C17.436 87.4435 17.18 87.4635 16.892 87.5035C16.604 87.5435 16.372 87.5835 16.196 87.6235L15.668 87.2875L15.992 83.2435H20.288V84.2035H16.892L16.688 86.6875C16.824 86.6635 17.008 86.6355 17.24 86.6035C17.472 86.5715 17.728 86.5555 18.008 86.5555ZM27.9712 87.5155C27.9712 88.4355 27.8752 89.2275 27.6832 89.8915C27.4912 90.5475 27.1872 91.0515 26.7712 91.4035C26.3552 91.7555 25.8032 91.9315 25.1152 91.9315C24.1472 91.9315 23.4312 91.5435 22.9672 90.7675C22.5112 89.9835 22.2832 88.8995 22.2832 87.5155C22.2832 86.5875 22.3752 85.7955 22.5592 85.1395C22.7512 84.4835 23.0552 83.9835 23.4712 83.6395C23.8872 83.2875 24.4352 83.1115 25.1152 83.1115C26.0752 83.1115 26.7912 83.4995 27.2632 84.2755C27.7352 85.0435 27.9712 86.1235 27.9712 87.5155ZM23.3392 87.5155C23.3392 88.6915 23.4712 89.5715 23.7352 90.1555C24.0072 90.7395 24.4672 91.0315 25.1152 91.0315C25.7552 91.0315 26.2112 90.7435 26.4832 90.1675C26.7632 89.5835 26.9032 88.6995 26.9032 87.5155C26.9032 86.3475 26.7632 85.4715 26.4832 84.8875C26.2112 84.3035 25.7552 84.0115 25.1152 84.0115C24.4672 84.0115 24.0072 84.3035 23.7352 84.8875C23.4712 85.4715 23.3392 86.3475 23.3392 87.5155Z" fill="#595959"/>
<path d="M20.948 153.623H15.284V152.747L17.528 150.479C17.96 150.047 18.324 149.663 18.62 149.327C18.916 148.991 19.14 148.663 19.292 148.343C19.444 148.015 19.52 147.659 19.52 147.275C19.52 146.803 19.38 146.447 19.1 146.207C18.82 145.959 18.456 145.835 18.008 145.835C17.592 145.835 17.224 145.907 16.904 146.051C16.592 146.195 16.272 146.395 15.944 146.651L15.38 145.943C15.716 145.663 16.1 145.427 16.532 145.235C16.972 145.035 17.464 144.935 18.008 144.935C18.808 144.935 19.44 145.139 19.904 145.547C20.368 145.947 20.6 146.503 20.6 147.215C20.6 147.663 20.508 148.083 20.324 148.475C20.14 148.867 19.884 149.255 19.556 149.639C19.228 150.015 18.844 150.419 18.404 150.851L16.616 152.615V152.663H20.948V153.623ZM24.9952 148.367C25.8752 148.367 26.5752 148.587 27.0952 149.027C27.6152 149.467 27.8752 150.087 27.8752 150.887C27.8752 151.775 27.5912 152.475 27.0232 152.987C26.4632 153.491 25.6792 153.743 24.6712 153.743C24.2312 153.743 23.8152 153.703 23.4232 153.623C23.0392 153.543 22.7152 153.427 22.4512 153.275V152.279C22.7392 152.455 23.0872 152.595 23.4952 152.699C23.9112 152.795 24.3072 152.843 24.6832 152.843C25.3152 152.843 25.8232 152.695 26.2072 152.399C26.5992 152.095 26.7952 151.627 26.7952 150.995C26.7952 150.435 26.6232 150.007 26.2792 149.711C25.9352 149.407 25.3912 149.255 24.6472 149.255C24.4232 149.255 24.1672 149.275 23.8792 149.315C23.5912 149.355 23.3592 149.395 23.1832 149.435L22.6552 149.099L22.9792 145.055H27.2752V146.015H23.8792L23.6752 148.499C23.8112 148.475 23.9952 148.447 24.2272 148.415C24.4592 148.383 24.7152 148.367 24.9952 148.367Z" fill="#595959"/>
<path d="M27.984 211.139C27.984 212.059 27.888 212.851 27.696 213.515C27.504 214.171 27.2 214.675 26.784 215.027C26.368 215.379 25.816 215.555 25.128 215.555C24.16 215.555 23.444 215.167 22.98 214.391C22.524 213.607 22.296 212.523 22.296 211.139C22.296 210.211 22.388 209.419 22.572 208.763C22.764 208.107 23.068 207.607 23.484 207.263C23.9 206.911 24.448 206.735 25.128 206.735C26.088 206.735 26.804 207.123 27.276 207.899C27.748 208.667 27.984 209.747 27.984 211.139ZM23.352 211.139C23.352 212.315 23.484 213.195 23.748 213.779C24.02 214.363 24.48 214.655 25.128 214.655C25.768 214.655 26.224 214.367 26.496 213.791C26.776 213.207 26.916 212.323 26.916 211.139C26.916 209.971 26.776 209.095 26.496 208.511C26.224 207.927 25.768 207.635 25.128 207.635C24.48 207.635 24.02 207.927 23.748 208.511C23.484 209.095 23.352 209.971 23.352 211.139Z" fill="#595959"/>
<path d="M167.876 74H162.742V59.958C162.742 59.5727 162.742 59.0967 162.742 58.53C162.765 57.9633 162.788 57.374 162.81 56.762C162.833 56.15 162.856 55.606 162.878 55.13C162.765 55.266 162.516 55.5153 162.13 55.878C161.768 56.218 161.428 56.524 161.11 56.796L158.322 59.04L155.84 55.946L163.66 49.724H167.876V74ZM186.313 74H181.179V59.958C181.179 59.5727 181.179 59.0967 181.179 58.53C181.202 57.9633 181.225 57.374 181.247 56.762C181.27 56.15 181.293 55.606 181.315 55.13C181.202 55.266 180.953 55.5153 180.567 55.878C180.205 56.218 179.865 56.524 179.547 56.796L176.759 59.04L174.277 55.946L182.097 49.724H186.313V74ZM209.035 74H192.069V70.43L198.155 64.276C199.379 63.0067 200.365 61.9527 201.113 61.114C201.861 60.2527 202.405 59.482 202.745 58.802C203.085 58.0993 203.255 57.3513 203.255 56.558C203.255 55.5833 202.983 54.858 202.439 54.382C201.917 53.906 201.203 53.668 200.297 53.668C199.367 53.668 198.461 53.8833 197.577 54.314C196.693 54.7447 195.763 55.3567 194.789 56.15L192.001 52.852C192.703 52.24 193.44 51.6733 194.211 51.152C195.004 50.6307 195.911 50.2113 196.931 49.894C197.973 49.554 199.22 49.384 200.671 49.384C202.257 49.384 203.617 49.6787 204.751 50.268C205.907 50.8347 206.791 51.6167 207.403 52.614C208.037 53.5887 208.355 54.6993 208.355 55.946C208.355 56.966 208.196 57.9067 207.879 58.768C207.584 59.6293 207.142 60.468 206.553 61.284C205.986 62.0773 205.283 62.9047 204.445 63.766C203.606 64.6047 202.654 65.5227 201.589 66.52L198.461 69.444V69.682H209.035V74Z" fill="#111111"/>
<path d="M166.614 96V94.25H169.106C169.722 94.25 170.175 94.04 170.464 93.62C170.763 93.2 170.912 92.612 170.912 91.856C170.912 91.044 170.763 90.4187 170.464 89.98C170.175 89.532 169.722 89.308 169.106 89.308H166.614L166.838 87.558H169.106C170.404 87.558 171.388 87.936 172.06 88.692C172.742 89.4387 173.082 90.4933 173.082 91.856C173.082 93.172 172.742 94.194 172.06 94.922C171.388 95.6407 170.404 96 169.106 96H166.614ZM173.731 91.408C173.815 91.1093 173.889 90.792 173.955 90.456C174.029 90.12 174.099 89.784 174.165 89.448C174.23 89.1027 174.286 88.7713 174.333 88.454C174.389 88.1273 174.431 87.8287 174.459 87.558H176.307L176.391 87.712C176.307 88.0573 176.204 88.454 176.083 88.902C175.961 89.3407 175.831 89.784 175.691 90.232C175.551 90.68 175.401 91.072 175.243 91.408H173.731ZM176.839 91.408C176.951 91.0067 177.049 90.5773 177.133 90.12C177.226 89.6627 177.31 89.2147 177.385 88.776C177.469 88.328 177.529 87.922 177.567 87.558H179.415L179.485 87.712C179.41 88.0573 179.312 88.454 179.191 88.902C179.069 89.3407 178.939 89.784 178.799 90.232C178.659 90.68 178.509 91.072 178.351 91.408H176.839ZM186.042 96V90.568C186.042 90.148 185.934 89.8353 185.72 89.63C185.514 89.4153 185.22 89.308 184.838 89.308H180.484L180.722 87.558H184.95C186.014 87.558 186.816 87.81 187.358 88.314C187.899 88.8087 188.17 89.546 188.17 90.526V96H186.042ZM180.666 96V91.45L182.794 91.338V96H180.666ZM193.884 96.126C192.55 96.126 191.546 95.79 190.874 95.118C190.212 94.4367 189.88 93.4753 189.88 92.234V92.108C189.88 91.4547 189.992 90.89 190.216 90.414C190.45 89.938 190.739 89.5973 191.084 89.392V89.196L192.89 89.154L192.82 89.336C192.522 89.4573 192.307 89.7233 192.176 90.134C192.055 90.5447 191.994 91.058 191.994 91.674C191.994 92.5607 192.139 93.242 192.428 93.718C192.727 94.194 193.212 94.432 193.884 94.432C194.566 94.432 195.056 94.1753 195.354 93.662C195.653 93.1487 195.802 92.416 195.802 91.464C195.802 90.7733 195.686 90.2413 195.452 89.868C195.228 89.4947 194.813 89.308 194.206 89.308H189.53L189.754 87.558H194.22C195.49 87.558 196.423 87.8987 197.02 88.58C197.627 89.2613 197.93 90.2273 197.93 91.478C197.93 92.9527 197.59 94.096 196.908 94.908C196.236 95.72 195.228 96.126 193.884 96.126Z" fill="black"/>
<path d="M151.456 27.9952L151.456 37C151.456 37.5523 151.904 38 152.456 38L152.544 38C153.096 38 153.544 37.5523 153.544 37L153.544 27.9952L157.317 31.7687C157.708 32.1592 158.341 32.1592 158.731 31.7687L158.793 31.7071C159.183 31.3166 159.183 30.6834 158.793 30.2929L153.207 24.7071C152.817 24.3166 152.183 24.3166 151.793 24.7071L146.207 30.2929C145.817 30.6834 145.817 31.3166 146.207 31.7071L146.269 31.7687C146.659 32.1592 147.292 32.1592 147.683 31.7687L151.456 27.9952Z" fill="#C7A77F"/>
<path d="M159.5 32.4142L159.5 32.4142C160.281 31.6332 160.281 30.3668 159.5 29.5858L153.914 24C153.133 23.2189 151.867 23.219 151.086 24L145.5 29.5858C144.719 30.3668 144.719 31.6332 145.5 32.4142L145.562 32.4758C146.343 33.2568 147.609 33.2568 148.39 32.4758L150.456 30.4094L150.456 37C150.456 38.1046 151.352 39 152.456 39L152.544 39C153.648 39 154.544 38.1046 154.544 37L154.544 30.4094L156.61 32.4758C157.391 33.2568 158.657 33.2568 159.438 32.4758C159.438 32.4758 159.438 32.4758 159.438 32.4758L159.5 32.4142Z" stroke="#C69F7C" stroke-opacity="0.2" stroke-width="2"/>
<path d="M151.456 27.9952L151.456 37C151.456 37.5523 151.904 38 152.456 38L152.544 38C153.096 38 153.544 37.5523 153.544 37L153.544 27.9952L157.317 31.7687C157.708 32.1592 158.341 32.1592 158.731 31.7687L158.793 31.7071C159.183 31.3166 159.183 30.6834 158.793 30.2929L153.207 24.7071C152.817 24.3166 152.183 24.3166 151.793 24.7071L146.207 30.2929C145.817 30.6834 145.817 31.3166 146.207 31.7071L146.269 31.7687C146.659 32.1592 147.292 32.1592 147.683 31.7687L151.456 27.9952Z" fill="#C7A77F"/>
<path d="M173.023 36H166.037V34.53L168.543 31.996C169.047 31.4733 169.453 31.0393 169.761 30.694C170.069 30.3393 170.293 30.022 170.433 29.742C170.573 29.4527 170.643 29.1447 170.643 28.818C170.643 28.4167 170.531 28.118 170.307 27.922C170.092 27.726 169.798 27.628 169.425 27.628C169.042 27.628 168.669 27.7167 168.305 27.894C167.941 28.0713 167.558 28.3233 167.157 28.65L166.009 27.292C166.298 27.04 166.601 26.8067 166.919 26.592C167.245 26.3773 167.619 26.2047 168.039 26.074C168.468 25.934 168.981 25.864 169.579 25.864C170.232 25.864 170.792 25.9853 171.259 26.228C171.735 26.4613 172.099 26.7833 172.351 27.194C172.612 27.5953 172.743 28.0527 172.743 28.566C172.743 29.1167 172.631 29.6207 172.407 30.078C172.192 30.5353 171.875 30.988 171.455 31.436C171.044 31.884 170.545 32.3787 169.957 32.92L168.669 34.124V34.222H173.023V36ZM177.688 29.616C178.295 29.616 178.836 29.7327 179.312 29.966C179.788 30.1993 180.162 30.54 180.432 30.988C180.712 31.436 180.852 31.9913 180.852 32.654C180.852 33.7367 180.516 34.5907 179.844 35.216C179.172 35.832 178.178 36.14 176.862 36.14C176.34 36.14 175.845 36.0933 175.378 36C174.921 35.9067 174.52 35.7713 174.174 35.594V33.774C174.52 33.9513 174.935 34.1053 175.42 34.236C175.906 34.3573 176.363 34.418 176.792 34.418C177.418 34.418 177.894 34.292 178.22 34.04C178.556 33.7787 178.724 33.3773 178.724 32.836C178.724 31.828 178.057 31.324 176.722 31.324C176.461 31.324 176.19 31.352 175.91 31.408C175.63 31.4547 175.397 31.5013 175.21 31.548L174.37 31.1L174.748 26.004H180.166V27.796H176.596L176.414 29.756C176.573 29.728 176.741 29.7 176.918 29.672C177.105 29.6347 177.362 29.616 177.688 29.616Z" fill="#8A8A8A"/>
<path d="M187.926 27.432L184.734 36H183.702L186.894 27.432H187.926ZM193.543 36V31.224C193.543 30.8 193.439 30.484 193.231 30.276C193.031 30.06 192.727 29.952 192.319 29.952H188.683L188.827 28.836H192.403C193.219 28.836 193.835 29.036 194.251 29.436C194.675 29.828 194.887 30.412 194.887 31.188V36H193.543ZM188.851 36V32.004L190.195 31.908V36H188.851ZM196.965 32.892V28.836H198.309V32.892H196.965ZM195.921 29.952L196.065 28.836H197.733V29.952H195.921ZM200.645 32.892V28.836H201.989V32.892H200.645ZM199.601 29.952L199.745 28.836H201.413V29.952H199.601ZM204.54 28.836H208.824L208.704 29.664L206.556 36H205.164L207.252 29.952H203.196V27.024L204.54 26.88V28.836ZM209.666 36.432L209.654 35.328L212.234 34.776C212.562 34.696 212.858 34.588 213.122 34.452C213.386 34.308 213.61 34.096 213.794 33.816C213.986 33.536 214.142 33.156 214.262 32.676C214.382 32.188 214.462 31.564 214.502 30.804L214.634 28.836H215.978L215.846 30.816C215.814 31.424 215.754 31.972 215.666 32.46C215.578 32.94 215.446 33.368 215.27 33.744C215.102 34.12 214.882 34.448 214.61 34.728C214.338 35 214.006 35.232 213.614 35.424C213.23 35.616 212.774 35.768 212.246 35.88L209.666 36.432ZM211.49 35.436L210.002 28.932L211.31 28.764L212.426 33.636C212.466 33.828 212.474 34.032 212.45 34.248C212.434 34.456 212.386 34.664 212.306 34.872C212.234 35.072 212.134 35.26 212.006 35.436H211.49Z" fill="#8A8A8A"/>
<path d="M48.2288 185.318L45 184.513V211.892H336V106L333.982 107.208L330.35 116.468L328.331 118.079L324.699 117.274L320.663 113.247L318.241 113.65L314.609 122.508L312.187 128.145H308.958L305.73 122.91L303.565 122.508H301.29L296.85 135.392L295.639 136.197L293.621 137.002L291.603 134.184L288.374 117.274L286.356 115.26L284.338 116.066L280.302 129.755L277.881 131.366L273.441 128.95L271.019 126.937H267.791L264.562 134.587L262.544 137.405L258.508 138.21L255.279 142.237L253.261 143.042L251.243 142.237L246.803 131.768L243.171 130.963L238.731 141.834L237.117 143.445L234.695 143.042L229.852 136.197L226.219 135.795L223.394 131.366L221.376 128.145L219.358 127.339L217.743 128.547L213.707 143.847L212.497 146.263L210.882 146.666L208.864 142.639L204.828 121.3L203.617 119.689H202.81L200.792 120.897L197.563 132.976L195.949 135.392L192.72 136.197L188.684 144.25L187.473 145.458H185.455L183.033 143.847L180.612 140.224L178.594 139.418L175.365 141.431L173.347 148.276L171.329 150.692L169.311 151.497L165.678 149.484L162.853 147.068L160.028 146.666L158.817 145.458L155.588 141.029L153.57 139.821L151.552 141.029L148.323 158.342L145.902 164.784H143.48L139.847 160.355L137.829 159.55L134.601 159.147L131.775 165.187L128.95 168.408L127.336 168.81L124.107 163.979L120.474 161.966L118.053 162.771L113.209 180.889L111.191 181.694L107.963 178.473L103.523 175.252H101.505L99.0832 172.434L95.4508 171.226L93.0291 172.434L89.8003 182.5L86.5714 184.513L84.5534 185.318L81.7282 186.526L77.2885 187.331L74.8668 185.318L72.0416 180.889L68.4092 180.084L65.1803 177.668L62.3551 176.058L60.7406 176.46L59.1262 179.681L55.8974 187.331L53.8793 188.942L51.4577 188.539L48.2288 185.318Z" fill="url(#paint0_linear_1366_24133)"/>
<path d="M336 106C331.843 106 331.843 118.315 327.686 118.315C323.529 118.315 323.702 113.147 319.371 113.147C315.041 113.147 315.387 128.321 311.057 128.321C306.727 128.321 307.42 122.229 302.743 122.229C298.066 122.229 299.279 137.029 294.429 137.029C289.579 137.029 290.271 115.236 286.114 115.236C281.957 115.236 282.304 131.136 277.8 131.136C273.296 131.136 273.989 126.782 269.486 126.782C264.982 126.782 265.675 137.667 261.171 137.667C256.668 137.667 257.187 142.945 252.857 142.945C248.527 142.945 248.873 131.07 244.543 131.07C240.212 131.07 240.732 143.561 236.229 143.561C231.725 143.561 232.764 136.018 227.914 136.018C223.064 136.018 223.93 127.617 219.6 127.617C215.27 127.617 215.789 146.793 211.286 146.793C206.782 146.793 207.475 119.415 202.971 119.415C198.468 119.415 198.987 135.776 194.657 135.776C190.327 135.776 191.193 145.562 186.343 145.562C181.493 145.562 182.705 139.624 178.029 139.624C173.352 139.624 174.564 151.719 169.714 151.719C164.864 151.719 166.077 147.057 161.4 147.057C156.723 147.057 157.589 139.998 153.086 139.998C148.582 139.998 149.275 165.354 144.771 165.354C140.268 165.354 141.307 159.152 136.457 159.152C131.607 159.152 132.3 168.851 128.143 168.851C123.986 168.851 124.505 161.923 119.829 161.923C115.152 161.923 115.845 181.935 111.514 181.935C107.184 181.935 108.05 175.91 103.2 175.91C98.35 175.91 99.5625 171.533 94.8857 171.533C90.2089 171.533 91.075 184.948 86.5714 184.948C82.0678 184.948 83.1071 187.763 78.2571 187.763C73.4071 187.763 74.7929 180.352 69.9429 180.352C65.0929 180.352 65.7857 176.394 61.6286 176.394C57.4714 176.394 57.4714 189.258 53.3143 189.258C49.1571 189.258 49.5036 184.728 45 184.728" stroke="#C7A77F" stroke-width="2"/>
<circle cx="62.378" cy="177.538" r="3.44583" fill="black" stroke="white" stroke-width="2"/>
<circle cx="94.7129" cy="172.687" r="3.44583" fill="black" stroke="white" stroke-width="2"/>
<circle cx="119.771" cy="162.179" r="3.44583" fill="black" stroke="white" stroke-width="2"/>
<circle cx="152.914" cy="139.545" r="3.44583" fill="black" stroke="white" stroke-width="2"/>
<circle cx="177.972" cy="141.163" r="3.44583" fill="black" stroke="white" stroke-width="2"/>
<circle cx="203.029" cy="120.955" r="3.44583" fill="black" stroke="white" stroke-width="2"/>
<circle cx="220.813" cy="127.42" r="3.44583" fill="#111111" stroke="white" stroke-width="2"/>
<circle cx="253.145" cy="141.163" r="3.44583" fill="#111111" stroke="white" stroke-width="2"/>
<circle cx="285.48" cy="116.104" r="3.44583" fill="#111111" stroke="white" stroke-width="2"/>
<circle cx="318.621" cy="113.679" r="3.44583" fill="#111111" stroke="white" stroke-width="2"/>
<circle cx="294.371" cy="135.504" r="3.44583" fill="#111111" stroke="white" stroke-width="2"/>
<circle cx="145.637" cy="163.795" r="3.44583" fill="black" stroke="white" stroke-width="2"/>
<g filter="url(#filter0_d_1366_24133)">
<rect x="313" y="12" width="36" height="36" rx="18" fill="white" shape-rendering="crispEdges"/>
<path d="M323 25H339M339 25L335 29M339 25L335 21M339 35H323M323 35L327 39M323 35L327 31" stroke="black" stroke-width="2" stroke-linecap="round" stroke-linejoin="round"/>
</g>
</g>
<defs>
<filter id="filter0_d_1366_24133" x="311" y="10" width="40" height="40" filterUnits="userSpaceOnUse" color-interpolation-filters="sRGB">
<feFlood flood-opacity="0" result="BackgroundImageFix"/>
<feColorMatrix in="SourceAlpha" type="matrix" values="0 0 0 0 0 0 0 0 0 0 0 0 0 0 0 0 0 0 127 0" result="hardAlpha"/>
<feOffset/>
<feGaussianBlur stdDeviation="1"/>
<feComposite in2="hardAlpha" operator="out"/>
<feColorMatrix type="matrix" values="0 0 0 0 0 0 0 0 0 0 0 0 0 0 0 0 0 0 0.25 0"/>
<feBlend mode="normal" in2="BackgroundImageFix" result="effect1_dropShadow_1366_24133"/>
<feBlend mode="normal" in="SourceGraphic" in2="effect1_dropShadow_1366_24133" result="shape"/>
</filter>
<linearGradient id="paint0_linear_1366_24133" x1="190.5" y1="106" x2="190.5" y2="211.892" gradientUnits="userSpaceOnUse">
<stop stop-color="#C69F7C" stop-opacity="0.3"/>
<stop offset="1" stop-color="white" stop-opacity="0"/>
</linearGradient>
<clipPath id="clip0_1366_24133">
<rect width="361" height="258.5" fill="white"/>
</clipPath>
</defs>
</svg>
