<svg width="361" height="259" viewBox="0 0 361 259" fill="none" xmlns="http://www.w3.org/2000/svg">
<g clip-path="url(#clip0_1366_25153)">
<rect width="361" height="258.5" rx="4" fill="#FAFAFA"/>
<path d="M262.202 143.601C262.202 188.668 225.668 225.202 180.601 225.202C135.534 225.202 99 188.668 99 143.601C99 98.5341 135.534 62 180.601 62C225.668 62 262.202 98.5341 262.202 143.601ZM123.48 143.601C123.48 175.148 149.054 200.722 180.601 200.722C212.148 200.722 237.722 175.148 237.722 143.601C237.722 112.054 212.148 86.4803 180.601 86.4803C149.054 86.4803 123.48 112.054 123.48 143.601Z" fill="#EEEEEE"/>
<path d="M249.962 144.616C256.722 144.616 262.296 150.126 261.286 156.81C259.784 166.748 256.453 176.358 251.427 185.142C244.367 197.482 234.205 207.763 221.948 214.966C209.691 222.17 195.765 226.046 181.549 226.211C167.334 226.377 153.321 222.825 140.9 215.908C128.48 208.991 118.081 198.949 110.736 186.777C103.39 174.605 99.3524 160.725 99.022 146.512C98.6916 132.299 102.08 118.246 108.852 105.746C113.673 96.8476 120.089 88.9556 127.746 82.4457C132.897 78.0671 140.516 79.904 144.076 85.6508C147.636 91.3976 145.742 98.863 140.883 103.563C136.713 107.599 133.164 112.263 130.377 117.407C125.637 126.157 123.264 135.994 123.496 145.943C123.727 155.892 126.554 165.608 131.695 174.129C136.837 182.649 144.116 189.679 152.811 194.52C161.505 199.362 171.314 201.848 181.265 201.733C191.216 201.617 200.964 198.904 209.544 193.861C218.124 188.819 225.237 181.622 230.179 172.984C233.085 167.906 235.181 162.433 236.415 156.763C237.853 150.157 243.202 144.616 249.962 144.616Z" fill="url(#paint0_linear_1366_25153)"/>
<path d="M163.115 144.488H159.331V151H152.863V144.488H139.443V139.868L153.215 119.584H159.331V139.34H163.115V144.488ZM152.863 134.016C152.863 133.517 152.863 132.931 152.863 132.256C152.892 131.552 152.922 130.863 152.951 130.188C152.98 129.484 153.01 128.868 153.039 128.34C153.068 127.783 153.098 127.401 153.127 127.196H152.951C152.687 127.783 152.408 128.355 152.115 128.912C151.822 129.469 151.47 130.041 151.059 130.628L145.295 139.34H152.863V134.016ZM165.063 147.92C165.063 146.571 165.429 145.632 166.163 145.104C166.896 144.547 167.791 144.268 168.847 144.268C169.873 144.268 170.753 144.547 171.487 145.104C172.22 145.632 172.587 146.571 172.587 147.92C172.587 149.211 172.22 150.149 171.487 150.736C170.753 151.293 169.873 151.572 168.847 151.572C167.791 151.572 166.896 151.293 166.163 150.736C165.429 150.149 165.063 149.211 165.063 147.92ZM175.321 137.668C175.321 135.849 175.453 134.06 175.717 132.3C175.981 130.54 176.436 128.883 177.081 127.328C177.756 125.744 178.68 124.351 179.853 123.148C181.056 121.916 182.567 120.963 184.385 120.288C186.233 119.584 188.463 119.232 191.073 119.232C191.689 119.232 192.408 119.261 193.229 119.32C194.051 119.349 194.74 119.423 195.297 119.54V124.864C194.74 124.717 194.124 124.615 193.449 124.556C192.804 124.468 192.159 124.424 191.513 124.424C189.548 124.424 187.92 124.659 186.629 125.128C185.368 125.597 184.371 126.272 183.637 127.152C182.904 128.032 182.361 129.073 182.009 130.276C181.687 131.449 181.496 132.769 181.437 134.236H181.701C182.112 133.532 182.611 132.916 183.197 132.388C183.813 131.831 184.561 131.391 185.441 131.068C186.321 130.745 187.348 130.584 188.521 130.584C190.369 130.584 191.953 130.98 193.273 131.772C194.623 132.535 195.664 133.664 196.397 135.16C197.131 136.627 197.497 138.416 197.497 140.528C197.497 142.787 197.057 144.737 196.177 146.38C195.327 148.023 194.095 149.284 192.481 150.164C190.897 151.015 189.005 151.44 186.805 151.44C185.192 151.44 183.681 151.161 182.273 150.604C180.895 150.047 179.677 149.211 178.621 148.096C177.595 146.952 176.788 145.515 176.201 143.784C175.615 142.053 175.321 140.015 175.321 137.668ZM186.673 146.116C187.964 146.116 189.02 145.676 189.841 144.796C190.663 143.887 191.073 142.493 191.073 140.616C191.073 139.091 190.721 137.888 190.017 137.008C189.313 136.128 188.243 135.688 186.805 135.688C185.837 135.688 184.987 135.908 184.253 136.348C183.52 136.759 182.948 137.301 182.537 137.976C182.127 138.651 181.921 139.34 181.921 140.044C181.921 140.777 182.024 141.511 182.229 142.244C182.435 142.948 182.728 143.593 183.109 144.18C183.52 144.767 184.019 145.236 184.605 145.588C185.192 145.94 185.881 146.116 186.673 146.116ZM221.357 151H199.401V146.38L207.277 138.416C208.861 136.773 210.137 135.409 211.105 134.324C212.073 133.209 212.777 132.212 213.217 131.332C213.657 130.423 213.877 129.455 213.877 128.428C213.877 127.167 213.525 126.228 212.821 125.612C212.146 124.996 211.222 124.688 210.049 124.688C208.846 124.688 207.673 124.967 206.529 125.524C205.385 126.081 204.182 126.873 202.921 127.9L199.313 123.632C200.222 122.84 201.176 122.107 202.173 121.432C203.2 120.757 204.373 120.215 205.693 119.804C207.042 119.364 208.656 119.144 210.533 119.144C212.586 119.144 214.346 119.525 215.813 120.288C217.309 121.021 218.453 122.033 219.245 123.324C220.066 124.585 220.477 126.023 220.477 127.636C220.477 128.956 220.272 130.173 219.861 131.288C219.48 132.403 218.908 133.488 218.145 134.544C217.412 135.571 216.502 136.641 215.417 137.756C214.332 138.841 213.1 140.029 211.721 141.32L207.673 145.104V145.412H221.357V151Z" fill="#111111"/>
<path d="M151.971 169.76V167.26L156.751 166.3C157.231 166.193 157.651 166.04 158.011 165.84C158.384 165.627 158.704 165.313 158.971 164.9C159.238 164.487 159.451 163.933 159.611 163.24C159.784 162.533 159.911 161.627 159.991 160.52L160.231 156.94H163.271L163.011 160.62C162.958 161.433 162.864 162.207 162.731 162.94C162.611 163.66 162.411 164.333 162.131 164.96C161.864 165.587 161.504 166.153 161.051 166.66C160.598 167.167 160.018 167.6 159.311 167.96C158.604 168.32 157.751 168.6 156.751 168.8L151.971 169.76ZM154.831 167.86L152.571 157.14L155.551 156.78L157.031 164.12C157.124 164.547 157.144 164.987 157.091 165.44C157.038 165.88 156.911 166.313 156.711 166.74C156.524 167.153 156.278 167.527 155.971 167.86H154.831ZM172.149 168.96L164.509 156.94H168.069L171.149 162.16L174.429 167.22L172.149 168.96ZM164.789 169V166.5H173.529L174.429 167.22L174.149 169H164.789ZM170.929 164.22L170.069 162.24C170.429 162.133 170.715 161.96 170.929 161.72C171.142 161.48 171.309 161.2 171.429 160.88C171.549 160.56 171.635 160.24 171.689 159.92C171.755 159.587 171.809 159.273 171.849 158.98L172.089 156.94H175.129L174.889 159.22C174.835 159.687 174.729 160.173 174.569 160.68C174.409 161.187 174.175 161.673 173.869 162.14C173.575 162.607 173.182 163.027 172.689 163.4C172.209 163.76 171.622 164.033 170.929 164.22ZM178.165 169V156.94H181.205V169H178.165ZM176.525 159.44L176.865 156.94H180.165V159.44H176.525ZM183.583 169L184.923 161.92L183.243 156.94H186.283L187.043 159.68H187.123C187.309 159.2 187.523 158.78 187.763 158.42C188.003 158.047 188.289 157.74 188.623 157.5C188.956 157.247 189.336 157.06 189.763 156.94C190.203 156.807 190.709 156.74 191.283 156.74C192.229 156.74 193.056 156.973 193.763 157.44C194.483 157.893 195.043 158.56 195.443 159.44C195.856 160.307 196.063 161.36 196.063 162.6V162.88C196.063 164.093 195.843 165.16 195.403 166.08C194.976 167 194.349 167.72 193.523 168.24C192.696 168.747 191.696 169 190.523 169H188.603L188.963 166.5H190.383C191.209 166.5 191.856 166.16 192.323 165.48C192.789 164.8 193.023 163.933 193.023 162.88V162.6C193.023 161.88 192.916 161.273 192.703 160.78C192.489 160.287 192.203 159.92 191.843 159.68C191.496 159.427 191.103 159.3 190.663 159.3C190.183 159.3 189.783 159.373 189.463 159.52C189.143 159.653 188.876 159.86 188.663 160.14C188.463 160.42 188.296 160.753 188.163 161.14C188.029 161.527 187.929 161.96 187.863 162.44L186.723 169H183.583ZM197.235 169L198.575 161.92L196.895 156.94H199.935L200.695 159.68H200.775C200.962 159.2 201.175 158.78 201.415 158.42C201.655 158.047 201.942 157.74 202.275 157.5C202.608 157.247 202.988 157.06 203.415 156.94C203.855 156.807 204.362 156.74 204.935 156.74C205.882 156.74 206.708 156.973 207.415 157.44C208.135 157.893 208.695 158.56 209.095 159.44C209.508 160.307 209.715 161.36 209.715 162.6V162.88C209.715 164.093 209.495 165.16 209.055 166.08C208.628 167 208.002 167.72 207.175 168.24C206.348 168.747 205.348 169 204.175 169H202.255L202.615 166.5H204.035C204.862 166.5 205.508 166.16 205.975 165.48C206.442 164.8 206.675 163.933 206.675 162.88V162.6C206.675 161.88 206.568 161.273 206.355 160.78C206.142 160.287 205.855 159.92 205.495 159.68C205.148 159.427 204.755 159.3 204.315 159.3C203.835 159.3 203.435 159.373 203.115 159.52C202.795 159.653 202.528 159.86 202.315 160.14C202.115 160.42 201.948 160.753 201.815 161.14C201.682 161.527 201.582 161.96 201.515 162.44L200.375 169H197.235Z" fill="black"/>
<mask id="path-6-outside-1_1366_25153" maskUnits="userSpaceOnUse" x="132" y="22.5" width="20" height="20" fill="black">
<rect fill="white" x="132" y="22.5" width="20" height="20"/>
<path d="M150 32.5C150 36.9183 146.418 40.5 142 40.5C137.582 40.5 134 36.9183 134 32.5C134 28.0817 137.582 24.5 142 24.5C146.418 24.5 150 28.0817 150 32.5ZM137.52 32.5C137.52 34.9742 139.526 36.98 142 36.98C144.474 36.98 146.48 34.9742 146.48 32.5C146.48 30.0258 144.474 28.02 142 28.02C139.526 28.02 137.52 30.0258 137.52 32.5Z"/>
</mask>
<path d="M150 32.5C150 36.9183 146.418 40.5 142 40.5C137.582 40.5 134 36.9183 134 32.5C134 28.0817 137.582 24.5 142 24.5C146.418 24.5 150 28.0817 150 32.5ZM137.52 32.5C137.52 34.9742 139.526 36.98 142 36.98C144.474 36.98 146.48 34.9742 146.48 32.5C146.48 30.0258 144.474 28.02 142 28.02C139.526 28.02 137.52 30.0258 137.52 32.5Z" fill="#C7A77F" fill-opacity="0.3"/>
<path d="M150 32.5C150 36.9183 146.418 40.5 142 40.5C137.582 40.5 134 36.9183 134 32.5C134 28.0817 137.582 24.5 142 24.5C146.418 24.5 150 28.0817 150 32.5ZM137.52 32.5C137.52 34.9742 139.526 36.98 142 36.98C144.474 36.98 146.48 34.9742 146.48 32.5C146.48 30.0258 144.474 28.02 142 28.02C139.526 28.02 137.52 30.0258 137.52 32.5Z" stroke="#C7A77F" stroke-opacity="0.3" stroke-width="4" mask="url(#path-6-outside-1_1366_25153)"/>
<path d="M148.24 32.5C149.212 32.5 150.019 31.7027 149.807 30.7541C149.554 29.6207 149.055 28.5489 148.337 27.6176C147.259 26.2184 145.749 25.2152 144.041 24.7646C142.333 24.3141 140.524 24.4414 138.896 25.1269C137.268 25.8123 135.912 27.0172 135.041 28.5537C134.17 30.0903 133.831 31.8719 134.079 33.6209C134.326 35.3698 135.146 36.9877 136.409 38.2221C137.673 39.4566 139.309 40.2382 141.063 40.445C142.231 40.5826 143.407 40.4605 144.509 40.0962C145.432 39.7913 145.702 38.6892 145.203 37.8551C144.704 37.0209 143.614 36.7906 142.653 36.9322C142.265 36.9893 141.869 36.9956 141.475 36.9492C140.493 36.8334 139.577 36.3957 138.869 35.7044C138.162 35.0131 137.703 34.1071 137.564 33.1277C137.426 32.1483 137.615 31.1505 138.103 30.2901C138.591 29.4296 139.35 28.7549 140.262 28.371C141.173 27.9872 142.186 27.9159 143.143 28.1682C144.099 28.4205 144.945 28.9823 145.549 29.7659C145.791 30.0802 145.989 30.4231 146.139 30.7849C146.511 31.6829 147.268 32.5 148.24 32.5Z" fill="#C7A77F"/>
<path d="M159.361 27.378C159.94 27.378 160.467 27.4667 160.943 27.644C161.429 27.8213 161.816 28.0873 162.105 28.442C162.404 28.7967 162.553 29.2447 162.553 29.786C162.553 30.3833 162.381 30.878 162.035 31.27C161.699 31.6527 161.275 31.97 160.761 32.222C161.116 32.4087 161.452 32.628 161.769 32.88C162.096 33.1227 162.357 33.412 162.553 33.748C162.759 34.0747 162.861 34.462 162.861 34.91C162.861 35.4607 162.712 35.9413 162.413 36.352C162.124 36.7627 161.713 37.08 161.181 37.304C160.659 37.528 160.052 37.64 159.361 37.64C158.241 37.64 157.373 37.402 156.757 36.926C156.151 36.45 155.847 35.7967 155.847 34.966C155.847 34.2753 156.034 33.72 156.407 33.3C156.781 32.88 157.233 32.5393 157.765 32.278C157.317 31.998 156.935 31.662 156.617 31.27C156.309 30.8687 156.155 30.3693 156.155 29.772C156.155 29.24 156.305 28.7967 156.603 28.442C156.902 28.0873 157.294 27.8213 157.779 27.644C158.274 27.4667 158.801 27.378 159.361 27.378ZM159.347 28.918C159.002 28.918 158.713 29.0067 158.479 29.184C158.255 29.3613 158.143 29.6133 158.143 29.94C158.143 30.2853 158.265 30.5653 158.507 30.78C158.75 30.9947 159.035 31.1813 159.361 31.34C159.679 31.1907 159.959 31.0133 160.201 30.808C160.444 30.5933 160.565 30.304 160.565 29.94C160.565 29.6133 160.449 29.3613 160.215 29.184C159.991 29.0067 159.702 28.918 159.347 28.918ZM157.807 34.84C157.807 35.204 157.933 35.5027 158.185 35.736C158.447 35.9693 158.829 36.086 159.333 36.086C159.856 36.086 160.248 35.974 160.509 35.75C160.771 35.526 160.901 35.2273 160.901 34.854C160.901 34.602 160.827 34.3827 160.677 34.196C160.528 34 160.341 33.8273 160.117 33.678C159.903 33.5193 159.679 33.3747 159.445 33.244L159.263 33.146C158.834 33.3513 158.484 33.5893 158.213 33.86C157.943 34.1307 157.807 34.4573 157.807 34.84ZM170.523 29.744C170.523 30.4347 170.313 30.9853 169.893 31.396C169.482 31.8067 168.974 32.0867 168.367 32.236V32.278C169.17 32.3713 169.776 32.614 170.187 33.006C170.607 33.398 170.817 33.9253 170.817 34.588C170.817 35.1667 170.672 35.6893 170.383 36.156C170.103 36.6133 169.664 36.9773 169.067 37.248C168.479 37.5093 167.718 37.64 166.785 37.64C165.702 37.64 164.741 37.458 163.901 37.094V35.302C164.33 35.5167 164.778 35.68 165.245 35.792C165.721 35.904 166.16 35.96 166.561 35.96C167.317 35.96 167.844 35.8293 168.143 35.568C168.451 35.3067 168.605 34.938 168.605 34.462C168.605 34.182 168.535 33.9487 168.395 33.762C168.255 33.566 168.008 33.4213 167.653 33.328C167.308 33.2253 166.822 33.174 166.197 33.174H165.441V31.55H166.211C166.827 31.55 167.294 31.494 167.611 31.382C167.938 31.2607 168.157 31.102 168.269 30.906C168.39 30.7007 168.451 30.4673 168.451 30.206C168.451 29.8513 168.339 29.576 168.115 29.38C167.9 29.1747 167.536 29.072 167.023 29.072C166.547 29.072 166.132 29.156 165.777 29.324C165.432 29.4827 165.138 29.6413 164.895 29.8L163.915 28.344C164.307 28.064 164.764 27.8307 165.287 27.644C165.819 27.4573 166.449 27.364 167.177 27.364C168.204 27.364 169.016 27.574 169.613 27.994C170.22 28.4047 170.523 28.988 170.523 29.744ZM174.167 27.364C174.951 27.364 175.544 27.6393 175.945 28.19C176.356 28.7313 176.561 29.4967 176.561 30.486C176.561 31.4753 176.37 32.25 175.987 32.81C175.604 33.3607 174.998 33.636 174.167 33.636C173.402 33.636 172.818 33.3607 172.417 32.81C172.016 32.25 171.815 31.4753 171.815 30.486C171.815 29.4967 172.002 28.7313 172.375 28.19C172.748 27.6393 173.346 27.364 174.167 27.364ZM181.265 27.504L175.721 37.5H174.083L179.627 27.504H181.265ZM174.181 28.792C173.752 28.792 173.537 29.3613 173.537 30.5C173.537 31.648 173.752 32.222 174.181 32.222C174.62 32.222 174.839 31.648 174.839 30.5C174.839 29.3613 174.62 28.792 174.181 28.792ZM181.167 31.354C181.951 31.354 182.544 31.6293 182.945 32.18C183.356 32.7213 183.561 33.4867 183.561 34.476C183.561 35.4653 183.37 36.24 182.987 36.8C182.604 37.3507 181.998 37.626 181.167 37.626C180.402 37.626 179.818 37.3507 179.417 36.8C179.016 36.24 178.815 35.4653 178.815 34.476C178.815 33.4867 179.002 32.7213 179.375 32.18C179.748 31.6293 180.346 31.354 181.167 31.354ZM181.181 32.782C180.752 32.782 180.537 33.3513 180.537 34.49C180.537 35.638 180.752 36.212 181.181 36.212C181.62 36.212 181.839 35.638 181.839 34.49C181.839 33.3513 181.62 32.782 181.181 32.782Z" fill="#8A8A8A"/>
<path d="M191.305 28.932L188.113 37.5H187.081L190.273 28.932H191.305ZM195.686 37.5H194.654V31.512C194.654 31.168 194.658 30.892 194.666 30.684C194.674 30.476 194.686 30.26 194.702 30.036C194.574 30.164 194.458 30.272 194.354 30.36C194.25 30.448 194.118 30.56 193.958 30.696L193.046 31.44L192.494 30.732L194.81 28.932H195.686V37.5ZM204.569 33.204C204.569 34.124 204.473 34.916 204.281 35.58C204.089 36.236 203.785 36.74 203.369 37.092C202.953 37.444 202.401 37.62 201.713 37.62C200.745 37.62 200.029 37.232 199.565 36.456C199.109 35.672 198.881 34.588 198.881 33.204C198.881 32.276 198.973 31.484 199.157 30.828C199.349 30.172 199.653 29.672 200.069 29.328C200.485 28.976 201.033 28.8 201.713 28.8C202.673 28.8 203.389 29.188 203.861 29.964C204.333 30.732 204.569 31.812 204.569 33.204ZM199.937 33.204C199.937 34.38 200.069 35.26 200.333 35.844C200.605 36.428 201.065 36.72 201.713 36.72C202.353 36.72 202.809 36.432 203.081 35.856C203.361 35.272 203.501 34.388 203.501 33.204C203.501 32.036 203.361 31.16 203.081 30.576C202.809 29.992 202.353 29.7 201.713 29.7C201.065 29.7 200.605 29.992 200.333 30.576C200.069 31.16 199.937 32.036 199.937 33.204ZM211.436 33.204C211.436 34.124 211.34 34.916 211.148 35.58C210.956 36.236 210.652 36.74 210.236 37.092C209.82 37.444 209.268 37.62 208.58 37.62C207.612 37.62 206.896 37.232 206.432 36.456C205.976 35.672 205.748 34.588 205.748 33.204C205.748 32.276 205.84 31.484 206.024 30.828C206.216 30.172 206.52 29.672 206.936 29.328C207.352 28.976 207.9 28.8 208.58 28.8C209.54 28.8 210.256 29.188 210.728 29.964C211.2 30.732 211.436 31.812 211.436 33.204ZM206.804 33.204C206.804 34.38 206.936 35.26 207.2 35.844C207.472 36.428 207.932 36.72 208.58 36.72C209.22 36.72 209.676 36.432 209.948 35.856C210.228 35.272 210.368 34.388 210.368 33.204C210.368 32.036 210.228 31.16 209.948 30.576C209.676 29.992 209.22 29.7 208.58 29.7C207.932 29.7 207.472 29.992 207.2 30.576C206.936 31.16 206.804 32.036 206.804 33.204ZM214.367 28.812C214.959 28.812 215.407 29.048 215.711 29.52C216.015 29.984 216.167 30.64 216.167 31.488C216.167 32.336 216.019 33 215.723 33.48C215.435 33.952 214.983 34.188 214.367 34.188C213.799 34.188 213.363 33.952 213.059 33.48C212.763 33 212.615 32.336 212.615 31.488C212.615 30.64 212.755 29.984 213.035 29.52C213.315 29.048 213.759 28.812 214.367 28.812ZM219.851 28.932L215.099 37.5H214.175L218.927 28.932H219.851ZM214.367 29.556C214.063 29.556 213.839 29.72 213.695 30.048C213.559 30.368 213.491 30.848 213.491 31.488C213.491 32.128 213.559 32.612 213.695 32.94C213.839 33.268 214.063 33.432 214.367 33.432C214.983 33.432 215.291 32.784 215.291 31.488C215.291 30.2 214.983 29.556 214.367 29.556ZM219.611 32.244C220.195 32.244 220.639 32.48 220.943 32.952C221.255 33.416 221.411 34.072 221.411 34.92C221.411 35.768 221.263 36.432 220.967 36.912C220.679 37.384 220.227 37.62 219.611 37.62C219.043 37.62 218.607 37.384 218.303 36.912C218.007 36.432 217.859 35.768 217.859 34.92C217.859 34.072 217.999 33.416 218.279 32.952C218.559 32.48 219.003 32.244 219.611 32.244ZM219.611 33C219.307 33 219.083 33.16 218.939 33.48C218.803 33.8 218.735 34.28 218.735 34.92C218.735 35.568 218.803 36.056 218.939 36.384C219.083 36.704 219.307 36.864 219.611 36.864C220.227 36.864 220.535 36.216 220.535 34.92C220.535 33.64 220.227 33 219.611 33Z" fill="#8A8A8A"/>
<!--g filter="url(#filter0_d_1366_25153)">
<rect x="313" y="12" width="36" height="36" rx="18" fill="white" shape-rendering="crispEdges"/>
<path d="M323 25H339M339 25L335 29M339 25L335 21M339 35H323M323 35L327 39M323 35L327 31" stroke="black" stroke-width="2" stroke-linecap="round" stroke-linejoin="round"/>
</g-->
</g>
<defs>
<filter id="filter0_d_1366_25153" x="311" y="10" width="40" height="40" filterUnits="userSpaceOnUse" color-interpolation-filters="sRGB">
<feFlood flood-opacity="0" result="BackgroundImageFix"/>
<feColorMatrix in="SourceAlpha" type="matrix" values="0 0 0 0 0 0 0 0 0 0 0 0 0 0 0 0 0 0 127 0" result="hardAlpha"/>
<feOffset/>
<feGaussianBlur stdDeviation="1"/>
<feComposite in2="hardAlpha" operator="out"/>
<feColorMatrix type="matrix" values="0 0 0 0 0 0 0 0 0 0 0 0 0 0 0 0 0 0 0.25 0"/>
<feBlend mode="normal" in2="BackgroundImageFix" result="effect1_dropShadow_1366_25153"/>
<feBlend mode="normal" in="SourceGraphic" in2="effect1_dropShadow_1366_25153" result="shape"/>
</filter>
<linearGradient id="paint0_linear_1366_25153" x1="99" y1="144.616" x2="262.202" y2="144.616" gradientUnits="userSpaceOnUse">
<stop stop-color="#8F6B45"/>
<stop offset="1" stop-color="#C7A77F"/>
</linearGradient>
<clipPath id="clip0_1366_25153">
<rect width="361" height="258.5" fill="white"/>
</clipPath>
</defs>
</svg>
