<svg width="361" height="149" viewBox="0 0 361 149" fill="none" xmlns="http://www.w3.org/2000/svg">
<path d="M7.154 16.244C7.154 16.7013 7.056 17.098 6.86 17.434C6.67333 17.77 6.41667 18.0453 6.09 18.26C5.77267 18.4747 5.40867 18.6333 4.998 18.736V18.778C5.80067 18.8713 6.40733 19.114 6.818 19.506C7.238 19.898 7.448 20.4253 7.448 21.088C7.448 21.6667 7.30333 22.1893 7.014 22.656C6.734 23.1133 6.29533 23.4773 5.698 23.748C5.11 24.0093 4.34933 24.14 3.416 24.14C2.86533 24.14 2.352 24.0933 1.876 24C1.4 23.9067 0.952 23.7713 0.532 23.594V21.802C0.961333 22.0167 1.40933 22.18 1.876 22.292C2.352 22.404 2.79067 22.46 3.192 22.46C3.948 22.46 4.47533 22.3293 4.774 22.068C5.082 21.8067 5.236 21.438 5.236 20.962C5.236 20.682 5.166 20.4487 5.026 20.262C4.886 20.066 4.63867 19.9213 4.284 19.828C3.93867 19.7253 3.45333 19.674 2.828 19.674H2.072V18.05H2.842C3.458 18.05 3.92467 17.994 4.242 17.882C4.56867 17.7607 4.788 17.602 4.9 17.406C5.02133 17.2007 5.082 16.9673 5.082 16.706C5.082 16.3513 4.97 16.076 4.746 15.88C4.53133 15.6747 4.16733 15.572 3.654 15.572C3.33667 15.572 3.04733 15.614 2.786 15.698C2.52467 15.7727 2.28667 15.866 2.072 15.978C1.86667 16.09 1.68467 16.1973 1.526 16.3L0.546 14.844C0.807333 14.6573 1.09667 14.4893 1.414 14.34C1.74067 14.1907 2.1 14.074 2.492 13.99C2.884 13.906 3.32267 13.864 3.808 13.864C4.83467 13.864 5.64667 14.074 6.244 14.494C6.85067 14.9047 7.154 15.488 7.154 16.244ZM15.5577 24H8.57172V22.53L11.0777 19.996C11.5817 19.4733 11.9877 19.0393 12.2957 18.694C12.6037 18.3393 12.8277 18.022 12.9677 17.742C13.1077 17.4527 13.1777 17.1447 13.1777 16.818C13.1777 16.4167 13.0657 16.118 12.8417 15.922C12.6271 15.726 12.3331 15.628 11.9597 15.628C11.5771 15.628 11.2037 15.7167 10.8397 15.894C10.4757 16.0713 10.0931 16.3233 9.69172 16.65L8.54372 15.292C8.83305 15.04 9.13639 14.8067 9.45372 14.592C9.78039 14.3773 10.1537 14.2047 10.5737 14.074C11.0031 13.934 11.5164 13.864 12.1137 13.864C12.7671 13.864 13.3271 13.9853 13.7937 14.228C14.2697 14.4613 14.6337 14.7833 14.8857 15.194C15.1471 15.5953 15.2777 16.0527 15.2777 16.566C15.2777 16.986 15.2124 17.3733 15.0817 17.728C14.9604 18.0827 14.7784 18.428 14.5357 18.764C14.3024 19.0907 14.0131 19.4313 13.6677 19.786C13.3224 20.1313 12.9304 20.5093 12.4917 20.92L11.2037 22.124V22.222H15.5577V24Z" fill="#262626"/>
<rect x="40" y="14.5" width="209" height="8" rx="4" fill="#111111"/>
<path d="M270.402 11.3778C270.594 10.9887 270.69 10.7941 270.821 10.732C270.934 10.6779 271.066 10.6779 271.179 10.732C271.31 10.7941 271.406 10.9887 271.598 11.3778L273.42 15.0694C273.477 15.1843 273.505 15.2418 273.546 15.2864C273.583 15.3258 273.627 15.3578 273.676 15.3806C273.731 15.4062 273.795 15.4155 273.921 15.434L277.997 16.0298C278.427 16.0925 278.641 16.1239 278.74 16.2287C278.827 16.32 278.868 16.4453 278.851 16.5699C278.832 16.713 278.677 16.8644 278.366 17.167L275.418 20.0387C275.326 20.1282 275.28 20.173 275.25 20.2263C275.224 20.2734 275.207 20.3252 275.201 20.3788C275.193 20.4393 275.204 20.5025 275.226 20.629L275.921 24.6851C275.995 25.1129 276.032 25.3269 275.963 25.4538C275.903 25.5642 275.796 25.6417 275.672 25.6646C275.53 25.6909 275.338 25.5899 274.954 25.3879L271.31 23.4716C271.197 23.4119 271.14 23.382 271.08 23.3703C271.027 23.3599 270.973 23.3599 270.92 23.3703C270.86 23.382 270.803 23.4119 270.69 23.4716L267.046 25.3879C266.661 25.5899 266.469 25.6909 266.327 25.6646C266.204 25.6417 266.097 25.5642 266.037 25.4538C265.968 25.3269 266.005 25.1129 266.078 24.6851L266.774 20.629C266.796 20.5025 266.806 20.4393 266.799 20.3788C266.793 20.3252 266.776 20.2734 266.75 20.2263C266.72 20.173 266.674 20.1282 266.582 20.0387L263.634 17.167C263.323 16.8644 263.168 16.713 263.149 16.5699C263.132 16.4453 263.173 16.32 263.259 16.2287C263.359 16.1239 263.573 16.0925 264.002 16.0298L268.078 15.434C268.205 15.4155 268.269 15.4062 268.324 15.3806C268.373 15.3578 268.417 15.3258 268.453 15.2864C268.495 15.2418 268.523 15.1843 268.58 15.0694L270.402 11.3778Z" fill="#111111"/>
<path d="M290.402 11.3778C290.594 10.9887 290.69 10.7941 290.821 10.732C290.934 10.6779 291.066 10.6779 291.179 10.732C291.31 10.7941 291.406 10.9887 291.598 11.3778L293.42 15.0694C293.477 15.1843 293.505 15.2418 293.546 15.2864C293.583 15.3258 293.627 15.3578 293.676 15.3806C293.731 15.4062 293.795 15.4155 293.921 15.434L297.997 16.0298C298.427 16.0925 298.641 16.1239 298.74 16.2287C298.827 16.32 298.868 16.4453 298.851 16.5699C298.832 16.713 298.677 16.8644 298.366 17.167L295.418 20.0387C295.326 20.1282 295.28 20.173 295.25 20.2263C295.224 20.2734 295.207 20.3252 295.201 20.3788C295.193 20.4393 295.204 20.5025 295.226 20.629L295.921 24.6851C295.995 25.1129 296.032 25.3269 295.963 25.4538C295.903 25.5642 295.796 25.6417 295.672 25.6646C295.53 25.6909 295.338 25.5899 294.954 25.3879L291.31 23.4716C291.197 23.4119 291.14 23.382 291.08 23.3703C291.027 23.3599 290.973 23.3599 290.92 23.3703C290.86 23.382 290.803 23.4119 290.69 23.4716L287.046 25.3879C286.661 25.5899 286.469 25.6909 286.327 25.6646C286.204 25.6417 286.097 25.5642 286.037 25.4538C285.968 25.3269 286.005 25.1129 286.078 24.6851L286.774 20.629C286.796 20.5025 286.806 20.4393 286.799 20.3788C286.793 20.3252 286.776 20.2734 286.75 20.2263C286.72 20.173 286.674 20.1282 286.582 20.0387L283.634 17.167C283.323 16.8644 283.168 16.713 283.149 16.5699C283.132 16.4453 283.173 16.32 283.259 16.2287C283.359 16.1239 283.573 16.0925 284.002 16.0298L288.078 15.434C288.205 15.4155 288.269 15.4062 288.324 15.3806C288.373 15.3578 288.417 15.3258 288.453 15.2864C288.495 15.2418 288.523 15.1843 288.58 15.0694L290.402 11.3778Z" fill="#111111"/>
<path d="M310.402 11.3778C310.594 10.9887 310.69 10.7941 310.821 10.732C310.934 10.6779 311.066 10.6779 311.179 10.732C311.31 10.7941 311.406 10.9887 311.598 11.3778L313.42 15.0694C313.477 15.1843 313.505 15.2418 313.546 15.2864C313.583 15.3258 313.627 15.3578 313.676 15.3806C313.731 15.4062 313.795 15.4155 313.921 15.434L317.997 16.0298C318.427 16.0925 318.641 16.1239 318.74 16.2287C318.827 16.32 318.868 16.4453 318.851 16.5699C318.832 16.713 318.677 16.8644 318.366 17.167L315.418 20.0387C315.326 20.1282 315.28 20.173 315.25 20.2263C315.224 20.2734 315.207 20.3252 315.201 20.3788C315.193 20.4393 315.204 20.5025 315.226 20.629L315.921 24.6851C315.995 25.1129 316.032 25.3269 315.963 25.4538C315.903 25.5642 315.796 25.6417 315.672 25.6646C315.53 25.6909 315.338 25.5899 314.954 25.3879L311.31 23.4716C311.197 23.4119 311.14 23.382 311.08 23.3703C311.027 23.3599 310.973 23.3599 310.92 23.3703C310.86 23.382 310.803 23.4119 310.69 23.4716L307.046 25.3879C306.661 25.5899 306.469 25.6909 306.327 25.6646C306.204 25.6417 306.097 25.5642 306.037 25.4538C305.968 25.3269 306.005 25.1129 306.078 24.6851L306.774 20.629C306.796 20.5025 306.806 20.4393 306.799 20.3788C306.793 20.3252 306.776 20.2734 306.75 20.2263C306.72 20.173 306.674 20.1282 306.582 20.0387L303.634 17.167C303.323 16.8644 303.168 16.713 303.149 16.5699C303.132 16.4453 303.173 16.32 303.259 16.2287C303.359 16.1239 303.573 16.0925 304.002 16.0298L308.078 15.434C308.205 15.4155 308.269 15.4062 308.324 15.3806C308.373 15.3578 308.417 15.3258 308.453 15.2864C308.495 15.2418 308.523 15.1843 308.58 15.0694L310.402 11.3778Z" fill="#111111"/>
<path d="M330.402 11.3778C330.594 10.9887 330.69 10.7941 330.821 10.732C330.934 10.6779 331.066 10.6779 331.179 10.732C331.31 10.7941 331.406 10.9887 331.598 11.3778L333.42 15.0694C333.477 15.1843 333.505 15.2418 333.546 15.2864C333.583 15.3258 333.627 15.3578 333.676 15.3806C333.731 15.4062 333.795 15.4155 333.921 15.434L337.997 16.0298C338.427 16.0925 338.641 16.1239 338.74 16.2287C338.827 16.32 338.868 16.4453 338.851 16.5699C338.832 16.713 338.677 16.8644 338.366 17.167L335.418 20.0387C335.326 20.1282 335.28 20.173 335.25 20.2263C335.224 20.2734 335.207 20.3252 335.201 20.3788C335.193 20.4393 335.204 20.5025 335.226 20.629L335.921 24.6851C335.995 25.1129 336.032 25.3269 335.963 25.4538C335.903 25.5642 335.796 25.6417 335.672 25.6646C335.53 25.6909 335.338 25.5899 334.954 25.3879L331.31 23.4716C331.197 23.4119 331.14 23.382 331.08 23.3703C331.027 23.3599 330.973 23.3599 330.92 23.3703C330.86 23.382 330.803 23.4119 330.69 23.4716L327.046 25.3879C326.661 25.5899 326.469 25.6909 326.327 25.6646C326.204 25.6417 326.097 25.5642 326.037 25.4538C325.968 25.3269 326.005 25.1129 326.078 24.6851L326.774 20.629C326.796 20.5025 326.806 20.4393 326.799 20.3788C326.793 20.3252 326.776 20.2734 326.75 20.2263C326.72 20.173 326.674 20.1282 326.582 20.0387L323.634 17.167C323.323 16.8644 323.168 16.713 323.149 16.5699C323.132 16.4453 323.173 16.32 323.259 16.2287C323.359 16.1239 323.573 16.0925 324.002 16.0298L328.078 15.434C328.205 15.4155 328.269 15.4062 328.324 15.3806C328.373 15.3578 328.417 15.3258 328.453 15.2864C328.495 15.2418 328.523 15.1843 328.58 15.0694L330.402 11.3778Z" fill="#111111"/>
<path d="M350.402 11.3778C350.594 10.9887 350.69 10.7941 350.821 10.732C350.934 10.6779 351.066 10.6779 351.179 10.732C351.31 10.7941 351.406 10.9887 351.598 11.3778L353.42 15.0694C353.477 15.1843 353.505 15.2418 353.546 15.2864C353.583 15.3258 353.627 15.3578 353.676 15.3806C353.731 15.4062 353.795 15.4155 353.921 15.434L357.997 16.0298C358.427 16.0925 358.641 16.1239 358.74 16.2287C358.827 16.32 358.868 16.4453 358.851 16.5699C358.832 16.713 358.677 16.8644 358.366 17.167L355.418 20.0387C355.326 20.1282 355.28 20.173 355.25 20.2263C355.224 20.2734 355.207 20.3252 355.201 20.3788C355.193 20.4393 355.204 20.5025 355.226 20.629L355.921 24.6851C355.995 25.1129 356.032 25.3269 355.963 25.4538C355.903 25.5642 355.796 25.6417 355.672 25.6646C355.53 25.6909 355.338 25.5899 354.954 25.3879L351.31 23.4716C351.197 23.4119 351.14 23.382 351.08 23.3703C351.027 23.3599 350.973 23.3599 350.92 23.3703C350.86 23.382 350.803 23.4119 350.69 23.4716L347.046 25.3879C346.661 25.5899 346.469 25.6909 346.327 25.6646C346.204 25.6417 346.097 25.5642 346.037 25.4538C345.968 25.3269 346.005 25.1129 346.078 24.6851L346.774 20.629C346.796 20.5025 346.806 20.4393 346.799 20.3788C346.793 20.3252 346.776 20.2734 346.75 20.2263C346.72 20.173 346.674 20.1282 346.582 20.0387L343.634 17.167C343.323 16.8644 343.168 16.713 343.149 16.5699C343.132 16.4453 343.173 16.32 343.259 16.2287C343.359 16.1239 343.573 16.0925 344.002 16.0298L348.078 15.434C348.205 15.4155 348.269 15.4062 348.324 15.3806C348.373 15.3578 348.417 15.3258 348.453 15.2864C348.495 15.2418 348.523 15.1843 348.58 15.0694L350.402 11.3778Z" fill="#111111"/>
<path d="M7.77 49.928H6.566V52H4.508V49.928H0.238V48.458L4.62 42.004H6.566V48.29H7.77V49.928ZM4.508 46.596C4.508 46.4373 4.508 46.2507 4.508 46.036C4.51733 45.812 4.52667 45.5927 4.536 45.378C4.54533 45.154 4.55467 44.958 4.564 44.79C4.57333 44.6127 4.58267 44.4913 4.592 44.426H4.536C4.452 44.6127 4.36333 44.7947 4.27 44.972C4.17667 45.1493 4.06467 45.3313 3.934 45.518L2.1 48.29H4.508V46.596Z" fill="#262626"/>
<rect x="40" y="42.5" width="209" height="8" rx="4" fill="black" fill-opacity="0.1"/>
<path d="M270.402 39.3778C270.594 38.9887 270.69 38.7941 270.821 38.732C270.934 38.6779 271.066 38.6779 271.179 38.732C271.31 38.7941 271.406 38.9887 271.598 39.3778L273.42 43.0694C273.477 43.1843 273.505 43.2418 273.546 43.2864C273.583 43.3258 273.627 43.3578 273.676 43.3806C273.731 43.4062 273.795 43.4155 273.921 43.434L277.997 44.0298C278.427 44.0925 278.641 44.1239 278.74 44.2287C278.827 44.32 278.868 44.4453 278.851 44.5699C278.832 44.713 278.677 44.8644 278.366 45.167L275.418 48.0387C275.326 48.1282 275.28 48.173 275.25 48.2263C275.224 48.2734 275.207 48.3252 275.201 48.3788C275.193 48.4393 275.204 48.5025 275.226 48.629L275.921 52.6851C275.995 53.1129 276.032 53.3269 275.963 53.4538C275.903 53.5642 275.796 53.6417 275.672 53.6646C275.53 53.6909 275.338 53.5899 274.954 53.3879L271.31 51.4716C271.197 51.4119 271.14 51.382 271.08 51.3703C271.027 51.3599 270.973 51.3599 270.92 51.3703C270.86 51.382 270.803 51.4119 270.69 51.4716L267.046 53.3879C266.661 53.5899 266.469 53.6909 266.327 53.6646C266.204 53.6417 266.097 53.5642 266.037 53.4538C265.968 53.3269 266.005 53.1129 266.078 52.6851L266.774 48.629C266.796 48.5025 266.806 48.4393 266.799 48.3788C266.793 48.3252 266.776 48.2734 266.75 48.2263C266.72 48.173 266.674 48.1282 266.582 48.0387L263.634 45.167C263.323 44.8644 263.168 44.713 263.149 44.5699C263.132 44.4453 263.173 44.32 263.259 44.2287C263.359 44.1239 263.573 44.0925 264.002 44.0298L268.078 43.434C268.205 43.4155 268.269 43.4062 268.324 43.3806C268.373 43.3578 268.417 43.3258 268.453 43.2864C268.495 43.2418 268.523 43.1843 268.58 43.0694L270.402 39.3778Z" fill="black" fill-opacity="0.2"/>
<path d="M290.402 39.3778C290.594 38.9887 290.69 38.7941 290.821 38.732C290.934 38.6779 291.066 38.6779 291.179 38.732C291.31 38.7941 291.406 38.9887 291.598 39.3778L293.42 43.0694C293.477 43.1843 293.505 43.2418 293.546 43.2864C293.583 43.3258 293.627 43.3578 293.676 43.3806C293.731 43.4062 293.795 43.4155 293.921 43.434L297.997 44.0298C298.427 44.0925 298.641 44.1239 298.74 44.2287C298.827 44.32 298.868 44.4453 298.851 44.5699C298.832 44.713 298.677 44.8644 298.366 45.167L295.418 48.0387C295.326 48.1282 295.28 48.173 295.25 48.2263C295.224 48.2734 295.207 48.3252 295.201 48.3788C295.193 48.4393 295.204 48.5025 295.226 48.629L295.921 52.6851C295.995 53.1129 296.032 53.3269 295.963 53.4538C295.903 53.5642 295.796 53.6417 295.672 53.6646C295.53 53.6909 295.338 53.5899 294.954 53.3879L291.31 51.4716C291.197 51.4119 291.14 51.382 291.08 51.3703C291.027 51.3599 290.973 51.3599 290.92 51.3703C290.86 51.382 290.803 51.4119 290.69 51.4716L287.046 53.3879C286.661 53.5899 286.469 53.6909 286.327 53.6646C286.204 53.6417 286.097 53.5642 286.037 53.4538C285.968 53.3269 286.005 53.1129 286.078 52.6851L286.774 48.629C286.796 48.5025 286.806 48.4393 286.799 48.3788C286.793 48.3252 286.776 48.2734 286.75 48.2263C286.72 48.173 286.674 48.1282 286.582 48.0387L283.634 45.167C283.323 44.8644 283.168 44.713 283.149 44.5699C283.132 44.4453 283.173 44.32 283.259 44.2287C283.359 44.1239 283.573 44.0925 284.002 44.0298L288.078 43.434C288.205 43.4155 288.269 43.4062 288.324 43.3806C288.373 43.3578 288.417 43.3258 288.453 43.2864C288.495 43.2418 288.523 43.1843 288.58 43.0694L290.402 39.3778Z" fill="#111111"/>
<path d="M310.402 39.3778C310.594 38.9887 310.69 38.7941 310.821 38.732C310.934 38.6779 311.066 38.6779 311.179 38.732C311.31 38.7941 311.406 38.9887 311.598 39.3778L313.42 43.0694C313.477 43.1843 313.505 43.2418 313.546 43.2864C313.583 43.3258 313.627 43.3578 313.676 43.3806C313.731 43.4062 313.795 43.4155 313.921 43.434L317.997 44.0298C318.427 44.0925 318.641 44.1239 318.74 44.2287C318.827 44.32 318.868 44.4453 318.851 44.5699C318.832 44.713 318.677 44.8644 318.366 45.167L315.418 48.0387C315.326 48.1282 315.28 48.173 315.25 48.2263C315.224 48.2734 315.207 48.3252 315.201 48.3788C315.193 48.4393 315.204 48.5025 315.226 48.629L315.921 52.6851C315.995 53.1129 316.032 53.3269 315.963 53.4538C315.903 53.5642 315.796 53.6417 315.672 53.6646C315.53 53.6909 315.338 53.5899 314.954 53.3879L311.31 51.4716C311.197 51.4119 311.14 51.382 311.08 51.3703C311.027 51.3599 310.973 51.3599 310.92 51.3703C310.86 51.382 310.803 51.4119 310.69 51.4716L307.046 53.3879C306.661 53.5899 306.469 53.6909 306.327 53.6646C306.204 53.6417 306.097 53.5642 306.037 53.4538C305.968 53.3269 306.005 53.1129 306.078 52.6851L306.774 48.629C306.796 48.5025 306.806 48.4393 306.799 48.3788C306.793 48.3252 306.776 48.2734 306.75 48.2263C306.72 48.173 306.674 48.1282 306.582 48.0387L303.634 45.167C303.323 44.8644 303.168 44.713 303.149 44.5699C303.132 44.4453 303.173 44.32 303.259 44.2287C303.359 44.1239 303.573 44.0925 304.002 44.0298L308.078 43.434C308.205 43.4155 308.269 43.4062 308.324 43.3806C308.373 43.3578 308.417 43.3258 308.453 43.2864C308.495 43.2418 308.523 43.1843 308.58 43.0694L310.402 39.3778Z" fill="#111111"/>
<path d="M330.402 39.3778C330.594 38.9887 330.69 38.7941 330.821 38.732C330.934 38.6779 331.066 38.6779 331.179 38.732C331.31 38.7941 331.406 38.9887 331.598 39.3778L333.42 43.0694C333.477 43.1843 333.505 43.2418 333.546 43.2864C333.583 43.3258 333.627 43.3578 333.676 43.3806C333.731 43.4062 333.795 43.4155 333.921 43.434L337.997 44.0298C338.427 44.0925 338.641 44.1239 338.74 44.2287C338.827 44.32 338.868 44.4453 338.851 44.5699C338.832 44.713 338.677 44.8644 338.366 45.167L335.418 48.0387C335.326 48.1282 335.28 48.173 335.25 48.2263C335.224 48.2734 335.207 48.3252 335.201 48.3788C335.193 48.4393 335.204 48.5025 335.226 48.629L335.921 52.6851C335.995 53.1129 336.032 53.3269 335.963 53.4538C335.903 53.5642 335.796 53.6417 335.672 53.6646C335.53 53.6909 335.338 53.5899 334.954 53.3879L331.31 51.4716C331.197 51.4119 331.14 51.382 331.08 51.3703C331.027 51.3599 330.973 51.3599 330.92 51.3703C330.86 51.382 330.803 51.4119 330.69 51.4716L327.046 53.3879C326.661 53.5899 326.469 53.6909 326.327 53.6646C326.204 53.6417 326.097 53.5642 326.037 53.4538C325.968 53.3269 326.005 53.1129 326.078 52.6851L326.774 48.629C326.796 48.5025 326.806 48.4393 326.799 48.3788C326.793 48.3252 326.776 48.2734 326.75 48.2263C326.72 48.173 326.674 48.1282 326.582 48.0387L323.634 45.167C323.323 44.8644 323.168 44.713 323.149 44.5699C323.132 44.4453 323.173 44.32 323.259 44.2287C323.359 44.1239 323.573 44.0925 324.002 44.0298L328.078 43.434C328.205 43.4155 328.269 43.4062 328.324 43.3806C328.373 43.3578 328.417 43.3258 328.453 43.2864C328.495 43.2418 328.523 43.1843 328.58 43.0694L330.402 39.3778Z" fill="#111111"/>
<path d="M350.402 39.3778C350.594 38.9887 350.69 38.7941 350.821 38.732C350.934 38.6779 351.066 38.6779 351.179 38.732C351.31 38.7941 351.406 38.9887 351.598 39.3778L353.42 43.0694C353.477 43.1843 353.505 43.2418 353.546 43.2864C353.583 43.3258 353.627 43.3578 353.676 43.3806C353.731 43.4062 353.795 43.4155 353.921 43.434L357.997 44.0298C358.427 44.0925 358.641 44.1239 358.74 44.2287C358.827 44.32 358.868 44.4453 358.851 44.5699C358.832 44.713 358.677 44.8644 358.366 45.167L355.418 48.0387C355.326 48.1282 355.28 48.173 355.25 48.2263C355.224 48.2734 355.207 48.3252 355.201 48.3788C355.193 48.4393 355.204 48.5025 355.226 48.629L355.921 52.6851C355.995 53.1129 356.032 53.3269 355.963 53.4538C355.903 53.5642 355.796 53.6417 355.672 53.6646C355.53 53.6909 355.338 53.5899 354.954 53.3879L351.31 51.4716C351.197 51.4119 351.14 51.382 351.08 51.3703C351.027 51.3599 350.973 51.3599 350.92 51.3703C350.86 51.382 350.803 51.4119 350.69 51.4716L347.046 53.3879C346.661 53.5899 346.469 53.6909 346.327 53.6646C346.204 53.6417 346.097 53.5642 346.037 53.4538C345.968 53.3269 346.005 53.1129 346.078 52.6851L346.774 48.629C346.796 48.5025 346.806 48.4393 346.799 48.3788C346.793 48.3252 346.776 48.2734 346.75 48.2263C346.72 48.173 346.674 48.1282 346.582 48.0387L343.634 45.167C343.323 44.8644 343.168 44.713 343.149 44.5699C343.132 44.4453 343.173 44.32 343.259 44.2287C343.359 44.1239 343.573 44.0925 344.002 44.0298L348.078 43.434C348.205 43.4155 348.269 43.4062 348.324 43.3806C348.373 43.3578 348.417 43.3258 348.453 43.2864C348.495 43.2418 348.523 43.1843 348.58 43.0694L350.402 39.3778Z" fill="#111111"/>
<path d="M7.49 75.002C7.49 75.8047 7.42467 76.5233 7.294 77.158C7.17267 77.7927 6.972 78.334 6.692 78.782C6.42133 79.2207 6.062 79.5567 5.614 79.79C5.17533 80.0233 4.634 80.14 3.99 80.14C3.18733 80.14 2.52933 79.9347 2.016 79.524C1.50267 79.1133 1.12 78.5253 0.868 77.76C0.625333 76.9947 0.504 76.0753 0.504 75.002C0.504 73.9193 0.616 72.9953 0.84 72.23C1.064 71.4647 1.43267 70.8767 1.946 70.466C2.45933 70.0553 3.14067 69.85 3.99 69.85C4.79267 69.85 5.45067 70.0553 5.964 70.466C6.47733 70.8673 6.86 71.4553 7.112 72.23C7.364 72.9953 7.49 73.9193 7.49 75.002ZM2.604 75.002C2.604 75.758 2.646 76.3927 2.73 76.906C2.814 77.41 2.954 77.7927 3.15 78.054C3.35533 78.306 3.63533 78.432 3.99 78.432C4.34467 78.432 4.62 78.306 4.816 78.054C5.02133 77.802 5.166 77.424 5.25 76.92C5.34333 76.4067 5.39 75.7673 5.39 75.002C5.39 74.2367 5.34333 73.602 5.25 73.098C5.166 72.5847 5.02133 72.202 4.816 71.95C4.62 71.6887 4.34467 71.558 3.99 71.558C3.63533 71.558 3.35533 71.6887 3.15 71.95C2.954 72.202 2.814 72.5847 2.73 73.098C2.646 73.602 2.604 74.2367 2.604 75.002Z" fill="#262626"/>
<rect x="40" y="70.5" width="209" height="8" rx="4" fill="black" fill-opacity="0.1"/>
<path d="M270.402 67.3778C270.594 66.9887 270.69 66.7941 270.821 66.732C270.934 66.6779 271.066 66.6779 271.179 66.732C271.31 66.7941 271.406 66.9887 271.598 67.3778L273.42 71.0694C273.477 71.1843 273.505 71.2418 273.546 71.2864C273.583 71.3258 273.627 71.3578 273.676 71.3806C273.731 71.4062 273.795 71.4155 273.921 71.434L277.997 72.0298C278.427 72.0925 278.641 72.1239 278.74 72.2287C278.827 72.32 278.868 72.4453 278.851 72.5699C278.832 72.713 278.677 72.8644 278.366 73.167L275.418 76.0387C275.326 76.1282 275.28 76.173 275.25 76.2263C275.224 76.2734 275.207 76.3252 275.201 76.3788C275.193 76.4393 275.204 76.5025 275.226 76.629L275.921 80.6851C275.995 81.1129 276.032 81.3269 275.963 81.4538C275.903 81.5642 275.796 81.6417 275.672 81.6646C275.53 81.6909 275.338 81.5899 274.954 81.3879L271.31 79.4716C271.197 79.4119 271.14 79.382 271.08 79.3703C271.027 79.3599 270.973 79.3599 270.92 79.3703C270.86 79.382 270.803 79.4119 270.69 79.4716L267.046 81.3879C266.661 81.5899 266.469 81.6909 266.327 81.6646C266.204 81.6417 266.097 81.5642 266.037 81.4538C265.968 81.3269 266.005 81.1129 266.078 80.6851L266.774 76.629C266.796 76.5025 266.806 76.4393 266.799 76.3788C266.793 76.3252 266.776 76.2734 266.75 76.2263C266.72 76.173 266.674 76.1282 266.582 76.0387L263.634 73.167C263.323 72.8644 263.168 72.713 263.149 72.5699C263.132 72.4453 263.173 72.32 263.259 72.2287C263.359 72.1239 263.573 72.0925 264.002 72.0298L268.078 71.434C268.205 71.4155 268.269 71.4062 268.324 71.3806C268.373 71.3578 268.417 71.3258 268.453 71.2864C268.495 71.2418 268.523 71.1843 268.58 71.0694L270.402 67.3778Z" fill="black" fill-opacity="0.2"/>
<path d="M290.402 67.3778C290.594 66.9887 290.69 66.7941 290.821 66.732C290.934 66.6779 291.066 66.6779 291.179 66.732C291.31 66.7941 291.406 66.9887 291.598 67.3778L293.42 71.0694C293.477 71.1843 293.505 71.2418 293.546 71.2864C293.583 71.3258 293.627 71.3578 293.676 71.3806C293.731 71.4062 293.795 71.4155 293.921 71.434L297.997 72.0298C298.427 72.0925 298.641 72.1239 298.74 72.2287C298.827 72.32 298.868 72.4453 298.851 72.5699C298.832 72.713 298.677 72.8644 298.366 73.167L295.418 76.0387C295.326 76.1282 295.28 76.173 295.25 76.2263C295.224 76.2734 295.207 76.3252 295.201 76.3788C295.193 76.4393 295.204 76.5025 295.226 76.629L295.921 80.6851C295.995 81.1129 296.032 81.3269 295.963 81.4538C295.903 81.5642 295.796 81.6417 295.672 81.6646C295.53 81.6909 295.338 81.5899 294.954 81.3879L291.31 79.4716C291.197 79.4119 291.14 79.382 291.08 79.3703C291.027 79.3599 290.973 79.3599 290.92 79.3703C290.86 79.382 290.803 79.4119 290.69 79.4716L287.046 81.3879C286.661 81.5899 286.469 81.6909 286.327 81.6646C286.204 81.6417 286.097 81.5642 286.037 81.4538C285.968 81.3269 286.005 81.1129 286.078 80.6851L286.774 76.629C286.796 76.5025 286.806 76.4393 286.799 76.3788C286.793 76.3252 286.776 76.2734 286.75 76.2263C286.72 76.173 286.674 76.1282 286.582 76.0387L283.634 73.167C283.323 72.8644 283.168 72.713 283.149 72.5699C283.132 72.4453 283.173 72.32 283.259 72.2287C283.359 72.1239 283.573 72.0925 284.002 72.0298L288.078 71.434C288.205 71.4155 288.269 71.4062 288.324 71.3806C288.373 71.3578 288.417 71.3258 288.453 71.2864C288.495 71.2418 288.523 71.1843 288.58 71.0694L290.402 67.3778Z" fill="black" fill-opacity="0.2"/>
<path d="M310.402 67.3778C310.594 66.9887 310.69 66.7941 310.821 66.732C310.934 66.6779 311.066 66.6779 311.179 66.732C311.31 66.7941 311.406 66.9887 311.598 67.3778L313.42 71.0694C313.477 71.1843 313.505 71.2418 313.546 71.2864C313.583 71.3258 313.627 71.3578 313.676 71.3806C313.731 71.4062 313.795 71.4155 313.921 71.434L317.997 72.0298C318.427 72.0925 318.641 72.1239 318.74 72.2287C318.827 72.32 318.868 72.4453 318.851 72.5699C318.832 72.713 318.677 72.8644 318.366 73.167L315.418 76.0387C315.326 76.1282 315.28 76.173 315.25 76.2263C315.224 76.2734 315.207 76.3252 315.201 76.3788C315.193 76.4393 315.204 76.5025 315.226 76.629L315.921 80.6851C315.995 81.1129 316.032 81.3269 315.963 81.4538C315.903 81.5642 315.796 81.6417 315.672 81.6646C315.53 81.6909 315.338 81.5899 314.954 81.3879L311.31 79.4716C311.197 79.4119 311.14 79.382 311.08 79.3703C311.027 79.3599 310.973 79.3599 310.92 79.3703C310.86 79.382 310.803 79.4119 310.69 79.4716L307.046 81.3879C306.661 81.5899 306.469 81.6909 306.327 81.6646C306.204 81.6417 306.097 81.5642 306.037 81.4538C305.968 81.3269 306.005 81.1129 306.078 80.6851L306.774 76.629C306.796 76.5025 306.806 76.4393 306.799 76.3788C306.793 76.3252 306.776 76.2734 306.75 76.2263C306.72 76.173 306.674 76.1282 306.582 76.0387L303.634 73.167C303.323 72.8644 303.168 72.713 303.149 72.5699C303.132 72.4453 303.173 72.32 303.259 72.2287C303.359 72.1239 303.573 72.0925 304.002 72.0298L308.078 71.434C308.205 71.4155 308.269 71.4062 308.324 71.3806C308.373 71.3578 308.417 71.3258 308.453 71.2864C308.495 71.2418 308.523 71.1843 308.58 71.0694L310.402 67.3778Z" fill="#111111"/>
<path d="M330.402 67.3778C330.594 66.9887 330.69 66.7941 330.821 66.732C330.934 66.6779 331.066 66.6779 331.179 66.732C331.31 66.7941 331.406 66.9887 331.598 67.3778L333.42 71.0694C333.477 71.1843 333.505 71.2418 333.546 71.2864C333.583 71.3258 333.627 71.3578 333.676 71.3806C333.731 71.4062 333.795 71.4155 333.921 71.434L337.997 72.0298C338.427 72.0925 338.641 72.1239 338.74 72.2287C338.827 72.32 338.868 72.4453 338.851 72.5699C338.832 72.713 338.677 72.8644 338.366 73.167L335.418 76.0387C335.326 76.1282 335.28 76.173 335.25 76.2263C335.224 76.2734 335.207 76.3252 335.201 76.3788C335.193 76.4393 335.204 76.5025 335.226 76.629L335.921 80.6851C335.995 81.1129 336.032 81.3269 335.963 81.4538C335.903 81.5642 335.796 81.6417 335.672 81.6646C335.53 81.6909 335.338 81.5899 334.954 81.3879L331.31 79.4716C331.197 79.4119 331.14 79.382 331.08 79.3703C331.027 79.3599 330.973 79.3599 330.92 79.3703C330.86 79.382 330.803 79.4119 330.69 79.4716L327.046 81.3879C326.661 81.5899 326.469 81.6909 326.327 81.6646C326.204 81.6417 326.097 81.5642 326.037 81.4538C325.968 81.3269 326.005 81.1129 326.078 80.6851L326.774 76.629C326.796 76.5025 326.806 76.4393 326.799 76.3788C326.793 76.3252 326.776 76.2734 326.75 76.2263C326.72 76.173 326.674 76.1282 326.582 76.0387L323.634 73.167C323.323 72.8644 323.168 72.713 323.149 72.5699C323.132 72.4453 323.173 72.32 323.259 72.2287C323.359 72.1239 323.573 72.0925 324.002 72.0298L328.078 71.434C328.205 71.4155 328.269 71.4062 328.324 71.3806C328.373 71.3578 328.417 71.3258 328.453 71.2864C328.495 71.2418 328.523 71.1843 328.58 71.0694L330.402 67.3778Z" fill="#111111"/>
<path d="M350.402 67.3778C350.594 66.9887 350.69 66.7941 350.821 66.732C350.934 66.6779 351.066 66.6779 351.179 66.732C351.31 66.7941 351.406 66.9887 351.598 67.3778L353.42 71.0694C353.477 71.1843 353.505 71.2418 353.546 71.2864C353.583 71.3258 353.627 71.3578 353.676 71.3806C353.731 71.4062 353.795 71.4155 353.921 71.434L357.997 72.0298C358.427 72.0925 358.641 72.1239 358.74 72.2287C358.827 72.32 358.868 72.4453 358.851 72.5699C358.832 72.713 358.677 72.8644 358.366 73.167L355.418 76.0387C355.326 76.1282 355.28 76.173 355.25 76.2263C355.224 76.2734 355.207 76.3252 355.201 76.3788C355.193 76.4393 355.204 76.5025 355.226 76.629L355.921 80.6851C355.995 81.1129 356.032 81.3269 355.963 81.4538C355.903 81.5642 355.796 81.6417 355.672 81.6646C355.53 81.6909 355.338 81.5899 354.954 81.3879L351.31 79.4716C351.197 79.4119 351.14 79.382 351.08 79.3703C351.027 79.3599 350.973 79.3599 350.92 79.3703C350.86 79.382 350.803 79.4119 350.69 79.4716L347.046 81.3879C346.661 81.5899 346.469 81.6909 346.327 81.6646C346.204 81.6417 346.097 81.5642 346.037 81.4538C345.968 81.3269 346.005 81.1129 346.078 80.6851L346.774 76.629C346.796 76.5025 346.806 76.4393 346.799 76.3788C346.793 76.3252 346.776 76.2734 346.75 76.2263C346.72 76.173 346.674 76.1282 346.582 76.0387L343.634 73.167C343.323 72.8644 343.168 72.713 343.149 72.5699C343.132 72.4453 343.173 72.32 343.259 72.2287C343.359 72.1239 343.573 72.0925 344.002 72.0298L348.078 71.434C348.205 71.4155 348.269 71.4062 348.324 71.3806C348.373 71.3578 348.417 71.3258 348.453 71.2864C348.495 71.2418 348.523 71.1843 348.58 71.0694L350.402 67.3778Z" fill="#111111"/>
<path d="M5.782 108H3.668V102.218C3.668 102.059 3.668 101.863 3.668 101.63C3.67733 101.397 3.68667 101.154 3.696 100.902C3.70533 100.65 3.71467 100.426 3.724 100.23C3.67733 100.286 3.57467 100.389 3.416 100.538C3.26667 100.678 3.12667 100.804 2.996 100.916L1.848 101.84L0.826 100.566L4.046 98.004H5.782V108Z" fill="#262626"/>
<rect x="40" y="98.5" width="209" height="8" rx="4" fill="black" fill-opacity="0.1"/>
<path d="M270.402 95.3778C270.594 94.9887 270.69 94.7941 270.821 94.732C270.934 94.6779 271.066 94.6779 271.179 94.732C271.31 94.7941 271.406 94.9887 271.598 95.3778L273.42 99.0694C273.477 99.1843 273.505 99.2418 273.546 99.2864C273.583 99.3258 273.627 99.3578 273.676 99.3806C273.731 99.4062 273.795 99.4155 273.921 99.434L277.997 100.03C278.427 100.093 278.641 100.124 278.74 100.229C278.827 100.32 278.868 100.445 278.851 100.57C278.832 100.713 278.677 100.864 278.366 101.167L275.418 104.039C275.326 104.128 275.28 104.173 275.25 104.226C275.224 104.273 275.207 104.325 275.201 104.379C275.193 104.439 275.204 104.503 275.226 104.629L275.921 108.685C275.995 109.113 276.032 109.327 275.963 109.454C275.903 109.564 275.796 109.642 275.672 109.665C275.53 109.691 275.338 109.59 274.954 109.388L271.31 107.472C271.197 107.412 271.14 107.382 271.08 107.37C271.027 107.36 270.973 107.36 270.92 107.37C270.86 107.382 270.803 107.412 270.69 107.472L267.046 109.388C266.661 109.59 266.469 109.691 266.327 109.665C266.204 109.642 266.097 109.564 266.037 109.454C265.968 109.327 266.005 109.113 266.078 108.685L266.774 104.629C266.796 104.503 266.806 104.439 266.799 104.379C266.793 104.325 266.776 104.273 266.75 104.226C266.72 104.173 266.674 104.128 266.582 104.039L263.634 101.167C263.323 100.864 263.168 100.713 263.149 100.57C263.132 100.445 263.173 100.32 263.259 100.229C263.359 100.124 263.573 100.093 264.002 100.03L268.078 99.434C268.205 99.4155 268.269 99.4062 268.324 99.3806C268.373 99.3578 268.417 99.3258 268.453 99.2864C268.495 99.2418 268.523 99.1843 268.58 99.0694L270.402 95.3778Z" fill="black" fill-opacity="0.2"/>
<path d="M290.402 95.3778C290.594 94.9887 290.69 94.7941 290.821 94.732C290.934 94.6779 291.066 94.6779 291.179 94.732C291.31 94.7941 291.406 94.9887 291.598 95.3778L293.42 99.0694C293.477 99.1843 293.505 99.2418 293.546 99.2864C293.583 99.3258 293.627 99.3578 293.676 99.3806C293.731 99.4062 293.795 99.4155 293.921 99.434L297.997 100.03C298.427 100.093 298.641 100.124 298.74 100.229C298.827 100.32 298.868 100.445 298.851 100.57C298.832 100.713 298.677 100.864 298.366 101.167L295.418 104.039C295.326 104.128 295.28 104.173 295.25 104.226C295.224 104.273 295.207 104.325 295.201 104.379C295.193 104.439 295.204 104.503 295.226 104.629L295.921 108.685C295.995 109.113 296.032 109.327 295.963 109.454C295.903 109.564 295.796 109.642 295.672 109.665C295.53 109.691 295.338 109.59 294.954 109.388L291.31 107.472C291.197 107.412 291.14 107.382 291.08 107.37C291.027 107.36 290.973 107.36 290.92 107.37C290.86 107.382 290.803 107.412 290.69 107.472L287.046 109.388C286.661 109.59 286.469 109.691 286.327 109.665C286.204 109.642 286.097 109.564 286.037 109.454C285.968 109.327 286.005 109.113 286.078 108.685L286.774 104.629C286.796 104.503 286.806 104.439 286.799 104.379C286.793 104.325 286.776 104.273 286.75 104.226C286.72 104.173 286.674 104.128 286.582 104.039L283.634 101.167C283.323 100.864 283.168 100.713 283.149 100.57C283.132 100.445 283.173 100.32 283.259 100.229C283.359 100.124 283.573 100.093 284.002 100.03L288.078 99.434C288.205 99.4155 288.269 99.4062 288.324 99.3806C288.373 99.3578 288.417 99.3258 288.453 99.2864C288.495 99.2418 288.523 99.1843 288.58 99.0694L290.402 95.3778Z" fill="black" fill-opacity="0.2"/>
<path d="M310.402 95.3778C310.594 94.9887 310.69 94.7941 310.821 94.732C310.934 94.6779 311.066 94.6779 311.179 94.732C311.31 94.7941 311.406 94.9887 311.598 95.3778L313.42 99.0694C313.477 99.1843 313.505 99.2418 313.546 99.2864C313.583 99.3258 313.627 99.3578 313.676 99.3806C313.731 99.4062 313.795 99.4155 313.921 99.434L317.997 100.03C318.427 100.093 318.641 100.124 318.74 100.229C318.827 100.32 318.868 100.445 318.851 100.57C318.832 100.713 318.677 100.864 318.366 101.167L315.418 104.039C315.326 104.128 315.28 104.173 315.25 104.226C315.224 104.273 315.207 104.325 315.201 104.379C315.193 104.439 315.204 104.503 315.226 104.629L315.921 108.685C315.995 109.113 316.032 109.327 315.963 109.454C315.903 109.564 315.796 109.642 315.672 109.665C315.53 109.691 315.338 109.59 314.954 109.388L311.31 107.472C311.197 107.412 311.14 107.382 311.08 107.37C311.027 107.36 310.973 107.36 310.92 107.37C310.86 107.382 310.803 107.412 310.69 107.472L307.046 109.388C306.661 109.59 306.469 109.691 306.327 109.665C306.204 109.642 306.097 109.564 306.037 109.454C305.968 109.327 306.005 109.113 306.078 108.685L306.774 104.629C306.796 104.503 306.806 104.439 306.799 104.379C306.793 104.325 306.776 104.273 306.75 104.226C306.72 104.173 306.674 104.128 306.582 104.039L303.634 101.167C303.323 100.864 303.168 100.713 303.149 100.57C303.132 100.445 303.173 100.32 303.259 100.229C303.359 100.124 303.573 100.093 304.002 100.03L308.078 99.434C308.205 99.4155 308.269 99.4062 308.324 99.3806C308.373 99.3578 308.417 99.3258 308.453 99.2864C308.495 99.2418 308.523 99.1843 308.58 99.0694L310.402 95.3778Z" fill="black" fill-opacity="0.2"/>
<path d="M330.402 95.3778C330.594 94.9887 330.69 94.7941 330.821 94.732C330.934 94.6779 331.066 94.6779 331.179 94.732C331.31 94.7941 331.406 94.9887 331.598 95.3778L333.42 99.0694C333.477 99.1843 333.505 99.2418 333.546 99.2864C333.583 99.3258 333.627 99.3578 333.676 99.3806C333.731 99.4062 333.795 99.4155 333.921 99.434L337.997 100.03C338.427 100.093 338.641 100.124 338.74 100.229C338.827 100.32 338.868 100.445 338.851 100.57C338.832 100.713 338.677 100.864 338.366 101.167L335.418 104.039C335.326 104.128 335.28 104.173 335.25 104.226C335.224 104.273 335.207 104.325 335.201 104.379C335.193 104.439 335.204 104.503 335.226 104.629L335.921 108.685C335.995 109.113 336.032 109.327 335.963 109.454C335.903 109.564 335.796 109.642 335.672 109.665C335.53 109.691 335.338 109.59 334.954 109.388L331.31 107.472C331.197 107.412 331.14 107.382 331.08 107.37C331.027 107.36 330.973 107.36 330.92 107.37C330.86 107.382 330.803 107.412 330.69 107.472L327.046 109.388C326.661 109.59 326.469 109.691 326.327 109.665C326.204 109.642 326.097 109.564 326.037 109.454C325.968 109.327 326.005 109.113 326.078 108.685L326.774 104.629C326.796 104.503 326.806 104.439 326.799 104.379C326.793 104.325 326.776 104.273 326.75 104.226C326.72 104.173 326.674 104.128 326.582 104.039L323.634 101.167C323.323 100.864 323.168 100.713 323.149 100.57C323.132 100.445 323.173 100.32 323.259 100.229C323.359 100.124 323.573 100.093 324.002 100.03L328.078 99.434C328.205 99.4155 328.269 99.4062 328.324 99.3806C328.373 99.3578 328.417 99.3258 328.453 99.2864C328.495 99.2418 328.523 99.1843 328.58 99.0694L330.402 95.3778Z" fill="#111111"/>
<path d="M350.402 95.3778C350.594 94.9887 350.69 94.7941 350.821 94.732C350.934 94.6779 351.066 94.6779 351.179 94.732C351.31 94.7941 351.406 94.9887 351.598 95.3778L353.42 99.0694C353.477 99.1843 353.505 99.2418 353.546 99.2864C353.583 99.3258 353.627 99.3578 353.676 99.3806C353.731 99.4062 353.795 99.4155 353.921 99.434L357.997 100.03C358.427 100.093 358.641 100.124 358.74 100.229C358.827 100.32 358.868 100.445 358.851 100.57C358.832 100.713 358.677 100.864 358.366 101.167L355.418 104.039C355.326 104.128 355.28 104.173 355.25 104.226C355.224 104.273 355.207 104.325 355.201 104.379C355.193 104.439 355.204 104.503 355.226 104.629L355.921 108.685C355.995 109.113 356.032 109.327 355.963 109.454C355.903 109.564 355.796 109.642 355.672 109.665C355.53 109.691 355.338 109.59 354.954 109.388L351.31 107.472C351.197 107.412 351.14 107.382 351.08 107.37C351.027 107.36 350.973 107.36 350.92 107.37C350.86 107.382 350.803 107.412 350.69 107.472L347.046 109.388C346.661 109.59 346.469 109.691 346.327 109.665C346.204 109.642 346.097 109.564 346.037 109.454C345.968 109.327 346.005 109.113 346.078 108.685L346.774 104.629C346.796 104.503 346.806 104.439 346.799 104.379C346.793 104.325 346.776 104.273 346.75 104.226C346.72 104.173 346.674 104.128 346.582 104.039L343.634 101.167C343.323 100.864 343.168 100.713 343.149 100.57C343.132 100.445 343.173 100.32 343.259 100.229C343.359 100.124 343.573 100.093 344.002 100.03L348.078 99.434C348.205 99.4155 348.269 99.4062 348.324 99.3806C348.373 99.3578 348.417 99.3258 348.453 99.2864C348.495 99.2418 348.523 99.1843 348.58 99.0694L350.402 95.3778Z" fill="#111111"/>
<path d="M7.546 136H0.56V134.53L3.066 131.996C3.57 131.473 3.976 131.039 4.284 130.694C4.592 130.339 4.816 130.022 4.956 129.742C5.096 129.453 5.166 129.145 5.166 128.818C5.166 128.417 5.054 128.118 4.83 127.922C4.61533 127.726 4.32133 127.628 3.948 127.628C3.56533 127.628 3.192 127.717 2.828 127.894C2.464 128.071 2.08133 128.323 1.68 128.65L0.532 127.292C0.821333 127.04 1.12467 126.807 1.442 126.592C1.76867 126.377 2.142 126.205 2.562 126.074C2.99133 125.934 3.50467 125.864 4.102 125.864C4.75533 125.864 5.31533 125.985 5.782 126.228C6.258 126.461 6.622 126.783 6.874 127.194C7.13533 127.595 7.266 128.053 7.266 128.566C7.266 128.986 7.20067 129.373 7.07 129.728C6.94867 130.083 6.76667 130.428 6.524 130.764C6.29067 131.091 6.00133 131.431 5.656 131.786C5.31067 132.131 4.91867 132.509 4.48 132.92L3.192 134.124V134.222H7.546V136Z" fill="#262626"/>
<rect x="40" y="126.5" width="209" height="8" rx="4" fill="black" fill-opacity="0.1"/>
<path d="M270.402 123.378C270.594 122.989 270.69 122.794 270.821 122.732C270.934 122.678 271.066 122.678 271.179 122.732C271.31 122.794 271.406 122.989 271.598 123.378L273.42 127.069C273.477 127.184 273.505 127.242 273.546 127.286C273.583 127.326 273.627 127.358 273.676 127.381C273.731 127.406 273.795 127.415 273.921 127.434L277.997 128.03C278.427 128.093 278.641 128.124 278.74 128.229C278.827 128.32 278.868 128.445 278.851 128.57C278.832 128.713 278.677 128.864 278.366 129.167L275.418 132.039C275.326 132.128 275.28 132.173 275.25 132.226C275.224 132.273 275.207 132.325 275.201 132.379C275.193 132.439 275.204 132.503 275.226 132.629L275.921 136.685C275.995 137.113 276.032 137.327 275.963 137.454C275.903 137.564 275.796 137.642 275.672 137.665C275.53 137.691 275.338 137.59 274.954 137.388L271.31 135.472C271.197 135.412 271.14 135.382 271.08 135.37C271.027 135.36 270.973 135.36 270.92 135.37C270.86 135.382 270.803 135.412 270.69 135.472L267.046 137.388C266.661 137.59 266.469 137.691 266.327 137.665C266.204 137.642 266.097 137.564 266.037 137.454C265.968 137.327 266.005 137.113 266.078 136.685L266.774 132.629C266.796 132.503 266.806 132.439 266.799 132.379C266.793 132.325 266.776 132.273 266.75 132.226C266.72 132.173 266.674 132.128 266.582 132.039L263.634 129.167C263.323 128.864 263.168 128.713 263.149 128.57C263.132 128.445 263.173 128.32 263.259 128.229C263.359 128.124 263.573 128.093 264.002 128.03L268.078 127.434C268.205 127.415 268.269 127.406 268.324 127.381C268.373 127.358 268.417 127.326 268.453 127.286C268.495 127.242 268.523 127.184 268.58 127.069L270.402 123.378Z" fill="black" fill-opacity="0.2"/>
<path d="M290.402 123.378C290.594 122.989 290.69 122.794 290.821 122.732C290.934 122.678 291.066 122.678 291.179 122.732C291.31 122.794 291.406 122.989 291.598 123.378L293.42 127.069C293.477 127.184 293.505 127.242 293.546 127.286C293.583 127.326 293.627 127.358 293.676 127.381C293.731 127.406 293.795 127.415 293.921 127.434L297.997 128.03C298.427 128.093 298.641 128.124 298.74 128.229C298.827 128.32 298.868 128.445 298.851 128.57C298.832 128.713 298.677 128.864 298.366 129.167L295.418 132.039C295.326 132.128 295.28 132.173 295.25 132.226C295.224 132.273 295.207 132.325 295.201 132.379C295.193 132.439 295.204 132.503 295.226 132.629L295.921 136.685C295.995 137.113 296.032 137.327 295.963 137.454C295.903 137.564 295.796 137.642 295.672 137.665C295.53 137.691 295.338 137.59 294.954 137.388L291.31 135.472C291.197 135.412 291.14 135.382 291.08 135.37C291.027 135.36 290.973 135.36 290.92 135.37C290.86 135.382 290.803 135.412 290.69 135.472L287.046 137.388C286.661 137.59 286.469 137.691 286.327 137.665C286.204 137.642 286.097 137.564 286.037 137.454C285.968 137.327 286.005 137.113 286.078 136.685L286.774 132.629C286.796 132.503 286.806 132.439 286.799 132.379C286.793 132.325 286.776 132.273 286.75 132.226C286.72 132.173 286.674 132.128 286.582 132.039L283.634 129.167C283.323 128.864 283.168 128.713 283.149 128.57C283.132 128.445 283.173 128.32 283.259 128.229C283.359 128.124 283.573 128.093 284.002 128.03L288.078 127.434C288.205 127.415 288.269 127.406 288.324 127.381C288.373 127.358 288.417 127.326 288.453 127.286C288.495 127.242 288.523 127.184 288.58 127.069L290.402 123.378Z" fill="black" fill-opacity="0.2"/>
<path d="M310.402 123.378C310.594 122.989 310.69 122.794 310.821 122.732C310.934 122.678 311.066 122.678 311.179 122.732C311.31 122.794 311.406 122.989 311.598 123.378L313.42 127.069C313.477 127.184 313.505 127.242 313.546 127.286C313.583 127.326 313.627 127.358 313.676 127.381C313.731 127.406 313.795 127.415 313.921 127.434L317.997 128.03C318.427 128.093 318.641 128.124 318.74 128.229C318.827 128.32 318.868 128.445 318.851 128.57C318.832 128.713 318.677 128.864 318.366 129.167L315.418 132.039C315.326 132.128 315.28 132.173 315.25 132.226C315.224 132.273 315.207 132.325 315.201 132.379C315.193 132.439 315.204 132.503 315.226 132.629L315.921 136.685C315.995 137.113 316.032 137.327 315.963 137.454C315.903 137.564 315.796 137.642 315.672 137.665C315.53 137.691 315.338 137.59 314.954 137.388L311.31 135.472C311.197 135.412 311.14 135.382 311.08 135.37C311.027 135.36 310.973 135.36 310.92 135.37C310.86 135.382 310.803 135.412 310.69 135.472L307.046 137.388C306.661 137.59 306.469 137.691 306.327 137.665C306.204 137.642 306.097 137.564 306.037 137.454C305.968 137.327 306.005 137.113 306.078 136.685L306.774 132.629C306.796 132.503 306.806 132.439 306.799 132.379C306.793 132.325 306.776 132.273 306.75 132.226C306.72 132.173 306.674 132.128 306.582 132.039L303.634 129.167C303.323 128.864 303.168 128.713 303.149 128.57C303.132 128.445 303.173 128.32 303.259 128.229C303.359 128.124 303.573 128.093 304.002 128.03L308.078 127.434C308.205 127.415 308.269 127.406 308.324 127.381C308.373 127.358 308.417 127.326 308.453 127.286C308.495 127.242 308.523 127.184 308.58 127.069L310.402 123.378Z" fill="black" fill-opacity="0.2"/>
<path d="M330.402 123.378C330.594 122.989 330.69 122.794 330.821 122.732C330.934 122.678 331.066 122.678 331.179 122.732C331.31 122.794 331.406 122.989 331.598 123.378L333.42 127.069C333.477 127.184 333.505 127.242 333.546 127.286C333.583 127.326 333.627 127.358 333.676 127.381C333.731 127.406 333.795 127.415 333.921 127.434L337.997 128.03C338.427 128.093 338.641 128.124 338.74 128.229C338.827 128.32 338.868 128.445 338.851 128.57C338.832 128.713 338.677 128.864 338.366 129.167L335.418 132.039C335.326 132.128 335.28 132.173 335.25 132.226C335.224 132.273 335.207 132.325 335.201 132.379C335.193 132.439 335.204 132.503 335.226 132.629L335.921 136.685C335.995 137.113 336.032 137.327 335.963 137.454C335.903 137.564 335.796 137.642 335.672 137.665C335.53 137.691 335.338 137.59 334.954 137.388L331.31 135.472C331.197 135.412 331.14 135.382 331.08 135.37C331.027 135.36 330.973 135.36 330.92 135.37C330.86 135.382 330.803 135.412 330.69 135.472L327.046 137.388C326.661 137.59 326.469 137.691 326.327 137.665C326.204 137.642 326.097 137.564 326.037 137.454C325.968 137.327 326.005 137.113 326.078 136.685L326.774 132.629C326.796 132.503 326.806 132.439 326.799 132.379C326.793 132.325 326.776 132.273 326.75 132.226C326.72 132.173 326.674 132.128 326.582 132.039L323.634 129.167C323.323 128.864 323.168 128.713 323.149 128.57C323.132 128.445 323.173 128.32 323.259 128.229C323.359 128.124 323.573 128.093 324.002 128.03L328.078 127.434C328.205 127.415 328.269 127.406 328.324 127.381C328.373 127.358 328.417 127.326 328.453 127.286C328.495 127.242 328.523 127.184 328.58 127.069L330.402 123.378Z" fill="black" fill-opacity="0.2"/>
<path d="M350.402 123.378C350.594 122.989 350.69 122.794 350.821 122.732C350.934 122.678 351.066 122.678 351.179 122.732C351.31 122.794 351.406 122.989 351.598 123.378L353.42 127.069C353.477 127.184 353.505 127.242 353.546 127.286C353.583 127.326 353.627 127.358 353.676 127.381C353.731 127.406 353.795 127.415 353.921 127.434L357.997 128.03C358.427 128.093 358.641 128.124 358.74 128.229C358.827 128.32 358.868 128.445 358.851 128.57C358.832 128.713 358.677 128.864 358.366 129.167L355.418 132.039C355.326 132.128 355.28 132.173 355.25 132.226C355.224 132.273 355.207 132.325 355.201 132.379C355.193 132.439 355.204 132.503 355.226 132.629L355.921 136.685C355.995 137.113 356.032 137.327 355.963 137.454C355.903 137.564 355.796 137.642 355.672 137.665C355.53 137.691 355.338 137.59 354.954 137.388L351.31 135.472C351.197 135.412 351.14 135.382 351.08 135.37C351.027 135.36 350.973 135.36 350.92 135.37C350.86 135.382 350.803 135.412 350.69 135.472L347.046 137.388C346.661 137.59 346.469 137.691 346.327 137.665C346.204 137.642 346.097 137.564 346.037 137.454C345.968 137.327 346.005 137.113 346.078 136.685L346.774 132.629C346.796 132.503 346.806 132.439 346.799 132.379C346.793 132.325 346.776 132.273 346.75 132.226C346.72 132.173 346.674 132.128 346.582 132.039L343.634 129.167C343.323 128.864 343.168 128.713 343.149 128.57C343.132 128.445 343.173 128.32 343.259 128.229C343.359 128.124 343.573 128.093 344.002 128.03L348.078 127.434C348.205 127.415 348.269 127.406 348.324 127.381C348.373 127.358 348.417 127.326 348.453 127.286C348.495 127.242 348.523 127.184 348.58 127.069L350.402 123.378Z" fill="#111111"/>
</svg>
