<svg width="26" height="31" viewBox="0 0 26 31" fill="none" xmlns="http://www.w3.org/2000/svg">
<path d="M12.6687 28.5756H12.6998C13.0821 28.3378 13.5176 28.0556 13.9865 27.7423C15.3404 26.8378 16.6438 25.86 17.8909 24.8134C21.3132 21.9245 23.3532 19.1511 23.3532 16.9023V6.94226C23.3532 5.78893 23.4865 6.06893 23.1021 5.9867C22.9754 5.96004 22.8509 5.93559 22.5554 5.88226C20.8958 5.58582 19.274 5.1066 17.7198 4.45337C16.1364 3.78258 14.6041 2.99678 13.1354 2.10226C12.9843 2.0067 12.8309 1.91781 12.6754 1.83337C12.5932 1.87559 12.4865 1.93781 12.2176 2.10226C10.7478 2.99898 9.21318 3.78486 7.6265 4.45337C6.07095 5.12004 2.90206 5.99781 1.26873 6.29781C1.02912 6.34243 0.78158 6.29131 0.579241 6.15545C0.376903 6.01959 0.2359 5.80981 0.186504 5.57115C0.147805 5.33179 0.204925 5.08682 0.3455 4.88927C0.486075 4.69172 0.698794 4.55747 0.937614 4.51559C2.44428 4.24004 5.47539 3.40448 6.90873 2.7867C8.41219 2.15486 9.86657 1.41207 11.2598 0.564481C12.0265 0.0955924 12.2154 0.0022589 12.6687 3.66732e-05C13.1221 -0.00218555 13.3354 0.0955924 14.0932 0.564481C15.4823 1.40984 16.9313 2.15256 18.4287 2.7867C19.8576 3.38595 21.3481 3.82637 22.8732 4.10004C23.1887 4.15781 23.3176 4.18448 23.4732 4.21559C25.1643 4.57782 25.1665 4.58004 25.1665 6.9467V16.9C25.1665 19.8534 22.8665 22.9778 19.0598 26.1911C16.6509 28.2245 13.1865 30.5511 12.6665 30.5511C12.1465 30.5511 8.71762 28.2223 6.31539 26.18C2.53762 22.9689 0.226504 19.8511 0.166504 16.9178V5.42226C0.166504 4.92226 0.575392 4.71337 1.07984 4.71337C1.20004 4.7119 1.31935 4.73424 1.43089 4.77909C1.54243 4.82394 1.64398 4.89043 1.72971 4.9747C1.81543 5.05898 1.88363 5.1594 1.93038 5.27015C1.97712 5.38091 2.00148 5.49982 2.00206 5.62004V16.9C2.0465 19.1223 4.10206 21.9067 7.51317 24.8045C8.75096 25.8517 10.0447 26.8309 11.3887 27.7378C11.8532 28.0556 12.2776 28.3356 12.6643 28.5756H12.6687ZM20.3198 9.9267L20.8176 10.4311C20.9467 10.5607 21.0191 10.7361 21.0191 10.9189C21.0191 11.1018 20.9467 11.2772 20.8176 11.4067L11.7065 20.62C11.5761 20.75 11.3995 20.823 11.2154 20.823C11.0313 20.823 10.8547 20.75 10.7243 20.62L5.91762 15.7623C5.7895 15.6318 5.71771 15.4562 5.71771 15.2734C5.71771 15.0905 5.7895 14.915 5.91762 14.7845L6.41762 14.28C6.48203 14.2154 6.55857 14.1641 6.64284 14.1291C6.72712 14.0941 6.81747 14.0761 6.90873 14.0761C6.99998 14.0761 7.09033 14.0941 7.17461 14.1291C7.25888 14.1641 7.33542 14.2154 7.39984 14.28L11.2087 18.1356L19.3176 9.9267C19.448 9.7967 19.6246 9.7237 19.8087 9.7237C19.9928 9.7237 20.1695 9.7967 20.2998 9.9267H20.3198Z" fill="#0D0D0D"/>
</svg>
