<svg width="37" height="36" viewBox="0 0 37 36" fill="none" xmlns="http://www.w3.org/2000/svg">
<g clip-path="url(#clip0_854_10317)">
<path d="M34.9085 18.3042H35.4998L32.5433 5H22.1956C13.7697 5 8.30018 13.426 2.97852 22.7389H31.0651C31.0651 20.5215 32.6912 18.5998 34.9085 18.3042Z" stroke="#0D0D0D" stroke-width="1.5" stroke-linecap="round" stroke-linejoin="round"/>
<path d="M19.978 16.0868L24.4127 15.3477M2.97824 22.7389L1.5 25.6954H32.5431L31.0648 22.7389M4.45648 28.6519V30.1301M10.3694 28.6519V30.1301M16.2824 28.6519V30.1301M22.1954 28.6519V30.1301M28.1083 28.6519V30.1301M32.5431 5H35.4995M11.8477 18.3042C15.3955 12.6869 18.2041 9.43472 22.1954 9.43472H28.8475L30.3257 15.3477L11.8477 18.3042Z" stroke="#0D0D0D" stroke-width="1.5" stroke-linecap="round" stroke-linejoin="round"/>
</g>
<defs>
<clipPath id="clip0_854_10317">
<rect width="36" height="36" fill="white" transform="translate(0.5)"/>
</clipPath>
</defs>
</svg>
