<svg width="159" height="44" viewBox="0 0 159 44" fill="none" xmlns="http://www.w3.org/2000/svg">
<rect x="0.5" width="158.5" height="44" rx="4" fill="white"/>
<rect width="24" height="24" transform="translate(33.25 10)" fill="white"/>
<path fill-rule="evenodd" clip-rule="evenodd" d="M56.29 22.2605C56.29 21.445 56.2168 20.6609 56.0809 19.9082H45.25V24.3566H51.4391C51.1725 25.7941 50.3623 27.0121 49.1443 27.8275V30.713H52.8609C55.0355 28.7109 56.29 25.7627 56.29 22.2605Z" fill="#4285F4"/>
<path fill-rule="evenodd" clip-rule="evenodd" d="M45.25 33.5005C48.355 33.5005 50.9581 32.4708 52.8609 30.7144L49.1443 27.829C48.1145 28.519 46.7972 28.9267 45.25 28.9267C42.2547 28.9267 39.7195 26.9037 38.8152 24.1855H34.9731V27.1651C36.8654 30.9235 40.7545 33.5005 45.25 33.5005Z" fill="#34A853"/>
<path fill-rule="evenodd" clip-rule="evenodd" d="M38.8152 24.1855C38.5852 23.4955 38.4545 22.7584 38.4545 22.0005C38.4545 21.2425 38.5852 20.5055 38.8152 19.8155V16.8359H34.9732C34.1943 18.3884 33.75 20.1448 33.75 22.0005C33.75 23.8562 34.1943 25.6125 34.9732 27.165L38.8152 24.1855Z" fill="#FBBC05"/>
<path fill-rule="evenodd" clip-rule="evenodd" d="M45.25 15.0739C46.9384 15.0739 48.4543 15.6541 49.6461 16.7936L52.9445 13.4952C50.9529 11.6395 48.3497 10.5 45.25 10.5C40.7545 10.5 36.8654 13.077 34.9731 16.8355L38.8152 19.815C39.7195 17.0968 42.2547 15.0739 45.25 15.0739Z" fill="#EA4335"/>
<path d="M72.576 22.214H77.022V28.514C76.326 28.742 75.624 28.91 74.916 29.018C74.208 29.126 73.404 29.18 72.504 29.18C71.172 29.18 70.05 28.916 69.138 28.388C68.226 27.848 67.53 27.086 67.05 26.102C66.582 25.106 66.348 23.93 66.348 22.574C66.348 21.23 66.612 20.066 67.14 19.082C67.668 18.098 68.424 17.336 69.408 16.796C70.404 16.244 71.604 15.968 73.008 15.968C73.728 15.968 74.406 16.034 75.042 16.166C75.69 16.298 76.29 16.484 76.842 16.724L76.23 18.128C75.774 17.924 75.258 17.75 74.682 17.606C74.118 17.462 73.53 17.39 72.918 17.39C71.898 17.39 71.022 17.6 70.29 18.02C69.558 18.44 69 19.04 68.616 19.82C68.232 20.588 68.04 21.506 68.04 22.574C68.04 23.594 68.202 24.5 68.526 25.292C68.862 26.072 69.384 26.684 70.092 27.128C70.8 27.56 71.73 27.776 72.882 27.776C73.266 27.776 73.602 27.764 73.89 27.74C74.19 27.704 74.46 27.662 74.7 27.614C74.952 27.566 75.186 27.518 75.402 27.47V23.654H72.576V22.214ZM88.2637 24.158C88.2637 24.962 88.1557 25.676 87.9397 26.3C87.7357 26.912 87.4357 27.434 87.0397 27.866C86.6557 28.298 86.1817 28.628 85.6177 28.856C85.0657 29.072 84.4477 29.18 83.7637 29.18C83.1277 29.18 82.5397 29.072 81.9997 28.856C81.4597 28.628 80.9917 28.298 80.5957 27.866C80.1997 27.434 79.8877 26.912 79.6597 26.3C79.4437 25.676 79.3357 24.962 79.3357 24.158C79.3357 23.09 79.5157 22.19 79.8757 21.458C80.2357 20.714 80.7517 20.15 81.4237 19.766C82.0957 19.37 82.8937 19.172 83.8177 19.172C84.6937 19.172 85.4617 19.37 86.1217 19.766C86.7937 20.15 87.3157 20.714 87.6877 21.458C88.0717 22.19 88.2637 23.09 88.2637 24.158ZM80.9737 24.158C80.9737 24.914 81.0697 25.574 81.2617 26.138C81.4657 26.69 81.7777 27.116 82.1977 27.416C82.6177 27.716 83.1517 27.866 83.7997 27.866C84.4477 27.866 84.9817 27.716 85.4017 27.416C85.8217 27.116 86.1277 26.69 86.3197 26.138C86.5237 25.574 86.6257 24.914 86.6257 24.158C86.6257 23.39 86.5237 22.736 86.3197 22.196C86.1157 21.656 85.8037 21.242 85.3837 20.954C84.9757 20.654 84.4417 20.504 83.7817 20.504C82.7977 20.504 82.0837 20.828 81.6397 21.476C81.1957 22.124 80.9737 23.018 80.9737 24.158ZM99.1621 24.158C99.1621 24.962 99.0541 25.676 98.8381 26.3C98.6341 26.912 98.3341 27.434 97.9381 27.866C97.5541 28.298 97.0801 28.628 96.5161 28.856C95.9641 29.072 95.3461 29.18 94.6621 29.18C94.0261 29.18 93.4381 29.072 92.8981 28.856C92.3581 28.628 91.8901 28.298 91.4941 27.866C91.0981 27.434 90.7861 26.912 90.5581 26.3C90.3421 25.676 90.2341 24.962 90.2341 24.158C90.2341 23.09 90.4141 22.19 90.7741 21.458C91.1341 20.714 91.6501 20.15 92.3221 19.766C92.9941 19.37 93.7921 19.172 94.7161 19.172C95.5921 19.172 96.3601 19.37 97.0201 19.766C97.6921 20.15 98.2141 20.714 98.5861 21.458C98.9701 22.19 99.1621 23.09 99.1621 24.158ZM91.8721 24.158C91.8721 24.914 91.9681 25.574 92.1601 26.138C92.3641 26.69 92.6761 27.116 93.0961 27.416C93.5161 27.716 94.0501 27.866 94.6981 27.866C95.3461 27.866 95.8801 27.716 96.3001 27.416C96.7201 27.116 97.0261 26.69 97.2181 26.138C97.4221 25.574 97.5241 24.914 97.5241 24.158C97.5241 23.39 97.4221 22.736 97.2181 22.196C97.0141 21.656 96.7021 21.242 96.2821 20.954C95.8741 20.654 95.3401 20.504 94.6801 20.504C93.6961 20.504 92.9821 20.828 92.5381 21.476C92.0941 22.124 91.8721 23.018 91.8721 24.158ZM105.093 19.172C105.729 19.172 106.299 19.292 106.803 19.532C107.319 19.772 107.757 20.138 108.117 20.63H108.207L108.423 19.352H109.683V29.162C109.683 30.074 109.527 30.836 109.215 31.448C108.903 32.072 108.429 32.54 107.793 32.852C107.157 33.164 106.347 33.32 105.363 33.32C104.667 33.32 104.025 33.266 103.437 33.158C102.861 33.062 102.345 32.912 101.889 32.708V31.25C102.201 31.406 102.543 31.538 102.915 31.646C103.287 31.766 103.689 31.856 104.121 31.916C104.553 31.976 104.997 32.006 105.453 32.006C106.281 32.006 106.929 31.76 107.397 31.268C107.877 30.788 108.117 30.128 108.117 29.288V28.91C108.117 28.766 108.123 28.562 108.135 28.298C108.147 28.022 108.159 27.83 108.171 27.722H108.099C107.763 28.214 107.343 28.58 106.839 28.82C106.347 29.06 105.771 29.18 105.111 29.18C103.863 29.18 102.885 28.742 102.177 27.866C101.481 26.99 101.133 25.766 101.133 24.194C101.133 23.162 101.289 22.274 101.601 21.53C101.925 20.774 102.381 20.192 102.969 19.784C103.557 19.376 104.265 19.172 105.093 19.172ZM105.309 20.504C104.769 20.504 104.307 20.648 103.923 20.936C103.551 21.224 103.263 21.644 103.059 22.196C102.867 22.748 102.771 23.42 102.771 24.212C102.771 25.4 102.987 26.312 103.419 26.948C103.863 27.572 104.505 27.884 105.345 27.884C105.837 27.884 106.257 27.824 106.605 27.704C106.953 27.572 107.241 27.374 107.469 27.11C107.697 26.834 107.865 26.486 107.973 26.066C108.081 25.646 108.135 25.148 108.135 24.572V24.194C108.135 23.318 108.033 22.61 107.829 22.07C107.637 21.53 107.331 21.134 106.911 20.882C106.491 20.63 105.957 20.504 105.309 20.504ZM114.331 29H112.747V15.32H114.331V29ZM121.113 19.172C121.941 19.172 122.649 19.352 123.237 19.712C123.837 20.072 124.293 20.582 124.605 21.242C124.929 21.89 125.091 22.652 125.091 23.528V24.482H118.485C118.509 25.574 118.785 26.408 119.313 26.984C119.853 27.548 120.603 27.83 121.563 27.83C122.175 27.83 122.715 27.776 123.183 27.668C123.663 27.548 124.155 27.38 124.659 27.164V28.55C124.167 28.766 123.681 28.922 123.201 29.018C122.721 29.126 122.151 29.18 121.491 29.18C120.579 29.18 119.769 28.994 119.061 28.622C118.365 28.25 117.819 27.698 117.423 26.966C117.039 26.222 116.847 25.316 116.847 24.248C116.847 23.192 117.021 22.286 117.369 21.53C117.729 20.774 118.227 20.192 118.863 19.784C119.511 19.376 120.261 19.172 121.113 19.172ZM121.095 20.468C120.339 20.468 119.739 20.714 119.295 21.206C118.863 21.686 118.605 22.358 118.521 23.222H123.435C123.435 22.67 123.351 22.19 123.183 21.782C123.015 21.374 122.757 21.056 122.409 20.828C122.073 20.588 121.635 20.468 121.095 20.468Z" fill="black" fill-opacity="0.5"/>
</svg>
