<svg width="159" height="44" viewBox="0 0 159 44" fill="none" xmlns="http://www.w3.org/2000/svg">
<rect width="158.5" height="44" rx="4" fill="white"/>
<path d="M60.0308 28.424C59.683 29.2275 59.2713 29.9672 58.7942 30.6472C58.144 31.5743 57.6116 32.216 57.2013 32.5724C56.5653 33.1573 55.8838 33.4568 55.1541 33.4739C54.6302 33.4739 53.9985 33.3248 53.263 33.0224C52.5252 32.7214 51.8472 32.5724 51.2272 32.5724C50.577 32.5724 49.8796 32.7214 49.1337 33.0224C48.3866 33.3248 47.7848 33.4824 47.3247 33.498C46.6249 33.5278 45.9274 33.2197 45.2312 32.5724C44.7868 32.1848 44.231 31.5204 43.5651 30.5791C42.8507 29.5739 42.2634 28.4084 41.8033 27.0795C41.3105 25.6442 41.0635 24.2543 41.0635 22.9087C41.0635 21.3673 41.3965 20.0379 42.0637 18.9238C42.588 18.029 43.2855 17.3231 44.1584 16.8049C45.0314 16.2867 45.9747 16.0227 46.9905 16.0058C47.5463 16.0058 48.2752 16.1777 49.181 16.5156C50.0842 16.8546 50.6641 17.0265 50.9184 17.0265C51.1085 17.0265 51.7528 16.8255 52.8449 16.4247C53.8778 16.0531 54.7495 15.8992 55.4636 15.9598C57.3987 16.1159 58.8524 16.8788 59.8193 18.253C58.0886 19.3016 57.2326 20.7703 57.2496 22.6544C57.2652 24.122 57.7976 25.3432 58.8439 26.3129C59.3181 26.7629 59.8477 27.1107 60.4368 27.3578C60.3091 27.7283 60.1742 28.0832 60.0308 28.424ZM55.5928 10.9601C55.5928 12.1104 55.1726 13.1844 54.3349 14.1785C53.3241 15.3602 52.1014 16.0431 50.7756 15.9354C50.7587 15.7974 50.7489 15.6521 50.7489 15.4995C50.7489 14.3953 51.2296 13.2135 52.0833 12.2472C52.5095 11.758 53.0515 11.3512 53.7088 11.0267C54.3647 10.7071 54.9852 10.5303 55.5687 10.5C55.5857 10.6538 55.5928 10.8076 55.5928 10.9601V10.9601Z" fill="#111111"/>
<path d="M80.56 29L79.012 25.022H73.918L72.388 29H70.75L75.772 16.094H77.23L82.234 29H80.56ZM77.086 19.694C77.05 19.598 76.99 19.424 76.906 19.172C76.822 18.92 76.738 18.662 76.654 18.398C76.582 18.122 76.522 17.912 76.474 17.768C76.414 18.008 76.348 18.254 76.276 18.506C76.216 18.746 76.15 18.968 76.078 19.172C76.018 19.376 75.964 19.55 75.916 19.694L74.458 23.582H78.526L77.086 19.694ZM88.3661 19.172C89.5541 19.172 90.5081 19.586 91.2281 20.414C91.9601 21.242 92.3261 22.49 92.3261 24.158C92.3261 25.25 92.1581 26.174 91.8221 26.93C91.4981 27.674 91.0361 28.238 90.4361 28.622C89.8481 28.994 89.1521 29.18 88.3481 29.18C87.8561 29.18 87.4181 29.114 87.0341 28.982C86.6501 28.85 86.3201 28.682 86.0441 28.478C85.7801 28.262 85.5521 28.028 85.3601 27.776H85.2521C85.2761 27.98 85.3001 28.238 85.3241 28.55C85.3481 28.862 85.3601 29.132 85.3601 29.36V33.32H83.7761V19.352H85.0721L85.2881 20.666H85.3601C85.5521 20.39 85.7801 20.138 86.0441 19.91C86.3201 19.682 86.6441 19.502 87.0161 19.37C87.4001 19.238 87.8501 19.172 88.3661 19.172ZM88.0781 20.504C87.4301 20.504 86.9081 20.63 86.5121 20.882C86.1161 21.122 85.8281 21.488 85.6481 21.98C85.4681 22.472 85.3721 23.096 85.3601 23.852V24.158C85.3601 24.95 85.4441 25.622 85.6121 26.174C85.7801 26.726 86.0621 27.146 86.4581 27.434C86.8661 27.722 87.4181 27.866 88.1141 27.866C88.7021 27.866 89.1821 27.704 89.5541 27.38C89.9381 27.056 90.2201 26.618 90.4001 26.066C90.5921 25.502 90.6881 24.86 90.6881 24.14C90.6881 23.036 90.4721 22.154 90.0401 21.494C89.6201 20.834 88.9661 20.504 88.0781 20.504ZM99.4403 19.172C100.628 19.172 101.582 19.586 102.302 20.414C103.034 21.242 103.4 22.49 103.4 24.158C103.4 25.25 103.232 26.174 102.896 26.93C102.572 27.674 102.11 28.238 101.51 28.622C100.922 28.994 100.226 29.18 99.4223 29.18C98.9303 29.18 98.4923 29.114 98.1083 28.982C97.7243 28.85 97.3943 28.682 97.1183 28.478C96.8543 28.262 96.6263 28.028 96.4343 27.776H96.3263C96.3503 27.98 96.3743 28.238 96.3983 28.55C96.4223 28.862 96.4343 29.132 96.4343 29.36V33.32H94.8503V19.352H96.1463L96.3623 20.666H96.4343C96.6263 20.39 96.8543 20.138 97.1183 19.91C97.3943 19.682 97.7183 19.502 98.0903 19.37C98.4743 19.238 98.9243 19.172 99.4403 19.172ZM99.1523 20.504C98.5043 20.504 97.9823 20.63 97.5863 20.882C97.1903 21.122 96.9023 21.488 96.7223 21.98C96.5423 22.472 96.4463 23.096 96.4343 23.852V24.158C96.4343 24.95 96.5183 25.622 96.6863 26.174C96.8543 26.726 97.1363 27.146 97.5323 27.434C97.9403 27.722 98.4923 27.866 99.1883 27.866C99.7763 27.866 100.256 27.704 100.628 27.38C101.012 27.056 101.294 26.618 101.474 26.066C101.666 25.502 101.762 24.86 101.762 24.14C101.762 23.036 101.546 22.154 101.114 21.494C100.694 20.834 100.04 20.504 99.1523 20.504ZM107.509 29H105.925V15.32H107.509V29ZM114.291 19.172C115.119 19.172 115.827 19.352 116.415 19.712C117.015 20.072 117.471 20.582 117.783 21.242C118.107 21.89 118.269 22.652 118.269 23.528V24.482H111.663C111.687 25.574 111.963 26.408 112.491 26.984C113.031 27.548 113.781 27.83 114.741 27.83C115.353 27.83 115.893 27.776 116.361 27.668C116.841 27.548 117.333 27.38 117.837 27.164V28.55C117.345 28.766 116.859 28.922 116.379 29.018C115.899 29.126 115.329 29.18 114.669 29.18C113.757 29.18 112.947 28.994 112.239 28.622C111.543 28.25 110.997 27.698 110.601 26.966C110.217 26.222 110.025 25.316 110.025 24.248C110.025 23.192 110.199 22.286 110.547 21.53C110.907 20.774 111.405 20.192 112.041 19.784C112.689 19.376 113.439 19.172 114.291 19.172ZM114.273 20.468C113.517 20.468 112.917 20.714 112.473 21.206C112.041 21.686 111.783 22.358 111.699 23.222H116.613C116.613 22.67 116.529 22.19 116.361 21.782C116.193 21.374 115.935 21.056 115.587 20.828C115.251 20.588 114.813 20.468 114.273 20.468Z" fill="#111111"/>
</svg>
