<svg width="26" height="31" viewBox="0 0 26 31" fill="none" xmlns="http://www.w3.org/2000/svg"><path d="M12.669 28.576h.03c.383-.238.819-.52 1.287-.834a44.706 44.706 0 003.905-2.929c3.422-2.889 5.462-5.662 5.462-7.91v-9.96c0-1.154.133-.874-.25-.956a17.853 17.853 0 00-.548-.105 22.85 22.85 0 01-4.835-1.429 35.24 35.24 0 01-4.585-2.35 8.008 8.008 0 00-.46-.27 7.811 7.811 0 00-.457.27 34.637 34.637 0 01-4.591 2.35C6.07 5.12 2.902 5.998 1.269 6.298A.931.931 0 01.187 5.57a.922.922 0 01.75-1.055c1.507-.276 4.538-1.112 5.972-1.73a32.887 32.887 0 004.35-2.222c.768-.468.956-.562 1.41-.564.453-.002.666.096 1.424.564a33.375 33.375 0 004.336 2.223c1.429.599 2.92 1.04 4.444 1.313.316.058.445.084.6.116 1.691.362 1.694.364 1.694 2.73V16.9c0 2.953-2.3 6.078-6.107 9.291-2.41 2.034-5.873 4.36-6.393 4.36-.52 0-3.95-2.329-6.352-4.371C2.538 22.969.227 19.851.167 16.918V5.422c0-.5.408-.709.913-.709a.911.911 0 01.922.907V16.9c.045 2.222 2.1 5.007 5.511 7.905a44.784 44.784 0 003.876 2.933c.464.318.889.598 1.275.838h.005zm7.65-18.65l.499.505a.691.691 0 010 .976l-9.112 9.213a.696.696 0 01-.982 0l-4.806-4.858a.698.698 0 010-.978l.5-.504a.694.694 0 01.982 0l3.809 3.856 8.109-8.21a.696.696 0 01.982 0h.02z" fill="#0D0D0D"/></svg>