<svg width="37" height="36" viewBox="0 0 37 36" fill="none" xmlns="http://www.w3.org/2000/svg"><g clip-path="url(#clip0_854_10317)" stroke="#0D0D0D" stroke-width="1.5" stroke-linecap="round" stroke-linejoin="round"><path d="M34.908 18.304h.592L32.543 5H22.196C13.77 5 8.3 13.426 2.979 22.739h28.086c0-2.218 1.626-4.14 3.843-4.435z"/><path d="M19.978 16.087l4.435-.74M2.978 22.74L1.5 25.695h31.043l-1.478-2.956M4.456 28.652v1.478m5.913-1.478v1.478m5.913-1.478v1.478m5.913-1.478v1.478m5.913-1.478v1.478M32.543 5H35.5M11.848 18.304c3.547-5.617 6.356-8.87 10.347-8.87h6.652l1.479 5.914-18.478 2.956z"/></g><defs><clipPath id="clip0_854_10317"><path fill="#fff" transform="translate(.5)" d="M0 0h36v36H0z"/></clipPath></defs></svg>