<svg width="16" height="17" viewBox="0 0 16 17" fill="none" xmlns="http://www.w3.org/2000/svg">
<path d="M7.66339 2.30937C7.8011 2.03034 8.19899 2.03034 8.3367 2.30937L10.1194 5.92145C10.1741 6.03226 10.2798 6.10906 10.402 6.12682L14.3882 6.70605C14.6961 6.75079 14.8191 7.12921 14.5963 7.3464L11.7119 10.158C11.6234 10.2443 11.583 10.3685 11.6039 10.4903L12.2848 14.4604C12.3374 14.7671 12.0155 15.0009 11.7401 14.8561L8.17475 12.9817C8.06538 12.9242 7.93472 12.9242 7.82535 12.9817L4.26001 14.8561C3.98459 15.0009 3.66269 14.7671 3.71529 14.4604L4.39621 10.4903C4.4171 10.3685 4.37672 10.2443 4.28824 10.158L1.40382 7.3464C1.181 7.12921 1.30396 6.75079 1.61189 6.70605L5.59806 6.12682C5.72033 6.10906 5.82604 6.03226 5.88073 5.92145L7.66339 2.30937Z" fill="#111111"/>
</svg>
