<svg width="63" height="21" viewBox="0 0 63 21" fill="none" xmlns="http://www.w3.org/2000/svg">
<g clip-path="url(#clip0_854_10758)">
<path fill-rule="evenodd" clip-rule="evenodd" d="M62.0523 12.1601C61.6327 11.4035 60.8094 11.1515 59.8774 11.1515H59.6443C58.4635 11.1515 57.6246 11.6555 57.6246 12.6485C57.6401 13.5938 58.0907 13.9404 59.3026 14.0664L60.53 14.1924C62.1764 14.3658 63.0001 14.7284 63.0001 16.1617C63.0001 17.706 61.7882 18.3517 60.0639 18.3517C58.479 18.3517 57.4849 18.084 56.8791 17.0914C56.7857 16.9494 56.8012 16.871 57.0343 16.7134C57.2826 16.5557 57.3605 16.5714 57.4536 16.7291C57.8732 17.501 58.712 17.7377 59.8619 17.7377H60.1725C61.4155 17.7377 62.2695 17.2334 62.2695 16.2407C62.2543 15.2951 61.8037 14.9647 60.4987 14.8384L59.2868 14.7127C57.7025 14.5391 56.8944 14.1608 56.8944 12.7271C56.8944 11.1832 58.1062 10.5372 59.7532 10.5372C61.0269 10.5372 62.0365 10.8049 62.627 11.7975C62.7201 11.9395 62.7049 12.0341 62.4719 12.1758C62.2233 12.3488 62.1457 12.3175 62.0523 12.1601ZM54.9218 9.46557C54.7043 9.46557 54.5798 9.40288 54.5177 9.33957C54.4246 9.24522 54.3936 9.11891 54.3936 8.94589C54.3936 8.77257 54.4246 8.66224 54.5177 8.55191C54.5798 8.48891 54.7043 8.44189 54.9218 8.44189C55.1397 8.44189 55.2638 8.48891 55.3259 8.55191C55.419 8.66224 55.4503 8.77257 55.4503 8.94589C55.4503 9.11891 55.419 9.24522 55.3259 9.33957C55.2638 9.40288 55.1397 9.46557 54.9218 9.46557ZM52.3748 18.2574C52.0797 18.2574 52.0328 18.1944 52.0328 18.021V14.5708C52.0328 12.7115 51.8621 12.1285 51.5046 11.7662C51.1477 11.4035 50.5103 11.2145 49.4073 11.2145H49.1432C48.0402 11.2145 47.4034 11.4035 47.0462 11.7662C46.6884 12.1285 46.5177 12.7115 46.5177 14.5708V18.021C46.5177 18.1944 46.4714 18.2574 46.176 18.2574C45.8808 18.2574 45.8343 18.1944 45.8343 18.021V14.3658C45.8343 12.9005 46.005 12.0025 46.378 11.4982C46.9217 10.7892 47.885 10.5529 49.2676 10.5529C50.6502 10.5529 51.629 10.7892 52.1728 11.4982C52.5455 12.0025 52.7165 12.9005 52.7165 14.3658V18.021C52.7165 18.1944 52.6699 18.2574 52.3748 18.2574ZM43.6445 18.2574C43.3338 18.2574 43.2873 18.1944 43.2873 18.021V14.5708C43.2873 12.7115 43.1321 12.1285 42.8215 11.7662C42.5105 11.4035 41.9513 11.2145 40.9724 11.2145H40.7238C39.5119 11.2145 38.642 11.5455 38.642 12.4908V18.021C38.642 18.1944 38.5955 18.2574 38.3004 18.2574C38.0052 18.2574 37.9431 18.1944 37.9431 18.021V12.4908C37.9431 11.5455 37.0729 11.2145 35.8614 11.2145H35.6283C34.6495 11.2145 34.0899 11.4035 33.7637 11.7662C33.4531 12.1285 33.2979 12.7115 33.2979 14.5708V18.021C33.2979 18.1944 33.2514 18.2574 32.9562 18.2574C32.6611 18.2574 32.6142 18.1944 32.6142 18.021V14.3658C32.6142 12.9005 32.7694 12.0025 33.1114 11.4982C33.6086 10.7892 34.4788 10.5529 35.7369 10.5529C36.9488 10.5529 37.8653 10.7735 38.3004 11.4825C38.7199 10.7735 39.6516 10.5529 40.8483 10.5529C42.1064 10.5529 42.9766 10.7892 43.489 11.4982C43.831 12.0025 43.9865 12.9005 43.9865 14.3658V18.021C43.9865 18.1944 43.9396 18.2574 43.6445 18.2574ZM27.2394 18.3517C25.9188 18.3517 24.8779 18.0367 24.3497 17.4224C23.7905 16.7764 23.4798 15.7364 23.4798 14.4444C23.4798 13.1685 23.7905 12.1285 24.3497 11.4825C24.8779 10.8522 25.9188 10.5372 27.2394 10.5372C28.5444 10.5372 29.5853 10.8522 30.1135 11.4825C30.6727 12.1285 30.9834 13.1685 30.9834 14.4444C30.9834 15.7364 30.6727 16.7764 30.1135 17.4224C29.5853 18.0367 28.5444 18.3517 27.2394 18.3517ZM29.5542 11.8922C29.2277 11.4982 28.4513 11.1675 27.3638 11.1675H27.0994C26.0119 11.1675 25.2352 11.4982 24.9245 11.8922C24.5207 12.3648 24.2101 13.1685 24.2101 14.4444C24.2101 15.7364 24.5207 16.5244 24.9245 16.997C25.2352 17.4067 26.0119 17.7377 27.0994 17.7377H27.3638C28.4513 17.7377 29.2277 17.4067 29.5542 16.997C29.9425 16.5244 30.2534 15.7364 30.2534 14.4444C30.2534 13.1685 29.9425 12.3648 29.5542 11.8922ZM11.0639 12.446C10.4522 12.446 10.3032 12.1006 10.3032 11.2227V11.2224C10.3032 10.3447 10.4522 9.99934 11.0639 9.99934C11.6756 9.99934 11.8245 10.3447 11.8245 11.2224V11.2227C11.8245 12.1006 11.6756 12.446 11.0639 12.446ZM54.9218 10.6319C55.2173 10.6319 55.2638 10.7105 55.2638 10.8679V18.021C55.2638 18.1944 55.2173 18.2574 54.9218 18.2574C54.6267 18.2574 54.5798 18.1944 54.5798 18.021V10.8679C54.5798 10.7105 54.6267 10.6319 54.9218 10.6319Z" fill="#595959"/>
<path d="M18.3056 20.9985C17.3389 20.9985 16.5897 20.7618 15.4424 20.0942C14.5194 19.5567 13.6566 18.9605 12.8783 18.3221C12.757 18.2224 12.6927 18.0676 12.7076 17.9099C12.7222 17.7519 12.8144 17.6125 12.9522 17.5379C15.726 16.0378 16.1521 15.8071 14.1188 11.5908C12.9093 9.0805 12.5642 8.58841 11.3225 8.58841C10.5067 8.58841 9.86051 8.87113 9.40306 9.4281C8.73644 10.2396 8.51206 11.5764 8.78734 13.0959C8.83358 13.3526 8.666 13.5993 8.41275 13.6463C8.16106 13.693 7.91682 13.5231 7.87027 13.2664C7.54503 11.4704 7.84265 9.85092 8.68679 8.82317C9.32082 8.05118 10.2323 7.6431 11.3225 7.6431C13.2544 7.6431 13.823 8.8238 14.9561 11.1755C17.1148 15.6516 16.5882 16.5741 14.021 18.0246C14.6094 18.4681 15.2413 18.8872 15.9067 19.2746C17.0379 19.9331 17.6018 20.0535 18.3056 20.0535C19.0293 20.0535 19.8927 19.8231 19.8927 18.7267C19.8927 17.7341 19.5737 15.3758 17.4391 10.7339C15.6624 6.86704 14.5622 5.74902 12.5341 5.74902C11.469 5.74902 10.7279 5.98441 9.56537 6.47901C9.44682 6.5301 9.31275 6.52821 9.19451 6.47493C9.07689 6.42133 8.98658 6.32072 8.94468 6.19754C8.83855 5.88599 8.74482 5.60108 8.65855 5.33811C8.14462 3.77753 7.91 3.0651 6.94824 2.10913C6.09913 1.26442 3.42613 0.671722 0.988374 1.06915C0.67896 3.39138 1.66151 6.2176 2.5131 7.00338C3.45034 7.86845 4.53562 8.22232 6.81262 8.40474C7.06927 8.42542 7.26075 8.65266 7.24027 8.91313C7.22041 9.17327 6.992 9.36572 6.73906 9.34692C4.60886 9.17641 3.13193 8.85263 1.88527 7.70233C0.684857 6.59466 -0.368454 3.16759 0.124064 0.573618C0.160064 0.384618 0.304995 0.236677 0.490891 0.199065C3.13813 -0.33189 6.39396 0.232916 7.60089 1.4343C8.72279 2.5495 9.0142 3.43369 9.54272 5.03878C9.58244 5.15977 9.62372 5.28514 9.66686 5.41553C10.5544 5.05759 11.3952 4.80371 12.5341 4.80371C15.2627 4.80371 16.5621 6.58714 18.2839 10.3342C20.3837 14.9006 20.8247 17.4188 20.8247 18.7267C20.8247 20.1281 19.8592 20.9985 18.3056 20.9985ZM18.5877 9.03819C20.4665 8.88774 21.7703 8.60126 22.8745 7.58229C23.9368 6.60156 24.8703 3.57223 24.4365 1.28072C24.4008 1.09172 24.2559 0.943782 24.0693 0.906483C21.7337 0.437901 18.8562 0.940021 17.7867 2.00444C16.9035 2.88205 16.6108 3.56533 16.195 4.81154C16.1124 5.05853 16.2431 5.32683 16.487 5.41051C16.7306 5.49389 16.9953 5.36162 17.0779 5.11432C17.4618 3.96402 17.6927 3.42147 18.4391 2.67926C19.1681 1.95366 21.4618 1.44496 23.5709 1.77689C23.8217 3.78568 22.9785 6.2082 22.2473 6.88333C21.4367 7.63087 20.4948 7.9371 18.5142 8.09601C18.2575 8.11669 18.066 8.34393 18.0865 8.60439C18.1054 8.85201 18.3097 9.03975 18.5502 9.03975C18.5629 9.03975 18.5753 9.03913 18.5877 9.03819Z" fill="#595959"/>
</g>
<defs>
<clipPath id="clip0_854_10758">
<rect width="63" height="21" fill="white"/>
</clipPath>
</defs>
</svg>
