<svg width="40" height="44" viewBox="0 0 40 44" fill="none" xmlns="http://www.w3.org/2000/svg">
<path d="M0.561902 41.7162L9.01967 43.9698C10.0059 44.2325 10.4267 42.7045 9.44119 42.4419L5.97164 41.5172L9.64158 27.7456C9.97866 27.7957 10.3165 27.8229 10.6528 27.8229C11.8523 27.8229 13.036 27.5073 14.1016 26.8897C14.8877 26.4373 15.5762 25.8334 16.1273 25.113C16.6784 24.3926 17.0811 23.5701 17.3121 22.693L20.7316 9.86182L22.7827 18.3446C23.5463 21.5022 26.3796 23.627 29.4935 23.627C29.7726 23.627 30.0531 23.6091 30.3358 23.574L33.6859 37.4258L30.1777 38.2745C29.1872 38.5143 29.6066 40.0422 30.5992 39.8025L39.1071 37.745C40.0975 37.5052 39.6782 35.9773 38.6855 36.217L35.226 37.0536L31.8759 23.2012C35.1222 22.0096 37.0366 18.5386 36.205 15.0991L32.7906 0.981096C32.7102 0.650584 32.502 0.365446 32.2117 0.188218C31.9213 0.0109891 31.5726 -0.0438606 31.2419 0.035699L20.3136 2.67866C19.9808 2.75953 19.6989 2.96493 19.5207 3.25692C19.3417 3.54963 19.2881 3.89386 19.3689 4.22665L20.0553 7.06427L9.27945 4.1923C8.95072 4.10513 8.60083 4.15196 8.30659 4.32249C8.01234 4.49303 7.79778 4.77334 7.70999 5.10191L3.96991 19.1376C3.05887 22.5571 4.89241 26.0724 8.11005 27.3377L4.4401 41.1086L0.98343 40.1875C-0.00347632 39.9256 -0.424288 41.4535 0.561902 41.7162ZM30.7445 21.8936C27.894 22.5828 25.0127 20.8251 24.3228 17.9739L22.2266 9.30718H33.1727L34.6635 15.4734C35.3541 18.3232 33.5957 21.2037 30.7445 21.8936ZM31.3213 1.64738L32.7906 7.72197H21.8444L20.9806 4.14864L31.3213 1.64738ZM9.1628 5.80255L19.4434 8.54213L18.6275 11.603H7.61695L9.1628 5.80255ZM5.50001 19.5462L7.19471 13.1875H18.2053L15.7806 22.2858C15.6024 22.9616 15.2921 23.5953 14.8674 24.1503C14.4427 24.7053 13.9122 25.1706 13.3065 25.5192C12.7028 25.8712 12.0352 26.0999 11.3425 26.192C10.6497 26.2842 9.9456 26.2379 9.27086 26.056C6.43682 25.3009 4.74498 22.381 5.50001 19.5462Z" fill="#0D0D0D"/>
<path d="M9.91568 17.5109C9.91568 17.2107 9.79643 16.9228 9.58417 16.7106C9.37192 16.4983 9.08403 16.379 8.78385 16.379C8.48367 16.379 8.19579 16.4983 7.98353 16.7106C7.77127 16.9228 7.65202 17.2107 7.65202 17.5109C7.65202 17.8111 7.77127 18.0989 7.98353 18.3112C8.19579 18.5235 8.48367 18.6427 8.78385 18.6427C9.08403 18.6427 9.37192 18.5235 9.58417 18.3112C9.79643 18.0989 9.91568 17.8111 9.91568 17.5109ZM14.516 16.8968C14.816 16.8968 15.1037 16.7777 15.3158 16.5655C15.5279 16.3534 15.6471 16.0657 15.6471 15.7657C15.6471 15.4657 15.5279 15.178 15.3158 14.9659C15.1037 14.7538 14.816 14.6346 14.516 14.6346C14.216 14.6346 13.9283 14.7538 13.7162 14.9659C13.5041 15.178 13.3849 15.4657 13.3849 15.7657C13.3849 16.0657 13.5041 16.3534 13.7162 16.5655C13.9283 16.7777 14.216 16.8968 14.516 16.8968ZM26.3768 12.0403C26.0766 12.0403 25.7887 12.1596 25.5764 12.3718C25.3642 12.5841 25.2449 12.872 25.2449 13.1721C25.2449 13.4723 25.3642 13.7602 25.5764 13.9725C25.7887 14.1847 26.0766 14.304 26.3768 14.304C26.6769 14.304 26.9648 14.1847 27.1771 13.9725C27.3893 13.7602 27.5086 13.4723 27.5086 13.1721C27.5086 12.872 27.3893 12.5841 27.1771 12.3718C26.9648 12.1596 26.6769 12.0403 26.3768 12.0403ZM30.9306 16.3794C30.6305 16.3794 30.3427 16.4986 30.1305 16.7108C29.9183 16.923 29.7991 17.2108 29.7991 17.5109C29.7991 17.811 29.9183 18.0988 30.1305 18.3109C30.3427 18.5231 30.6305 18.6423 30.9306 18.6423C31.2306 18.6423 31.5184 18.5231 31.7306 18.3109C31.9428 18.0988 32.062 17.811 32.062 17.5109C32.062 17.2108 31.9428 16.923 31.7306 16.7108C31.5184 16.4986 31.2306 16.3794 30.9306 16.3794ZM11.7871 23.4617C11.9358 23.4617 12.0831 23.4324 12.2204 23.3755C12.3578 23.3186 12.4826 23.2352 12.5877 23.13C12.6929 23.0249 12.7763 22.9001 12.8332 22.7627C12.8901 22.6254 12.9193 22.4781 12.9193 22.3295C12.9193 22.1808 12.8901 22.0336 12.8332 21.8962C12.7763 21.7588 12.6929 21.634 12.5877 21.5289C12.4826 21.4238 12.3578 21.3404 12.2204 21.2835C12.0831 21.2266 11.9358 21.1973 11.7871 21.1973C11.4869 21.1973 11.1989 21.3166 10.9866 21.5289C10.7742 21.7412 10.655 22.0292 10.655 22.3295C10.655 22.6297 10.7742 22.9177 10.9866 23.13C11.1989 23.3424 11.4869 23.4617 11.7871 23.4617Z" fill="#0D0D0D"/>
</svg>
