<svg width="54" height="32" viewBox="0 0 54 32" fill="none" xmlns="http://www.w3.org/2000/svg">
<path d="M8.91304 12.3043H13.4348C16.8261 12.3043 21.3478 15.9217 21.3478 17.5043V20.2174C15.9217 20.4435 10.9478 17.2783 8.91304 12.3043ZM45.087 12.3043H40.5652C37.1739 12.3043 32.6522 15.9217 32.6522 17.5043V20.2174C38.0783 20.4435 43.0522 17.2783 45.087 12.3043Z" fill="#0D0D0D"/>
<path d="M27 30.3913C29.2609 30.3913 29.2609 28.1304 39.4348 25.8696C49.6087 23.6087 53 13.4348 53 1C49.6087 5.52174 47.3478 3.26087 40.5652 3.26087C33.7826 3.26087 30.3913 10.0435 27 10.0435C23.6087 10.0435 20.2174 3.26087 13.4348 3.26087C6.65217 3.26087 4.3913 5.52174 1 1C1 13.4348 4.3913 23.6087 14.5652 25.8696C24.7391 28.1304 24.7391 30.3913 27 30.3913Z" stroke="#0D0D0D" stroke-width="1.5" stroke-linecap="round" stroke-linejoin="round"/>
<path d="M8.91304 12.3043H13.4348C16.8261 12.3043 21.3478 15.9217 21.3478 17.5043V20.2174C15.9217 20.4435 10.9478 17.2783 8.91304 12.3043ZM45.087 12.3043H40.5652C37.1739 12.3043 32.6522 15.9217 32.6522 17.5043V20.2174C38.0783 20.4435 43.0522 17.2783 45.087 12.3043Z" stroke="#0D0D0D" stroke-width="1.5" stroke-linecap="round" stroke-linejoin="round"/>
</svg>
