<svg width="49" height="42" viewBox="0 0 49 42" fill="none" xmlns="http://www.w3.org/2000/svg">
<path d="M24.4753 4.66849C24.0375 4.35475 23.5475 4.2402 23.0587 4.33757C22.36 4.4763 21.8025 5.01723 21.4327 5.49643C20.9605 5.11524 20.2955 4.7124 19.5808 4.74486C19.0838 4.76395 18.6345 4.98796 18.2813 5.39397C18.083 5.61905 17.9337 5.88299 17.8429 6.16897C17.7522 6.45494 17.7221 6.75668 17.7544 7.05495C17.7678 7.19814 17.7932 7.34069 17.8295 7.47433C18.1954 8.8833 19.7228 10.3088 21.6275 11.0197C21.773 11.0755 21.9298 11.0952 22.0847 11.0773C22.2395 11.0593 22.3876 11.0042 22.5165 10.9166C24.0808 9.86843 25.2021 8.29082 25.3714 6.90285C25.4031 6.66901 25.405 6.43207 25.3771 6.19773C25.2982 5.56325 24.9863 5.03441 24.4753 4.66849ZM24.1419 6.74694C24.019 7.74989 23.1408 8.96667 21.9374 9.81052C20.4947 9.2365 19.2824 8.13809 19.0285 7.15868C19.0091 7.08631 18.9959 7.01244 18.989 6.93786C18.9729 6.80684 18.9849 6.67388 19.0243 6.54789C19.0637 6.4219 19.1296 6.30577 19.2175 6.20728C19.3829 6.01636 19.5242 5.98709 19.6286 5.98327L19.6509 5.98264C19.9894 5.98264 20.4864 6.2671 20.9535 6.72785C21.0375 6.81219 21.1395 6.87643 21.2519 6.91576C21.3643 6.95509 21.4841 6.96849 21.6023 6.95497C21.7206 6.94144 21.8343 6.90133 21.9348 6.83764C22.0354 6.77395 22.1203 6.68834 22.183 6.58721C22.5394 6.01573 22.9677 5.61926 23.3005 5.55307C23.403 5.53334 23.5475 5.52825 23.7537 5.67589C23.9821 5.83945 24.1113 6.06028 24.1476 6.34983C24.1622 6.47138 24.1609 6.60312 24.1419 6.74694ZM25.4305 2.85478C25.2543 4.95868 26.6791 7.65952 28.9752 9.57251C29.1171 9.69169 29.2853 9.77519 29.466 9.81604C29.6467 9.85689 29.8345 9.85391 30.0138 9.80734C32.6968 9.11495 35.0152 7.48452 35.9183 5.65808C36.0729 5.35197 36.1855 5.03951 36.2543 4.72767C36.4401 3.86982 36.2766 3.04251 35.7821 2.33612C35.3589 1.73282 34.8052 1.37835 34.137 1.28289C33.031 1.12443 31.8982 1.74173 31.1657 2.26548C30.726 1.47763 29.9661 0.434585 28.8989 0.104935C28.2548 -0.0936185 27.6038 -0.0102521 26.9636 0.353763C26.2292 0.772508 25.7322 1.43372 25.526 2.26739C25.4783 2.46027 25.4464 2.65672 25.4305 2.85478ZM26.6664 2.95405C26.6766 2.82292 26.6977 2.69286 26.7294 2.56522C26.8542 2.06247 27.1393 1.68127 27.5771 1.43117C27.7998 1.30453 28.0124 1.24216 28.2205 1.24216C28.3255 1.24216 28.4292 1.25807 28.5329 1.28989C29.1152 1.46999 29.7586 2.18275 30.2518 3.19206C30.3084 3.31188 30.3914 3.41726 30.4947 3.50025C30.598 3.58324 30.7188 3.64165 30.8479 3.67108C30.9771 3.70051 31.1113 3.70018 31.2403 3.67011C31.3694 3.64004 31.4899 3.58103 31.5927 3.49753C31.9224 3.23407 33.066 2.38194 33.9614 2.51113C34.2815 2.55695 34.5449 2.73259 34.7664 3.04888C35.0661 3.47653 35.1565 3.94046 35.0426 4.46548C34.992 4.68766 34.9135 4.90255 34.809 5.10505C34.0727 6.59421 32.0414 7.99426 29.7408 8.5982C27.7884 6.95758 26.5245 4.64303 26.6664 2.95405ZM38.7725 12.8302C33.8818 11.0235 28.3363 12.0035 24.3073 15.1505C23.0643 14.1631 21.6721 13.3799 20.1829 12.8302C14.2644 10.6429 7.38825 12.54 3.39744 17.4128C-0.571087 22.2577 -1.13302 29.2599 2.08202 34.6546C5.31489 40.0766 11.7373 42.9264 17.9275 41.7293C20.2647 41.2763 22.4561 40.2601 24.3118 38.7688C27.7031 41.4143 32.168 42.5706 36.5139 41.7293C43.546 40.3713 48.5697 34.0551 48.6556 26.9651C48.5805 20.6858 44.6909 15.0143 38.7725 12.8302ZM27.2328 18.2446C29.667 16.478 32.8012 15.7277 35.8323 16.3723C40.8388 17.4351 44.3536 21.8873 44.4293 26.9644C44.3612 31.4771 41.5745 35.6142 37.2814 37.146C33.8742 38.3609 30.0794 37.7633 27.2175 35.6874C29.0325 33.1375 30.0267 30.0947 30.0673 26.9651C30.0313 23.8376 29.0425 20.7955 27.2328 18.2446ZM24.2895 21.4647C25.2764 23.1318 25.8106 25.0279 25.8391 26.9651C25.8104 28.903 25.28 30.8004 24.2997 32.4724C22.3447 29.1441 22.2817 24.886 24.2647 21.5048C24.2723 21.4921 24.28 21.4768 24.2895 21.4647ZM21.3672 18.2268C17.9682 23.0188 17.6329 29.5545 20.6716 34.6546C20.89 35.0208 21.1246 35.3771 21.3748 35.7224C20.5548 36.3255 19.6509 36.8051 18.6918 37.146C14.449 38.66 9.59843 37.3605 6.70858 33.896C3.82128 30.4366 3.40062 25.3925 5.67827 21.5048C8.00109 17.5363 12.7358 15.4152 17.2434 16.3723C18.7349 16.6882 20.1412 17.3206 21.3672 18.2268ZM38.1246 39.9983C33.738 41.5028 28.8906 40.6564 25.2695 37.9326C24.937 37.6827 24.6159 37.4179 24.3073 37.139C23.881 36.7534 23.4805 36.3401 23.1084 35.9019C23.0632 35.8542 23.0224 35.8039 22.9798 35.7536C22.7558 35.4844 22.5431 35.2061 22.3421 34.9193C19.2531 30.5403 18.9935 24.5512 21.7573 19.9126C21.9387 19.6078 22.1302 19.3125 22.3345 19.028C22.7652 19.4297 23.1621 19.866 23.5214 20.3326C21.0197 24.1624 20.8657 29.2395 23.2617 33.2004C23.3476 33.3417 23.4355 33.4798 23.5265 33.616C23.7632 33.9736 24.0178 34.316 24.2927 34.6437C24.6612 35.0901 25.0631 35.508 25.4948 35.8936C25.8022 36.173 26.1223 36.4333 26.4545 36.6751C29.1051 38.6104 32.5015 39.444 35.8349 38.8369C41.5414 37.8015 45.6035 32.6894 45.6888 26.9651C45.613 21.9312 42.524 17.3855 37.7721 15.6246C33.9626 14.2137 29.6664 14.9067 26.459 17.2448C26.0917 16.8072 25.6988 16.3917 25.2823 16.0007C28.3408 13.695 32.3118 12.6743 36.1792 13.4157C42.6723 14.6605 47.3186 20.4051 47.3962 26.9657C47.3262 32.7772 43.6701 38.0936 38.1246 39.9983Z" fill="#0D0D0D"/>
</svg>
