<svg width="34" height="44" viewBox="0 0 34 44" fill="none" xmlns="http://www.w3.org/2000/svg">
<path d="M20.7647 6.21941C17.8274 0.142725 9.79465 -1.98439 4.24835 2.11059C-1.99313 6.71796 -0.714924 15.3836 3.94022 20.6509C5.33338 22.2275 6.9938 23.6483 8.86196 24.6323C9.23309 24.8275 9.62362 25.0505 10.0252 25.198C10.0744 25.7111 10.2032 26.1681 10.4988 26.6064C10.8298 27.0959 11.3249 27.4248 11.3249 28.0736C11.3249 28.7169 10.8264 29.0575 10.4988 29.5409C10.18 30.0029 10.0097 30.5513 10.0107 31.1127C10.0107 31.6818 10.1803 32.2143 10.4988 32.6838C10.825 33.1657 11.3291 33.5077 11.3249 34.1496C11.3207 34.7915 10.8284 35.1273 10.4988 35.6162C10.1699 36.1029 10.0474 36.607 10.0107 37.188C9.94837 38.1733 11.4821 38.1691 11.5437 37.188C11.5846 36.5336 12.0312 36.222 12.3698 35.7214C12.6877 35.2591 12.858 34.7111 12.858 34.15C12.858 33.5888 12.6877 33.0409 12.3698 32.5785C12.0416 32.0924 11.5437 31.7594 11.5437 31.1127C11.5437 30.4639 12.0395 30.135 12.3698 29.6454C12.6878 29.1828 12.858 28.6346 12.858 28.0733C12.858 27.5119 12.6878 26.9637 12.3698 26.5011C12.0589 26.0414 11.6663 25.7429 11.5672 25.1966C12.3628 24.8968 13.1155 24.4806 13.8308 24.0167C15.4365 26.7289 17.8253 29.1247 20.5826 30.6224C20.9399 30.8163 21.4246 31.1133 21.9016 31.3058C21.9529 31.8044 22.083 32.2517 22.3725 32.6796C22.7035 33.1691 23.1985 33.498 23.1985 34.1468C23.1985 34.7901 22.7 35.1315 22.3725 35.6141C22.0538 36.0764 21.8837 36.625 21.885 37.1866C21.885 37.7557 22.0547 38.2882 22.3725 38.7577C22.6986 39.2396 23.2034 39.5823 23.1985 40.2242C23.1944 40.8661 22.7021 41.2019 22.3725 41.6908C22.0443 42.1775 21.9217 42.6816 21.885 43.2626C21.8227 44.2479 23.3557 44.2437 23.418 43.2626C23.4596 42.6082 23.9055 42.2966 24.2441 41.796C24.562 41.3338 24.7322 40.7859 24.7322 40.2249C24.7322 39.6639 24.562 39.1161 24.2441 38.6538C23.9159 38.1677 23.418 37.8347 23.418 37.188C23.418 36.5392 23.9138 36.2103 24.2441 35.7207C24.562 35.2581 24.7322 34.7099 24.7322 34.1486C24.7322 33.5872 24.562 33.0391 24.2441 32.5764C23.9443 32.1333 23.5662 31.8432 23.4506 31.3342C24.0516 31.1099 24.6872 30.7041 25.1221 30.4528C26.6156 29.5886 27.9721 28.4551 29.1527 27.2005C33.6285 22.4449 35.6684 14.4689 30.6144 9.3367C28.0309 6.71173 24.3452 5.64678 20.7647 6.21941ZM9.32865 23.1422C7.9265 22.3556 6.68083 21.319 5.57088 20.1613C3.39806 17.8929 1.82003 15.0519 1.5119 11.8876C1.2287 8.98495 2.09215 6.1571 4.22135 4.12346C6.21414 2.21999 8.98174 1.29561 11.7189 1.53726C14.9054 1.81839 17.8157 3.75301 19.26 6.59194C17.5776 7.15027 16.0466 8.08932 14.7863 9.336C11.284 12.9954 11.1476 18.2108 13.1217 22.6506C12.6405 22.9656 12.1461 23.2578 11.6247 23.5043C10.7017 23.9399 10.1769 23.6179 9.32865 23.1422Z" fill="#0D0D0D"/>
</svg>
