<svg width="46" height="38" viewBox="0 0 46 38" fill="none" xmlns="http://www.w3.org/2000/svg">
<path d="M3.84211 6.6842H41.7368C43.2526 6.6842 44.5789 8.01052 44.5789 9.52631V34.1579C44.5789 35.6737 43.2526 37 41.7368 37H3.84211C2.32632 37 1 35.6737 1 34.1579V9.52631C1 8.01052 2.32632 6.6842 3.84211 6.6842Z" stroke="#0D0D0D" stroke-width="1.5" stroke-linecap="round" stroke-linejoin="round"/>
<path d="M17.1058 1H28.4742C29.99 1 31.3163 2.32632 31.3163 3.84211V6.68421H14.2637V3.84211C14.2637 2.32632 15.59 1 17.1058 1Z" stroke="#0D0D0D" stroke-width="1.5" stroke-linecap="round" stroke-linejoin="round"/>
<path d="M19.9474 19.9473H3.84211C2.32632 19.9473 1 18.621 1 17.1052" stroke="#0D0D0D" stroke-width="1.5" stroke-linecap="round" stroke-linejoin="round"/>
<path d="M44.5792 17.1052C44.5792 18.621 43.2529 19.9473 41.7371 19.9473H25.6318" stroke="#0D0D0D" stroke-width="1.5" stroke-linecap="round" stroke-linejoin="round"/>
<path d="M25.6315 18.0527H19.9473V23.7369H25.6315V18.0527Z" fill="#0D0D0D" stroke="#0D0D0D" stroke-width="1.5" stroke-linecap="round" stroke-linejoin="round"/>
</svg>
