<svg width="49" height="49" viewBox="0 0 49 49" fill="none" xmlns="http://www.w3.org/2000/svg">
<path d="M35.7391 19.3913L28.3826 2.83913C27.9739 1.81739 26.7478 1 25.5217 1H23.4783L25.9304 20.0043C20.2087 20.6174 13.2609 21.4348 8.15217 22.2522L6.1087 17.3478H3.04348L3.86087 23.2739C2.02174 23.6826 1 24.0913 1 24.5C1 24.9087 2.02174 25.3174 3.86087 25.7261L3.04348 31.6522H6.1087L8.15217 26.7478C13.2609 27.5652 20.0043 28.587 25.9304 28.9957L23.4783 48H25.5217C26.7478 48 27.7696 47.387 28.3826 46.1609L35.7391 29.6087C41.8696 29.6087 48 27.5652 48 24.5C48 21.4348 41.8696 19.3913 35.7391 19.3913Z" stroke="#0D0D0D" stroke-width="1.5" stroke-linecap="round" stroke-linejoin="round"/>
<path d="M39.8261 22.4565V26.5435C40.4391 26.5435 40.8478 25.7261 40.8478 24.5C40.8478 23.2739 40.4391 22.4565 39.8261 22.4565Z" stroke="#0D0D0D" stroke-width="1.5" stroke-linecap="round" stroke-linejoin="round"/>
</svg>
